<svg xmlns="http://www.w3.org/2000/svg" width="18.683" height="17.643" viewBox="0 0 18.683 17.643"><defs><style>.a{fill:#fff;}</style></defs><g transform="translate(-164.482 -19.375)"><path class="a" d="M10.1.3A1.04,1.04,0,1,0,8.626,1.776l5.505,5.505H1.04a1.04,1.04,0,0,0,0,2.08H14.131L8.626,14.867A1.04,1.04,0,1,0,10.1,16.338l7.281-7.281a1.04,1.04,0,0,0,0-1.471Z" transform="translate(164.982 19.875)"/><path class="a" d="M9.361-.5a1.53,1.53,0,0,1,1.089.451l7.281,7.281a1.54,1.54,0,0,1,0,2.178L10.45,16.691a1.54,1.54,0,1,1-2.178-2.178l4.652-4.652H1.04a1.54,1.54,0,1,1,0-3.08H12.924L8.272,2.129A1.54,1.54,0,0,1,9.361-.5Zm0,16.643a.537.537,0,0,0,.382-.158L17.024,8.7a.54.54,0,0,0,0-.764L9.743.658a.54.54,0,0,0-.764.764l6.359,6.359H1.04a.54.54,0,1,0,0,1.08h14.3L8.979,15.22a.54.54,0,0,0,.382.922Z" transform="translate(164.982 19.875)"/></g></svg>