<svg xmlns="http://www.w3.org/2000/svg" width="12" height="12" viewBox="0 0 12 12"><defs><style>.a{fill:#444;}</style></defs><path class="a" d="M10,10.667H2A.669.669,0,0,1,1.333,10V2A.669.669,0,0,1,2,1.333H5.333A.667.667,0,1,0,5.333,0h-4A1.333,1.333,0,0,0,0,1.333v9.333A1.337,1.337,0,0,0,1.333,12h9.333A1.337,1.337,0,0,0,12,10.667v-4a.667.667,0,1,0-1.333,0V10A.669.669,0,0,1,10,10.667ZM7.333.667A.669.669,0,0,0,8,1.333H9.727L3.64,7.42a.665.665,0,0,0,.94.94l6.087-6.087V4A.667.667,0,1,0,12,4V.667A.669.669,0,0,0,11.333,0H8A.669.669,0,0,0,7.333.667Z"/></svg>