<svg xmlns="http://www.w3.org/2000/svg" xmlns:xlink="http://www.w3.org/1999/xlink" width="82" height="82" viewBox="0 0 82 82"><defs><style>.a{fill:#69186b;}.b{fill:#e4b571;}.c{fill:#fff;}.d{filter:url(#a);}</style><filter id="a" x="0" y="0" width="82" height="82" filterUnits="userSpaceOnUse"><feOffset dy="3" input="SourceAlpha"/><feGaussianBlur stdDeviation="3" result="b"/><feFlood flood-opacity="0.376"/><feComposite operator="in" in2="b"/><feComposite in="SourceGraphic"/></filter></defs><g transform="translate(-523 -700)"><g class="d" transform="matrix(1, 0, 0, 1, 523, 700)"><circle class="a" cx="32" cy="32" r="32" transform="translate(9 6)"/></g><g transform="translate(543.975 718.222)"><g transform="translate(0 0)"><path class="b" d="M0,18.973c.1-.763.178-1.531.31-2.288a19.741,19.741,0,0,1,6.577-11.7,19.259,19.259,0,0,1,10.5-4.8A19.7,19.7,0,0,1,33.833,5.344a19.6,19.6,0,0,1,6.148,11.042A20.182,20.182,0,0,1,24.989,39.732c-1.079.258-2.2.35-3.3.521-.115.018-.229.045-.344.068H18.985c-.532-.064-1.066-.118-1.6-.192a19.7,19.7,0,0,1-10.5-4.808A19.742,19.742,0,0,1,.31,23.625C.178,22.867.1,22.1,0,21.336V18.973M20.139,39.139A18.985,18.985,0,1,0,1.182,20.127,18.986,18.986,0,0,0,20.139,39.139" transform="translate(0 0)"/><path class="c" d="M105.159,121.89a15.859,15.859,0,0,1-7.576-2.113c-.871-.5-1.673-1.127-2.492-1.716a.59.59,0,0,1-.184-.858c.214-.294.537-.312.9-.071a33.663,33.663,0,0,0,3.1,2,14.479,14.479,0,0,0,9.41,1.33,14.876,14.876,0,0,0,9.811-6.349,14.62,14.62,0,0,0,2.606-7.406,15.074,15.074,0,0,0-2.628-9.8c-.263-.391-.574-.75-.857-1.129s-.28-.708.01-.939.627-.14.917.21a16.369,16.369,0,0,1-13.022,26.84" transform="translate(-85.44 -85.372)"/><path class="c" d="M54.513,38.238a16.757,16.757,0,0,1,10.808,3.8c.353.29.438.636.222.915-.228.3-.567.32-.936.02a15.621,15.621,0,0,0-4.252-2.507,15.2,15.2,0,0,0-18.017,5.546,14.653,14.653,0,0,0-2.619,7.4,14.939,14.939,0,0,0,1.874,8.594c.368.662.833,1.27,1.259,1.9.118.173.262.328.384.5.256.359.233.685-.055.906a.6.6,0,0,1-.862-.171c-.337-.419-.672-.842-.976-1.285A16.36,16.36,0,0,1,44.31,42.1a15.853,15.853,0,0,1,7.87-3.617c.917-.145,1.849-.2,2.332-.245" transform="translate(-34.684 -34.465)"/><path class="b" d="M129.813,131.532a1.827,1.827,0,0,1-1.761-2.357.481.481,0,0,0-.151-.573q-2.933-2.916-5.852-5.844a2.174,2.174,0,0,1-.288-.322.575.575,0,0,1,.8-.8,2.319,2.319,0,0,1,.321.288q2.925,2.923,5.844,5.852a.474.474,0,0,0,.573.149,1.759,1.759,0,0,1,1.958.643.486.486,0,0,0,.557.217c1.942-.311,3.887-.606,5.831-.9a2.8,2.8,0,0,1,.313-.03.555.555,0,0,1,.628.47.545.545,0,0,1-.463.665c-.786.146-1.578.26-2.368.383-1.257.194-2.514.39-3.773.572a.488.488,0,0,0-.451.387,1.8,1.8,0,0,1-1.723,1.2m-.009-2.5a.656.656,0,1,0,.665.627.647.647,0,0,0-.665-.627" transform="translate(-109.646 -109.532)"/><path class="c" d="M198.391,65.8c0-.407-.013-.814,0-1.22a.589.589,0,1,1,1.169.01q.021,1.181,0,2.362c-.007.425-.225.656-.571.664s-.586-.233-.6-.674c-.013-.38,0-.761,0-1.141h0" transform="translate(-178.812 -57.62)"/><path class="c" d="M65.924,198.275c.394,0,.788-.014,1.181,0,.413.018.643.25.635.6a.565.565,0,0,1-.625.567q-1.22.024-2.44,0a.582.582,0,1,1-.01-1.162c.419-.02.839,0,1.259,0v0" transform="translate(-57.731 -178.707)"/><path class="c" d="M309.191,199.427c-.394,0-.788.013-1.181,0-.418-.017-.648-.24-.645-.589s.232-.573.653-.581q1.181-.022,2.362,0a.6.6,0,0,1,.674.57c.011.343-.253.578-.682.6-.026,0-.052,0-.079,0h-1.1Z" transform="translate(-277.039 -178.684)"/><path class="c" d="M198.4,309.051c0-.394-.014-.788,0-1.181.019-.412.252-.642.6-.632a.566.566,0,0,1,.565.627q.023,1.22,0,2.44a.582.582,0,1,1-1.162,0c-.02-.419,0-.839,0-1.259h0" transform="translate(-178.819 -276.925)"/><path class="c" d="M133.54,84.068c-.206.227-.328.476-.506.526a.706.706,0,0,1-.622-.156,5.876,5.876,0,0,1-.734-1.289.668.668,0,0,1,.187-.6c.143-.111.545-.14.626-.039.377.47.682,1,1.049,1.562" transform="translate(-118.669 -74.309)"/><path class="c" d="M260.043,84.18a.584.584,0,0,1-.619-.83,10.34,10.34,0,0,1,.667-1.155.532.532,0,0,1,.758-.184.526.526,0,0,1,.245.74,9.777,9.777,0,0,1-.689,1.187c-.09.134-.288.2-.361.242" transform="translate(-233.773 -73.841)"/><path class="c" d="M133.064,304.707a3.781,3.781,0,0,1-.171.452c-.191.343-.382.687-.6,1.015a.545.545,0,0,1-.756.2.521.521,0,0,1-.261-.733,6.493,6.493,0,0,1,.718-1.212.757.757,0,0,1,.65-.172c.173.042.293.3.419.447" transform="translate(-118.268 -274.227)"/><path class="c" d="M261.611,305.743c-.2.228-.317.492-.492.537a.759.759,0,0,1-.653-.176,4.845,4.845,0,0,1-.7-1.219.731.731,0,0,1,.17-.648c.127-.118.545-.15.625-.051.379.47.687,1,1.054,1.557" transform="translate(-234.113 -274.121)"/><path class="c" d="M84.306,132.217a.586.586,0,0,1-.838.607,10.761,10.761,0,0,1-1.153-.671.531.531,0,0,1-.178-.758.509.509,0,0,1,.7-.249,11.052,11.052,0,0,1,1.253.727c.122.081.171.273.212.344" transform="translate(-73.954 -118.153)"/><path class="c" d="M306.087,131.949a1.539,1.539,0,0,1-.316.377,10.356,10.356,0,0,1-1.016.595.6.6,0,0,1-.829-.183.6.6,0,0,1,.224-.819,10.925,10.925,0,0,1,1.09-.624c.43-.208.864.076.848.654" transform="translate(-273.865 -118.28)"/><path class="c" d="M84.336,259.936a1.485,1.485,0,0,1-.313.38,10.065,10.065,0,0,1-1.051.613.587.587,0,0,1-.794-.2.564.564,0,0,1,.184-.792,9.713,9.713,0,0,1,1.157-.665c.412-.194.83.1.818.658" transform="translate(-73.988 -233.642)"/><path class="c" d="M304.778,258.8a2.312,2.312,0,0,1,.393.115c.367.2.736.4,1.088.628a.576.576,0,0,1,.21.818.587.587,0,0,1-.8.189,6.552,6.552,0,0,1-1.106-.669.784.784,0,0,1-.2-.642c.033-.175.283-.31.414-.44" transform="translate(-274.326 -233.269)"/></g></g></g></svg>