<svg xmlns="http://www.w3.org/2000/svg" width="33" height="23" viewBox="0 0 33 23"><defs><style>.a{fill:#707070;}</style></defs><g transform="translate(-330 -15)"><path class="a" d="M30,1.5H0A1.5,1.5,0,0,1-1.5,0,1.5,1.5,0,0,1,0-1.5H30A1.5,1.5,0,0,1,31.5,0,1.5,1.5,0,0,1,30,1.5Z" transform="translate(331.5 26.5)"/><path class="a" d="M30,1.5H0A1.5,1.5,0,0,1-1.5,0,1.5,1.5,0,0,1,0-1.5H30A1.5,1.5,0,0,1,31.5,0,1.5,1.5,0,0,1,30,1.5Z" transform="translate(331.5 16.5)"/><path class="a" d="M30,1.5H0A1.5,1.5,0,0,1-1.5,0,1.5,1.5,0,0,1,0-1.5H30A1.5,1.5,0,0,1,31.5,0,1.5,1.5,0,0,1,30,1.5Z" transform="translate(331.5 36.5)"/></g></svg>