<?xml version="1.0" encoding="UTF-8"?>
<svg id="Layer_2" xmlns="http://www.w3.org/2000/svg" xmlns:xlink="http://www.w3.org/1999/xlink" viewBox="0 0 455.35 171.59">
  <defs>
    <style>
      .cls-1, .cls-2 {
        fill: #e4b571;
      }

      .cls-3 {
        stroke-width: 2px;
      }

      .cls-3, .cls-2 {
        stroke: #e4b571;
        stroke-miterlimit: 10;
      }

      .cls-3, .cls-4 {
        fill: #fff;
      }

      .cls-2 {
        stroke-width: .91px;
      }

      .cls-5 {
        fill: url(#radial-gradient);
        opacity: .85;
      }
    </style>
    <radialGradient id="radial-gradient" cx="361.88" cy="88.85" fx="361.88" fy="88.85" r="85.35" gradientUnits="userSpaceOnUse">
      <stop offset=".1" stop-color="#fff" stop-opacity=".45"/>
      <stop offset="1" stop-color="#fff" stop-opacity=".85"/>
    </radialGradient>
  </defs>
  <g id="Layer_1-2" data-name="Layer_1">
    <g>
      <path class="cls-5" d="M425.55,18.03c-17.82-13.07-41.44-9.66-63.26-11.66-21.25-1.95-42.8,7.14-59.39,20.44-21.32,17.08-31.14,46.38-28.47,73.94,1.39,14.34,5.83,28.16,12.41,40.99,12.28,23.92,39.87,35.41,65.05,27.24.12-.04.24-.08.36-.12,21.83-7.12,43.33-16.36,61.2-30.86,17.87-14.5,31.93-34.78,35.51-57.75,3.58-22.98-4.69-48.49-23.4-62.22Z"/>
      <path class="cls-3" d="M328.84,110.06c0,10.24-6.85,14.96-14.33,14.96-7.87,0-14.33-5.12-14.33-15.04v-4.02c0-1.42,1.18-2.52,2.6-2.52h3.78c1.42,0,2.68,1.1,2.68,2.52v4.02c0,3.31,1.26,6.54,5.2,6.54,3.07,0,5.43-1.97,5.43-6.61v-3.94c0-4.88-1.57-6.46-4.49-8.11l-6.54-3.62c-6.38-3.62-8.66-7.64-8.66-14.02v-6.61c0-8.66,5.67-14.65,14.25-14.65s14.1,5.43,14.1,15.04v3.39c0,1.42-1.18,2.52-2.68,2.52h-3.78c-1.5,0-2.6-1.1-2.6-2.52v-3.31c0-4.65-2.21-6.61-5.12-6.61-3.86,0-5.2,2.76-5.2,7.95v2.76c0,4.88.95,6.3,5.2,8.58l5.67,3.07c5.83,3.15,8.82,5.99,8.82,14.96v5.28Z"/>
      <path class="cls-3" d="M344.35,59.5h4.02c1.39,0,2.52,1.13,2.52,2.52v59.93c0,1.39-1.13,2.52-2.52,2.52h-4.02c-1.39,0-2.52-1.13-2.52-2.52v-59.93c0-1.39,1.13-2.52,2.52-2.52Z"/>
      <path class="cls-3" d="M411.84,121.95c0,1.42-1.1,2.52-2.52,2.52h-4.02c-1.42,0-2.52-1.1-2.52-2.52v-47.73c-.08-4.96-2.36-6.77-5.12-6.77-2.99,0-5.12,2.05-5.12,6.77v47.73c0,1.42-1.1,2.52-2.52,2.52h-3.94c-1.42,0-2.6-1.1-2.6-2.52v-47.73c0-4.96-2.36-6.77-5.12-6.77-2.99,0-5.12,2.05-5.12,6.77v47.73c0,1.42-1.1,2.52-2.52,2.52h-4.02c-1.42,0-2.52-1.1-2.52-2.52v-58.91c0-2.76,1.57-3.86,3.31-3.86.94,0,1.73.39,2.52.87l.39.24c.63.31,1.1.55,1.81.55.87,0,2.13-.63,3.47-1.1,1.26-.47,2.52-.63,3.78-.63,1.89,0,3.7.39,5.36,1.26,1.34.63,2.52,1.26,3.54,1.26,1.18,0,2.52-.79,4.25-1.5,1.89-.79,3.86-1.1,5.75-1.1,6.14,0,13.47,3.86,13.47,14.49v48.44Z"/>
      <path class="cls-2" d="M384.36,160.28c-9.39,3.04-19.09,4.7-28.95,4.95-16.06.4-33.77-2.94-48.58-9.16-12.11-5.09-27.88-14.48-34.24-30.36-6.07-15.14-8.19-28.62-6.48-41.21,1.46-10.74,5.49-19.01,9.15-25.91,8.09-15.23,17.2-30.88,29.01-42.23,13.79-13.25,28.69-18.15,45.55-14.99,16.52,3.1,77.72,24.06,90.93,39.92,11.56,13.88,16.46,32.44,13.11,49.65-2.78,14.28-10.63,27.69-23.99,41-9.86,9.82-20.91,17.67-32.85,23.31-4.15,1.96-8.37,3.64-12.66,5.02ZM326.48,3.85c-7.46,2.42-14.54,6.88-21.35,13.42-11.69,11.23-20.74,26.78-28.78,41.92-8.02,15.1-15.5,33.91-2.62,66.07,6.2,15.48,21.68,24.68,33.57,29.67,14.65,6.16,32.18,9.46,48.07,9.06,26.85-.67,52.99-12.36,73.61-32.91,13.18-13.13,20.91-26.33,23.64-40.36,3.28-16.85-1.52-35.02-12.84-48.62-5.5-6.6-20.9-15.21-43.37-24.25-19.55-7.86-38.72-13.72-46.83-15.24-8.13-1.53-15.8-1.12-23.11,1.24Z"/>
      <g>
        <g>
          <path class="cls-1" d="M11.66,141.72c-2.83,0-5.63-.14-7.89-.4l-1.77-.2V50.86l1.77-.2c2.26-.26,5.06-.4,7.89-.4s5.6.14,7.8.4l1.77.21v90.24l-1.77.21c-2.2.26-4.96.4-7.8.4Z"/>
          <path class="cls-4" d="M11.66,52.26c2.69,0,5.37.13,7.56.39v86.69c-2.19.26-4.87.39-7.56.39s-5.4-.13-7.66-.39V52.65c2.26-.26,4.97-.39,7.66-.39M11.66,48.26c-2.94,0-5.75.14-8.11.41l-3.55.4v93.82l3.55.41c2.36.27,5.17.41,8.11.41s5.73-.14,8.03-.41l3.53-.42V49.09l-3.53-.42c-2.3-.27-5.08-.41-8.03-.41h0Z"/>
        </g>
        <g>
          <path class="cls-1" d="M57.28,169.33c-5.17,0-13.28-.32-22.51-1.83l-1.61-.26-.06-1.63c-.12-3.24.22-9.44,1.38-13.07l.53-1.66,1.72.3c6.77,1.19,13.15,1.78,19.52,1.78,14.04,0,15.93-4.92,15.93-9.74v-6.02l.19-2.4c-3.95,3.84-10.43,5.77-19.35,5.77-15.51,0-24.06-7.58-24.06-21.35v-28.38c0-13.77,8.54-21.35,24.06-21.35,9.94,0,16.84,2.4,20.61,7.16l.68-5.62,1.51-.22c1.78-.26,4.2-.41,6.81-.41s5.03.15,6.81.41l1.71.25v70.87c0,18.7-10.76,27.41-33.86,27.41ZM58.82,86.38c-6.38,0-10.9.77-10.9,10.77v15.87c0,8.89,3.67,10.51,10.9,10.51,8.89,0,11.02-1.88,13.35-8.28v-20.46c-2.32-6.5-4.45-8.4-13.35-8.4Z"/>
          <path class="cls-4" d="M53.02,71.48c10.84,0,18.96,2.84,21.28,10.84h.65l1.16-9.55c1.74-.26,4.13-.39,6.51-.39s4.77.13,6.51.39v69.14c0,18.06-10.58,25.41-31.86,25.41-6.58,0-14.32-.52-22.19-1.81-.13-3.35.26-9.16,1.29-12.38,6.58,1.16,13.03,1.81,19.87,1.81,9.67,0,17.93-2.06,17.93-11.74v-5.93l.77-9.54h-.65c-2.32,8-10.45,10.83-21.28,10.83-12.64,0-22.06-5.29-22.06-19.35v-28.38c0-14.19,9.42-19.35,22.06-19.35M58.82,125.53c9.67,0,12.64-2.32,15.35-9.93v-21.16c-2.71-7.74-5.68-10.06-15.35-10.06-7.22,0-12.9,1.42-12.9,12.77v15.87c0,10.96,5.68,12.51,12.9,12.51M53.02,67.48c-7.67,0-13.8,1.75-18.23,5.2-5.2,4.05-7.83,10.15-7.83,18.15v28.38c0,14.84,9.5,23.35,26.06,23.35,7.2,0,12.92-1.21,17.16-3.63v4.27c0,3.74-1.08,7.74-13.93,7.74-6.25,0-12.52-.57-19.17-1.74l-3.44-.61-1.06,3.33c-1.31,4.08-1.6,10.6-1.48,13.76l.13,3.26,3.22.53c9.37,1.54,17.59,1.86,22.83,1.86,24.13,0,35.86-9.62,35.86-29.41v-72.59l-3.41-.51c-1.87-.28-4.39-.43-7.1-.43s-5.23.15-7.1.43l-3.02.45-.37,3.03v.1c-4.36-3.26-10.75-4.9-19.12-4.9h0ZM58.82,121.53c-6.19,0-8.9-.81-8.9-8.51v-15.87c0-7.98,2.58-8.77,8.9-8.77,7.87,0,9.38,1.3,11.35,6.75v19.76c-2.25,6.01-4.3,6.64-11.35,6.64h0Z"/>
        </g>
        <g>
          <path class="cls-1" d="M163.76,141.72c-3.01,0-5.9-.14-8.16-.4l-1.27-.15-6.91-21.13h-27.92l-6.79,21.12-1.28.15c-2.26.26-5.13.4-8.08.4s-5.79-.14-7.99-.4l-2.48-.29,31.82-90.23,1.25-.14c2.35-.26,5.01-.4,7.7-.4s5.35.14,7.7.4l1.25.14,31.82,90.24-2.49.29c-2.26.26-5.15.4-8.16.4ZM142.12,103.67l-8.62-26.84-8.72,26.84h17.34Z"/>
          <path class="cls-4" d="M133.64,52.26c2.58,0,5.16.13,7.48.39l30.57,86.69c-2.26.26-5.1.39-7.93.39s-5.68-.13-7.93-.39l-6.97-21.28h-30.83l-6.84,21.28c-2.26.26-5.06.39-7.85.39s-5.56-.13-7.76-.39l30.57-86.69c2.32-.26,4.9-.39,7.48-.39M122.03,105.67h22.83l-11.35-35.35-11.48,35.35M133.64,48.26c-2.76,0-5.5.14-7.92.41l-2.5.28-.84,2.37-30.57,86.69-1.66,4.72,4.97.58c2.27.27,5.19.41,8.22.41s5.98-.15,8.31-.41l2.57-.29.79-2.46,5.94-18.51h25.01l6.06,18.53.8,2.44,2.55.29c2.33.27,5.31.41,8.39.41s6.06-.15,8.39-.41l4.99-.57-1.67-4.73-30.57-86.69-.84-2.37-2.5-.28c-2.42-.27-5.16-.41-7.92-.41h0ZM127.54,101.67l5.95-18.33,5.89,18.33h-11.84Z"/>
        </g>
        <g>
          <path class="cls-1" d="M185.81,141.82c-2.73,0-5.39-.17-7.92-.5l-1.74-.23V50.83l1.81-.18c2.66-.26,5.62-.4,8.56-.4s5.87.14,8.47.4l1.04.1,31.85,57.49v-57.42l1.81-.17c2.8-.27,5.4-.4,7.95-.4s5.06.13,7.67.4l1.8.18v90.31l-1.81.17c-2.82.26-5.78.4-8.78.4s-5.99-.13-8.87-.39l-1.05-.1-31.21-56.22v56.07l-1.73.23c-2.46.33-5.1.5-7.83.5Z"/>
          <path class="cls-4" d="M237.63,52.26c2.5,0,4.95.13,7.47.39v86.69c-2.77.26-5.68.39-8.59.39s-5.85-.13-8.69-.39l-34.44-62.05v62.05c-2.39.32-4.97.48-7.56.48s-5.21-.16-7.66-.48V52.65c2.64-.26,5.51-.39,8.37-.39s5.69.13,8.27.39l35.09,63.34v-63.34c2.71-.26,5.26-.39,7.76-.39M237.63,48.26c-2.61,0-5.27.13-8.14.4l-3.62.34v51.5l-27.59-49.8-1.02-1.83-2.09-.21c-2.66-.27-5.66-.41-8.67-.41s-6.04.14-8.76.41l-3.61.35v93.82l3.48.46c2.61.34,5.36.52,8.18.52s5.55-.17,8.1-.52l3.46-.47v-50.1l26.95,48.54,1.03,1.85,2.11.19c2.94.27,5.99.4,9.05.4s6.08-.14,8.96-.4l3.63-.34V49.04l-3.59-.37c-2.68-.27-5.25-.41-7.87-.41h0Z"/>
        </g>
      </g>
    </g>
  </g>
</svg>