<svg xmlns="http://www.w3.org/2000/svg" xmlns:xlink="http://www.w3.org/1999/xlink" width="82" height="82" viewBox="0 0 82 82"><defs><style>.a{fill:#fff;}.b{fill:#69186b;}.c{clip-path:url(#c);}.d{fill:#e4b571;}.e{filter:url(#a);}</style><filter id="a" x="0" y="0" width="82" height="82" filterUnits="userSpaceOnUse"><feOffset dy="3" input="SourceAlpha"/><feGaussianBlur stdDeviation="3" result="b"/><feFlood flood-opacity="0.376"/><feComposite operator="in" in2="b"/><feComposite in="SourceGraphic"/></filter><clipPath id="c"><rect class="a" width="44.958" height="36.764" transform="translate(0 0)"/></clipPath></defs><g transform="translate(-894 -700)"><g class="e" transform="matrix(1, 0, 0, 1, 894, 700)"><circle class="b" cx="32" cy="32" r="32" transform="translate(9 6)"/></g><g class="c" transform="translate(912.096 722.366)"><path class="a" d="M67.642,13.356a1.442,1.442,0,0,1-1.89-.809c-.609-1.1-1.427-2.093-2.124-3.151C60.754,5.034,63.121.358,68.382.022a10.3,10.3,0,0,1,7.734,2.947,18.978,18.978,0,0,1,5.978,11.8,16.391,16.391,0,0,1-.711,8.286c-1.564,4.155-4.992,6.013-9.011,4.9a7.822,7.822,0,0,1-5.548-8.995c.074-.427.194-.848.236-1.277.064-.66.53-.581.959-.563.66.028.409.494.331.8a7.238,7.238,0,0,0,.663,5.978,6.29,6.29,0,0,0,5.937,3.022,5.488,5.488,0,0,0,4.884-3.6c1.562-3.371,1.408-6.889.574-10.391a16.471,16.471,0,0,0-5.847-9.541,8.219,8.219,0,0,0-7.486-1.8,5,5,0,0,0-2.293,1.37,3.559,3.559,0,0,0-.7,4.638c.724,1.4,1.771,2.587,2.6,3.915a5.991,5.991,0,0,1,.957,1.837" transform="translate(-37.36 -0.001)"/><path class="a" d="M0,17.5C.178,12.025,1.839,7.14,5.867,3.275,8.448.8,11.492-.558,15.16.218c2.872.607,5,3.114,4.919,5.656a6.322,6.322,0,0,1-1.215,3.236c-.853,1.314-1.782,2.581-2.61,3.91-.395.634-.937.429-1.412.365-.374-.051-.094-.368,0-.544A26.865,26.865,0,0,1,16.729,9.9a24.786,24.786,0,0,0,1.37-2.09c1.19-2.15.772-3.946-1.235-5.4a6.2,6.2,0,0,0-5.352-.869c-3.4.84-5.7,3.121-7.406,6.022A18.319,18.319,0,0,0,1.823,21.6a8.51,8.51,0,0,0,.795,2.045A5.667,5.667,0,0,0,9.2,26.8a6.549,6.549,0,0,0,5.079-5.862,10.306,10.306,0,0,0-.351-3.069c-.069-.284-.257-.723.311-.744.367-.014.805-.171.976.411,1.5,5.114-1.334,9.27-5.141,10.378a6.962,6.962,0,0,1-8.5-3.466A13.8,13.8,0,0,1,0,17.5" transform="translate(0 0)"/><path class="d" d="M69.251,26.754a10.161,10.161,0,0,1,.128-5.22c.082-.253.154-.51.253-.757.152-.377.406-.637.845-.485.482.167.533.516.364.965a8.4,8.4,0,0,0-.47,4.417c.124.755.3,1.2,1.23,1.1,1.091-.108,2.2-.021,3.3-.027.439,0,.841.087.879.6.044.591-.4.707-.869.713-.868.011-1.736-.012-2.6.014-.307.009-.745-.2-.9.175-.128.318.227.592.413.854a8.026,8.026,0,0,0,3.019,2.563c.44.22,1.184.364.818,1.094-.383.766-.97.275-1.454.035a8.869,8.869,0,0,1-4.077-3.983,1.148,1.148,0,0,0-1.221-.762c-1.1.053-2.2.008-3.3.016A2.747,2.747,0,0,0,62.57,31.1q-.007,8.211,0,16.424c0,.234,0,.467,0,.7a.61.61,0,0,1-.609.658.6.6,0,0,1-.676-.587,5.832,5.832,0,0,1-.023-.8q0-8.012,0-16.023c0-3.18,1.553-4.72,4.733-4.721h3.261" transform="translate(-36.678 -12.124)"/><path class="d" d="M29.044,39.294q0,4.259,0,8.517c0,.492.105,1.115-.657,1.081-.668-.03-.581-.6-.581-1.067q0-8.216,0-16.432c0-2.279-1.02-3.3-3.284-3.306a5.458,5.458,0,0,1-.6,0c-2-.228-3.675-.022-4.69,2.176-.61,1.322-2.033,2.077-3.377,2.719-.447.213-.93.374-1.183-.227-.229-.544.193-.766.611-.955a8.174,8.174,0,0,0,3.505-3.037c.342-.517.233-.69-.371-.678-.968.019-1.937.008-2.906,0-.459,0-.923-.06-.922-.658s.44-.658.914-.656c1.169.007,2.34-.038,3.506.019.607.029.821-.2.914-.752a8.682,8.682,0,0,0-.29-4.441c-.158-.449-.5-1.019.218-1.261.752-.253.852.4,1.021.9a8.4,8.4,0,0,1,.361,4.629c-.181.788.055.97.81.919.965-.065,1.937-.027,2.905-.013a3.945,3.945,0,0,1,4.1,4.1c.01,2.805,0,5.611,0,8.416" transform="translate(-8.734 -12.143)"/></g></g></svg>