<svg xmlns="http://www.w3.org/2000/svg" width="15.351" height="13.78" viewBox="0 0 15.351 13.78"><defs><style>.a{opacity:0.626;}.b{fill:#1a3141;}</style></defs><g class="a" transform="translate(-76.358 -95)"><path class="b" d="M8.194.234A.878.878,0,0,0,7,.234a.769.769,0,0,0,0,1.13l4.468,4.228H.844a.8.8,0,1,0,0,1.6H11.468L7,11.417a.769.769,0,0,0,0,1.13.878.878,0,0,0,1.194,0L14.1,6.955a.769.769,0,0,0,0-1.13Z" transform="translate(76.858 95.5)"/><path class="b" d="M7.6-.5a1.361,1.361,0,0,1,.941.371l5.909,5.591a1.269,1.269,0,0,1,0,1.856L8.538,12.909a1.378,1.378,0,0,1-1.881,0,1.269,1.269,0,0,1,0-1.856l3.556-3.365H.844a1.3,1.3,0,1,1,0-2.6h9.368L6.657,1.727a1.269,1.269,0,0,1,0-1.856A1.361,1.361,0,0,1,7.6-.5Zm0,12.78a.365.365,0,0,0,.253-.1L13.76,6.592a.269.269,0,0,0,0-.4L7.851.6a.379.379,0,0,0-.506,0,.269.269,0,0,0,0,.4l5.38,5.091H.844a.3.3,0,1,0,0,.6h11.88L7.344,11.78a.269.269,0,0,0,0,.4A.366.366,0,0,0,7.6,12.28Z" transform="translate(76.858 95.5)"/></g></svg>