<svg xmlns="http://www.w3.org/2000/svg" xmlns:xlink="http://www.w3.org/1999/xlink" width="31.345" height="31.346" viewBox="0 0 31.345 31.346"><defs><style>.a{fill:#525252;}.b{clip-path:url(#a);}</style><clipPath id="a"><rect class="a" width="31.345" height="31.346"/></clipPath></defs><g class="b"><path class="a" d="M15.68,18.563a7.233,7.233,0,0,1-.476.619Q9.53,24.867,3.851,30.548a2.247,2.247,0,0,1-1.978.77A2.031,2.031,0,0,1,.17,30a2.062,2.062,0,0,1,.337-2.174,5.558,5.558,0,0,1,.416-.437q5.625-5.628,11.253-11.252a3.6,3.6,0,0,1,.49-.351l.047-.248a2.543,2.543,0,0,1-.517-.314Q6.474,9.516.764,3.8A2.166,2.166,0,0,1,.447.842,2.143,2.143,0,0,1,3.493.474a6.346,6.346,0,0,1,.512.484Q9.615,6.565,15.219,12.178a3.178,3.178,0,0,1,.339.5l.246.015a2.836,2.836,0,0,1,.328-.507Q21.821,6.478,27.518.78A2.225,2.225,0,0,1,29.5.026a2.133,2.133,0,0,1,1.391,3.428,5.409,5.409,0,0,1-.478.517Q24.808,9.582,19.2,15.189c-.142.142-.309.258-.512.425.191.2.321.344.458.481q5.7,5.7,11.4,11.394a2.265,2.265,0,0,1,.774,2.026,2.133,2.133,0,0,1-3.356,1.427,4.329,4.329,0,0,1-.523-.471Q21.79,24.829,16.15,19.181a6.867,6.867,0,0,1-.47-.618" transform="translate(0 0)"/></g></svg>