<svg xmlns="http://www.w3.org/2000/svg" width="157.368" height="58.381" viewBox="0 0 157.368 58.381"><defs><style>.a{fill:#fff;}</style></defs><g transform="translate(-0.316 -0.31)"><g transform="translate(0.316 0.31)"><path class="a" d="M30.093-45.562C25.8-44.853,15.437-41.3,8.94-37.335,1.475-32.781-.85-28.349.264-22.763c.968,4.834,3.046,9.576,6.574,15.147C10.7-1.523,16.529,2,23.83-1.213S41.564-11.965,45.362-16.542C49.8-21.9,49.8-26.813,48.153-31.745a25.528,25.528,0,0,0-6.021-9.694,13.352,13.352,0,0,0-9.786-4.311A13.816,13.816,0,0,0,30.093-45.562Z" transform="translate(0 45.75)"/><path class="a" d="M2.138-9.5c.873-1.269,2.039-1.7,3.982-1.193a14.606,14.606,0,0,1,4.651,2.306,3.227,3.227,0,0,1,1,3.01,8.037,8.037,0,0,1-.92,2.976A3.771,3.771,0,0,1,7.616,0a17.783,17.783,0,0,1-6.023-1.02C-.077-1.754-.283-3.5.285-5.383A14.27,14.27,0,0,1,2.138-9.5Z" transform="translate(15.88 58.266)"/></g><g transform="translate(52.58 34.353)"><path class="a" d="M10.846-22.574C3.394-22.574,0-16.723,0-11.288S3.394,0,10.846,0,21.694-5.861,21.694-11.288,18.3-22.574,10.846-22.574Zm0,21.507C4.1-1.067,1.7-6.578,1.7-11.288s2.4-10.221,9.147-10.221S19.994-16,19.994-11.288,17.6-1.067,10.846-1.067Z" transform="translate(0 24.337)"/><path class="a" d="M6.856-16.495H4.437v-4.366c0-1-.519-1-.732-1s-.737,0-.737,1v4.366H.546c-.363,0-.546.146-.546.435s.183.436.546.436H2.969V-.956c0,.956.514.956.737.956s.732,0,.732-.956V-15.624H6.856c.361,0,.548-.148.548-.436S7.217-16.495,6.856-16.495Z" transform="translate(24.713 24.337)"/><path class="a" d="M8.863-7.384c-.936-.332-3.66-1.292-4.71-1.663-2.231-.79-3.143-1.968-3.143-3.614,0-2.486,3.21-4.028,6.179-4.028a11.448,11.448,0,0,1,5.582,1.333c.821.452.156,1.377-.59.989A8.515,8.515,0,0,0,7.294-15.82c-2.278,0-4.645,1.03-4.645,2.993,0,1.142.918,2,2.324,2.47.442.151,3.6,1.245,4.135,1.431C12.058-7.9,13.77-6.771,13.77-4.487,13.77-1.8,11.03,0,6.95,0A9.577,9.577,0,0,1,.288-2.441C-.484-3.2.469-4,1.121-3.363A8.021,8.021,0,0,0,7.066-.871c2.85,0,5.058-1.516,5.058-3.518C12.123-6.289,10.412-6.837,8.863-7.384Z" transform="translate(34.992 24.337)"/><path class="a" d="M13.364-16.69c-.226,0-.744,0-.744.954v9.786a5.391,5.391,0,0,1-.72,3.264C11.032-1.515,9.344-.871,7.054-.871c-2.259,0-3.914-.651-4.793-1.843a5.312,5.312,0,0,1-.792-3.236v-9.786c0-.954-.51-.954-.735-.954S0-16.69,0-15.736V-5.378C0-2.109,2.768,0,7.054,0c4.27,0,7.041-2.109,7.041-5.378V-15.736C14.095-16.69,13.583-16.69,13.364-16.69Z" transform="translate(53.882 24.337)"/><path class="a" d="M11.858-.316c.766.56,1.066.2,1.2.036s.458-.556-.292-1.142L3.184-8.961s9.358-6.847,9.352-6.844c.5-.366.34-.648.256-.759s-.315-.338-.818.026L1.473-8.973v-14.41c0-.955-.518-.955-.741-.955s-.732,0-.732.955V-.957C0,0,.512,0,.732,0s.741,0,.741-.957V-8.5S11.861-.316,11.858-.316Z" transform="translate(73.626 24.338)"/><path class="a" d="M15.14-16.69c-.22,0-.735.034-.735.954l0,3.415A6.574,6.574,0,0,0,8-16.69c-5.494,0-8,4.324-8,8.337C0-4.309,2.118,0,8.071,0a6.422,6.422,0,0,0,6.352-4.357v3.4c0,.957.5.957.717.957s.739,0,.739-.957V-15.736C15.883-16.645,15.359-16.69,15.14-16.69ZM8.071-.871c-4.707,0-6.5-4.028-6.5-7.482,0-3.712,2.1-7.467,6.5-7.467,4.672,0,6.334,4.026,6.334,7.467S12.743-.871,8.071-.871Z" transform="translate(89.225 24.337)"/></g></g></svg>