<svg width="13" height="12" viewBox="0 0 13 12" fill="none" xmlns="http://www.w3.org/2000/svg">
<path d="M12.5 6C12.5 6.57103 12.0366 7.03448 11.4655 7.03448L7.53448 7.03448L7.53448 10.9655C7.53448 11.2399 7.42549 11.503 7.23149 11.697C7.03749 11.891 6.77436 12 6.5 12C6.22564 12 5.96251 11.891 5.76851 11.697C5.57451 11.503 5.46552 11.2399 5.46552 10.9655L5.46552 7.03448L1.53448 7.03448C1.26012 7.03448 0.996995 6.92549 0.802992 6.73149C0.608988 6.53749 0.5 6.27436 0.5 6C0.5 5.72564 0.608989 5.46251 0.802992 5.26851C0.996995 5.07451 1.26012 4.96552 1.53448 4.96552L5.46552 4.96552L5.46552 1.03448C5.46552 0.760121 5.57451 0.496996 5.76851 0.302993C5.96251 0.10899 6.22564 -2.74261e-07 6.5 -2.62268e-07C6.77436 -2.50276e-07 7.03749 0.10899 7.23149 0.302993C7.42549 0.496996 7.53448 0.760121 7.53448 1.03448L7.53448 4.96552L11.4655 4.96552C12.0366 4.96552 12.5 5.42897 12.5 6Z" fill="white"/>
</svg>
