<svg width="10" height="11" viewBox="0 0 10 11" fill="none" xmlns="http://www.w3.org/2000/svg">
<path d="M9.22799 1.24264C9.63177 1.64642 9.63177 2.30184 9.22799 2.70562L6.44833 5.48528L9.22799 8.26494C9.422 8.45895 9.53099 8.72207 9.53099 8.99643C9.53099 9.27079 9.422 9.53392 9.22799 9.72792C9.03399 9.92193 8.77086 10.0309 8.4965 10.0309C8.22214 10.0309 7.95902 9.92193 7.76501 9.72792L4.98535 6.94826L2.20569 9.72792C2.01169 9.92193 1.74856 10.0309 1.4742 10.0309C1.19984 10.0309 0.936714 9.92193 0.742711 9.72792C0.548708 9.53392 0.439717 9.27079 0.439717 8.99643C0.439717 8.72207 0.548708 8.45895 0.742711 8.26494L3.52237 5.48528L0.742711 2.70562C0.548708 2.51162 0.439718 2.24849 0.439718 1.97413C0.439718 1.69977 0.548708 1.43664 0.742711 1.24264C0.936714 1.04864 1.19984 0.939648 1.4742 0.939648C1.74856 0.939648 2.01169 1.04864 2.20569 1.24264L4.98535 4.0223L7.76501 1.24264C8.1688 0.838858 8.82421 0.838858 9.22799 1.24264Z" fill="white"/>
</svg>
