<?xml version="1.0" standalone="no"?>
<!DOCTYPE svg PUBLIC "-//W3C//DTD SVG 20010904//EN"
 "http://www.w3.org/TR/2001/REC-SVG-20010904/DTD/svg10.dtd">
<svg version="1.0" xmlns="http://www.w3.org/2000/svg"
 width="754.000000pt" height="754.000000pt" viewBox="0 0 754.000000 754.000000"
 preserveAspectRatio="xMidYMid meet">
<metadata>
Created by potrace 1.14, written by Peter Selinger 2001-2017
</metadata>
<g transform="translate(0.000000,754.000000) scale(0.100000,-0.100000)"
fill="#000000" stroke="none">
<path d="M5475 5174 c-319 -71 -582 -329 -875 -859 -105 -189 -171 -353 -196
-485 -10 -56 -13 -282 -4 -331 5 -24 14 -73 21 -109 26 -139 99 -327 160 -417
33 -48 113 -131 199 -208 25 -22 65 -65 90 -95 24 -31 66 -73 92 -95 27 -22
61 -50 75 -62 34 -28 174 -97 238 -118 105 -33 180 -43 295 -40 63 1 129 6
145 9 52 11 137 37 224 67 46 16 104 31 130 33 275 29 590 163 861 368 85 63
255 228 315 303 22 28 43 52 46 55 12 11 87 128 118 185 92 168 126 302 125
495 -1 180 -29 301 -108 458 -18 37 -39 85 -46 107 -7 22 -28 71 -47 109 -124
251 -315 413 -561 476 -140 36 -192 41 -521 55 -74 3 -136 12 -175 24 -83 26
-196 59 -226 66 -14 2 -38 7 -55 11 -72 14 -251 13 -320 -2z m281 -29 c12 -2
36 -7 55 -10 19 -3 61 -14 94 -24 l60 -19 -85 -2 c-47 -1 -96 -3 -110 -6 -14
-2 -36 -6 -50 -8 -287 -49 -600 -211 -802 -417 -363 -371 -475 -944 -295
-1509 27 -85 82 -219 109 -267 24 -44 10 -42 -34 5 -94 98 -138 174 -191 332
-39 118 -51 164 -67 265 -11 66 -15 248 -6 290 2 11 7 40 11 65 27 168 219
549 413 821 205 289 437 455 677 487 60 8 182 7 221 -3z m1729 -1103 c30 -142
20 -308 -26 -457 -105 -341 -449 -708 -854 -913 -55 -28 -124 -60 -154 -72
-62 -24 -254 -81 -258 -76 -2 2 18 11 44 22 155 62 410 208 560 320 90 68 259
231 329 319 111 139 209 319 258 471 49 152 60 230 60 402 0 120 2 129 13 97
7 -20 20 -71 28 -113z"/>
<path d="M43 4452 c-18 -2 -34 -6 -34 -10 -1 -4 -2 -355 -3 -779 l-1 -773 22
-2 c13 -1 38 -3 56 -5 48 -4 229 -4 252 1 11 3 28 5 38 5 16 1 17 45 17 780
l0 778 -77 7 c-74 7 -199 6 -270 -2z"/>
<path d="M2068 4453 c-16 -3 -28 -6 -28 -7 0 -2 -14 -43 -31 -92 -17 -49 -57
-163 -89 -254 -154 -442 -202 -577 -210 -595 -5 -11 -41 -113 -81 -228 -40
-114 -74 -205 -77 -202 -2 2 -4 236 -4 519 l1 515 -37 8 c-47 10 -225 9 -274
0 -28 -6 -38 -13 -38 -27 0 -25 -2 -25 -48 -1 -65 33 -156 51 -257 52 -218 1
-354 -73 -421 -231 -17 -40 -19 -77 -22 -358 -2 -194 1 -332 7 -363 40 -187
185 -289 416 -291 94 0 165 10 232 33 31 10 57 19 59 19 8 0 -6 -107 -17 -126
-21 -41 -82 -57 -214 -59 -127 -2 -228 7 -347 31 -25 5 -28 2 -43 -49 -8 -30
-18 -71 -21 -93 -7 -50 -8 -184 -2 -190 6 -5 25 -9 93 -18 28 -4 64 -9 80 -12
17 -2 109 -6 205 -8 204 -4 312 12 418 65 112 55 202 173 218 288 3 25 7 55 9
66 2 11 4 26 4 33 1 10 9 12 30 7 55 -12 303 -5 318 9 1 1 26 78 56 171 l54
170 206 1 207 2 55 -174 c42 -131 60 -174 73 -176 9 0 31 -3 47 -4 26 -3 76
-3 305 -1 30 0 100 -1 155 -3 88 -3 203 5 214 16 2 1 3 186 3 409 0 241 3 403
9 399 5 -3 9 -9 9 -14 0 -5 23 -47 50 -95 28 -48 50 -88 50 -90 0 -2 15 -30
34 -62 18 -32 47 -83 63 -113 73 -134 236 -426 242 -433 13 -13 53 -17 176
-17 103 1 137 2 212 9 8 1 11 194 11 780 l0 779 -51 5 c-65 7 -310 2 -324 -6
-7 -4 -10 -140 -11 -394 0 -214 -1 -401 -2 -418 0 -33 -5 -25 -184 300 -273
495 -283 512 -311 517 -32 7 -255 7 -315 1 l-45 -5 0 -689 c0 -379 -2 -689 -5
-689 -3 0 -18 37 -33 83 -25 72 -120 342 -332 942 -35 99 -75 214 -90 255 -14
42 -30 82 -35 90 -7 11 -39 14 -152 15 -79 1 -155 0 -170 -2z m192 -725 c23
-73 43 -137 43 -142 2 -11 -172 -16 -178 -5 -3 3 14 62 36 130 22 68 42 130
45 137 2 6 5 12 8 12 3 0 23 -60 46 -132z m-1161 47 c56 -28 67 -71 66 -261
-1 -158 -2 -172 -23 -206 -28 -45 -67 -59 -161 -59 -82 0 -125 18 -139 59 -5
15 -9 115 -8 222 1 170 4 199 20 222 22 33 30 35 134 37 55 1 92 -4 111 -14z"/>
</g>
</svg>
