<svg width="135" height="309" viewBox="0 0 135 309" fill="none" xmlns="http://www.w3.org/2000/svg">
<path d="M52.8035 25.7986V27.3223H44.0368V25.7986H47.5037V13.852L44.2797 15.9056V14.1611L48.2987 11.5995H49.3366V25.7986H52.8035ZM58.1389 25.0478V27.3223H55.8644V25.0478H58.1389ZM66.1867 27.4989C64.3907 27.4989 63.0216 26.8217 62.0794 25.4673C61.1519 24.0982 60.6882 22.0961 60.6882 19.4609C60.6882 16.8257 61.1519 14.8309 62.0794 13.4766C63.0216 12.1074 64.3907 11.4229 66.1867 11.4229C67.9828 11.4229 69.3445 12.1074 70.272 13.4766C71.2142 14.8309 71.6853 16.8184 71.6853 19.4388C71.6853 22.074 71.2142 24.0761 70.272 25.4453C69.3445 26.8144 67.9828 27.4989 66.1867 27.4989ZM66.1867 25.9752C67.4381 25.9752 68.3582 25.4453 68.947 24.3853C69.5506 23.3253 69.8524 21.6765 69.8524 19.4388C69.8524 17.2159 69.558 15.5817 68.9691 14.5365C68.3803 13.4913 67.4528 12.9687 66.1867 12.9687C64.9354 12.9687 64.0079 13.4913 63.4043 14.5365C62.8155 15.5817 62.521 17.2159 62.521 19.4388C62.521 21.6618 62.8155 23.3106 63.4043 24.3853C64.0079 25.4453 64.9354 25.9752 66.1867 25.9752ZM90.1761 16.2148V27.2339C90.1761 28.8828 89.7491 30.1267 88.8953 30.9659C88.0561 31.8197 86.8122 32.2467 85.1633 32.2467C83.4703 32.2467 82.0129 31.8639 80.791 31.0984L81.1002 29.6409C81.8068 30.0384 82.4693 30.3255 83.0876 30.5021C83.7206 30.6788 84.4125 30.7671 85.1633 30.7671C86.238 30.7671 87.0477 30.4801 87.5924 29.9059C88.1371 29.3465 88.4095 28.5074 88.4095 27.3885V24.7607C88.0709 25.4673 87.5703 26.0194 86.9079 26.4169C86.2601 26.7996 85.4872 26.991 84.5892 26.991C83.6176 26.991 82.749 26.7628 81.9835 26.3065C81.2327 25.8501 80.6512 25.2023 80.2389 24.3632C79.8267 23.5241 79.6206 22.5598 79.6206 21.4704C79.6206 20.381 79.8267 19.4167 80.2389 18.5776C80.6512 17.7385 81.2327 17.0907 81.9835 16.6343C82.749 16.178 83.6176 15.9498 84.5892 15.9498C85.4725 15.9498 86.238 16.1412 86.8858 16.5239C87.5482 16.9067 88.0488 17.444 88.3874 18.136V16.2148H90.1761ZM84.9425 25.4894C86.0172 25.4894 86.8563 25.1361 87.4599 24.4295C88.0782 23.7081 88.3874 22.7218 88.3874 21.4704C88.3874 20.2191 88.0782 19.2401 87.4599 18.5334C86.8563 17.8121 86.0172 17.4514 84.9425 17.4514C83.8531 17.4514 82.9919 17.8121 82.3589 18.5334C81.7406 19.2401 81.4314 20.2191 81.4314 21.4704C81.4314 22.7218 81.7406 23.7081 82.3589 24.4295C82.9919 25.1361 83.8531 25.4894 84.9425 25.4894ZM91.3799 28.5368L97.0551 10.7825H98.7113L93.014 28.5368H91.3799ZM108.353 11.0696V27.3223H106.586V25.3128C106.262 26.0047 105.769 26.542 105.107 26.9248C104.459 27.2928 103.701 27.4768 102.832 27.4768C101.86 27.4768 100.999 27.2339 100.248 26.7481C99.5123 26.2623 98.9382 25.5851 98.526 24.7165C98.1138 23.8332 97.9077 22.8174 97.9077 21.6692C97.9077 20.5209 98.1064 19.5198 98.5039 18.6659C98.9161 17.7974 99.4976 17.1275 100.248 16.6564C100.999 16.1853 101.86 15.9498 102.832 15.9498C103.701 15.9498 104.459 16.1412 105.107 16.5239C105.754 16.892 106.24 17.4146 106.564 18.0918V11.0696H108.353ZM103.185 25.9973C104.275 25.9973 105.114 25.6293 105.703 24.8932C106.292 24.1424 106.586 23.0824 106.586 21.7133C106.586 20.3589 106.292 19.3137 105.703 18.5776C105.114 17.8268 104.275 17.4514 103.185 17.4514C102.096 17.4514 101.242 17.8194 100.624 18.5555C100.02 19.2916 99.7184 20.3295 99.7184 21.6692C99.7184 23.0383 100.02 24.1056 100.624 24.8711C101.242 25.6219 102.096 25.9973 103.185 25.9973Z" fill="#7A7A7A"/>
<path d="M48.2146 162.161C46.4185 162.161 45.0494 161.484 44.1072 160.129C43.1798 158.76 42.716 156.758 42.716 154.123C42.716 151.488 43.1798 149.493 44.1072 148.139C45.0494 146.77 46.4185 146.085 48.2146 146.085C50.0106 146.085 51.3723 146.77 52.2998 148.139C53.242 149.493 53.7131 151.48 53.7131 154.101C53.7131 156.736 53.242 158.738 52.2998 160.107C51.3723 161.476 50.0106 162.161 48.2146 162.161ZM48.2146 160.637C49.4659 160.637 50.386 160.107 50.9749 159.047C51.5785 157.987 51.8802 156.339 51.8802 154.101C51.8802 151.878 51.5858 150.244 50.9969 149.199C50.4081 148.153 49.4806 147.631 48.2146 147.631C46.9632 147.631 46.0358 148.153 45.4322 149.199C44.8433 150.244 44.5489 151.878 44.5489 154.101C44.5489 156.324 44.8433 157.973 45.4322 159.047C46.0358 160.107 46.9632 160.637 48.2146 160.637ZM58.5184 159.71V161.984H56.2439V159.71H58.5184ZM71.7557 146.262V147.609L64.3801 161.984H62.4369L69.7683 147.785H61.3769V146.262H71.7557ZM80.4696 152.114C81.456 152.114 82.3172 152.327 83.0533 152.754C83.8041 153.166 84.3782 153.748 84.7757 154.498C85.1732 155.249 85.3719 156.118 85.3719 157.104C85.3719 158.09 85.1511 158.966 84.7095 159.732C84.2825 160.497 83.6642 161.094 82.8545 161.521C82.0596 161.933 81.1247 162.139 80.0501 162.139C79.0932 162.139 78.151 161.97 77.2235 161.631C76.296 161.278 75.5158 160.799 74.8828 160.196L75.5673 158.804C77.0248 160.012 78.519 160.615 80.0501 160.615C81.1542 160.615 82.0154 160.306 82.6337 159.688C83.2667 159.055 83.5833 158.201 83.5833 157.126C83.5833 156.081 83.2741 155.242 82.6558 154.609C82.0375 153.961 81.2131 153.637 80.1826 153.637C78.681 153.637 77.4811 154.248 76.5831 155.47H75.3244V146.262H84.7536V147.763H77.1352V153.372C78.0038 152.533 79.1152 152.114 80.4696 152.114ZM103.796 150.877V161.896C103.796 163.545 103.37 164.789 102.516 165.628C101.677 166.482 100.433 166.909 98.7838 166.909C97.0908 166.909 95.6333 166.526 94.4114 165.76L94.7206 164.303C95.4272 164.701 96.0897 164.988 96.708 165.164C97.341 165.341 98.033 165.429 98.7838 165.429C99.8584 165.429 100.668 165.142 101.213 164.568C101.758 164.009 102.03 163.169 102.03 162.051V159.423C101.691 160.129 101.191 160.682 100.528 161.079C99.8805 161.462 99.1076 161.653 98.2096 161.653C97.238 161.653 96.3694 161.425 95.6039 160.969C94.8531 160.512 94.2716 159.864 93.8594 159.025C93.4472 158.186 93.2411 157.222 93.2411 156.133C93.2411 155.043 93.4472 154.079 93.8594 153.24C94.2716 152.401 94.8531 151.753 95.6039 151.296C96.3694 150.84 97.238 150.612 98.2096 150.612C99.0929 150.612 99.8584 150.803 100.506 151.186C101.169 151.569 101.669 152.106 102.008 152.798V150.877H103.796ZM98.5629 160.152C99.6376 160.152 100.477 159.798 101.08 159.092C101.699 158.37 102.008 157.384 102.008 156.133C102.008 154.881 101.699 153.902 101.08 153.196C100.477 152.474 99.6376 152.114 98.5629 152.114C97.4735 152.114 96.6123 152.474 95.9793 153.196C95.361 153.902 95.0518 154.881 95.0518 156.133C95.0518 157.384 95.361 158.37 95.9793 159.092C96.6123 159.798 97.4735 160.152 98.5629 160.152ZM105 163.199L110.676 145.445H112.332L106.634 163.199H105ZM121.973 145.732V161.984H120.207V159.975C119.883 160.667 119.389 161.204 118.727 161.587C118.079 161.955 117.321 162.139 116.453 162.139C115.481 162.139 114.62 161.896 113.869 161.41C113.133 160.924 112.559 160.247 112.146 159.379C111.734 158.495 111.528 157.48 111.528 156.331C111.528 155.183 111.727 154.182 112.124 153.328C112.537 152.459 113.118 151.79 113.869 151.319C114.62 150.847 115.481 150.612 116.453 150.612C117.321 150.612 118.079 150.803 118.727 151.186C119.375 151.554 119.861 152.077 120.184 152.754V145.732H121.973ZM116.806 160.659C117.895 160.659 118.734 160.291 119.323 159.555C119.912 158.804 120.207 157.745 120.207 156.375C120.207 155.021 119.912 153.976 119.323 153.24C118.734 152.489 117.895 152.114 116.806 152.114C115.716 152.114 114.863 152.482 114.244 153.218C113.641 153.954 113.339 154.992 113.339 156.331C113.339 157.7 113.641 158.768 114.244 159.533C114.863 160.284 115.716 160.659 116.806 160.659Z" fill="#7A7A7A"/>
<path d="M48.2028 297.441C46.3332 297.441 44.9052 296.756 43.9188 295.387C42.9472 294.003 42.4614 291.994 42.4614 289.359C42.4614 286.768 42.9472 284.788 43.9188 283.419C44.9052 282.049 46.3332 281.365 48.2028 281.365C50.0725 281.365 51.4931 282.049 52.4647 283.419C53.4511 284.773 53.9443 286.753 53.9443 289.359C53.9443 291.979 53.4511 293.981 52.4647 295.365C51.4931 296.749 50.0725 297.441 48.2028 297.441ZM48.2028 295.211C49.2186 295.211 49.9547 294.747 50.4111 293.819C50.8822 292.877 51.1177 291.39 51.1177 289.359C51.1177 287.357 50.8822 285.899 50.4111 284.986C49.9547 284.059 49.2186 283.595 48.2028 283.595C47.187 283.595 46.4436 284.059 45.9725 284.986C45.5161 285.899 45.2879 287.357 45.2879 289.359C45.2879 291.39 45.5161 292.877 45.9725 293.819C46.4436 294.747 47.187 295.211 48.2028 295.211ZM59.125 294.151V297.242H56.0335V294.151H59.125ZM67.825 287.195C68.8114 287.195 69.6799 287.408 70.4307 287.835C71.1815 288.247 71.763 288.836 72.1753 289.602C72.5875 290.352 72.7936 291.221 72.7936 292.207C72.7936 293.238 72.558 294.151 72.0869 294.946C71.6158 295.726 70.9386 296.337 70.0553 296.778C69.172 297.205 68.1489 297.419 66.9859 297.419C65.9995 297.419 65.0279 297.257 64.071 296.933C63.1141 296.594 62.3265 296.145 61.7082 295.586L62.6577 293.51C64.0857 294.6 65.5431 295.144 67.03 295.144C68.0164 295.144 68.7672 294.901 69.2824 294.416C69.8124 293.915 70.0774 293.208 70.0774 292.296C70.0774 291.427 69.8051 290.735 69.2604 290.22C68.7304 289.69 68.0164 289.425 67.1184 289.425C66.5001 289.425 65.9186 289.543 65.3738 289.778C64.8291 289.999 64.3507 290.33 63.9385 290.772H62.2161V281.519H72.0648V283.728H64.9984V288.012C65.7934 287.467 66.7356 287.195 67.825 287.195ZM91.9396 286.091V296.889C91.9396 298.626 91.4611 299.944 90.5042 300.842C89.5473 301.74 88.1414 302.189 86.2865 302.189C84.564 302.189 83.0477 301.828 81.7375 301.107L82.1791 299.009C83.5335 299.715 84.8806 300.069 86.2202 300.069C88.2076 300.069 89.2014 299.082 89.2014 297.11V294.901C88.8628 295.505 88.3696 295.998 87.7218 296.381C87.0741 296.749 86.3454 296.933 85.5357 296.933C84.564 296.933 83.6955 296.705 82.9299 296.248C82.1791 295.777 81.5903 295.122 81.1633 294.283C80.7511 293.429 80.545 292.458 80.545 291.368C80.545 290.279 80.7511 289.315 81.1633 288.475C81.5903 287.622 82.1791 286.966 82.9299 286.51C83.6955 286.039 84.564 285.803 85.5357 285.803C86.3601 285.803 87.0888 285.98 87.7218 286.333C88.3696 286.672 88.8628 287.15 89.2014 287.769V286.091H91.9396ZM86.2644 294.769C87.1771 294.769 87.8911 294.467 88.4064 293.864C88.9364 293.26 89.2014 292.428 89.2014 291.368C89.2014 290.308 88.9437 289.477 88.4285 288.873C87.9132 288.269 87.1919 287.968 86.2644 287.968C85.3516 287.968 84.6303 288.269 84.1003 288.873C83.585 289.477 83.3274 290.308 83.3274 291.368C83.3274 292.428 83.585 293.26 84.1003 293.864C84.6303 294.467 85.3516 294.769 86.2644 294.769ZM92.8681 298.545L98.5874 280.614H100.95L95.1867 298.545H92.8681ZM111.216 280.989V297.242H108.5V295.454C108.161 296.072 107.675 296.558 107.042 296.911C106.409 297.25 105.688 297.419 104.878 297.419C103.921 297.419 103.068 297.176 102.317 296.69C101.566 296.204 100.977 295.52 100.55 294.636C100.138 293.738 99.9319 292.715 99.9319 291.567C99.9319 290.419 100.138 289.41 100.55 288.542C100.962 287.673 101.544 287.003 102.295 286.532C103.046 286.046 103.907 285.803 104.878 285.803C105.673 285.803 106.38 285.973 106.998 286.311C107.631 286.635 108.117 287.099 108.456 287.703V280.989H111.216ZM105.607 295.255C106.52 295.255 107.226 294.938 107.727 294.305C108.242 293.672 108.5 292.774 108.5 291.611C108.5 290.448 108.25 289.55 107.749 288.917C107.249 288.284 106.542 287.968 105.629 287.968C104.702 287.968 103.98 288.284 103.465 288.917C102.965 289.535 102.714 290.419 102.714 291.567C102.714 292.73 102.965 293.635 103.465 294.283C103.98 294.931 104.694 295.255 105.607 295.255Z" fill="#69186B"/>
<mask id="path-4-inside-1_2490_8659" fill="white">
<path fill-rule="evenodd" clip-rule="evenodd" d="M11.1803 141.857L11.1803 30.0708C6.50599 27.7478 3.2937 22.9243 3.2937 17.3505C3.2937 9.51035 9.64941 3.15463 17.4896 3.15463C25.3297 3.15463 31.6854 9.51034 31.6854 17.3505C31.6854 22.605 28.8307 27.1927 24.5875 29.6472L24.5875 142.281C28.8307 144.735 31.6854 149.323 31.6854 154.577C31.6854 159.832 28.8307 164.419 24.5875 166.874L24.5875 279.507C28.8307 281.962 31.6855 286.55 31.6855 291.804C31.6855 299.644 25.3298 306 17.4896 306C9.64943 306 3.29372 299.644 3.29372 291.804C3.29372 286.23 6.50601 281.407 11.1803 279.084L11.1803 167.298C6.50599 164.975 3.29369 160.151 3.29369 154.577C3.29369 149.003 6.50599 144.18 11.1803 141.857Z"/>
</mask>
<path fill-rule="evenodd" clip-rule="evenodd" d="M11.1803 141.857L11.1803 30.0708C6.50599 27.7478 3.2937 22.9243 3.2937 17.3505C3.2937 9.51035 9.64941 3.15463 17.4896 3.15463C25.3297 3.15463 31.6854 9.51034 31.6854 17.3505C31.6854 22.605 28.8307 27.1927 24.5875 29.6472L24.5875 142.281C28.8307 144.735 31.6854 149.323 31.6854 154.577C31.6854 159.832 28.8307 164.419 24.5875 166.874L24.5875 279.507C28.8307 281.962 31.6855 286.55 31.6855 291.804C31.6855 299.644 25.3298 306 17.4896 306C9.64943 306 3.29372 299.644 3.29372 291.804C3.29372 286.23 6.50601 281.407 11.1803 279.084L11.1803 167.298C6.50599 164.975 3.29369 160.151 3.29369 154.577C3.29369 149.003 6.50599 144.18 11.1803 141.857Z" fill="#7A7A7A" fill-opacity="0.15"/>
<path d="M11.1803 141.857L12.2332 143.976L13.5462 143.323L13.5462 141.857L11.1803 141.857ZM11.1803 30.0708L13.5462 30.0708L13.5462 28.6045L12.2332 27.952L11.1803 30.0708ZM24.5875 29.6472L23.4028 27.5992L22.2215 28.2826L22.2215 29.6472L24.5875 29.6472ZM24.5875 142.281L22.2215 142.281L22.2215 143.645L23.4028 144.329L24.5875 142.281ZM24.5875 166.874L23.4028 164.826L22.2215 165.509L22.2215 166.874L24.5875 166.874ZM24.5875 279.507L22.2215 279.507L22.2215 280.872L23.4028 281.555L24.5875 279.507ZM11.1803 279.084L12.2332 281.203L13.5462 280.55L13.5462 279.084L11.1803 279.084ZM11.1803 167.298L13.5462 167.298L13.5462 165.831L12.2332 165.179L11.1803 167.298ZM13.5462 141.857L13.5462 30.0708L8.81428 30.0708L8.81428 141.857L13.5462 141.857ZM0.927717 17.3505C0.927717 23.8568 4.67974 29.4823 10.1273 32.1895L12.2332 27.952C8.33224 26.0134 5.65968 21.9919 5.65967 17.3505L0.927717 17.3505ZM17.4896 0.788665C8.34271 0.788666 0.927716 8.20364 0.927717 17.3505L5.65967 17.3505C5.65967 10.817 10.9561 5.5206 17.4896 5.5206L17.4896 0.788665ZM34.0514 17.3505C34.0514 8.20364 26.6364 0.788665 17.4896 0.788665L17.4896 5.5206C24.023 5.5206 29.3195 10.817 29.3195 17.3505L34.0514 17.3505ZM25.7722 31.6953C30.7164 28.8352 34.0514 23.4837 34.0514 17.3505L29.3195 17.3505C29.3195 21.7263 26.9449 25.5502 23.4028 27.5992L25.7722 31.6953ZM22.2215 29.6472L22.2215 142.281L26.9535 142.281L26.9535 29.6472L22.2215 29.6472ZM23.4028 144.329C26.9449 146.378 29.3195 150.201 29.3195 154.577L34.0514 154.577C34.0514 148.444 30.7164 143.093 25.7722 140.233L23.4028 144.329ZM29.3195 154.577C29.3195 158.953 26.9449 162.777 23.4028 164.826L25.7722 168.922C30.7164 166.062 34.0514 160.71 34.0514 154.577L29.3195 154.577ZM22.2215 166.874L22.2215 279.507L26.9535 279.507L26.9535 166.874L22.2215 166.874ZM23.4028 281.555C26.9449 283.604 29.3195 287.428 29.3195 291.804L34.0514 291.804C34.0514 285.671 30.7164 280.319 25.7722 277.459L23.4028 281.555ZM29.3195 291.804C29.3195 298.338 24.0231 303.634 17.4896 303.634L17.4896 308.366C26.6365 308.366 34.0514 300.951 34.0514 291.804L29.3195 291.804ZM17.4896 303.634C10.9561 303.634 5.6597 298.338 5.6597 291.804L0.927737 291.804C0.927737 300.951 8.34273 308.366 17.4896 308.366L17.4896 303.634ZM5.6597 291.804C5.6597 287.163 8.33226 283.141 12.2332 281.203L10.1273 276.965C4.67975 279.672 0.927737 285.298 0.927737 291.804L5.6597 291.804ZM13.5462 279.084L13.5462 167.298L8.81429 167.298L8.81429 279.084L13.5462 279.084ZM12.2332 165.179C8.33225 163.24 5.65967 159.219 5.65967 154.577L0.927715 154.577C0.927716 161.083 4.67974 166.709 10.1273 169.416L12.2332 165.179ZM5.65967 154.577C5.65967 149.936 8.33225 145.914 12.2332 143.976L10.1273 139.738C4.67974 142.445 0.927715 148.071 0.927715 154.577L5.65967 154.577Z" fill="#7A7A7A" mask="url(#path-4-inside-1_2490_8659)"/>
<circle cx="17.4896" cy="291.804" r="16.5619" transform="rotate(-90 17.4896 291.804)" fill="#69186B"/>
<path d="M8.81433 291.41L26.1648 291.41" stroke="white" stroke-width="3.15464" stroke-linecap="round"/>
<path d="M12.7576 298.902L22.2215 298.902" stroke="white" stroke-width="3.15464" stroke-linecap="round"/>
<path d="M12.7576 283.918L22.2215 283.918" stroke="white" stroke-width="3.15464" stroke-linecap="round"/>
</svg>
