<svg width="135" height="306" viewBox="0 0 135 306" fill="none" xmlns="http://www.w3.org/2000/svg">
<path d="M52.8035 25.6001V27.1238H44.0368V25.6001H47.5037V13.6535L44.2797 15.7071V13.9626L48.2987 11.4011H49.3366V25.6001H52.8035ZM58.1389 24.8493V27.1238H55.8644V24.8493H58.1389ZM66.1867 27.3004C64.3907 27.3004 63.0216 26.6232 62.0794 25.2689C61.1519 23.8997 60.6882 21.8976 60.6882 19.2624C60.6882 16.6272 61.1519 14.6325 62.0794 13.2781C63.0216 11.909 64.3907 11.2244 66.1867 11.2244C67.9828 11.2244 69.3445 11.909 70.272 13.2781C71.2142 14.6325 71.6853 16.6199 71.6853 19.2403C71.6853 21.8755 71.2142 23.8777 70.272 25.2468C69.3445 26.6159 67.9828 27.3004 66.1867 27.3004ZM66.1867 25.7767C67.4381 25.7767 68.3582 25.2468 68.947 24.1868C69.5506 23.1269 69.8524 21.478 69.8524 19.2403C69.8524 17.0174 69.558 15.3833 68.9691 14.338C68.3803 13.2928 67.4528 12.7702 66.1867 12.7702C64.9354 12.7702 64.0079 13.2928 63.4043 14.338C62.8155 15.3833 62.521 17.0174 62.521 19.2403C62.521 21.4633 62.8155 23.1121 63.4043 24.1868C64.0079 25.2468 64.9354 25.7767 66.1867 25.7767ZM90.1761 16.0163V27.0354C90.1761 28.6843 89.7491 29.9283 88.8953 30.7674C88.0561 31.6212 86.8122 32.0482 85.1633 32.0482C83.4703 32.0482 82.0129 31.6654 80.791 30.8999L81.1002 29.4424C81.8068 29.8399 82.4693 30.127 83.0876 30.3037C83.7206 30.4803 84.4125 30.5686 85.1633 30.5686C86.238 30.5686 87.0477 30.2816 87.5924 29.7074C88.1371 29.148 88.4095 28.3089 88.4095 27.19V24.5622C88.0709 25.2689 87.5703 25.8209 86.9079 26.2184C86.2601 26.6012 85.4872 26.7925 84.5892 26.7925C83.6176 26.7925 82.749 26.5644 81.9835 26.108C81.2327 25.6516 80.6512 25.0039 80.2389 24.1647C79.8267 23.3256 79.6206 22.3613 79.6206 21.2719C79.6206 20.1825 79.8267 19.2183 80.2389 18.3791C80.6512 17.54 81.2327 16.8922 81.9835 16.4359C82.749 15.9795 83.6176 15.7513 84.5892 15.7513C85.4725 15.7513 86.238 15.9427 86.8858 16.3254C87.5482 16.7082 88.0488 17.2456 88.3874 17.9375V16.0163H90.1761ZM84.9425 25.2909C86.0172 25.2909 86.8563 24.9376 87.4599 24.231C88.0782 23.5096 88.3874 22.5233 88.3874 21.2719C88.3874 20.0206 88.0782 19.0416 87.4599 18.335C86.8563 17.6136 86.0172 17.2529 84.9425 17.2529C83.8531 17.2529 82.9919 17.6136 82.3589 18.335C81.7406 19.0416 81.4314 20.0206 81.4314 21.2719C81.4314 22.5233 81.7406 23.5096 82.3589 24.231C82.9919 24.9376 83.8531 25.2909 84.9425 25.2909ZM91.3799 28.3383L97.0551 10.584H98.7113L93.014 28.3383H91.3799ZM108.353 10.8711V27.1238H106.586V25.1143C106.262 25.8062 105.769 26.3435 105.107 26.7263C104.459 27.0943 103.701 27.2784 102.832 27.2784C101.86 27.2784 100.999 27.0354 100.248 26.5496C99.5123 26.0638 98.9382 25.3866 98.526 24.518C98.1138 23.6347 97.9077 22.619 97.9077 21.4707C97.9077 20.3224 98.1064 19.3213 98.5039 18.4674C98.9161 17.5989 99.4976 16.929 100.248 16.4579C100.999 15.9869 101.86 15.7513 102.832 15.7513C103.701 15.7513 104.459 15.9427 105.107 16.3254C105.754 16.6935 106.24 17.2161 106.564 17.8933V10.8711H108.353ZM103.185 25.7988C104.275 25.7988 105.114 25.4308 105.703 24.6947C106.292 23.9439 106.586 22.8839 106.586 21.5148C106.586 20.1604 106.292 19.1152 105.703 18.3791C105.114 17.6283 104.275 17.2529 103.185 17.2529C102.096 17.2529 101.242 17.621 100.624 18.357C100.02 19.0931 99.7184 20.131 99.7184 21.4707C99.7184 22.8398 100.02 23.9071 100.624 24.6726C101.242 25.4234 102.096 25.7988 103.185 25.7988Z" fill="#7A7A7A"/>
<path d="M48.0824 162.183C46.2127 162.183 44.7847 161.499 43.7984 160.129C42.8268 158.746 42.341 156.736 42.341 154.101C42.341 151.51 42.8268 149.53 43.7984 148.161C44.7847 146.792 46.2127 146.107 48.0824 146.107C49.952 146.107 51.3727 146.792 52.3443 148.161C53.3307 149.515 53.8238 151.495 53.8238 154.101C53.8238 156.721 53.3307 158.724 52.3443 160.107C51.3727 161.491 49.952 162.183 48.0824 162.183ZM48.0824 159.953C49.0982 159.953 49.8343 159.489 50.2906 158.562C50.7617 157.619 50.9973 156.133 50.9973 154.101C50.9973 152.099 50.7617 150.641 50.2906 149.729C49.8343 148.801 49.0982 148.337 48.0824 148.337C47.0666 148.337 46.3232 148.801 45.8521 149.729C45.3957 150.641 45.1675 152.099 45.1675 154.101C45.1675 156.133 45.3957 157.619 45.8521 158.562C46.3232 159.489 47.0666 159.953 48.0824 159.953ZM59.0046 158.893V161.984H55.9131V158.893H59.0046ZM72.3419 146.262V148.382L65.2093 161.984H62.1619L69.2724 148.58H61.389V146.262H72.3419ZM80.9454 151.937C81.9318 151.937 82.8004 152.15 83.5512 152.577C84.302 152.989 84.8835 153.578 85.2957 154.344C85.7079 155.095 85.914 155.963 85.914 156.95C85.914 157.98 85.6784 158.893 85.2073 159.688C84.7363 160.468 84.0591 161.079 83.1758 161.521C82.2925 161.948 81.2693 162.161 80.1063 162.161C79.1199 162.161 78.1483 161.999 77.1914 161.675C76.2345 161.337 75.4469 160.888 74.8286 160.328L75.7781 158.252C77.2061 159.342 78.6636 159.887 80.1505 159.887C81.1368 159.887 81.8876 159.644 82.4029 159.158C82.9329 158.657 83.1978 157.951 83.1978 157.038C83.1978 156.169 82.9255 155.477 82.3808 154.962C81.8508 154.432 81.1368 154.167 80.2388 154.167C79.6205 154.167 79.039 154.285 78.4943 154.52C77.9496 154.741 77.4711 155.073 77.0589 155.514H75.3365V146.262H85.1853V148.47H78.1189V152.754C78.9138 152.209 79.856 151.937 80.9454 151.937ZM105.06 150.833V161.631C105.06 163.368 104.582 164.686 103.625 165.584C102.668 166.482 101.262 166.931 99.4069 166.931C97.6845 166.931 96.1681 166.57 94.8579 165.849L95.2996 163.751C96.654 164.458 98.001 164.811 99.3407 164.811C101.328 164.811 102.322 163.825 102.322 161.852V159.644C101.983 160.247 101.49 160.74 100.842 161.123C100.195 161.491 99.4658 161.675 98.6561 161.675C97.6845 161.675 96.8159 161.447 96.0504 160.991C95.2996 160.52 94.7107 159.864 94.2838 159.025C93.8716 158.171 93.6655 157.2 93.6655 156.11C93.6655 155.021 93.8716 154.057 94.2838 153.218C94.7107 152.364 95.2996 151.709 96.0504 151.252C96.8159 150.781 97.6845 150.546 98.6561 150.546C99.4805 150.546 100.209 150.722 100.842 151.076C101.49 151.414 101.983 151.893 102.322 152.511V150.833H105.06ZM99.3848 159.511C100.298 159.511 101.012 159.209 101.527 158.606C102.057 158.002 102.322 157.17 102.322 156.11C102.322 155.05 102.064 154.219 101.549 153.615C101.034 153.012 100.312 152.71 99.3848 152.71C98.4721 152.71 97.7507 153.012 97.2207 153.615C96.7055 154.219 96.4478 155.05 96.4478 156.11C96.4478 157.17 96.7055 158.002 97.2207 158.606C97.7507 159.209 98.4721 159.511 99.3848 159.511ZM105.989 163.287L111.708 145.356H114.071L108.307 163.287H105.989ZM124.336 145.732V161.984H121.62V160.196C121.282 160.814 120.796 161.3 120.163 161.653C119.53 161.992 118.808 162.161 117.999 162.161C117.042 162.161 116.188 161.918 115.437 161.432C114.686 160.946 114.098 160.262 113.671 159.379C113.258 158.481 113.052 157.457 113.052 156.309C113.052 155.161 113.258 154.152 113.671 153.284C114.083 152.415 114.664 151.745 115.415 151.274C116.166 150.789 117.027 150.546 117.999 150.546C118.794 150.546 119.5 150.715 120.119 151.054C120.752 151.377 121.238 151.841 121.576 152.445V145.732H124.336ZM118.728 159.997C119.64 159.997 120.347 159.68 120.847 159.047C121.363 158.414 121.62 157.516 121.62 156.353C121.62 155.19 121.37 154.292 120.87 153.659C120.369 153.026 119.662 152.71 118.75 152.71C117.822 152.71 117.101 153.026 116.586 153.659C116.085 154.278 115.835 155.161 115.835 156.309C115.835 157.472 116.085 158.378 116.586 159.025C117.101 159.673 117.815 159.997 118.728 159.997Z" fill="#69186B"/>
<path d="M47.835 297.022C46.0389 297.022 44.6698 296.345 43.7276 294.99C42.8002 293.621 42.3364 291.619 42.3364 288.984C42.3364 286.349 42.8002 284.354 43.7276 283C44.6698 281.63 46.0389 280.946 47.835 280.946C49.631 280.946 50.9928 281.63 51.9202 283C52.8624 284.354 53.3335 286.341 53.3335 288.962C53.3335 291.597 52.8624 293.599 51.9202 294.968C50.9928 296.337 49.631 297.022 47.835 297.022ZM47.835 295.498C49.0863 295.498 50.0064 294.968 50.5953 293.908C51.1989 292.848 51.5007 291.199 51.5007 288.962C51.5007 286.739 51.2062 285.105 50.6174 284.059C50.0285 283.014 49.101 282.492 47.835 282.492C46.5836 282.492 45.6562 283.014 45.0526 284.059C44.4637 285.105 44.1693 286.739 44.1693 288.962C44.1693 291.185 44.4637 292.834 45.0526 293.908C45.6562 294.968 46.5836 295.498 47.835 295.498ZM58.1389 294.571V296.845H55.8644V294.571H58.1389ZM66.8492 286.974C67.8356 286.974 68.6968 287.188 69.4329 287.615C70.1837 288.027 70.7578 288.608 71.1553 289.359C71.5528 290.11 71.7515 290.979 71.7515 291.965C71.7515 292.951 71.5307 293.827 71.089 294.593C70.6621 295.358 70.0438 295.955 69.2341 296.381C68.4391 296.794 67.5043 297 66.4296 297C65.4727 297 64.5305 296.83 63.6031 296.492C62.6756 296.139 61.8954 295.66 61.2623 295.057L61.9469 293.665C63.4043 294.873 64.8986 295.476 66.4296 295.476C67.5338 295.476 68.395 295.167 69.0133 294.549C69.6463 293.916 69.9628 293.062 69.9628 291.987C69.9628 290.942 69.6537 290.103 69.0354 289.47C68.4171 288.822 67.5926 288.498 66.5621 288.498C65.0605 288.498 63.8607 289.109 62.9627 290.331H61.704V281.122H71.1332V282.624H63.5147V288.233C64.3833 287.394 65.4948 286.974 66.8492 286.974ZM90.1761 285.738V296.757C90.1761 298.406 89.7491 299.65 88.8953 300.489C88.0561 301.343 86.8122 301.77 85.1633 301.77C83.4703 301.77 82.0129 301.387 80.791 300.621L81.1002 299.164C81.8068 299.561 82.4693 299.848 83.0876 300.025C83.7206 300.202 84.4125 300.29 85.1633 300.29C86.238 300.29 87.0477 300.003 87.5924 299.429C88.1371 298.869 88.4095 298.03 88.4095 296.911V294.284C88.0709 294.99 87.5703 295.542 86.9079 295.94C86.2601 296.323 85.4872 296.514 84.5892 296.514C83.6176 296.514 82.749 296.286 81.9835 295.829C81.2327 295.373 80.6512 294.725 80.2389 293.886C79.8267 293.047 79.6206 292.083 79.6206 290.993C79.6206 289.904 79.8267 288.94 80.2389 288.101C80.6512 287.261 81.2327 286.614 81.9835 286.157C82.749 285.701 83.6176 285.473 84.5892 285.473C85.4725 285.473 86.238 285.664 86.8858 286.047C87.5482 286.43 88.0488 286.967 88.3874 287.659V285.738H90.1761ZM84.9425 295.012C86.0172 295.012 86.8563 294.659 87.4599 293.952C88.0782 293.231 88.3874 292.245 88.3874 290.993C88.3874 289.742 88.0782 288.763 87.4599 288.056C86.8563 287.335 86.0172 286.974 84.9425 286.974C83.8531 286.974 82.9919 287.335 82.3589 288.056C81.7406 288.763 81.4314 289.742 81.4314 290.993C81.4314 292.245 81.7406 293.231 82.3589 293.952C82.9919 294.659 83.8531 295.012 84.9425 295.012ZM91.3799 298.06L97.0551 280.305H98.7113L93.014 298.06H91.3799ZM108.353 280.593V296.845H106.586V294.836C106.262 295.528 105.769 296.065 105.107 296.448C104.459 296.816 103.701 297 102.832 297C101.86 297 100.999 296.757 100.248 296.271C99.5123 295.785 98.9382 295.108 98.526 294.239C98.1138 293.356 97.9077 292.34 97.9077 291.192C97.9077 290.044 98.1064 289.043 98.5039 288.189C98.9161 287.32 99.4976 286.65 100.248 286.179C100.999 285.708 101.86 285.473 102.832 285.473C103.701 285.473 104.459 285.664 105.107 286.047C105.754 286.415 106.24 286.938 106.564 287.615V280.593H108.353ZM103.185 295.52C104.275 295.52 105.114 295.152 105.703 294.416C106.292 293.665 106.586 292.605 106.586 291.236C106.586 289.882 106.292 288.837 105.703 288.101C105.114 287.35 104.275 286.974 103.185 286.974C102.096 286.974 101.242 287.342 100.624 288.078C100.02 288.815 99.7184 289.852 99.7184 291.192C99.7184 292.561 100.02 293.629 100.624 294.394C101.242 295.145 102.096 295.52 103.185 295.52Z" fill="#7A7A7A"/>
<mask id="path-4-inside-1_2646_1575" fill="white">
<path fill-rule="evenodd" clip-rule="evenodd" d="M17.4896 3.15463C25.3297 3.15463 31.6854 9.51034 31.6854 17.3505C31.6854 22.605 28.8307 27.1927 24.5875 29.6472L24.5875 142.281C28.8307 144.735 31.6855 149.323 31.6855 154.577C31.6855 159.832 28.8307 164.419 24.5875 166.874L24.5875 279.507C28.8307 281.962 31.6855 286.55 31.6855 291.804C31.6855 299.644 25.3298 306 17.4896 306C9.64943 306 3.29372 299.644 3.29372 291.804C3.29372 286.23 6.50601 281.407 11.1803 279.084L11.1803 167.298C6.506 164.975 3.2937 160.151 3.2937 154.577C3.2937 149.003 6.506 144.18 11.1803 141.857L11.1803 30.0708C6.50599 27.7478 3.29369 22.9243 3.29369 17.3505C3.29369 9.51035 9.6494 3.15463 17.4896 3.15463Z"/>
</mask>
<path fill-rule="evenodd" clip-rule="evenodd" d="M17.4896 3.15463C25.3297 3.15463 31.6854 9.51034 31.6854 17.3505C31.6854 22.605 28.8307 27.1927 24.5875 29.6472L24.5875 142.281C28.8307 144.735 31.6855 149.323 31.6855 154.577C31.6855 159.832 28.8307 164.419 24.5875 166.874L24.5875 279.507C28.8307 281.962 31.6855 286.55 31.6855 291.804C31.6855 299.644 25.3298 306 17.4896 306C9.64943 306 3.29372 299.644 3.29372 291.804C3.29372 286.23 6.50601 281.407 11.1803 279.084L11.1803 167.298C6.506 164.975 3.2937 160.151 3.2937 154.577C3.2937 149.003 6.506 144.18 11.1803 141.857L11.1803 30.0708C6.50599 27.7478 3.29369 22.9243 3.29369 17.3505C3.29369 9.51035 9.6494 3.15463 17.4896 3.15463Z" fill="#7A7A7A" fill-opacity="0.15"/>
<path d="M24.5875 29.6472L23.4028 27.5992L22.2215 28.2825L22.2215 29.6472L24.5875 29.6472ZM24.5875 142.281L22.2215 142.281L22.2215 143.645L23.4028 144.329L24.5875 142.281ZM24.5875 166.874L23.4028 164.826L22.2215 165.509L22.2215 166.874L24.5875 166.874ZM24.5875 279.507L22.2215 279.507L22.2215 280.872L23.4028 281.555L24.5875 279.507ZM11.1803 279.084L12.2332 281.203L13.5463 280.55L13.5463 279.084L11.1803 279.084ZM11.1803 167.298L13.5463 167.298L13.5463 165.831L12.2332 165.179L11.1803 167.298ZM11.1803 141.857L12.2332 143.976L13.5463 143.323L13.5463 141.857L11.1803 141.857ZM11.1803 30.0708L13.5463 30.0708L13.5463 28.6045L12.2332 27.952L11.1803 30.0708ZM34.0514 17.3505C34.0514 8.20364 26.6364 0.788665 17.4896 0.788665L17.4896 5.5206C24.023 5.5206 29.3195 10.817 29.3195 17.3505L34.0514 17.3505ZM25.7722 31.6952C30.7164 28.8352 34.0514 23.4837 34.0514 17.3505L29.3195 17.3505C29.3195 21.7263 26.9449 25.5502 23.4028 27.5992L25.7722 31.6952ZM22.2215 29.6472L22.2215 142.281L26.9535 142.281L26.9535 29.6472L22.2215 29.6472ZM23.4028 144.329C26.9449 146.378 29.3195 150.201 29.3195 154.577L34.0514 154.577C34.0514 148.444 30.7164 143.093 25.7722 140.233L23.4028 144.329ZM29.3195 154.577C29.3195 158.953 26.9449 162.777 23.4028 164.826L25.7722 168.922C30.7164 166.062 34.0514 160.71 34.0514 154.577L29.3195 154.577ZM22.2215 166.874L22.2215 279.507L26.9535 279.507L26.9535 166.874L22.2215 166.874ZM23.4028 281.555C26.945 283.604 29.3195 287.428 29.3195 291.804L34.0514 291.804C34.0514 285.671 30.7164 280.319 25.7722 277.459L23.4028 281.555ZM29.3195 291.804C29.3195 298.338 24.0231 303.634 17.4896 303.634L17.4896 308.366C26.6365 308.366 34.0514 300.951 34.0514 291.804L29.3195 291.804ZM17.4896 303.634C10.9561 303.634 5.6597 298.338 5.6597 291.804L0.927737 291.804C0.927737 300.951 8.34273 308.366 17.4896 308.366L17.4896 303.634ZM5.6597 291.804C5.6597 287.163 8.33227 283.141 12.2332 281.203L10.1273 276.965C4.67976 279.672 0.927737 285.298 0.927737 291.804L5.6597 291.804ZM13.5463 279.084L13.5463 167.298L8.8143 167.298L8.81431 279.084L13.5463 279.084ZM12.2332 165.179C8.33226 163.24 5.65968 159.219 5.65968 154.577L0.92772 154.577C0.92772 161.083 4.67975 166.709 10.1273 169.416L12.2332 165.179ZM5.65968 154.577C5.65968 149.936 8.33225 145.914 12.2332 143.976L10.1273 139.738C4.67975 142.445 0.92772 148.071 0.92772 154.577L5.65968 154.577ZM13.5463 141.857L13.5463 30.0708L8.8143 30.0708L8.8143 141.857L13.5463 141.857ZM0.927709 17.3505C0.92771 23.8568 4.67975 29.4823 10.1273 32.1895L12.2332 27.952C8.33224 26.0134 5.65967 21.9919 5.65967 17.3505L0.927709 17.3505ZM17.4896 0.788665C8.3427 0.788666 0.927709 8.20364 0.927709 17.3505L5.65967 17.3505C5.65967 10.817 10.9561 5.5206 17.4896 5.5206L17.4896 0.788665Z" fill="#7A7A7A" mask="url(#path-4-inside-1_2646_1575)"/>
<circle cx="17.4896" cy="156.944" r="16.5619" transform="rotate(-90 17.4896 156.944)" fill="#69186B"/>
<path d="M8.81445 156.549L26.165 156.549" stroke="white" stroke-width="3.15464" stroke-linecap="round"/>
<path d="M12.7578 164.042L22.2217 164.042" stroke="white" stroke-width="3.15464" stroke-linecap="round"/>
<path d="M12.7578 149.057L22.2217 149.057" stroke="white" stroke-width="3.15464" stroke-linecap="round"/>
</svg>
