<svg width="135" height="306" viewBox="0 0 135 306" fill="none" xmlns="http://www.w3.org/2000/svg">
<path d="M53.7455 24.8051V27.1238H44.0513V24.8051H47.4962V14.6693L44.2942 16.5904V14.051L48.6666 11.4011H50.3227V24.8051H53.7455ZM59.125 24.0322V27.1238H56.0335V24.0322H59.125ZM66.9859 27.3225C65.1162 27.3225 63.6882 26.638 62.7019 25.2689C61.7302 23.885 61.2444 21.8755 61.2444 19.2403C61.2444 16.6493 61.7302 14.6693 62.7019 13.3001C63.6882 11.931 65.1162 11.2465 66.9859 11.2465C68.8555 11.2465 70.2762 11.931 71.2478 13.3001C72.2341 14.6545 72.7273 16.6346 72.7273 19.2403C72.7273 21.8608 72.2341 23.8629 71.2478 25.2468C70.2762 26.6306 68.8555 27.3225 66.9859 27.3225ZM66.9859 25.0922C68.0017 25.0922 68.7377 24.6285 69.1941 23.701C69.6652 22.7588 69.9008 21.2719 69.9008 19.2403C69.9008 17.2382 69.6652 15.7807 69.1941 14.868C68.7377 13.9405 68.0017 13.4768 66.9859 13.4768C65.9701 13.4768 65.2266 13.9405 64.7555 14.868C64.2992 15.7807 64.071 17.2382 64.071 19.2403C64.071 21.2719 64.2992 22.7588 64.7555 23.701C65.2266 24.6285 65.9701 25.0922 66.9859 25.0922ZM91.9396 15.9721V26.7705C91.9396 28.5076 91.4611 29.8252 90.5042 30.7232C89.5473 31.6212 88.1414 32.0703 86.2865 32.0703C84.564 32.0703 83.0477 31.7096 81.7375 30.9882L82.1791 28.8904C83.5335 29.597 84.8806 29.9503 86.2202 29.9503C88.2076 29.9503 89.2014 28.964 89.2014 26.9913V24.783C88.8628 25.3866 88.3696 25.8798 87.7218 26.2626C87.0741 26.6306 86.3454 26.8146 85.5357 26.8146C84.564 26.8146 83.6955 26.5864 82.9299 26.1301C82.1791 25.659 81.5903 25.0039 81.1633 24.1647C80.7511 23.3109 80.545 22.3392 80.545 21.2498C80.545 20.1604 80.7511 19.1962 81.1633 18.357C81.5903 17.5032 82.1791 16.8481 82.9299 16.3917C83.6955 15.9206 84.564 15.6851 85.5357 15.6851C86.3601 15.6851 87.0888 15.8617 87.7218 16.215C88.3696 16.5536 88.8628 17.0321 89.2014 17.6504V15.9721H91.9396ZM86.2644 24.6505C87.1771 24.6505 87.8911 24.3487 88.4064 23.7452C88.9364 23.1416 89.2014 22.3098 89.2014 21.2498C89.2014 20.1899 88.9437 19.3581 88.4285 18.7545C87.9132 18.1509 87.1919 17.8491 86.2644 17.8491C85.3516 17.8491 84.6303 18.1509 84.1003 18.7545C83.585 19.3581 83.3274 20.1899 83.3274 21.2498C83.3274 22.3098 83.585 23.1416 84.1003 23.7452C84.6303 24.3487 85.3516 24.6505 86.2644 24.6505ZM92.8681 28.4266L98.5874 10.4957H100.95L95.1867 28.4266H92.8681ZM111.216 10.8711V27.1238H108.5V25.3351C108.161 25.9534 107.675 26.4392 107.042 26.7925C106.409 27.1311 105.688 27.3004 104.878 27.3004C103.921 27.3004 103.068 27.0575 102.317 26.5717C101.566 26.0859 100.977 25.4013 100.55 24.518C100.138 23.62 99.9319 22.5969 99.9319 21.4486C99.9319 20.3003 100.138 19.2919 100.55 18.4233C100.962 17.5547 101.544 16.8849 102.295 16.4138C103.046 15.928 103.907 15.6851 104.878 15.6851C105.673 15.6851 106.38 15.8544 106.998 16.193C107.631 16.5168 108.117 16.9806 108.456 17.5842V10.8711H111.216ZM105.607 25.1364C106.52 25.1364 107.226 24.8198 107.727 24.1868C108.242 23.5538 108.5 22.6558 108.5 21.4927C108.5 20.3297 108.25 19.4317 107.749 18.7987C107.249 18.1657 106.542 17.8491 105.629 17.8491C104.702 17.8491 103.98 18.1657 103.465 18.7987C102.965 19.417 102.714 20.3003 102.714 21.4486C102.714 22.6116 102.965 23.517 103.465 24.1647C103.98 24.8125 104.694 25.1364 105.607 25.1364Z" fill="#69186B"/>
<path d="M48.2146 162.161C46.4185 162.161 45.0494 161.484 44.1072 160.129C43.1798 158.76 42.716 156.758 42.716 154.123C42.716 151.488 43.1798 149.493 44.1072 148.139C45.0494 146.77 46.4185 146.085 48.2146 146.085C50.0106 146.085 51.3723 146.77 52.2998 148.139C53.242 149.493 53.7131 151.48 53.7131 154.101C53.7131 156.736 53.242 158.738 52.2998 160.107C51.3723 161.476 50.0106 162.161 48.2146 162.161ZM48.2146 160.637C49.4659 160.637 50.386 160.107 50.9749 159.047C51.5785 157.987 51.8802 156.339 51.8802 154.101C51.8802 151.878 51.5858 150.244 50.9969 149.199C50.4081 148.153 49.4806 147.631 48.2146 147.631C46.9632 147.631 46.0358 148.153 45.4322 149.199C44.8433 150.244 44.5489 151.878 44.5489 154.101C44.5489 156.324 44.8433 157.973 45.4322 159.047C46.0358 160.107 46.9632 160.637 48.2146 160.637ZM58.5184 159.71V161.984H56.2439V159.71H58.5184ZM71.7557 146.262V147.609L64.3801 161.984H62.4369L69.7683 147.785H61.3769V146.262H71.7557ZM80.4696 152.114C81.456 152.114 82.3172 152.327 83.0533 152.754C83.8041 153.166 84.3782 153.748 84.7757 154.498C85.1732 155.249 85.3719 156.118 85.3719 157.104C85.3719 158.09 85.1511 158.966 84.7095 159.732C84.2825 160.497 83.6642 161.094 82.8545 161.521C82.0596 161.933 81.1247 162.139 80.0501 162.139C79.0932 162.139 78.151 161.97 77.2235 161.631C76.296 161.278 75.5158 160.799 74.8828 160.196L75.5673 158.804C77.0248 160.012 78.519 160.615 80.0501 160.615C81.1542 160.615 82.0154 160.306 82.6337 159.688C83.2667 159.055 83.5833 158.201 83.5833 157.126C83.5833 156.081 83.2741 155.242 82.6558 154.609C82.0375 153.961 81.2131 153.637 80.1826 153.637C78.681 153.637 77.4811 154.248 76.5831 155.47H75.3244V146.262H84.7536V147.763H77.1352V153.372C78.0038 152.533 79.1152 152.114 80.4696 152.114ZM103.796 150.877V161.896C103.796 163.545 103.37 164.789 102.516 165.628C101.677 166.482 100.433 166.909 98.7838 166.909C97.0908 166.909 95.6333 166.526 94.4114 165.76L94.7206 164.303C95.4272 164.701 96.0897 164.988 96.708 165.164C97.341 165.341 98.033 165.429 98.7838 165.429C99.8584 165.429 100.668 165.142 101.213 164.568C101.758 164.009 102.03 163.169 102.03 162.051V159.423C101.691 160.129 101.191 160.682 100.528 161.079C99.8805 161.462 99.1076 161.653 98.2096 161.653C97.238 161.653 96.3694 161.425 95.6039 160.969C94.8531 160.512 94.2716 159.864 93.8594 159.025C93.4472 158.186 93.2411 157.222 93.2411 156.133C93.2411 155.043 93.4472 154.079 93.8594 153.24C94.2716 152.401 94.8531 151.753 95.6039 151.296C96.3694 150.84 97.238 150.612 98.2096 150.612C99.0929 150.612 99.8584 150.803 100.506 151.186C101.169 151.569 101.669 152.106 102.008 152.798V150.877H103.796ZM98.5629 160.152C99.6376 160.152 100.477 159.798 101.08 159.092C101.699 158.37 102.008 157.384 102.008 156.133C102.008 154.881 101.699 153.902 101.08 153.196C100.477 152.474 99.6376 152.114 98.5629 152.114C97.4735 152.114 96.6123 152.474 95.9793 153.196C95.361 153.902 95.0518 154.881 95.0518 156.133C95.0518 157.384 95.361 158.37 95.9793 159.092C96.6123 159.798 97.4735 160.152 98.5629 160.152ZM105 163.199L110.676 145.445H112.332L106.634 163.199H105ZM121.973 145.732V161.984H120.207V159.975C119.883 160.667 119.389 161.204 118.727 161.587C118.079 161.955 117.321 162.139 116.453 162.139C115.481 162.139 114.62 161.896 113.869 161.41C113.133 160.924 112.559 160.247 112.146 159.379C111.734 158.495 111.528 157.48 111.528 156.331C111.528 155.183 111.727 154.182 112.124 153.328C112.537 152.459 113.118 151.79 113.869 151.319C114.62 150.847 115.481 150.612 116.453 150.612C117.321 150.612 118.079 150.803 118.727 151.186C119.375 151.554 119.861 152.077 120.184 152.754V145.732H121.973ZM116.806 160.659C117.895 160.659 118.734 160.291 119.323 159.555C119.912 158.804 120.207 157.745 120.207 156.375C120.207 155.021 119.912 153.976 119.323 153.24C118.734 152.489 117.895 152.114 116.806 152.114C115.716 152.114 114.863 152.482 114.244 153.218C113.641 153.954 113.339 154.992 113.339 156.331C113.339 157.7 113.641 158.768 114.244 159.533C114.863 160.284 115.716 160.659 116.806 160.659Z" fill="#7A7A7A"/>
<path d="M47.835 297.022C46.0389 297.022 44.6698 296.345 43.7276 294.99C42.8002 293.621 42.3364 291.619 42.3364 288.984C42.3364 286.349 42.8002 284.354 43.7276 283C44.6698 281.63 46.0389 280.946 47.835 280.946C49.631 280.946 50.9928 281.63 51.9202 283C52.8624 284.354 53.3335 286.341 53.3335 288.962C53.3335 291.597 52.8624 293.599 51.9202 294.968C50.9928 296.337 49.631 297.022 47.835 297.022ZM47.835 295.498C49.0863 295.498 50.0064 294.968 50.5953 293.908C51.1989 292.848 51.5007 291.199 51.5007 288.962C51.5007 286.739 51.2062 285.105 50.6174 284.059C50.0285 283.014 49.101 282.492 47.835 282.492C46.5836 282.492 45.6562 283.014 45.0526 284.059C44.4637 285.105 44.1693 286.739 44.1693 288.962C44.1693 291.185 44.4637 292.834 45.0526 293.908C45.6562 294.968 46.5836 295.498 47.835 295.498ZM58.1389 294.571V296.845H55.8644V294.571H58.1389ZM66.8492 286.974C67.8356 286.974 68.6968 287.188 69.4329 287.615C70.1837 288.027 70.7578 288.608 71.1553 289.359C71.5528 290.11 71.7515 290.979 71.7515 291.965C71.7515 292.951 71.5307 293.827 71.089 294.593C70.6621 295.358 70.0438 295.955 69.2341 296.381C68.4391 296.794 67.5043 297 66.4296 297C65.4727 297 64.5305 296.83 63.6031 296.492C62.6756 296.139 61.8954 295.66 61.2623 295.057L61.9469 293.665C63.4043 294.873 64.8986 295.476 66.4296 295.476C67.5338 295.476 68.395 295.167 69.0133 294.549C69.6463 293.916 69.9628 293.062 69.9628 291.987C69.9628 290.942 69.6537 290.103 69.0354 289.47C68.4171 288.822 67.5926 288.498 66.5621 288.498C65.0605 288.498 63.8607 289.109 62.9627 290.331H61.704V281.122H71.1332V282.624H63.5147V288.233C64.3833 287.394 65.4948 286.974 66.8492 286.974ZM90.1761 285.738V296.757C90.1761 298.406 89.7491 299.65 88.8953 300.489C88.0561 301.343 86.8122 301.77 85.1633 301.77C83.4703 301.77 82.0129 301.387 80.791 300.621L81.1002 299.164C81.8068 299.561 82.4693 299.848 83.0876 300.025C83.7206 300.202 84.4125 300.29 85.1633 300.29C86.238 300.29 87.0477 300.003 87.5924 299.429C88.1371 298.869 88.4095 298.03 88.4095 296.911V294.284C88.0709 294.99 87.5703 295.542 86.9079 295.94C86.2601 296.323 85.4872 296.514 84.5892 296.514C83.6176 296.514 82.749 296.286 81.9835 295.829C81.2327 295.373 80.6512 294.725 80.2389 293.886C79.8267 293.047 79.6206 292.083 79.6206 290.993C79.6206 289.904 79.8267 288.94 80.2389 288.101C80.6512 287.261 81.2327 286.614 81.9835 286.157C82.749 285.701 83.6176 285.473 84.5892 285.473C85.4725 285.473 86.238 285.664 86.8858 286.047C87.5482 286.43 88.0488 286.967 88.3874 287.659V285.738H90.1761ZM84.9425 295.012C86.0172 295.012 86.8563 294.659 87.4599 293.952C88.0782 293.231 88.3874 292.245 88.3874 290.993C88.3874 289.742 88.0782 288.763 87.4599 288.056C86.8563 287.335 86.0172 286.974 84.9425 286.974C83.8531 286.974 82.9919 287.335 82.3589 288.056C81.7406 288.763 81.4314 289.742 81.4314 290.993C81.4314 292.245 81.7406 293.231 82.3589 293.952C82.9919 294.659 83.8531 295.012 84.9425 295.012ZM91.3799 298.06L97.0551 280.305H98.7113L93.014 298.06H91.3799ZM108.353 280.593V296.845H106.586V294.836C106.262 295.528 105.769 296.065 105.107 296.448C104.459 296.816 103.701 297 102.832 297C101.86 297 100.999 296.757 100.248 296.271C99.5123 295.785 98.9382 295.108 98.526 294.239C98.1138 293.356 97.9077 292.34 97.9077 291.192C97.9077 290.044 98.1064 289.043 98.5039 288.189C98.9161 287.32 99.4976 286.65 100.248 286.179C100.999 285.708 101.86 285.473 102.832 285.473C103.701 285.473 104.459 285.664 105.107 286.047C105.754 286.415 106.24 286.938 106.564 287.615V280.593H108.353ZM103.185 295.52C104.275 295.52 105.114 295.152 105.703 294.416C106.292 293.665 106.586 292.605 106.586 291.236C106.586 289.882 106.292 288.837 105.703 288.101C105.114 287.35 104.275 286.974 103.185 286.974C102.096 286.974 101.242 287.342 100.624 288.078C100.02 288.815 99.7184 289.852 99.7184 291.192C99.7184 292.561 100.02 293.629 100.624 294.394C101.242 295.145 102.096 295.52 103.185 295.52Z" fill="#7A7A7A"/>
<mask id="path-4-inside-1_19_2522" fill="white">
<path fill-rule="evenodd" clip-rule="evenodd" d="M17.4898 3.15463C25.33 3.15463 31.6857 9.51034 31.6857 17.3505C31.6857 22.605 28.8309 27.1927 24.5877 29.6472L24.5878 142.281C28.8309 144.735 31.6857 149.323 31.6857 154.577C31.6857 159.832 28.8309 164.419 24.5878 166.874L24.5878 279.507C28.8309 281.962 31.6857 286.55 31.6857 291.804C31.6857 299.644 25.33 306 17.4898 306C9.64967 306 3.29396 299.644 3.29396 291.804C3.29396 286.23 6.50626 281.407 11.1805 279.084L11.1805 167.298C6.50625 164.975 3.29395 160.151 3.29395 154.577C3.29395 149.003 6.50625 144.18 11.1805 141.857L11.1805 30.0708C6.50624 27.7478 3.29393 22.9243 3.29393 17.3505C3.29393 9.51035 9.64964 3.15463 17.4898 3.15463Z"/>
</mask>
<path fill-rule="evenodd" clip-rule="evenodd" d="M17.4898 3.15463C25.33 3.15463 31.6857 9.51034 31.6857 17.3505C31.6857 22.605 28.8309 27.1927 24.5877 29.6472L24.5878 142.281C28.8309 144.735 31.6857 149.323 31.6857 154.577C31.6857 159.832 28.8309 164.419 24.5878 166.874L24.5878 279.507C28.8309 281.962 31.6857 286.55 31.6857 291.804C31.6857 299.644 25.33 306 17.4898 306C9.64967 306 3.29396 299.644 3.29396 291.804C3.29396 286.23 6.50626 281.407 11.1805 279.084L11.1805 167.298C6.50625 164.975 3.29395 160.151 3.29395 154.577C3.29395 149.003 6.50625 144.18 11.1805 141.857L11.1805 30.0708C6.50624 27.7478 3.29393 22.9243 3.29393 17.3505C3.29393 9.51035 9.64964 3.15463 17.4898 3.15463Z" fill="#7A7A7A" fill-opacity="0.15"/>
<path d="M24.5877 29.6472L23.403 27.5992L22.2218 28.2825L22.2218 29.6472L24.5877 29.6472ZM24.5878 142.281L22.2218 142.281L22.2218 143.645L23.4031 144.329L24.5878 142.281ZM24.5878 166.874L23.4031 164.826L22.2218 165.509L22.2218 166.874L24.5878 166.874ZM24.5878 279.507L22.2218 279.507L22.2218 280.872L23.4031 281.555L24.5878 279.507ZM11.1805 279.084L12.2335 281.203L13.5465 280.55L13.5465 279.084L11.1805 279.084ZM11.1805 167.298L13.5465 167.298L13.5465 165.831L12.2335 165.179L11.1805 167.298ZM11.1805 141.857L12.2335 143.976L13.5465 143.323L13.5465 141.857L11.1805 141.857ZM11.1805 30.0708L13.5465 30.0708L13.5465 28.6045L12.2335 27.952L11.1805 30.0708ZM34.0517 17.3505C34.0517 8.20364 26.6367 0.788665 17.4898 0.788665L17.4898 5.5206C24.0233 5.5206 29.3197 10.817 29.3197 17.3505L34.0517 17.3505ZM25.7725 31.6952C30.7166 28.8352 34.0517 23.4837 34.0517 17.3505L29.3197 17.3505C29.3197 21.7263 26.9452 25.5502 23.403 27.5992L25.7725 31.6952ZM22.2218 29.6472L22.2218 142.281L26.9537 142.281L26.9537 29.6472L22.2218 29.6472ZM23.4031 144.329C26.9452 146.378 29.3197 150.201 29.3197 154.577L34.0517 154.577C34.0517 148.444 30.7166 143.093 25.7725 140.233L23.4031 144.329ZM29.3197 154.577C29.3197 158.953 26.9452 162.777 23.4031 164.826L25.7725 168.922C30.7166 166.062 34.0517 160.71 34.0517 154.577L29.3197 154.577ZM22.2218 166.874L22.2218 279.507L26.9537 279.507L26.9537 166.874L22.2218 166.874ZM23.4031 281.555C26.9452 283.604 29.3197 287.428 29.3197 291.804L34.0517 291.804C34.0517 285.671 30.7166 280.319 25.7725 277.459L23.4031 281.555ZM29.3197 291.804C29.3197 298.338 24.0233 303.634 17.4898 303.634L17.4898 308.366C26.6367 308.366 34.0517 300.951 34.0517 291.804L29.3197 291.804ZM17.4898 303.634C10.9564 303.634 5.65994 298.338 5.65994 291.804L0.927981 291.804C0.927981 300.951 8.34298 308.366 17.4898 308.366L17.4898 303.634ZM5.65994 291.804C5.65994 287.163 8.33251 283.141 12.2335 281.203L10.1276 276.965C4.68001 279.672 0.927981 285.298 0.927981 291.804L5.65994 291.804ZM13.5465 279.084L13.5465 167.298L8.81455 167.298L8.81455 279.084L13.5465 279.084ZM12.2335 165.179C8.3325 163.24 5.65993 159.219 5.65993 154.577L0.927967 154.577C0.927967 161.083 4.68 166.709 10.1276 169.416L12.2335 165.179ZM5.65993 154.577C5.65992 149.936 8.3325 145.914 12.2335 143.976L10.1276 139.738C4.67999 142.445 0.927966 148.071 0.927967 154.577L5.65993 154.577ZM13.5465 141.857L13.5465 30.0708L8.81454 30.0708L8.81455 141.857L13.5465 141.857ZM0.927954 17.3505C0.927954 23.8568 4.67999 29.4823 10.1276 32.1895L12.2335 27.952C8.33249 26.0134 5.65991 21.9919 5.65991 17.3505L0.927954 17.3505ZM17.4898 0.788665C8.34295 0.788666 0.927953 8.20364 0.927954 17.3505L5.65991 17.3505C5.65991 10.817 10.9563 5.5206 17.4898 5.5206L17.4898 0.788665Z" fill="#7A7A7A" mask="url(#path-4-inside-1_19_2522)"/>
<circle cx="17.4896" cy="16.5619" r="16.5619" transform="rotate(-90 17.4896 16.5619)" fill="#69186B"/>
<path d="M8.81445 16.1677L26.165 16.1677" stroke="white" stroke-width="3.15464" stroke-linecap="round"/>
<path d="M12.7578 23.6599L22.2217 23.6599" stroke="white" stroke-width="3.15464" stroke-linecap="round"/>
<path d="M12.7578 8.67529L22.2217 8.67529" stroke="white" stroke-width="3.15464" stroke-linecap="round"/>
</svg>
