<svg xmlns="http://www.w3.org/2000/svg" xmlns:xlink="http://www.w3.org/1999/xlink" width="125" height="128" viewBox="0 0 125 128"><defs><style>.a{fill:#fff;}.b{fill:url(#a);}.c{fill:none;}.d{fill:#e4b571;}.e{clip-path:url(#b);}</style><radialGradient id="a" cx="0.5" cy="0.5" r="0.5" gradientUnits="objectBoundingBox"><stop offset="0" stop-color="#4e789b"/><stop offset="1" stop-color="#346086"/></radialGradient><clipPath id="b"><rect class="a" width="64.553" height="67.431"/></clipPath></defs><g transform="translate(-248 -4953.566)"><g transform="translate(-854 4593.566)"><path class="b" d="M120,60A60,60,0,1,1,60,0,60,60,0,0,1,120,60Z" transform="translate(1102 360)"/><path class="c" d="M120,60A60,60,0,1,1,60,0,60,60,0,0,1,120,60Z" transform="translate(1107 368)"/></g><g transform="translate(276 4975.5)"><g transform="translate(0 0)"><g transform="translate(1)"><path class="d" d="M41.059,20.161c1.374.353,2.657.706,3.953.99a1.094,1.094,0,0,0,.762-.315C47.1,19.7,48.4,18.493,50.189,18.181a5.9,5.9,0,0,1,2.273.036A3.133,3.133,0,0,1,54.871,22.2a7.769,7.769,0,0,1-.587,1.575c-.246.5-.58.963-.905,1.489.207.232.433.469.64.721,1.122,1.361,1.758,2.869,1.065,4.614A4.762,4.762,0,0,1,51.112,33.6a7.27,7.27,0,0,1-5.92-1.769,1.177,1.177,0,0,0-1.3-.23,21.7,21.7,0,0,1-11.187,1.045,27.173,27.173,0,0,1-3.772-1.426,2.27,2.27,0,0,0-.915-.116,20.619,20.619,0,0,1-3.421.241,5.743,5.743,0,0,1-5.466-5.784c-.357-5.793,1.995-10.394,6.36-14.054a22.644,22.644,0,0,1,6.193-3.651c.166-.066.331-.137.5-.194.761-.258,1.288-.092,1.458.5.2.71-.255.987-.816,1.25a38.883,38.883,0,0,0-4.319,2.141A15.162,15.162,0,0,0,21.065,22.57a12.749,12.749,0,0,0-.052,3.215c.316,2.739,2.46,4.217,5.3,3.765.225-.035.448-.094.668-.141,0-.069.027-.129.007-.166-1.556-2.916-1.172-5.851.2-8.638A15.974,15.974,0,0,1,38,11.877a6.17,6.17,0,0,1,1.753-.133,3.03,3.03,0,0,1,3.107,3.8,23.963,23.963,0,0,1-1.232,3.526,9.8,9.8,0,0,1-.57,1.086M37.945,21.67l-.145-.217q-1.7-.241-3.4-.481c-.785-.112-1.222-.521-1.109-1.089.141-.708.653-.846,1.285-.75,1.289.2,2.577.406,3.87.569.259.033.708-.035.785-.194A29.741,29.741,0,0,0,41,15.457c.391-1.273-.282-1.922-1.631-1.892a8.771,8.771,0,0,0-4.2,1.338c-3.4,1.96-6.023,4.584-7.025,8.515a6.289,6.289,0,0,0,.447,4.843c.25.44.508.6.964.294a55.269,55.269,0,0,0,4.641-3.1,47.112,47.112,0,0,0,3.747-3.789m6.092,1.146c-1.191-.281-2.334-.52-3.458-.829a.793.793,0,0,0-1.007.4,24.1,24.1,0,0,1-8.211,7.372c-.185.1-.359.227-.672.426,4.42,1.628,8.573.874,12.759-.362a6.863,6.863,0,0,1,.59-7m6.6,2.62c-1.255-.573-2.424-1.142-3.622-1.642-1.157-.484-1.209-.445-1.8.67a6.388,6.388,0,0,0-.439,1.059,4.106,4.106,0,0,0,.444,3.567,13.991,13.991,0,0,0,5.416-3.654M52.267,26.8l-5.5,3.923a5.4,5.4,0,0,0,3.631,1.121,3.086,3.086,0,0,0,2.982-1.933c.474-1.256-.237-2.213-1.065-3.077-.034-.036-.08-.061-.043-.034M52,24.092a17.652,17.652,0,0,0,1-2.08c.415-1.232-.209-2.044-1.518-2.11-1.716-.086-2.852.973-4.063,1.965L52,24.092" transform="translate(-3.439 -1.359)"/><g class="e" transform="translate(-4 0)"><path class="a" d="M52.932,58.973c0-.625.053-1.255-.008-1.875-.474-4.818,1.068-8.738,4.023-12.705,6.827-9.167,7.354-19.258,1.543-29.077C52.727,5.578,43.724,1.233,32.429,2.424A26.316,26.316,0,0,0,9.244,28.5a14.816,14.816,0,0,1-1.761,7.31c-1.676,3.154-3.189,6.4-4.742,9.615-.8,1.651-.61,1.994,1.21,2.425,4.735,1.123,5.662.414,6.011,7,.105,1.982.378,3.957.607,5.931a4.723,4.723,0,0,0,4.853,4.311q5.8.038,11.594,0a7.4,7.4,0,0,0,7.549-7.031c.033-.453.029-.909.032-1.363.005-.782.318-1.416,1.151-1.378.81.038,1.03.683,1.084,1.46A9.728,9.728,0,0,1,27.4,67.347c-4.032.131-8.071.091-12.105.008-3.9-.081-6.6-2.745-7.016-6.751-.274-2.655-.556-5.31-.729-7.972a1.9,1.9,0,0,0-1.765-2.079c-1.007-.16-2.006-.4-2.993-.655C.3,49.244-.655,47.241.464,44.92q2.849-5.9,5.793-11.756a6.231,6.231,0,0,0,.714-3.1C6.512,15.122,16.948,2.342,31.254.311c14.917-2.118,28.53,6.745,32.29,21.245,2.427,9.36.447,17.931-5.648,25.422a11.2,11.2,0,0,0-2.765,7.784c.112,3.578.028,7.161.025,10.742,0,.8.082,1.778-1.036,1.8-1.19.022-1.195-.956-1.19-1.85.011-2.16,0-4.32,0-6.48" transform="translate(0 0)"/></g></g></g></g></g></svg>