<svg width="125" height="128" viewBox="0 0 125 128" fill="none" xmlns="http://www.w3.org/2000/svg">
<g clip-path="url(#clip0_20_5848)">
<path d="M120 60C120 71.8669 116.481 83.4673 109.888 93.3342C103.295 103.201 93.9246 110.892 82.961 115.433C71.9975 119.974 59.9335 121.162 48.2946 118.847C36.6557 116.532 25.9648 110.818 17.5736 102.426C9.18247 94.0353 3.46802 83.3443 1.15291 71.7054C-1.1622 60.0666 0.0259972 48.0026 4.56726 37.039C9.10851 26.0754 16.7989 16.7047 26.6658 10.1118C36.5328 3.51894 48.1331 0 60 0C75.913 0 91.1743 6.32141 102.426 17.5736C113.679 28.8258 120 44.087 120 60Z" fill="#4E789B"/>
<mask id="mask0_20_5848" style="mask-type:luminance" maskUnits="userSpaceOnUse" x="25" y="19" width="75" height="77">
<path d="M99.313 19.9336H25.313V95.9336H99.313V19.9336Z" fill="white"/>
</mask>
<g mask="url(#mask0_20_5848)">
<path d="M76.7831 19.9336C77.7661 20.3586 78.7531 20.7746 79.7311 21.2116C81.1981 21.8666 82.0081 23.5056 81.8941 25.5496C81.8734 27.1631 81.2487 28.7102 80.1431 29.8856C80.0206 30.1562 79.9687 30.4534 79.9923 30.7495C80.0159 31.0456 80.1142 31.3308 80.2781 31.5786C83.5781 35.1106 84.3461 39.3396 83.9781 43.9586C83.6401 48.1956 83.4391 52.4436 83.0891 56.6796C82.8691 59.3336 83.7081 61.8236 84.0771 64.3796C84.3771 66.4676 84.8081 68.5386 85.1971 70.6136C85.2387 70.8764 85.3415 71.1258 85.4971 71.3416C89.1184 75.8749 92.7518 80.3969 96.3971 84.9076C97.1541 85.8406 98.0391 86.6686 98.8531 87.5566C99.0143 87.6755 99.1439 87.8321 99.2306 88.0127C99.3172 88.1934 99.3582 88.3925 99.3501 88.5926C99.3419 88.7928 99.2847 88.9879 99.1836 89.1608C99.0825 89.3338 98.9405 89.4793 98.7701 89.5846C96.9094 91.2279 95.0401 92.8613 93.1621 94.4846C92.8969 94.7647 92.5436 94.945 92.1612 94.9955C91.7788 95.0459 91.3908 94.9633 91.0621 94.7616C90.7304 94.5668 90.4713 94.2692 90.324 93.9139C90.1768 93.5585 90.1494 93.1649 90.2461 92.7926C90.4461 91.5556 90.6661 90.3226 90.8321 89.0816C90.8446 88.9463 90.8297 88.8099 90.7882 88.6806C90.7468 88.5512 90.6798 88.4315 90.5911 88.3286C88.1511 85.9366 85.6948 83.5619 83.2221 81.2046C82.9864 81.007 82.6905 80.8956 82.3831 80.8886C80.9091 80.8576 79.4331 80.8796 77.9581 80.8706C77.0891 80.8706 76.5781 80.4146 76.5831 79.6876C76.5881 78.9606 77.1081 78.5186 77.9751 78.5086C78.8031 78.4996 79.6311 78.5086 80.5751 78.5086C80.5129 78.3978 80.442 78.2922 80.3631 78.1926C78.8662 76.6579 77.7223 74.815 77.0111 72.7926C75.9371 69.9986 74.8341 67.2156 73.7341 64.4306C73.5765 64.1621 73.5249 63.8445 73.5895 63.5399C73.6541 63.2354 73.8301 62.966 74.0831 62.7846C74.7671 62.2846 75.5721 62.6086 75.9331 63.5266C76.9481 66.1066 78.0061 68.6716 78.9521 71.2766C79.8056 73.6655 81.198 75.8257 83.0211 77.5896C86.0851 80.5706 89.1011 83.6016 92.1711 86.6446L93.6801 85.3856C91.9551 83.2276 90.2701 81.1176 88.5801 79.0096C86.9371 76.9566 85.2661 74.9246 83.6681 72.8366C83.2628 72.2938 82.9852 71.6666 82.8561 71.0016C82.1081 67.0736 81.4231 63.1336 80.7311 59.2796L71.2311 59.6656C70.7081 61.6586 70.1511 63.8416 69.5611 66.0156C69.1311 67.6026 68.5611 69.1576 68.2321 70.7636C67.8411 72.6796 67.5841 74.6276 67.3731 76.5736C66.9391 80.5736 66.5731 84.5906 66.1831 88.5996C66.1819 88.7081 66.1866 88.8166 66.1971 88.9246C66.6714 88.9542 67.1473 88.9452 67.6201 88.8976C67.7881 88.8696 67.9931 88.5546 68.0331 88.3426C68.5561 85.5926 69.0431 82.8366 69.5591 80.0856C69.9841 77.8176 70.3731 75.5396 70.9021 73.2946C71.2046 72.2334 71.6105 71.2045 72.1141 70.2226C72.1788 70.0882 72.27 69.9682 72.3822 69.8698C72.4943 69.7715 72.6251 69.6967 72.7668 69.65C72.9085 69.6034 73.0582 69.5857 73.2069 69.5982C73.3555 69.6107 73.5001 69.653 73.6321 69.7226C73.8942 69.8402 74.1035 70.0506 74.2198 70.3133C74.3362 70.576 74.3512 70.8725 74.2621 71.1456C74.2584 71.17 74.2516 71.1938 74.2421 71.2166C72.7111 74.2616 72.5121 77.6426 71.8421 80.8986C71.1781 84.1186 70.6421 87.3676 70.1051 90.6126C69.9371 91.6266 69.9411 92.6686 69.8691 93.6976C69.8021 94.6576 69.4341 95.0376 68.4971 95.0526C66.1871 95.0899 63.8768 95.1179 61.5661 95.1366C61.1513 95.1946 60.7293 95.1062 60.3727 94.8865C60.0161 94.6669 59.7473 94.3298 59.6125 93.9332C59.4777 93.5367 59.4854 93.1056 59.6343 92.7141C59.7831 92.3226 60.0639 91.9954 60.4281 91.7886C61.3451 91.0886 62.2871 90.4156 63.1811 89.6886C63.4571 89.466 63.6519 89.1583 63.7351 88.8136C63.9491 87.5806 64.1211 86.3366 64.2261 85.0906C64.2274 84.7216 64.0837 84.3668 63.8261 84.1026C62.2087 82.7567 61.0571 80.9349 60.5351 78.8966C60.4259 78.0472 60.3901 77.1901 60.4281 76.3346C60.396 75.7979 60.4194 75.2594 60.4981 74.7276C60.5878 74.2826 60.7715 73.8618 61.0371 73.4936C61.5687 72.8742 61.9107 72.1147 62.0221 71.306C62.1334 70.4973 62.0095 69.6737 61.6651 68.9336C61.5764 68.757 61.4706 68.5895 61.3491 68.4336C61.2361 68.3011 61.1163 68.1746 60.9901 68.0546C60.9901 68.4006 60.9901 68.6016 60.9901 68.8016C61.0197 69.3453 60.9342 69.8892 60.7392 70.3976C60.5442 70.906 60.2442 71.3676 59.8586 71.7521C59.4731 72.1366 59.0107 72.4354 58.5017 72.629C57.9928 72.8226 57.4487 72.9067 56.9051 72.8756C53.9124 72.7242 50.9121 72.9104 47.9611 73.4306C45.2452 73.8797 42.4616 73.2429 40.2111 71.6576C39.0821 72.8186 37.9691 73.9626 36.8581 75.1106C36.7741 75.1966 36.6581 75.3006 36.6501 75.4036C36.5061 77.1276 35.6351 78.7126 36.1891 80.6036C36.4442 81.959 36.368 83.356 35.9671 84.6756C35.5469 86.2309 35.0159 87.7542 34.3781 89.2336C33.9681 90.2976 33.4681 91.3276 33.0071 92.3726L33.2521 92.5546C33.6353 92.2992 33.985 91.9969 34.2931 91.6546C35.7221 89.6036 37.1581 87.5546 38.4871 85.4386C39.0516 84.4334 39.5358 83.3851 39.9351 82.3036C40.3521 81.3216 40.7491 80.9706 41.4351 81.0906C42.0971 81.2066 42.3671 81.6226 42.4631 82.8486C43.4298 82.7952 44.3891 82.6496 45.3281 82.4136C47.7101 81.5816 50.0461 80.6136 52.3921 79.6866C52.6749 79.5339 53.0007 79.4805 53.3174 79.5349C53.6341 79.5893 53.9235 79.7483 54.1391 79.9866C56.178 82.0636 58.6735 83.6359 61.4271 84.5786C61.6111 84.6453 61.7938 84.7176 61.9751 84.7956C62.1362 84.838 62.2866 84.9138 62.4165 85.018C62.5465 85.1223 62.653 85.2527 62.7293 85.4008C62.8057 85.5489 62.85 85.7113 62.8595 85.8776C62.869 86.044 62.8434 86.2104 62.7845 86.3662C62.7255 86.522 62.6345 86.6637 62.5173 86.7821C62.4 86.9004 62.2593 86.9929 62.104 87.0533C61.9488 87.1138 61.7826 87.141 61.6162 87.1331C61.4498 87.1252 61.2869 87.0825 61.1381 87.0076C59.7131 86.4146 58.3131 85.7596 56.9121 85.1076C56.5121 84.9236 56.1501 84.6676 55.5531 84.3166C56.9931 88.0616 55.6471 90.7796 52.6941 92.9556L52.9201 93.1556C53.3464 93.0371 53.7605 92.8788 54.1571 92.6826C55.6229 91.769 56.8613 90.5334 57.7781 89.0696C57.8577 88.8955 57.9778 88.743 58.1284 88.6247C58.2789 88.5065 58.4556 88.426 58.6436 88.39C58.8317 88.354 59.0256 88.3635 59.2092 88.4177C59.3928 88.4719 59.5608 88.5692 59.6991 88.7016C59.924 88.918 60.0563 89.2131 60.0684 89.525C60.0805 89.8369 59.9715 90.1413 59.7641 90.3746C58.3721 92.6197 56.334 94.3915 53.9171 95.4576H52.1471C51.6571 95.3146 51.1541 95.2046 50.6791 95.0216C50.4322 94.9575 50.2056 94.8316 50.021 94.6556C49.8363 94.4796 49.6995 94.2594 49.6237 94.0158C49.5478 93.7723 49.5353 93.5134 49.5873 93.2636C49.6394 93.0139 49.7542 92.7816 49.9211 92.5886C50.4274 91.8959 51.0256 91.2752 51.6991 90.7436C52.6133 90.1424 53.2818 89.2336 53.5836 88.1818C53.8854 87.1301 53.8004 86.0051 53.3441 85.0106C53.0251 84.1426 52.7741 83.2486 52.4831 82.3366C50.9281 82.9366 49.4601 83.4756 48.0131 84.0686C46.5644 84.681 45.0235 85.0467 43.4541 85.1506C43.3368 85.1679 43.2254 85.2133 43.1295 85.2829C43.0335 85.3526 42.9559 85.4444 42.9031 85.5506C42.7414 86.1424 42.6511 86.7514 42.6341 87.3646C42.6046 87.6699 42.6452 87.9778 42.7529 88.265C42.8606 88.5522 43.0325 88.8109 43.2555 89.0215C43.4784 89.2321 43.7465 89.389 44.0394 89.4802C44.3322 89.5714 44.642 89.5944 44.9451 89.5476C44.6945 89.0141 44.4787 88.465 44.2991 87.9036C44.2441 87.7522 44.2221 87.5907 44.2347 87.4301C44.2473 87.2695 44.2942 87.1134 44.3722 86.9724C44.4502 86.8314 44.5574 86.7088 44.6868 86.6127C44.8161 86.5167 44.9646 86.4495 45.1221 86.4156C45.4221 86.3392 45.7401 86.3823 46.0089 86.5358C46.2778 86.6894 46.4765 86.9414 46.5631 87.2386C46.6867 87.4455 46.8782 87.6032 47.1051 87.6846C47.3679 87.7474 47.6355 87.7882 47.9051 87.8066C48.307 87.8789 48.6766 88.074 48.9632 88.365C49.2497 88.656 49.439 89.0286 49.5051 89.4316C49.5977 89.832 49.5515 90.2521 49.374 90.6228C49.1964 90.9934 48.8982 91.2928 48.5281 91.4716C48.005 91.734 47.4327 91.8836 46.8481 91.9106C45.774 91.9805 44.6955 91.9255 43.6341 91.7466C42.7632 91.5983 41.9656 91.1668 41.3649 90.519C40.7643 89.8711 40.3942 89.0432 40.3121 88.1636C40.2851 87.9936 40.2561 87.8236 40.2191 87.6556C40.2111 87.6176 40.1681 87.5886 40.1351 87.5466C39.2791 88.8336 38.4741 90.1466 37.5581 91.3876C36.8648 92.3089 36.0994 93.1736 35.2691 93.9736C34.8452 94.3825 34.3263 94.6798 33.7591 94.8386C33.3874 94.9882 32.9818 95.0332 32.5863 94.9688C32.1908 94.9043 31.8205 94.7328 31.5155 94.4729C31.2106 94.2129 30.9826 93.8745 30.8563 93.4942C30.73 93.1139 30.7102 92.7063 30.7991 92.3156C31.0482 90.9682 31.5061 89.6679 32.1561 88.4616C33.2016 86.5345 33.7975 84.3957 33.8991 82.2056C33.9138 81.623 33.852 81.041 33.7151 80.4746C33.4789 79.2393 33.5555 77.9646 33.9381 76.7666C34.0919 76.3322 34.1429 75.868 34.0871 75.4106C34.0504 75.2211 33.974 75.0415 33.8627 74.8838C33.7515 74.726 33.6081 74.5937 33.4419 74.4954C33.2757 74.3972 33.0906 74.3354 32.8988 74.3141C32.707 74.2927 32.5128 74.3123 32.3291 74.3716C31.5391 74.5376 30.7751 74.8236 29.9901 75.0166C28.9481 75.2377 27.861 75.0519 26.9516 74.4973C26.0423 73.9427 25.3794 73.0612 25.0991 72.0336C24.9377 71.6012 24.927 71.127 25.0688 70.6878C25.2105 70.2486 25.4964 69.8701 25.8801 69.6136C27.5621 68.5746 29.0591 67.3016 30.6421 66.1436C31.7689 65.51 32.7249 64.6123 33.4281 63.5276C34.2131 62.0636 35.4361 62.1496 36.1131 63.6646C36.9621 65.5646 38.7771 66.5806 39.9221 68.1926C40.0431 68.3626 40.5491 68.3576 40.8451 68.2926C45.9495 67.2132 50.8179 65.2235 55.2171 62.4186C57.4548 60.9806 59.4702 59.223 61.1991 57.2016C61.3388 57.0712 61.4405 56.9053 61.4933 56.7216C61.5462 56.5379 61.5481 56.3433 61.4991 56.1586C61.3978 55.6599 61.4295 55.1434 61.591 54.6609C61.7524 54.1784 62.038 53.7468 62.4191 53.4096C63.1583 52.6905 63.9455 52.0223 64.7751 51.4096C66.9451 49.7586 69.1481 48.1506 71.3171 46.4966C71.6147 46.254 71.8416 45.9359 71.9741 45.5756C72.5191 44.1036 73.0091 42.6106 73.5271 41.1286C73.8381 40.2406 74.4071 39.8926 75.1211 40.1286C75.8211 40.3626 76.0631 41.0146 75.7641 41.8936C75.1961 43.5666 74.6421 45.2456 74.0231 46.8996C73.8507 47.3505 73.5632 47.7484 73.1891 48.0536C71.3891 49.4626 69.5521 50.8206 67.7281 52.1986C67.5361 52.3436 67.3511 52.4986 67.1111 52.6886L67.9271 53.8886C69.9521 52.5756 71.8851 51.2256 73.9131 50.0386C74.5728 49.6926 75.1517 49.2107 75.6116 48.6246C76.0715 48.0386 76.4019 47.3617 76.5811 46.6386C76.8985 45.5538 77.2707 44.4858 77.6961 43.4386C77.7261 43.2673 77.793 43.1046 77.8922 42.9617C77.9913 42.8188 78.1204 42.6992 78.2703 42.6111C78.4203 42.523 78.5876 42.4686 78.7607 42.4516C78.9337 42.4346 79.1085 42.4554 79.2727 42.5126C79.4369 42.5698 79.5868 42.662 79.7118 42.7828C79.8369 42.9037 79.9342 43.0502 79.9971 43.2124C80.0599 43.3746 80.0867 43.5485 80.0756 43.722C80.0646 43.8956 80.0159 44.0647 79.9331 44.2176C79.3871 45.7946 78.8231 47.3646 78.2621 48.9366C77.9424 49.85 77.325 50.6294 76.5091 51.1496C73.1338 53.3496 69.7558 55.5439 66.3751 57.7326C65.604 58.2794 64.6501 58.504 63.7161 58.3586C63.6034 58.3559 63.4915 58.3775 63.3879 58.422C63.2843 58.4666 63.1916 58.5329 63.1161 58.6166C57.9091 64.6716 51.0911 67.9636 43.5861 70.0886L42.8351 70.2996L42.7951 70.5356C43.6578 70.8222 44.5507 71.0081 45.4561 71.0896C47.2401 71.0536 49.0171 70.7556 50.8021 70.6556C52.6361 70.5556 54.4751 70.5556 56.3121 70.5126C56.5121 70.5126 56.7041 70.5436 56.9011 70.5446C57.1784 70.5577 57.4545 70.5005 57.7037 70.3783C57.953 70.2562 58.1674 70.073 58.327 69.8459C58.4866 69.6188 58.5862 69.355 58.6167 69.0791C58.6471 68.8032 58.6073 68.524 58.5011 68.2676C58.2377 67.5117 58.1025 66.7171 58.1011 65.9166C58.1461 64.8606 58.8931 64.4606 59.9191 64.7566C60.8598 65.0164 61.7264 65.4936 62.4489 66.1497C63.1715 66.8058 63.7298 67.6225 64.0789 68.5339C64.428 69.4453 64.5582 70.4259 64.4588 71.3968C64.3595 72.3678 64.0335 73.3018 63.5071 74.1236C62.9455 75.0348 62.6555 76.0872 62.6711 77.1574C62.6867 78.2276 63.0072 79.2712 63.5951 80.1656C63.8461 80.5736 64.1651 80.9396 64.5841 81.5016C64.6731 80.5016 64.7411 79.7316 64.8101 78.9576C65.0101 76.7066 65.1101 74.4396 65.4471 72.2086C65.764 70.6482 66.1646 69.106 66.6471 67.5886C67.4357 64.5993 68.2197 61.6083 68.9991 58.6156C69.0601 58.3796 69.0881 58.1346 69.1261 57.8936C69.2781 56.9476 69.9551 56.6436 70.8901 56.7846C72.4813 57.0493 74.091 57.1874 75.7041 57.1976C77.3631 57.1816 79.0211 56.8976 80.7041 56.7296C80.7531 55.6886 80.7771 54.7576 80.8431 53.8296C81.1131 50.0296 81.4181 46.2296 81.6651 42.4296C81.8902 40.238 81.4828 38.0279 80.4911 36.0606C79.8611 35.0426 79.1638 34.0678 78.4041 33.1426C78.1231 32.7586 77.8291 32.3826 77.4841 31.9276L74.2491 33.9976C74.7141 34.8206 74.2751 35.4446 73.7981 36.1086C72.7123 37.7236 71.9712 39.5452 71.6211 41.4596C71.5681 41.6996 71.5301 41.9426 71.4651 42.1796C71.4359 42.3343 71.3763 42.4816 71.2896 42.613C71.2029 42.7444 71.091 42.8573 70.9602 42.945C70.8295 43.0326 70.6826 43.0934 70.5282 43.1238C70.3737 43.1541 70.2147 43.1534 70.0606 43.1217C69.9064 43.0899 69.76 43.0278 69.6301 42.939C69.5002 42.8501 69.3892 42.7363 69.3037 42.6041C69.2182 42.4719 69.1599 42.3241 69.1322 42.1691C69.1044 42.0142 69.1078 41.8552 69.1421 41.7016C69.5107 39.4167 70.3157 37.2242 71.5131 35.2436C71.6554 35.083 71.7464 34.8835 71.7746 34.6707C71.8027 34.458 71.7667 34.2417 71.6711 34.0496C71.6024 33.9103 71.5623 33.7588 71.5531 33.6038C71.544 33.4488 71.5659 33.2935 71.6176 33.1472C71.6693 33.0008 71.7498 32.8662 71.8543 32.7514C71.9588 32.6366 72.0852 32.5438 72.2261 32.4786C73.5701 31.6266 74.9031 30.7576 76.2871 29.8656C76.0931 29.6406 75.9311 29.4656 75.7821 29.2776C75.4798 28.8247 75.3152 28.294 75.3081 27.7495C75.301 27.2051 75.4517 26.6702 75.7421 26.2096C75.8749 26.0614 76.038 25.9435 76.2204 25.8639C76.4028 25.7844 76.6001 25.7451 76.7991 25.7486C77.2044 25.8748 77.5467 26.1499 77.7571 26.5186C77.9281 26.7976 77.8351 27.2316 77.8921 27.5916C77.9221 27.7796 77.9841 28.0716 78.1001 28.1086C78.1994 28.1284 78.3021 28.1227 78.3986 28.0921C78.4951 28.0615 78.5823 28.007 78.6521 27.9336C78.9825 27.4534 79.2346 26.9238 79.3991 26.3646C79.5027 25.7362 79.5128 25.0959 79.4291 24.4646C79.4336 24.3092 79.407 24.1545 79.3509 24.0096C79.2948 23.8646 79.2103 23.7323 79.1023 23.6205C78.9943 23.5087 78.865 23.4197 78.7221 23.3585C78.5792 23.2974 78.4255 23.2655 78.2701 23.2646C78.0497 23.252 77.8392 23.1685 77.6701 23.0266C77.2337 22.6212 76.6767 22.3696 76.084 22.31C75.4914 22.2504 74.8955 22.3862 74.3871 22.6966C74.0521 22.8416 73.7351 23.0276 73.3511 23.2246C73.5091 23.3596 73.6151 23.4456 73.7161 23.5386C73.892 23.6664 74.0281 23.8414 74.1086 24.0433C74.1891 24.2453 74.2108 24.4659 74.1712 24.6797C74.1315 24.8934 74.0321 25.0916 73.8845 25.2512C73.7369 25.4108 73.5471 25.5254 73.3371 25.5816C72.9371 25.7196 72.7761 25.9176 72.7891 26.3036C72.8251 27.3286 72.7991 28.3606 72.9231 29.3746C73.0331 30.2806 72.7951 30.8746 72.0501 31.0456C71.8803 31.0891 71.7028 31.0933 71.5311 31.0578C71.3594 31.0224 71.198 30.9482 71.0594 30.841C70.9207 30.7337 70.8083 30.5962 70.7308 30.439C70.6533 30.2818 70.6127 30.1089 70.6121 29.9336C70.4692 28.7931 70.3964 27.645 70.3941 26.4956C70.4898 25.7266 70.4804 24.9481 70.3661 24.1816C70.2826 23.7677 70.3169 23.3387 70.4653 22.9434C70.6136 22.5481 70.8699 22.2024 71.2051 21.9456C72.3315 20.9504 73.6925 20.258 75.1601 19.9336L76.7831 19.9336ZM35.1721 66.3286C34.4041 67.2856 34.3721 67.2936 33.5141 67.4616C32.9673 67.547 32.4427 67.7397 31.9708 68.0287C31.4988 68.3178 31.0887 68.6973 30.7641 69.1456C30.4429 69.5612 30.0442 69.9106 29.5901 70.1746C28.8701 70.6166 28.0971 70.9746 27.3551 71.3576C27.9181 72.5786 28.6671 72.9336 29.7791 72.6096C30.1321 72.5096 30.4851 72.4046 30.8351 72.2906C32.5161 71.7446 34.1171 71.6906 35.4661 73.0566L38.6091 69.8266L35.1711 66.3266M92.8991 91.5646L96.4361 88.4646L95.3121 87.2646C93.2991 88.6006 93.2261 88.7286 92.8991 91.5646ZM67.6411 91.4186C65.5691 91.0926 64.1461 91.5306 63.4111 92.6736H67.5531C67.5851 92.2156 67.6131 91.8136 67.6411 91.4186ZM65.1571 54.0756C64.7809 54.4139 64.4228 54.7718 64.0841 55.1476C63.9601 55.2976 63.9841 55.5696 63.9421 55.7856C64.2051 55.8326 64.5091 55.9856 64.7231 55.9056C65.1429 55.708 65.5444 55.4737 65.9231 55.2056L65.1561 54.0786" fill="white"/>
</g>
<mask id="mask1_20_5848" style="mask-type:luminance" maskUnits="userSpaceOnUse" x="24" y="19" width="76" height="77">
<path d="M67.6411 91.4186C67.6131 91.8186 67.5851 92.2186 67.5531 92.6736H63.4111C64.1461 91.5306 65.5701 91.0916 67.6411 91.4186ZM95.3121 87.2616L96.4361 88.4616L92.8991 91.5616C93.2261 88.7226 93.2991 88.5946 95.3121 87.2616ZM27.3561 71.3566C28.0971 70.9706 28.8711 70.6156 29.5911 70.1736C30.0452 69.9096 30.4439 69.5602 30.7651 69.1446C31.0898 68.6967 31.4998 68.3173 31.9716 68.0283C32.4433 67.7393 32.9675 67.5464 33.5141 67.4606C34.3751 67.2926 34.4041 67.2856 35.1721 66.3276L38.6101 69.8276L35.4671 73.0576C34.1171 71.6966 32.5161 71.7456 30.8351 72.2916C30.4851 72.4046 30.1351 72.5076 29.7791 72.6096C29.5473 72.6809 29.3065 72.719 29.0641 72.7226C28.3311 72.7226 27.7881 72.2956 27.3561 71.3566ZM63.9421 55.7846C63.9851 55.5686 63.9611 55.2966 64.0841 55.1466C64.4227 54.7708 64.7809 54.4129 65.1571 54.0746L65.9241 55.2016C65.5454 55.4697 65.1438 55.7039 64.7241 55.9016C64.6793 55.9181 64.6318 55.9263 64.5841 55.9256C64.367 55.8942 64.1527 55.8461 63.9431 55.7816M75.1611 19.9336C73.6933 20.2587 72.3323 20.9517 71.2061 21.9476C70.8709 22.2044 70.6146 22.5501 70.4663 22.9454C70.3179 23.3407 70.2836 23.7697 70.3671 24.1836C70.4814 24.9501 70.4908 25.7286 70.3951 26.4976C70.3975 27.6463 70.4703 28.7938 70.6131 29.9336C70.6141 30.1083 70.6549 30.2805 70.7323 30.4371C70.8097 30.5937 70.9217 30.7307 71.0599 30.8376C71.1981 30.9446 71.3587 31.0187 71.5297 31.0544C71.7008 31.09 71.8777 31.0864 72.0471 31.0436C72.7921 30.8776 73.0301 30.2786 72.9201 29.3726C72.7971 28.3586 72.8201 27.3256 72.7861 26.3016C72.7731 25.9156 72.9311 25.7176 73.3341 25.5796C73.5448 25.5238 73.7354 25.4093 73.8836 25.2495C74.0318 25.0896 74.1315 24.8909 74.1712 24.6766C74.2109 24.4622 74.189 24.241 74.1079 24.0387C74.0267 23.8363 73.8898 23.6612 73.7131 23.5336C73.6131 23.4416 73.5061 23.3546 73.3481 23.2196C73.7321 23.0196 74.0481 22.8366 74.3841 22.6916C74.8924 22.3812 75.4883 22.2454 76.081 22.305C76.6737 22.3646 77.2306 22.6162 77.6671 23.0216C77.8362 23.1634 78.0467 23.2469 78.2671 23.2596C78.4225 23.2605 78.5762 23.2924 78.7191 23.3535C78.862 23.4147 78.9913 23.5037 79.0992 23.6155C79.2072 23.7273 79.2918 23.8596 79.3479 24.0046C79.404 24.1495 79.4306 24.3042 79.4261 24.4596C79.5098 25.0909 79.4997 25.7312 79.3961 26.3596C79.2333 26.9203 78.9825 27.4516 78.6531 27.9336C78.5838 28.0065 78.4973 28.0608 78.4015 28.0916C78.3058 28.1223 78.2038 28.1285 78.1051 28.1096C77.9901 28.0726 77.9271 27.7806 77.8971 27.5926C77.8401 27.2326 77.9331 26.7996 77.7621 26.5196C77.5518 26.1509 77.2094 25.8757 76.8041 25.7496C76.6043 25.7449 76.4058 25.7835 76.2223 25.8627C76.0388 25.9419 75.8746 26.0599 75.7411 26.2086C75.4507 26.6692 75.3 27.2041 75.3071 27.7485C75.3142 28.293 75.4788 28.8237 75.7811 29.2766C75.9301 29.4636 76.0921 29.6396 76.2861 29.8656C74.9021 30.7576 73.5691 31.6266 72.2251 32.4786C72.0842 32.5438 71.9578 32.6366 71.8533 32.7514C71.7487 32.8662 71.6683 33.0008 71.6166 33.1472C71.5648 33.2935 71.5429 33.4488 71.5521 33.6038C71.5613 33.7588 71.6014 33.9103 71.6701 34.0496C71.7657 34.2417 71.8017 34.458 71.7736 34.6707C71.7454 34.8835 71.6544 35.083 71.5121 35.2436C70.3148 37.2243 69.5099 39.4168 69.1411 41.7016C69.1068 41.8552 69.1034 42.0142 69.1311 42.1691C69.1589 42.3241 69.2172 42.4719 69.3027 42.6041C69.3882 42.7363 69.4991 42.8501 69.6291 42.939C69.759 43.0278 69.9053 43.0899 70.0595 43.1217C70.2137 43.1534 70.3727 43.1541 70.5271 43.1238C70.6816 43.0934 70.8285 43.0326 70.9592 42.945C71.0899 42.8573 71.2019 42.7444 71.2886 42.613C71.3753 42.4816 71.4349 42.3343 71.4641 42.1796C71.5291 41.9436 71.5641 41.6996 71.6201 41.4596C71.9707 39.5446 72.7129 37.7226 73.8001 36.1076C74.2771 35.4446 74.7151 34.8196 74.2511 33.9966L77.4861 31.9336C77.8311 32.3886 78.1241 32.7646 78.4061 33.1486C79.166 34.0737 79.8632 35.0485 80.4931 36.0666C81.4841 38.0333 81.8912 40.2428 81.6661 42.4336C81.4191 46.2336 81.1141 50.0336 80.8441 53.8336C80.7781 54.7616 80.7541 55.6926 80.7051 56.7336C79.0191 56.9026 77.3621 57.1856 75.7051 57.2016C74.092 57.1914 72.4823 57.0533 70.8911 56.7886C69.9561 56.6476 69.2791 56.9516 69.1271 57.8976C69.0881 58.1396 69.0611 58.3846 69.0001 58.6206C68.2207 61.6126 67.4384 64.6039 66.6531 67.5946C66.1705 69.112 65.7699 70.6542 65.4531 72.2146C65.1171 74.4456 65.0171 76.7146 64.8161 78.9636C64.7471 79.7366 64.6791 80.5106 64.5901 81.5076C64.1711 80.9456 63.8521 80.5796 63.6011 80.1716C63.0132 79.2772 62.6926 78.2336 62.677 77.1634C62.6615 76.0932 62.9515 75.0408 63.5131 74.1296C64.0395 73.3078 64.3655 72.3738 64.4648 71.4028C64.5641 70.4319 64.434 69.4513 64.0849 68.5399C63.7358 67.6285 63.1775 66.8118 62.4549 66.1557C61.7324 65.4996 60.8658 65.0224 59.9251 64.7626C58.8981 64.4626 58.1511 64.8626 58.1071 65.9226C58.1084 66.7231 58.2436 67.5177 58.5071 68.2736C58.6133 68.53 58.6531 68.8092 58.6226 69.0851C58.5922 69.361 58.4926 69.6248 58.333 69.8519C58.1734 70.079 57.959 70.2622 57.7097 70.3843C57.4604 70.5065 57.1843 70.5637 56.9071 70.5506C56.7071 70.5506 56.5141 70.5136 56.3181 70.5186C54.4811 70.5586 52.6421 70.5576 50.8081 70.6616C49.0231 70.7616 47.2461 71.0616 45.4621 71.0956C44.556 71.0118 43.6627 70.8232 42.8001 70.5336L42.8401 70.2976L43.5911 70.0866C51.0911 67.9616 57.9141 64.6696 63.1201 58.6256C63.1956 58.542 63.2884 58.4757 63.3919 58.4311C63.4955 58.3866 63.6074 58.3649 63.7201 58.3676C64.6541 58.513 65.608 58.2884 66.3791 57.7416C69.7611 55.5536 73.1391 53.3589 76.5131 51.1576C77.3291 50.6374 77.9465 49.858 78.2661 48.9446C78.8271 47.3726 79.3911 45.8026 79.9371 44.2256C80.0198 44.0727 80.0684 43.9037 80.0794 43.7302C80.0904 43.5568 80.0635 43.383 80.0008 43.2209C79.938 43.0588 79.8407 42.9123 79.7157 42.7915C79.5907 42.6707 79.441 42.5784 79.2769 42.5212C79.1127 42.464 78.9381 42.4431 78.7651 42.46C78.5921 42.4769 78.4248 42.5312 78.2749 42.6191C78.1249 42.707 77.9959 42.8264 77.8966 42.9691C77.7974 43.1119 77.7303 43.2744 77.7001 43.4456C77.2745 44.4927 76.9024 45.5608 76.5851 46.6456C76.4059 47.3687 76.0755 48.0456 75.6156 48.6317C75.1557 49.2177 74.5768 49.6996 73.9171 50.0456C71.8891 51.2326 69.9561 52.5826 67.9311 53.8956L67.1151 52.6956C67.3551 52.5046 67.5401 52.3506 67.7321 52.2056C69.5551 50.8276 71.3941 49.4696 73.1921 48.0606C73.5664 47.7559 73.8543 47.3583 74.0271 46.9076C74.6461 45.2536 75.2001 43.5746 75.7681 41.9016C76.0681 41.0226 75.8211 40.3706 75.1251 40.1356C74.4111 39.8956 73.8421 40.2436 73.5311 41.1356C73.0121 42.6176 72.5231 44.1106 71.9781 45.5826C71.8458 45.9431 71.6189 46.2612 71.3211 46.5036C69.1531 48.1576 66.9501 49.7656 64.7801 51.4166C63.9504 52.0292 63.1633 52.6974 62.4241 53.4166C62.0429 53.7539 61.7571 54.1856 61.5957 54.6683C61.4342 55.1511 61.4026 55.6678 61.5041 56.1666C61.5531 56.3513 61.5511 56.5459 61.4983 56.7296C61.4455 56.9133 61.3438 57.0792 61.2041 57.2096C59.4753 59.2303 57.4604 60.9872 55.2231 62.4246C50.8239 65.2295 45.9555 67.2193 40.8511 68.2986C40.5511 68.3646 40.0511 68.3696 39.9281 68.1986C38.7841 66.5866 36.9681 65.5706 36.1191 63.6706C35.4421 62.1546 34.2191 62.0706 33.4341 63.5336C32.7306 64.6184 31.7742 65.5162 30.6471 66.1496C29.0601 67.3006 27.5631 68.5746 25.8811 69.6136C25.4974 69.8701 25.2115 70.2486 25.0697 70.6878C24.928 71.127 24.9387 71.6012 25.1001 72.0336C25.3815 73.0603 26.0447 73.9406 26.954 74.4942C27.8633 75.0478 28.9498 75.2329 29.9911 75.0116C30.7761 74.8176 31.5401 74.5316 32.3301 74.3666C32.5138 74.3072 32.7081 74.2874 32.9001 74.3087C33.092 74.33 33.2773 74.3918 33.4435 74.49C33.6098 74.5882 33.7534 74.7206 33.8646 74.8785C33.9759 75.0363 34.0524 75.216 34.0891 75.4056C34.1448 75.863 34.0938 76.3272 33.9401 76.7616C33.5574 77.9599 33.4807 79.235 33.7171 80.4706C33.854 81.0384 33.9155 81.6217 33.9001 82.2056C33.7986 84.3957 33.2027 86.5345 32.1571 88.4616C31.5071 89.6679 31.0493 90.9682 30.8001 92.3156C30.7123 92.706 30.733 93.1129 30.8598 93.4924C30.9865 93.8719 31.2146 94.2095 31.5194 94.4688C31.8242 94.728 32.194 94.899 32.5889 94.9633C32.9838 95.0276 33.3888 94.9828 33.7601 94.8336C34.3273 94.6748 34.8462 94.3776 35.2701 93.9686C36.1004 93.1686 36.8658 92.3039 37.5591 91.3826C38.4741 90.1466 39.2801 88.8296 40.1361 87.5416C40.1701 87.5836 40.2121 87.6136 40.2201 87.6506C40.2571 87.8186 40.2861 87.9886 40.3131 88.1586C40.3952 89.0382 40.7653 89.8661 41.3659 90.5139C41.9665 91.1618 42.7642 91.5933 43.6351 91.7416C44.6964 91.9208 45.775 91.9762 46.8491 91.9066C47.4336 91.8795 48.006 91.73 48.5291 91.4676C48.8991 91.2888 49.1974 90.9894 49.375 90.6188C49.5525 90.2481 49.5987 89.828 49.5061 89.4276C49.44 89.0246 49.2507 88.652 48.9641 88.361C48.6776 88.07 48.308 87.8749 47.9061 87.8026C47.6365 87.7846 47.3689 87.7441 47.1061 87.6816C46.8792 87.6002 46.6876 87.4425 46.5641 87.2356C46.4774 86.9381 46.2786 86.686 46.0095 86.5324C45.7405 86.3789 45.4222 86.3359 45.1221 86.4126C44.9643 86.4465 44.8156 86.5139 44.6861 86.6102C44.5566 86.7065 44.4493 86.8295 44.3713 86.9708C44.2934 87.1121 44.2467 87.2685 44.2344 87.4295C44.2221 87.5904 44.2445 87.7521 44.3001 87.9036C44.4812 88.4648 44.6987 89.0136 44.9511 89.5466C44.648 89.5934 44.3382 89.5704 44.0453 89.4792C43.7525 89.388 43.4844 89.2311 43.2614 89.0205C43.0385 88.8099 42.8666 88.5512 42.7589 88.264C42.6512 87.9768 42.6106 87.6689 42.6401 87.3636C42.6568 86.7503 42.7472 86.1413 42.9091 85.5496C42.9618 85.4434 43.0394 85.3515 43.1354 85.2818C43.2313 85.2122 43.3427 85.1668 43.4601 85.1496C45.0295 85.0461 46.5705 84.6804 48.0191 84.0676C49.4651 83.4746 50.9341 82.9356 52.4891 82.3356C52.7801 83.2466 53.0311 84.1406 53.3501 85.0086C53.8065 86.0038 53.891 87.1297 53.5882 88.182C53.2855 89.2342 52.6156 90.1431 51.7001 90.7436C51.0247 91.2764 50.4252 91.8988 49.9181 92.5936C49.7512 92.7866 49.6363 93.0189 49.5843 93.2686C49.5322 93.5184 49.5448 93.7773 49.6206 94.0208C49.6965 94.2644 49.8333 94.4846 50.0179 94.6606C50.2026 94.8365 50.4291 94.9625 50.6761 95.0266C51.1511 95.2096 51.6541 95.3196 52.1441 95.4626H53.9141C56.331 94.3965 58.3691 92.6247 59.7611 90.3796C59.9685 90.1463 60.0775 89.8419 60.0654 89.53C60.0533 89.2181 59.9209 88.923 59.6961 88.7066C59.5577 88.5742 59.3898 88.4769 59.2062 88.4227C59.0226 88.3685 58.8286 88.359 58.6406 88.395C58.4526 88.431 58.2759 88.5115 58.1253 88.6297C57.9748 88.748 57.8547 88.9005 57.7751 89.0746C56.8578 90.5384 55.6192 91.774 54.1531 92.6876C53.7565 92.8838 53.3424 93.0422 52.9161 93.1606L52.6901 92.9606C55.6431 90.7846 56.9901 88.0666 55.5491 84.3216C56.1491 84.6726 56.5101 84.9286 56.9081 85.1126C58.3081 85.7626 59.7081 86.4126 61.1341 87.0126C61.2829 87.0875 61.4458 87.1302 61.6122 87.1381C61.7786 87.146 61.9448 87.1188 62.1 87.0583C62.2552 86.9979 62.396 86.9054 62.5132 86.7871C62.6305 86.6687 62.7215 86.527 62.7805 86.3712C62.8394 86.2154 62.865 86.049 62.8555 85.8826C62.846 85.7163 62.8016 85.5538 62.7253 85.4058C62.649 85.2577 62.5424 85.1273 62.4125 85.023C62.2826 84.9188 62.1322 84.843 61.9711 84.8006C61.7904 84.7246 61.6077 84.6523 61.4231 84.5836C58.6696 83.6406 56.1742 82.0683 54.1351 79.9916C53.9195 79.7536 53.6303 79.5946 53.3138 79.5403C52.9973 79.4859 52.6717 79.5392 52.3891 79.6916C50.0431 80.6226 47.7071 81.5866 45.3251 82.4186C44.3861 82.6546 43.4267 82.8002 42.4601 82.8536C42.3601 81.6276 42.0941 81.2126 41.4321 81.0956C40.7451 80.9746 40.3471 81.3266 39.9321 82.3086C39.5328 83.3898 39.0486 84.4377 38.4841 85.4426C37.1551 87.5586 35.7201 89.6086 34.2901 91.6586C33.982 92.0009 33.6323 92.3032 33.2491 92.5586L33.0031 92.3766C33.4631 91.3316 33.9641 90.3026 34.3741 89.2376C35.0125 87.7569 35.5439 86.2323 35.9641 84.6756C36.3649 83.3559 36.4411 81.959 36.1861 80.6036C35.6331 78.7126 36.5031 77.1266 36.6471 75.4036C36.6561 75.3036 36.7721 75.1976 36.8551 75.1106C37.9661 73.9636 39.0791 72.8196 40.2081 71.6576C42.4594 73.2452 45.2451 73.8832 47.9631 73.4336C50.9141 72.9136 53.9143 72.7275 56.9071 72.8786C57.4507 72.9096 57.9948 72.8256 58.5037 72.632C59.0127 72.4384 59.475 72.1396 59.8606 71.7551C60.2461 71.3706 60.5462 70.909 60.7412 70.4006C60.9362 69.8922 61.0217 69.3483 60.9921 68.8046C60.9921 68.6046 60.9921 68.4046 60.9921 68.0576C61.1182 68.1776 61.2381 68.3041 61.3511 68.4366C61.4725 68.5925 61.5783 68.76 61.6671 68.9366C62.0115 69.6769 62.1354 70.5008 62.0239 71.3097C61.9123 72.1186 61.5701 72.8782 61.0381 73.4976C60.7724 73.8658 60.5887 74.2865 60.4991 74.7316C60.4205 75.2634 60.397 75.8019 60.4291 76.3386C60.3911 77.1941 60.4269 78.0512 60.5361 78.9006C61.058 80.9389 62.2097 82.7607 63.8271 84.1066C64.0847 84.3704 64.2283 84.7249 64.2271 85.0936C64.1221 86.3406 63.9501 87.5836 63.7361 88.8166C63.6529 89.1614 63.4582 89.469 63.1821 89.6916C62.2881 90.4216 61.3461 91.0916 60.4291 91.7916C60.0694 92.0003 59.793 92.327 59.6469 92.7164C59.5009 93.1058 59.4942 93.5337 59.6279 93.9274C59.7616 94.3212 60.0276 94.6565 60.3805 94.8764C60.7335 95.0963 61.1517 95.1871 61.5641 95.1336C63.8747 95.1163 66.1851 95.0879 68.4951 95.0486C69.4321 95.0336 69.7951 94.6536 69.8671 93.6936C69.9391 92.6646 69.9351 91.6216 70.1031 90.6086C70.6411 87.3636 71.1761 84.1156 71.8401 80.8946C72.5121 77.6386 72.7111 74.2576 74.2401 71.2126C74.2496 71.1898 74.2563 71.166 74.2601 71.1416C74.3492 70.8686 74.3343 70.5723 74.2182 70.3096C74.1021 70.0469 73.893 69.8364 73.6311 69.7186C73.4991 69.649 73.3545 69.6067 73.2058 69.5942C73.0572 69.5817 72.9075 69.5994 72.7658 69.646C72.6241 69.6927 72.4933 69.7675 72.3811 69.8658C72.269 69.9642 72.1778 70.0842 72.1131 70.2186C71.6089 71.2027 71.2026 72.234 70.9001 73.2976C70.3711 75.5416 69.9821 77.8196 69.5571 80.0886C69.0411 82.8396 68.5571 85.5956 68.0311 88.3446C67.9901 88.5566 67.7861 88.8726 67.6181 88.8996C67.1449 88.9473 66.6687 88.9563 66.1941 88.9266C66.1837 88.8186 66.179 88.7101 66.1801 88.6016C66.5711 84.5926 66.9361 80.5806 67.3701 76.5756C67.5811 74.6296 67.8381 72.6816 68.2291 70.7656C68.5571 69.1596 69.1291 67.6046 69.5581 66.0176C70.1471 63.8436 70.7051 61.6606 71.2271 59.6676L80.7271 59.2816C81.4181 63.1356 82.1041 67.0756 82.8521 71.0036C82.9839 71.6673 83.2635 72.2928 83.6701 72.8336C85.2701 74.9206 86.9391 76.9526 88.5821 79.0066C90.2681 81.1146 91.9531 83.2246 93.6821 85.3826L92.1731 86.6416C89.1031 83.5986 86.0871 80.5676 83.0231 77.5866C81.1998 75.8227 79.8075 73.6625 78.9541 71.2736C78.0081 68.6686 76.9541 66.1036 75.9351 63.5226C75.5741 62.6046 74.7691 62.2796 74.0851 62.7806C73.8321 62.962 73.656 63.2314 73.5915 63.5359C73.5269 63.8405 73.5785 64.1581 73.7361 64.4266C74.8361 67.2116 75.9361 69.9946 77.0121 72.7886C77.7233 74.811 78.8672 76.6539 80.3641 78.1886C80.4427 78.2883 80.5136 78.394 80.5761 78.5046C79.6331 78.5046 78.8051 78.4976 77.9761 78.5046C77.1091 78.5146 76.5881 78.9626 76.5841 79.6836C76.5801 80.4046 77.0901 80.8616 77.9591 80.8666C78.5001 80.8666 79.0421 80.8666 79.5841 80.8666C80.5171 80.8666 81.4511 80.8666 82.3841 80.8826C82.6919 80.8897 82.9882 81.0015 83.2241 81.1996C85.6974 83.5569 88.1537 85.9316 90.5931 88.3236C90.6816 88.4266 90.7485 88.5463 90.7897 88.6757C90.8309 88.805 90.8457 88.9414 90.8331 89.0766C90.6671 90.3176 90.4441 91.5506 90.2471 92.7866C90.1504 93.1589 90.1777 93.5526 90.325 93.9079C90.4723 94.2632 90.7314 94.5608 91.0631 94.7556C91.3919 94.9572 91.78 95.0396 92.1624 94.989C92.5447 94.9384 92.898 94.7578 93.1631 94.4776C95.0404 92.8529 96.9097 91.2196 98.7711 89.5776C98.9342 89.4606 99.0703 89.31 99.1704 89.1359C99.2704 88.9619 99.332 88.7684 99.3511 88.5686V88.5516C99.3137 88.1679 99.1356 87.8117 98.8511 87.5516C98.0371 86.6636 97.1511 85.8356 96.3951 84.9016C92.7437 80.4016 89.1121 75.8823 85.5001 71.3436C85.3445 71.1278 85.2417 70.8784 85.2001 70.6156C84.8111 68.5406 84.3811 66.4706 84.0801 64.3816C83.7101 61.8206 82.8731 59.3306 83.0921 56.6816C83.4431 52.4456 83.6431 48.1976 83.9811 43.9606C84.3501 39.3416 83.5811 35.1126 80.2811 31.5806C80.1173 31.3328 80.019 31.0476 79.9954 30.7515C79.9718 30.4554 80.0236 30.1582 80.1461 29.8876C81.2534 28.7119 81.8793 27.1635 81.9001 25.5486C82.0141 23.5046 81.2001 21.8666 79.7371 21.2106C78.7541 20.7746 77.7671 20.3586 76.7841 19.9336H75.1611Z" fill="white"/>
</mask>
<g mask="url(#mask1_20_5848)">
<path d="M59.922 55.9268L64.422 59.4208L52.699 67.8618L42.833 70.2988L32.98 77.7098L31.502 75.4588L43.322 66.3268L59.922 55.9268Z" fill="white"/>
<path d="M59.8748 55.9268L64.9338 59.8528L51.7598 69.3378L42.7978 70.5378L39.9238 68.1938L59.8748 55.9268Z" fill="white"/>
</g>
</g>
<defs>
<clipPath id="clip0_20_5848">
<rect width="125" height="128" fill="white"/>
</clipPath>
</defs>
</svg>
