<svg width="125" height="128" viewBox="0 0 125 128" fill="none" xmlns="http://www.w3.org/2000/svg">
<g clip-path="url(#clip0_20_5924)">
<path d="M120 60C120 71.8669 116.481 83.4673 109.888 93.3342C103.295 103.201 93.9246 110.892 82.961 115.433C71.9975 119.974 59.9335 121.162 48.2946 118.847C36.6557 116.532 25.9648 110.818 17.5736 102.426C9.18247 94.0353 3.46802 83.3443 1.15291 71.7054C-1.1622 60.0666 0.0259972 48.0026 4.56726 37.039C9.10851 26.0754 16.7989 16.7047 26.6658 10.1118C36.5328 3.51894 48.1331 0 60 0C75.913 0 91.1743 6.32141 102.426 17.5736C113.679 28.8258 120 44.087 120 60Z" fill="#4E789B"/>
<mask id="mask0_20_5924" style="mask-type:luminance" maskUnits="userSpaceOnUse" x="27" y="21" width="71" height="72">
<path d="M97.834 21.0674H27V92.3584H97.834V21.0674Z" fill="white"/>
</mask>
<g mask="url(#mask0_20_5924)">
<path d="M65.7259 21.4062C66.5059 21.5863 67.2959 21.7323 68.0659 21.9513C70.7988 22.7202 73.2153 24.3406 74.9643 26.5768C76.7134 28.813 77.7039 31.5486 77.7919 34.3862C77.8919 39.0942 77.8229 43.8062 77.8189 48.5173C77.8189 49.2983 77.4289 49.7173 76.7779 49.7043C76.1419 49.6952 75.7609 49.2672 75.7519 48.4852C75.7359 47.1722 75.7519 45.8592 75.7519 44.5042L73.9759 44.5923C73.5264 47.095 72.2368 49.3695 70.3199 51.0402C69.9325 51.3093 69.6428 51.6968 69.4944 52.1445C69.346 52.5923 69.3469 53.0761 69.4969 53.5233C69.6969 54.3013 69.7599 55.1152 69.8839 55.9123C69.9038 56.2043 70.0101 56.4838 70.1892 56.7153C70.3683 56.9467 70.6122 57.1197 70.8899 57.2122C72.4319 57.8247 74.0975 58.0609 75.7489 57.9013C75.7489 57.2283 75.7489 56.5252 75.7489 55.8223C75.7489 55.1193 75.7369 54.4363 75.7489 53.7443C75.7669 52.9773 76.1609 52.5333 76.7879 52.5303C77.4149 52.5273 77.8109 52.9613 77.8179 53.7303C77.8289 55.1143 77.8179 56.4983 77.8179 57.9513C79.014 58.1384 80.1004 58.7562 80.8729 59.6883C81.0729 59.9253 81.5429 59.9632 81.8999 60.0373C83.5844 60.3238 85.1483 61.0967 86.399 62.2609C87.6497 63.425 88.5326 64.9296 88.9389 66.5893C89.9489 69.9433 91.0779 73.2613 92.1739 76.5893C92.7023 78.0032 92.843 79.5326 92.5816 81.0192C92.3201 82.5058 91.666 83.8955 90.6869 85.0443C90.6179 85.1302 90.5559 85.2223 90.4029 85.4313C91.4669 85.4313 92.4209 85.4253 93.3739 85.4313C93.8811 85.4115 94.3889 85.4316 94.8929 85.4912C95.6646 85.6082 96.3725 85.9871 96.8979 86.5644C97.4232 87.1416 97.7339 87.882 97.7779 88.6612C97.8352 89.4397 97.6257 90.2144 97.1841 90.858C96.7424 91.5016 96.0949 91.9757 95.3479 92.2022C95.2189 92.2452 95.0939 92.3022 94.9679 92.3522H29.8289C29.6159 92.2682 29.4029 92.1872 29.1909 92.1012C28.6295 91.8814 28.1357 91.5181 27.7585 91.0477C27.3814 90.5773 27.1343 90.0162 27.0418 89.4205C26.9493 88.8247 27.0147 88.2151 27.2314 87.6525C27.4481 87.0899 27.8086 86.594 28.2769 86.2142C28.9275 85.6839 29.7469 85.4049 30.5859 85.4283C31.8179 85.4283 33.0499 85.4283 34.2799 85.4283C34.2799 85.3143 34.2889 85.2862 34.2799 85.2722C34.1559 85.1062 34.0289 84.9433 33.9039 84.7773C33.0459 83.7244 32.4656 82.4733 32.2159 81.1383C31.9663 79.8033 32.0554 78.427 32.4749 77.1353C33.6659 73.2912 34.9319 69.4632 36.1999 65.6353C36.776 63.753 38.069 62.1727 39.7999 61.2353C40.9487 60.7143 42.1334 60.2765 43.3449 59.9253C43.5579 59.8483 43.8449 59.8253 43.9649 59.6673C44.7206 58.7371 45.7981 58.1246 46.9839 57.9513V57.0173C46.9839 49.5623 46.9229 42.1063 47.0049 34.6523C47.0384 31.6362 48.0911 28.7202 49.9917 26.3781C51.8924 24.0361 54.5294 22.4058 57.4739 21.7522C58.0069 21.6272 58.5439 21.5213 59.0789 21.4062H65.7259ZM43.0999 62.1423C41.9442 62.3315 40.8641 62.8392 39.9809 63.6083C39.0976 64.3774 38.4463 65.3775 38.0999 66.4963C36.8779 70.2183 35.6489 73.9393 34.4929 77.6823C34.2688 78.5027 34.1816 79.3544 34.2349 80.2033C34.2989 81.9373 35.3559 83.2032 36.3449 84.5342C37.0989 85.5502 37.9719 85.4982 39.0109 85.3822C38.9459 85.0632 38.8969 84.7923 38.8349 84.5253C38.7026 84.1436 38.6726 83.734 38.7479 83.3371C38.8233 82.9403 39.0014 82.5701 39.2645 82.2636C39.5276 81.9571 39.8665 81.725 40.2473 81.5903C40.6282 81.4557 41.0377 81.4232 41.4349 81.4963C41.9729 81.5443 42.5199 81.5033 43.1079 81.5033C43.1079 79.1183 43.1079 76.8573 43.1079 74.5963C43.0925 74.1117 43.1022 73.6268 43.1369 73.1432C43.1382 73.026 43.1638 72.9103 43.2121 72.8035C43.2605 72.6966 43.3305 72.601 43.4178 72.5227C43.505 72.4444 43.6076 72.385 43.719 72.3485C43.8304 72.3119 43.9482 72.2989 44.0649 72.3102C44.4636 72.4151 44.8171 72.6472 45.0719 72.9713C45.2209 73.1373 45.1779 73.4993 45.1789 73.7713C45.1859 76.0803 45.1789 78.3893 45.1789 80.6982V81.4643H79.5789C79.5989 81.2533 79.6299 81.0753 79.6299 80.8973C79.6299 74.7559 79.6299 68.6143 79.6299 62.4723C79.6624 62.1413 79.6203 61.8073 79.5067 61.4948C79.3931 61.1824 79.2108 60.8993 78.9734 60.6666C78.7359 60.4338 78.4493 60.2572 78.1346 60.1499C77.8199 60.0425 77.4851 60.0071 77.1549 60.0462C67.3176 60.0409 57.4799 60.0409 47.6419 60.0462C47.3116 60.0106 46.9775 60.0493 46.664 60.1595C46.3506 60.2697 46.0658 60.4486 45.8304 60.6831C45.595 60.9176 45.4151 61.2017 45.3038 61.5148C45.1924 61.8278 45.1525 62.1618 45.1869 62.4923C45.1749 64.3163 45.1869 66.1403 45.1809 67.9643C45.1894 68.2171 45.1666 68.47 45.1129 68.7173C45.0594 68.9532 44.9231 69.1622 44.7286 69.3062C44.5341 69.4502 44.2945 69.5197 44.0531 69.502C43.8118 69.4843 43.5848 69.3807 43.4134 69.2099C43.242 69.0391 43.1375 68.8125 43.1189 68.5713C43.0942 68.2492 43.0872 67.9261 43.0979 67.6033C43.0979 65.8033 43.0979 64.0112 43.0979 62.1403M57.8139 33.8182C57.392 34.5216 56.7984 35.1065 56.0889 35.518C55.3794 35.9295 54.577 36.1543 53.7569 36.1713C53.0249 36.2113 52.7219 36.5592 52.7209 37.2863C52.7209 39.1782 52.6969 41.0723 52.7729 42.9613C52.8035 43.8121 52.9564 44.654 53.2269 45.4613C54.4269 48.9482 57.0719 50.9813 60.3529 52.3413C60.9995 52.6213 61.6961 52.7676 62.4007 52.7714C63.1053 52.7752 63.8034 52.6363 64.4529 52.3633C67.1639 51.3704 69.4499 49.4735 70.9259 46.9922C72.5149 44.2592 71.9539 41.2712 72.0739 38.2842C70.4879 38.2842 68.9919 38.2842 67.4969 38.2842C65.43 38.3439 63.3893 37.8095 61.6169 36.7443C60.2899 35.9003 59.1099 34.8282 57.8169 33.8162M62.3669 90.2773H93.6779C93.8859 90.2773 94.0939 90.2843 94.3009 90.2773C94.6667 90.2823 95.0194 90.1418 95.2816 89.8868C95.5438 89.6317 95.6939 89.283 95.6989 88.9173C95.704 88.5515 95.5635 88.1988 95.3085 87.9366C95.0534 87.6744 94.7047 87.5243 94.3389 87.5192C94.1549 87.5062 93.9699 87.5143 93.7849 87.5143H31.0169C30.7633 87.5026 30.5092 87.5109 30.2569 87.5393C29.9235 87.5902 29.6203 87.762 29.4053 88.0219C29.1902 88.2818 29.0782 88.6117 29.0905 88.9488C29.1029 89.2859 29.2387 89.6068 29.4723 89.8502C29.7058 90.0937 30.0206 90.2428 30.3569 90.2692C30.5859 90.2913 30.8189 90.2793 31.0489 90.2793H62.3629M75.6459 36.2163C75.685 36.1338 75.7158 36.0477 75.7379 35.9593C75.9909 33.1848 75.2163 30.4141 73.5613 28.1731C71.9063 25.932 69.486 24.3766 66.7599 23.8022C64.705 23.5318 62.6315 23.4298 60.5599 23.4973C60.1716 23.4826 59.7844 23.5478 59.4223 23.6889C59.0602 23.83 58.7309 24.044 58.4549 24.3176C58.1789 24.5912 57.962 24.9185 57.8177 25.2793C57.6734 25.6402 57.6047 26.0268 57.6159 26.4152C57.5947 28.7808 58.4439 31.0715 60.0021 32.8515C61.5602 34.6314 63.7184 35.7763 66.0659 36.0682C68.9089 36.3042 71.7819 36.1793 74.6409 36.2163C74.9809 36.2163 75.3219 36.2163 75.6459 36.2163ZM85.8139 85.3713C86.9329 85.5793 87.9379 85.5342 88.5429 84.3802C88.6303 84.2443 88.7333 84.1191 88.8499 84.0072C89.6907 83.1225 90.2636 82.0178 90.5025 80.8209C90.7415 79.624 90.6365 78.384 90.1999 77.2443C89.4999 75.1443 88.8369 73.0353 88.1509 70.9323C87.6149 69.2892 87.1259 67.6323 86.5079 66.0163C86.1247 65.0134 85.4843 64.129 84.651 63.452C83.8178 62.7749 82.821 62.3291 81.7609 62.1593V81.5052C82.5139 81.5052 83.2039 81.4862 83.8929 81.5052C84.2002 81.5036 84.5042 81.5678 84.7845 81.6935C85.0648 81.8192 85.315 82.0036 85.518 82.2341C85.7211 82.4647 85.8724 82.7361 85.9617 83.03C86.0511 83.324 86.0764 83.6337 86.0359 83.9382C85.9939 84.3952 85.8939 84.8462 85.8099 85.3652M83.9849 83.6233H40.8779C40.8649 85.1053 41.1679 85.4293 42.5239 85.4293C55.8919 85.4293 69.2586 85.4362 82.6239 85.4502C82.7627 85.4711 82.9043 85.4639 83.0402 85.4292C83.1762 85.3945 83.3039 85.3329 83.4157 85.2481C83.5275 85.1633 83.6212 85.057 83.6914 84.9354C83.7615 84.8139 83.8065 84.6795 83.8239 84.5403C83.8939 84.2573 83.9239 83.9643 83.9799 83.6233M49.0999 44.5003V57.9113C50.7916 58.0989 52.5025 57.8223 54.0489 57.1113C54.2664 56.9742 54.4537 56.7944 54.5996 56.5828C54.7456 56.3712 54.847 56.1322 54.8979 55.8802C55.1483 54.7545 55.3259 53.6138 55.4299 52.4653C55.4294 52.3059 55.3961 52.1484 55.3321 52.0026C55.2681 51.8567 55.1748 51.7255 55.0579 51.6173C53.5107 50.3212 52.2936 48.676 51.5069 46.8172C51.2149 46.0992 51.0209 45.3412 50.7739 44.5793L49.0999 44.5003ZM49.1329 36.2882C49.2831 36.2577 49.4357 36.2413 49.5889 36.2392C49.9307 36.3266 50.2927 36.2826 50.6036 36.116C50.9144 35.9494 51.1515 35.6722 51.2679 35.3392C51.4452 34.9892 51.7443 34.7161 52.1089 34.5712C52.7495 34.3319 53.413 34.159 54.0889 34.0553C54.4609 34.0007 54.8173 33.8692 55.1356 33.6692C55.4539 33.4692 55.7271 33.205 55.9376 32.8936C56.1482 32.5822 56.2915 32.2303 56.3586 31.8604C56.4256 31.4905 56.4148 31.1107 56.3269 30.7452C55.5324 28.7661 55.3655 26.5905 55.8489 24.5132C53.6105 25.4924 51.7475 27.1675 50.5369 29.2897C49.3263 31.4119 48.8325 33.8681 49.1289 36.2933M68.2559 57.9433L67.2949 53.2713C65.8643 54.285 64.1544 54.8301 62.401 54.8313C60.6476 54.8326 58.937 54.29 57.5049 53.2783L56.5409 57.9422L68.2559 57.9433ZM50.6059 42.4323V38.3442C49.3539 38.2073 49.0549 38.4693 49.0499 39.6613C49.0499 40.1453 49.0499 40.6293 49.0499 41.1133C49.0549 42.2983 49.3499 42.5533 50.6059 42.4323ZM74.1859 38.3322V42.4202C75.4379 42.5592 75.7439 42.2963 75.7489 41.1203C75.7489 40.6363 75.7489 40.1523 75.7489 39.6683C75.7489 38.4683 75.4579 38.2172 74.1859 38.3372" fill="white"/>
<path d="M67.1392 70.8713C67.1411 71.8088 66.865 72.7259 66.3458 73.5065C65.8265 74.2872 65.0873 74.8963 64.2219 75.2568C63.3564 75.6173 62.4034 75.7131 61.4835 75.532C60.5636 75.3508 59.7181 74.901 59.0539 74.2393C58.3897 73.5776 57.9366 72.7338 57.752 71.8146C57.5674 70.8953 57.6595 69.942 58.0167 69.0752C58.374 68.2083 58.9803 67.4669 59.7589 66.9447C60.5376 66.4224 61.4536 66.1428 62.3912 66.1413C63.0145 66.1364 63.6327 66.2552 64.2098 66.491C64.7869 66.7267 65.3114 67.0746 65.7531 67.5146C66.1947 67.9546 66.5446 68.4778 66.7826 69.054C67.0205 69.6302 67.1417 70.2479 67.1392 70.8713ZM62.4012 73.5422C62.9269 73.5418 63.4406 73.3858 63.8778 73.0938C64.3149 72.8018 64.6558 72.3869 64.8574 71.9015C65.0591 71.416 65.1125 70.8817 65.011 70.3659C64.9094 69.8501 64.6574 69.376 64.2867 69.0032C63.9161 68.6305 63.4433 68.3758 62.9281 68.2713C62.4129 68.1669 61.8783 68.2173 61.3917 68.4162C60.9051 68.6152 60.4883 68.9537 60.1939 69.3892C59.8995 69.8247 59.7405 70.3376 59.7372 70.8633C59.7307 71.2156 59.7951 71.5656 59.9265 71.8926C60.0579 72.2195 60.2536 72.5168 60.5021 72.7666C60.7506 73.0165 61.0467 73.2139 61.3729 73.3471C61.6992 73.4804 62.0488 73.5467 62.4012 73.5422Z" fill="white"/>
</g>
<mask id="mask1_20_5924" style="mask-type:luminance" maskUnits="userSpaceOnUse" x="46" y="21" width="33" height="37">
<path d="M77.6539 21.0674L46.702 21.7164L46.002 57.9464L48.8829 57.9114L48.928 44.5014L48.913 38.7574C48.9126 38.5892 48.9461 38.4227 49.0116 38.2678C49.0771 38.1129 49.1732 37.9728 49.2941 37.8559C49.415 37.739 49.5583 37.6477 49.7153 37.5875C49.8723 37.5273 50.0399 37.4993 50.208 37.5054L61.646 38.4714L71.9019 38.2874L74.5919 38.3114C74.7385 38.3066 74.8843 38.3333 75.0197 38.3895C75.155 38.4458 75.2768 38.5304 75.3767 38.6376C75.4766 38.7449 75.5525 38.8723 75.5991 39.0112C75.6457 39.1502 75.662 39.2976 75.647 39.4434L75.459 51.5534L75.571 57.9004H78.3309L77.6539 21.0674Z" fill="white"/>
</mask>
<g mask="url(#mask1_20_5924)">
<path d="M65.555 21.4064C66.335 21.5864 67.125 21.7324 67.895 21.9514C70.6279 22.7204 73.0444 24.3407 74.7934 26.5769C76.5425 28.8132 77.533 31.5488 77.621 34.3864C77.721 39.0944 77.652 43.8064 77.648 48.5174C77.648 49.2984 77.258 49.7174 76.607 49.7044C75.971 49.6954 75.59 49.2674 75.581 48.4854C75.565 47.1724 75.581 45.8594 75.581 44.5044L73.805 44.5924C73.3556 47.0951 72.0659 49.3697 70.149 51.0404C69.7616 51.3094 69.4719 51.6969 69.3235 52.1447C69.1751 52.5924 69.176 53.0762 69.326 53.5234C69.526 54.3014 69.589 55.1154 69.713 55.9124C69.7329 56.2044 69.8392 56.4839 70.0183 56.7154C70.1974 56.9469 70.4414 57.1199 70.719 57.2124C72.261 57.8248 73.9266 58.061 75.578 57.9014C75.578 57.2284 75.578 56.5254 75.578 55.8224C75.578 55.1194 75.566 54.4364 75.578 53.7444C75.596 52.9774 75.99 52.5334 76.617 52.5304C77.244 52.5274 77.64 52.9614 77.647 53.7304C77.658 55.1144 77.647 56.4984 77.647 57.9514C78.8431 58.1386 79.9295 58.7563 80.702 59.6884C80.902 59.9254 81.372 59.9634 81.729 60.0374C83.4135 60.3239 84.9774 61.0969 86.2281 62.261C87.4788 63.4252 88.3617 64.9298 88.768 66.5894C89.778 69.9434 90.907 73.2614 92.003 76.5894C92.5314 78.0033 92.6722 79.5328 92.4107 81.0194C92.1493 82.506 91.4951 83.8956 90.516 85.0444C90.447 85.1304 90.385 85.2224 90.232 85.4314C91.296 85.4314 92.25 85.4254 93.203 85.4314C93.7102 85.4117 94.218 85.4318 94.722 85.4914C95.4937 85.6084 96.2016 85.9873 96.727 86.5645C97.2523 87.1418 97.563 87.8822 97.607 88.6614C97.6643 89.4398 97.4548 90.2146 97.0132 90.8582C96.5715 91.5017 95.924 91.9758 95.177 92.2024C95.048 92.2454 94.923 92.3024 94.797 92.3524H29.658C29.445 92.2684 29.232 92.1874 29.02 92.1014C28.4587 91.8815 27.9648 91.5183 27.5876 91.0479C27.2105 90.5775 26.9634 90.0164 26.8709 89.4206C26.7784 88.8249 26.8438 88.2153 27.0605 87.6527C27.2772 87.0901 27.6377 86.5941 28.106 86.2144C28.7566 85.684 29.576 85.4051 30.415 85.4284C31.647 85.4284 32.879 85.4284 34.109 85.4284C34.109 85.3144 34.118 85.2864 34.109 85.2724C33.985 85.1064 33.858 84.9434 33.733 84.7774C32.875 83.7246 32.2947 82.4735 32.045 81.1385C31.7954 79.8034 31.8845 78.4271 32.304 77.1354C33.497 73.2844 34.762 69.4564 36.029 65.6284C36.6051 63.7462 37.8981 62.1658 39.629 61.2284C40.7778 60.7074 41.9625 60.2696 43.174 59.9184C43.387 59.8414 43.674 59.8184 43.794 59.6604C44.5497 58.7302 45.6272 58.1178 46.813 57.9444V57.0104C46.813 49.5554 46.752 42.0994 46.834 34.6454C46.8675 31.6294 47.9202 28.7133 49.8208 26.3713C51.7215 24.0293 54.3585 22.399 57.303 21.7454C57.836 21.6204 58.373 21.5144 58.908 21.3994L65.555 21.4064ZM42.926 62.1424C41.7703 62.3317 40.6902 62.8394 39.807 63.6085C38.9237 64.3776 38.2724 65.3777 37.926 66.4964C36.704 70.2184 35.475 73.9394 34.319 77.6824C34.0949 78.5028 34.0077 79.3546 34.061 80.2034C34.125 81.9374 35.182 83.2034 36.171 84.5344C36.925 85.5504 37.798 85.4984 38.837 85.3824C38.772 85.0634 38.723 84.7924 38.661 84.5254C38.5287 84.1438 38.4987 83.7341 38.574 83.3373C38.6494 82.9404 38.8275 82.5703 39.0906 82.2638C39.3537 81.9573 39.6926 81.7251 40.0734 81.5905C40.4543 81.4558 40.8638 81.4234 41.261 81.4964C41.799 81.5444 42.346 81.5034 42.934 81.5034C42.934 79.1184 42.934 76.8574 42.934 74.5964C42.9186 74.1119 42.9283 73.6269 42.963 73.1434C42.9643 73.0262 42.9899 72.9104 43.0382 72.8036C43.0866 72.6968 43.1566 72.6012 43.2439 72.5229C43.3311 72.4445 43.4337 72.3852 43.5451 72.3486C43.6565 72.3121 43.7743 72.299 43.891 72.3104C44.2897 72.4153 44.6432 72.6474 44.898 72.9714C45.047 73.1374 45.004 73.4994 45.005 73.7714C45.012 76.0804 45.005 78.3894 45.005 80.6984V81.4644H79.405C79.425 81.2534 79.456 81.0754 79.456 80.8974C79.456 74.7561 79.456 68.6144 79.456 62.4724C79.4885 62.1415 79.4464 61.8075 79.3328 61.495C79.2192 61.1825 79.037 60.8995 78.7995 60.6667C78.562 60.434 78.2754 60.2574 77.9607 60.1501C77.646 60.0427 77.3112 60.0073 76.981 60.0464C67.1437 60.0411 57.306 60.0411 47.468 60.0464C47.1377 60.0108 46.8036 60.0495 46.4901 60.1597C46.1767 60.2698 45.8919 60.4487 45.6565 60.6832C45.4211 60.9177 45.2412 61.2019 45.1299 61.5149C45.0185 61.828 44.9786 62.162 45.013 62.4924C45.001 64.3164 45.013 66.1404 45.007 67.9644C45.0155 68.2173 44.9927 68.4702 44.939 68.7174C44.8836 68.9512 44.7467 69.1577 44.5529 69.2998C44.3591 69.4418 44.121 69.5102 43.8813 69.4926C43.6417 69.475 43.4161 69.3727 43.2451 69.2038C43.074 69.035 42.9687 68.8108 42.948 68.5714C42.9233 68.2494 42.9163 67.9262 42.927 67.6034C42.927 65.8034 42.927 64.0114 42.927 62.1404M57.643 33.8184C57.2212 34.5217 56.6278 35.1064 55.9184 35.5179C55.2091 35.9294 54.4069 36.1543 53.587 36.1714C52.855 36.2114 52.552 36.5594 52.551 37.2864C52.551 39.1784 52.527 41.0724 52.603 42.9614C52.6336 43.8122 52.7865 44.6542 53.057 45.4614C54.257 48.9484 56.902 50.9814 60.183 52.3414C60.8296 52.6215 61.5262 52.7678 62.2308 52.7715C62.9354 52.7753 63.6335 52.6365 64.283 52.3634C66.994 51.3705 69.28 49.4737 70.756 46.9924C72.345 44.2594 71.784 41.2714 71.904 38.2844C70.318 38.2844 68.822 38.2844 67.327 38.2844C65.2601 38.3441 63.2194 37.8096 61.447 36.7444C60.12 35.9004 58.94 34.8284 57.647 33.8164M62.197 90.2774H93.507C93.715 90.2774 93.923 90.2844 94.13 90.2774C94.3111 90.2799 94.4909 90.2467 94.6592 90.1797C94.8275 90.1127 94.9809 90.0132 95.1107 89.8869C95.2405 89.7607 95.3442 89.61 95.4158 89.4437C95.4874 89.2773 95.5255 89.0985 95.528 88.9174C95.5305 88.7363 95.4973 88.5565 95.4303 88.3882C95.3633 88.22 95.2639 88.0666 95.1376 87.9367C95.0113 87.8069 94.8607 87.7033 94.6943 87.6317C94.528 87.56 94.3491 87.5219 94.168 87.5194C93.984 87.5064 93.799 87.5144 93.614 87.5144H30.846C30.5924 87.5027 30.3383 87.5111 30.086 87.5394C29.7526 87.5904 29.4494 87.7621 29.2344 88.022C29.0193 88.2819 28.9073 88.6118 28.9196 88.949C28.932 89.2861 29.0678 89.6069 29.3014 89.8504C29.5349 90.0938 29.8497 90.243 30.186 90.2694C30.415 90.2914 30.648 90.2794 30.878 90.2794H62.192M75.475 36.2164C75.5141 36.134 75.5449 36.0479 75.567 35.9594C75.8199 33.1847 75.0451 30.4137 73.3897 28.1727C71.7342 25.9316 69.3135 24.3764 66.587 23.8024C64.5321 23.5319 62.4586 23.4299 60.387 23.4974C59.9987 23.4827 59.6115 23.548 59.2494 23.6891C58.8873 23.8302 58.558 24.0442 58.282 24.3177C58.006 24.5913 57.7891 24.9187 57.6448 25.2795C57.5005 25.6403 57.4318 26.027 57.443 26.4154C57.4218 28.7809 58.271 31.0717 59.8292 32.8516C61.3873 34.6316 63.5455 35.7765 65.893 36.0684C68.736 36.3044 71.609 36.1794 74.468 36.2164C74.808 36.2164 75.149 36.2164 75.473 36.2164M85.643 85.3714C86.762 85.5794 87.767 85.5344 88.372 84.3804C88.4594 84.2445 88.5624 84.1193 88.679 84.0074C89.5201 83.1233 90.0936 82.0191 90.3332 80.8226C90.5728 79.6261 90.4687 78.3862 90.033 77.2464C89.333 75.1464 88.671 73.0374 87.984 70.9344C87.448 69.2914 86.959 67.6344 86.341 66.0184C85.9578 65.0155 85.3174 64.1312 84.4841 63.4541C83.6509 62.7771 82.6541 62.3313 81.594 62.1614V81.5054C82.347 81.5054 83.037 81.4864 83.726 81.5054C84.0333 81.5037 84.3373 81.5679 84.6176 81.6937C84.8979 81.8194 85.1481 82.0037 85.3511 82.2343C85.5542 82.4649 85.7055 82.7363 85.7948 83.0302C85.8842 83.3242 85.9095 83.6339 85.869 83.9384C85.827 84.3954 85.727 84.8464 85.643 85.3654M83.818 83.6234H40.707C40.694 85.1054 40.997 85.4294 42.353 85.4294C55.721 85.4294 69.0877 85.4364 82.453 85.4504C82.5918 85.4712 82.7334 85.4641 82.8693 85.4294C83.0053 85.3947 83.133 85.3331 83.2448 85.2483C83.3566 85.1635 83.4504 85.0572 83.5205 84.9356C83.5906 84.814 83.6357 84.6797 83.653 84.5404C83.723 84.2574 83.753 83.9644 83.809 83.6234M48.925 44.5004V57.9114C50.6167 58.099 52.3276 57.8225 53.874 57.1114C54.0915 56.9743 54.2788 56.7945 54.4247 56.583C54.5707 56.3714 54.6721 56.1324 54.723 55.8804C54.9733 54.7547 55.151 53.614 55.255 52.4654C55.2545 52.3061 55.2212 52.1486 55.1572 52.0027C55.0932 51.8568 54.9999 51.7257 54.883 51.6174C53.3358 50.3213 52.1187 48.6761 51.332 46.8174C51.04 46.0994 50.846 45.3414 50.599 44.5794L48.925 44.4924M48.958 36.2804C49.1082 36.2499 49.2608 36.2335 49.414 36.2314C49.7558 36.3188 50.1178 36.2748 50.4287 36.1082C50.7395 35.9415 50.9766 35.6644 51.093 35.3314C51.2728 34.9837 51.5732 34.7134 51.938 34.5714C52.5786 34.3321 53.2421 34.1592 53.918 34.0554C54.29 34.0008 54.6464 33.8693 54.9647 33.6693C55.283 33.4693 55.5562 33.2052 55.7667 32.8938C55.9773 32.5824 56.1206 32.2305 56.1877 31.8606C56.2547 31.4907 56.2439 31.1109 56.156 30.7454C55.3615 28.7662 55.1946 26.5906 55.678 24.5134C53.4396 25.4925 51.5766 27.1676 50.366 29.2899C49.1554 31.4121 48.6616 33.8682 48.958 36.2934M68.087 57.9394L67.124 53.2714C65.6934 54.2852 63.9836 54.8302 62.2301 54.8315C60.4767 54.8327 58.7661 54.2901 57.334 53.2784L56.37 57.9424L68.087 57.9394ZM50.435 42.4324V38.3444C49.183 38.2074 48.884 38.4694 48.879 39.6614C48.879 40.1454 48.879 40.6294 48.879 41.1134C48.884 42.2984 49.179 42.5534 50.435 42.4324ZM74.015 38.3324V42.4204C75.267 42.5594 75.573 42.2964 75.578 41.1204C75.578 40.6364 75.578 40.1524 75.578 39.6684C75.578 38.4684 75.287 38.2174 74.015 38.3374" fill="white"/>
</g>
<mask id="mask2_20_5924" style="mask-type:luminance" maskUnits="userSpaceOnUse" x="27" y="21" width="71" height="72">
<path d="M97.834 21.0674H27V92.3584H97.834V21.0674Z" fill="white"/>
</mask>
<g mask="url(#mask2_20_5924)">
<path d="M67.1392 70.8713C67.1411 71.8088 66.865 72.7259 66.3458 73.5065C65.8265 74.2872 65.0873 74.8963 64.2219 75.2568C63.3564 75.6173 62.4034 75.7131 61.4835 75.532C60.5636 75.3508 59.7181 74.901 59.0539 74.2393C58.3897 73.5776 57.9366 72.7338 57.752 71.8146C57.5674 70.8953 57.6595 69.942 58.0167 69.0752C58.374 68.2083 58.9803 67.4669 59.7589 66.9447C60.5376 66.4224 61.4536 66.1428 62.3912 66.1413C63.0145 66.1364 63.6327 66.2552 64.2098 66.491C64.7869 66.7267 65.3114 67.0746 65.7531 67.5146C66.1947 67.9546 66.5446 68.4778 66.7826 69.054C67.0205 69.6302 67.1417 70.2479 67.1392 70.8713ZM62.4012 73.5422C62.9269 73.5418 63.4406 73.3858 63.8778 73.0938C64.3149 72.8018 64.6558 72.3869 64.8574 71.9015C65.0591 71.416 65.1125 70.8817 65.011 70.3659C64.9094 69.8501 64.6574 69.376 64.2867 69.0032C63.9161 68.6305 63.4433 68.3758 62.9281 68.2713C62.4129 68.1669 61.8783 68.2173 61.3917 68.4162C60.9051 68.6152 60.4883 68.9537 60.1939 69.3892C59.8995 69.8247 59.7405 70.3376 59.7372 70.8633C59.7307 71.2156 59.7951 71.5656 59.9265 71.8926C60.0579 72.2195 60.2536 72.5168 60.5021 72.7666C60.7506 73.0165 61.0467 73.2139 61.3729 73.3471C61.6992 73.4804 62.0488 73.5467 62.4012 73.5422Z" fill="white"/>
</g>
</g>
<defs>
<clipPath id="clip0_20_5924">
<rect width="125" height="128" fill="white"/>
</clipPath>
</defs>
</svg>
