<svg xmlns="http://www.w3.org/2000/svg" xmlns:xlink="http://www.w3.org/1999/xlink" width="89.923" height="92.081" viewBox="0 0 89.923 92.081"><defs><style>.a{fill:#e4b571;}.b{fill:url(#a);}.c{clip-path:url(#b);}.d{fill:#fff;}</style><radialGradient id="a" cx="0.5" cy="0.5" r="0.5" gradientUnits="objectBoundingBox"><stop offset="0" stop-color="#4e789b"/><stop offset="1" stop-color="#346086"/></radialGradient><clipPath id="b"><rect class="a" width="52.003" height="52.003"/></clipPath></defs><path class="b" d="M86.326,43.163A43.163,43.163,0,1,1,43.163,0,43.163,43.163,0,0,1,86.326,43.163Z"/><path class="a" d="M43.163,1A42.174,42.174,0,0,0,26.752,82.013a42.174,42.174,0,0,0,32.823-77.7A41.9,41.9,0,0,0,43.163,1m0-1A43.163,43.163,0,1,1,0,43.163,43.163,43.163,0,0,1,43.163,0Z" transform="translate(3.597 5.755)"/><g transform="translate(19.718 18.201)"><g class="c" transform="translate(0 0)"><path class="d" d="M27.557,0c1.022.136,2.05.236,3.064.414A25.632,25.632,0,0,1,40.651,4.5a1.024,1.024,0,1,1-1.146,1.677A23.941,23.941,0,0,0,2.663,20.813,23.479,23.479,0,0,0,6.5,39.949a1.776,1.776,0,0,1,.285,1.657c-.435,1.494-.816,3-1.216,4.507-.037.14-.06.285-.107.512.935-.245,1.8-.467,2.655-.7.784-.209,1.576-.4,2.347-.649a1.691,1.691,0,0,1,1.657.287,22.389,22.389,0,0,0,7.229,3.495A23.968,23.968,0,0,0,49.532,30.774,23.486,23.486,0,0,0,46.07,12.85c-.064-.1-.132-.2-.195-.3a1.045,1.045,0,0,1,.2-1.525,1.014,1.014,0,0,1,1.481.392c.613.993,1.237,1.984,1.765,3.023a25.088,25.088,0,0,1,2.661,9.624,3.9,3.9,0,0,0,.082.44v3.051c-.03.147-.065.294-.088.442-.21,1.352-.328,2.726-.64,4.054A25.963,25.963,0,0,1,30.514,51.66c-.947.162-1.9.269-2.855.4H24.506a2.371,2.371,0,0,0-.343-.075A25.994,25.994,0,0,1,11.282,47.5a.947.947,0,0,0-.685-.113c-2,.511-3.988,1.053-5.983,1.58a2.3,2.3,0,0,1-.744.121,1,1,0,0,1-.843-1.342q.8-3.041,1.631-6.075A1.107,1.107,0,0,0,4.5,40.64,25.224,25.224,0,0,1,.386,30.416C.234,29.5.127,28.577,0,27.658V24.506a4.778,4.778,0,0,0,.086-.492,24.105,24.105,0,0,1,2.175-8.56A25.7,25.7,0,0,1,21.6.4C22.556.212,23.536.13,24.506,0Z" transform="translate(-0.429 0.237)"/><path class="a" d="M138.218,79.571a9.868,9.868,0,0,1-5.241,8.4,3.079,3.079,0,0,0-1.776,2.665,3.1,3.1,0,0,1-3.436,2.913,3.141,3.141,0,0,1-2.914-3.3,8.534,8.534,0,0,1,4.609-7.608,4.017,4.017,0,0,0,2.333-3.216,3.928,3.928,0,0,0-2.968-4.028,3.762,3.762,0,0,0-4.26,2.163c-.068.155-.125.314-.19.47a3.2,3.2,0,0,1-5.976-2.271,10.213,10.213,0,0,1,19.82,3.809m-2.04.08c.012-6.057-5.6-10.09-10.8-8.273a7.964,7.964,0,0,0-5.043,5.017,1.156,1.156,0,0,0,.624,1.562,1.18,1.18,0,0,0,1.557-.74c.046-.109.081-.223.126-.332a5.81,5.81,0,0,1,7.016-3.372,5.907,5.907,0,0,1,4.057,6.8,6.113,6.113,0,0,1-3.311,4.135,6.508,6.508,0,0,0-3.519,5.838,1.122,1.122,0,0,0,1.072,1.235A1.153,1.153,0,0,0,129.2,90.4c.029-.269.02-.544.072-.808a4.72,4.72,0,0,1,2.589-3.316,7.853,7.853,0,0,0,4.314-6.621" transform="translate(-102.608 -59.33)"/><path class="a" d="M170.34,274.415a3.2,3.2,0,0,1,.03-6.392,3.2,3.2,0,1,1-.03,6.392m.008-2.037a1.155,1.155,0,0,0,1.175-1.144,1.181,1.181,0,0,0-1.159-1.172,1.156,1.156,0,0,0-1.163,1.155,1.134,1.134,0,0,0,1.147,1.161" transform="translate(-144.93 -231.448)"/><path class="d" d="M315.992,54.095A1.043,1.043,0,0,1,317,55.108a1.024,1.024,0,0,1-1.051,1.011,1,1,0,0,1-.972-1.03,1.022,1.022,0,0,1,1.016-.995" transform="translate(-272.7 -46.524)"/></g></g></svg>