<svg width="125" height="128" viewBox="0 0 125 128" fill="none" xmlns="http://www.w3.org/2000/svg">
<g clip-path="url(#clip0_20_5832)">
<path d="M120 60C120 71.8669 116.481 83.4673 109.888 93.3342C103.295 103.201 93.9246 110.892 82.961 115.433C71.9975 119.974 59.9335 121.162 48.2946 118.847C36.6557 116.532 25.9648 110.818 17.5736 102.426C9.18247 94.0353 3.46802 83.3443 1.15291 71.7054C-1.1622 60.0666 0.0259972 48.0026 4.56726 37.039C9.10851 26.0754 16.7989 16.7047 26.6658 10.1118C36.5328 3.51894 48.1331 0 60 0C75.913 0 91.1743 6.32141 102.426 17.5736C113.679 28.8258 120 44.087 120 60Z" fill="#4E789B"/>
<mask id="mask0_20_5832" style="mask-type:luminance" maskUnits="userSpaceOnUse" x="25" y="34" width="75" height="61">
<path d="M99.405 34.9336H25V94.2116H99.405V34.9336Z" fill="white"/>
</mask>
<g mask="url(#mask0_20_5832)">
<path d="M40.4491 56.1824C40.4713 55.8668 40.5107 55.5527 40.5671 55.2414C40.8631 53.7022 41.2579 52.1838 41.7491 50.6954C42.5991 48.5104 43.6851 46.4174 44.6491 44.2784C44.8515 43.8035 45.1476 43.3743 45.5198 43.0165C45.892 42.6588 46.3326 42.3798 46.8151 42.1964C47.1329 42.0583 47.4158 41.8509 47.6431 41.5894C49.4572 39.5035 51.6968 37.8303 54.2114 36.6822C56.7261 35.5341 59.4574 34.9377 62.2217 34.9331C64.986 34.9286 67.7193 35.516 70.2377 36.6558C72.7561 37.7957 75.0012 39.4615 76.8221 41.5414C77.0131 41.7544 77.2051 42.0514 77.4491 42.1184C78.9581 42.5344 79.6361 43.6954 80.2111 45.0014C80.9881 46.7684 81.9271 48.4724 82.5901 50.2794C83.1565 51.9435 83.607 53.6449 83.9381 55.3714C84.0631 55.9504 84.1761 56.2484 84.8111 56.1894C85.2581 56.1484 85.7111 56.1894 86.1641 56.1814C87.6605 56.0741 89.1514 56.4546 90.4134 57.2658C91.6754 58.0771 92.6405 59.2755 93.1641 60.6814C93.9818 62.8443 94.6203 65.0708 95.0731 67.3384C96.4801 73.3204 97.8191 79.3194 99.1731 85.3144C100.15 89.6444 97.8831 93.1144 93.4981 93.9964C92.8033 94.1318 92.097 94.1988 91.3891 94.1964C71.9631 94.2077 52.5334 94.2127 33.1001 94.2114C30.8861 94.2726 28.7349 93.4717 27.1001 91.9774C26.2509 91.2721 25.6192 90.3402 25.2786 89.2901C24.9381 88.2401 24.9025 87.1149 25.1761 86.0454C26.9001 78.5174 28.6001 70.9844 30.3511 63.4634C30.6062 62.3678 30.9962 61.308 31.5121 60.3084C32.0996 59.022 33.0592 57.9412 34.2671 57.2055C35.4749 56.4699 36.8755 56.1131 38.2881 56.1814C38.9881 56.1904 39.6941 56.1814 40.4491 56.1814M43.8671 91.5144H80.6471C80.1801 90.5144 79.6581 89.5894 79.3071 88.6054C77.5881 83.7904 75.9161 78.9584 74.2241 74.1334C73.8141 72.9634 73.3921 71.7964 72.9631 70.5944C65.7791 74.8274 58.6781 74.7804 51.5491 70.5944C50.5231 73.5214 49.5681 76.3874 48.5141 79.2154C46.9931 83.2984 45.9141 87.5494 43.8671 91.5144ZM51.0001 42.0184C51.9701 42.0184 52.7401 41.9894 53.5071 42.0244C54.3232 41.9978 55.1212 42.2677 55.7536 42.7841C56.386 43.3005 56.81 44.0285 56.9471 44.8334C57.0464 45.7231 56.9084 46.6233 56.5471 47.4424C54.641 51.3719 53.8042 55.7344 54.1211 60.0904C54.2243 62.5159 53.7553 64.9317 52.7521 67.1424C52.6824 67.2549 52.638 67.3812 52.622 67.5126C52.6059 67.644 52.6186 67.7773 52.6591 67.9033C52.6996 68.0293 52.767 68.145 52.8566 68.2424C52.9462 68.3398 53.0559 68.4165 53.1781 68.4674C55.896 70.1983 59.0513 71.1178 62.2736 71.1178C65.4959 71.1178 68.6512 70.1983 71.3691 68.4674C71.4914 68.4151 71.6008 68.3365 71.6894 68.2372C71.778 68.138 71.8437 68.0205 71.8818 67.893C71.92 67.7656 71.9297 67.6313 71.9102 67.4997C71.8907 67.368 71.8425 67.2423 71.7691 67.1314C70.7119 64.5609 70.2365 61.7883 70.3771 59.0124C70.5325 57.4404 70.477 55.8547 70.2121 54.2974C69.5777 51.9405 68.8057 49.6229 67.9001 47.3564C66.7621 44.2564 68.2861 42.0234 71.6141 42.0124C72.2031 42.0124 72.7921 42.0124 73.5381 42.0124C70.4683 39.1805 66.4445 37.6086 62.2679 37.6097C58.0914 37.6108 54.0684 39.1849 51.0001 42.0184ZM50.7871 44.6624C47.9371 43.8154 46.9561 45.5014 45.8311 47.7734C43.7541 51.6448 42.8048 56.0213 43.0911 60.4054C43.167 62.4118 42.7408 64.4054 41.8511 66.2054C38.9791 72.8114 36.1321 79.4284 33.2411 86.0264C33.0803 86.3736 32.9916 86.7498 32.9806 87.1323C32.9696 87.5148 33.0365 87.8955 33.1771 88.2514C33.5146 89.2154 34.1409 90.052 34.9708 90.6475C35.8006 91.243 36.7938 91.5683 37.8151 91.5794C38.8552 91.6065 39.8765 91.2997 40.7296 90.704C41.5826 90.1084 42.2223 89.2551 42.5551 88.2694C44.3791 83.1854 46.1551 78.0814 47.9411 72.9854C48.4851 71.4384 48.9341 69.8514 49.5791 68.3484C51.1316 64.7609 51.798 60.8526 51.5221 56.9534C51.3857 54.5637 51.82 52.176 52.7891 49.9874C53.3311 48.7164 53.8141 47.4194 54.2891 46.1204C54.6321 45.1774 54.2891 44.6924 53.3001 44.6684C52.4631 44.6484 51.6251 44.6684 50.7881 44.6684M73.0001 58.2084C72.807 61.2041 73.3016 64.2042 74.4461 66.9794C76.1081 71.4374 77.6251 75.9504 79.2031 80.4394C80.1311 83.0784 81.0261 85.7294 81.9961 88.3534C82.3447 89.3144 82.9854 90.1422 83.8283 90.7206C84.6712 91.2989 85.674 91.5989 86.6961 91.5784C87.7175 91.5684 88.711 91.2439 89.5415 90.6492C90.3719 90.0544 90.9989 89.2182 91.3371 88.2544C91.4792 87.899 91.5473 87.5185 91.5374 87.1359C91.5274 86.7533 91.4395 86.3768 91.2791 86.0294C88.8338 80.4654 86.4144 74.89 84.0211 69.3034C83.1062 67.4981 82.3817 65.6026 81.8591 63.6474C81.5803 61.3237 81.4205 58.9874 81.3801 56.6474C81.3127 55.1761 81.0511 53.7201 80.6021 52.3174C79.7131 49.9444 78.5591 47.6684 77.4621 45.3774C77.3681 45.2034 77.2365 45.0526 77.0768 44.936C76.9171 44.8194 76.7334 44.7399 76.5391 44.7034C74.7051 44.6384 72.8681 44.6494 71.0331 44.6824C70.2701 44.6954 69.9691 45.1764 70.1751 45.9324C70.2709 46.2383 70.3834 46.5388 70.5121 46.8324C71.9581 50.4884 73.5561 54.1114 72.9951 58.2114M92.8431 91.4944C93.2976 91.3693 93.7444 91.2177 94.1811 91.0404C94.6733 90.8798 95.1286 90.623 95.5207 90.285C95.9128 89.947 96.2339 89.5344 96.4653 89.0713C96.6966 88.6082 96.8337 88.1037 96.8685 87.5872C96.9034 87.0707 96.8352 86.5524 96.6681 86.0624C96.2311 84.1174 95.7821 82.1734 95.3361 80.2304C94.0571 74.6504 92.9151 69.0304 91.4561 63.5014C90.2281 58.8454 87.8561 58.4784 84.0641 58.9234C83.8754 61.1377 84.2521 63.3636 85.1591 65.3924C88.0924 72.0777 90.9924 78.7777 93.8591 85.4924C94.1402 86.0668 94.2446 86.7116 94.1591 87.3454C93.8281 88.7544 93.2981 90.1154 92.8481 91.4964M40.4481 58.8084C39.7231 58.8084 39.0791 58.8384 38.4381 58.8034C37.416 58.718 36.3941 58.9708 35.5296 59.5227C34.6651 60.0747 34.0058 60.8953 33.6531 61.8584C33.3131 62.5874 33.0501 63.3498 32.8681 64.1334C31.1788 71.4667 29.5054 78.8047 27.8481 86.1474C27.6821 86.7676 27.6605 87.4176 27.7849 88.0474C27.9093 88.6773 28.1765 89.2702 28.5658 89.7807C28.9552 90.2911 29.4564 90.7056 30.031 90.9921C30.6055 91.2786 31.2381 91.4295 31.8801 91.4334C31.8861 91.4064 31.9071 91.3714 31.8971 91.3544C31.7491 91.1084 31.5921 90.8674 31.4471 90.6204C30.8562 89.7585 30.4994 88.7578 30.4118 87.7165C30.3241 86.6752 30.5086 85.6289 30.9471 84.6804C33.8251 78.2884 36.5371 71.8224 39.3551 65.4044C40.2805 63.3349 40.655 61.0613 40.4421 58.8044" fill="white"/>
</g>
<mask id="mask1_20_5832" style="mask-type:luminance" maskUnits="userSpaceOnUse" x="30" y="41" width="66" height="54">
<path d="M68.67 57.5546L73.86 72.6706L62.989 76.1976L50.962 73.5976L53.747 65.6296L54.815 64.2706L57.815 42.3526L45.577 42.0606L40.607 52.6836L40.894 58.9106L30 86.1106L30.835 89.5536L34.581 94.3676H92.431L94.395 90.4776L95.689 87.9116L84.31 60.5016L84.153 55.1126L89.926 42.8586L65.454 41.9346L68.67 57.5546Z" fill="white"/>
</mask>
<g mask="url(#mask1_20_5832)">
<path d="M40.896 56.2837C40.9183 55.9675 40.9577 55.6527 41.014 55.3407C41.309 53.7991 41.7024 52.2779 42.192 50.7867C43.039 48.5977 44.121 46.5017 45.086 44.3577C45.2869 43.8828 45.5816 43.4534 45.9524 43.0951C46.3232 42.7368 46.7625 42.4571 47.244 42.2727C47.561 42.1341 47.8429 41.9264 48.069 41.6647C49.87 39.5764 52.0993 37.9001 54.6054 36.7496C57.1116 35.599 59.8359 35.0012 62.5936 34.9966C65.3512 34.9921 68.0775 35.5809 70.5874 36.7232C73.0974 37.8654 75.3321 39.5344 77.14 41.6167C77.331 41.8297 77.522 42.1267 77.765 42.1947C79.265 42.6117 79.944 43.7737 80.516 45.0837C81.291 46.8537 82.226 48.5607 82.886 50.3707C83.4504 52.0378 83.8992 53.7418 84.229 55.4707C84.353 56.0507 84.467 56.3487 85.099 56.2897C85.545 56.2487 85.999 56.2897 86.447 56.2817C87.9424 56.1759 89.4317 56.5591 90.6903 57.3734C91.949 58.1878 92.9088 59.3893 93.425 60.7967C94.2393 62.9641 94.8747 65.1946 95.325 67.4657C96.725 73.4587 98.061 79.4657 99.408 85.4727C100.381 89.8107 98.123 93.2887 93.754 94.1727C93.0583 94.2784 92.3572 94.3452 91.654 94.3727C91.654 94.3727 52.937 94.3727 33.578 94.3867C31.3693 94.4479 29.2239 93.6449 27.598 92.1487C26.7489 91.439 26.118 90.5033 25.7784 89.45C25.4388 88.3967 25.4043 87.2688 25.679 86.1967C27.393 78.6567 29.088 71.1107 30.835 63.5767C31.0891 62.4794 31.4777 61.4177 31.992 60.4157C32.5736 59.1295 33.5281 58.0478 34.7319 57.3106C35.9356 56.5735 37.3331 56.215 38.743 56.2817C39.443 56.2907 40.143 56.2817 40.896 56.2817M44.304 91.6777H80.946C80.481 90.6777 79.961 89.7497 79.611 88.7637C77.898 83.9397 76.232 79.0997 74.546 74.2637C74.137 73.0917 73.717 71.9227 73.289 70.7177C66.132 74.9587 59.057 74.9107 51.954 70.7177C50.931 73.6497 49.981 76.5177 48.931 79.3537C47.416 83.4437 46.339 87.7037 44.301 91.6757M51.409 42.0967C52.375 42.0967 53.142 42.0677 53.909 42.1027C54.7242 42.0781 55.5205 42.3499 56.1505 42.8677C56.7805 43.3855 57.2013 44.1142 57.335 44.9187C57.4334 45.8097 57.2954 46.7109 56.935 47.5317C55.036 51.4695 54.2023 55.8362 54.517 60.1967C54.6199 62.6255 54.1528 65.0447 53.153 67.2607C53.0836 67.3733 53.0394 67.4996 53.0234 67.631C53.0074 67.7623 53.0199 67.8956 53.0602 68.0216C53.1004 68.1476 53.1675 68.2635 53.2567 68.3612C53.3459 68.4589 53.4552 68.5361 53.577 68.5877C56.2814 70.3211 59.4263 71.2425 62.6385 71.2425C65.8508 71.2425 68.9956 70.3211 71.7 68.5877C71.8223 68.5349 71.9316 68.4559 72.0201 68.3564C72.1086 68.2568 72.1742 68.1391 72.2123 68.0115C72.2504 67.8838 72.2601 67.7494 72.2407 67.6176C72.2213 67.4858 72.1733 67.3599 72.1 67.2487C71.0463 64.672 70.5728 61.895 70.713 59.1147C70.868 57.54 70.8128 55.9518 70.549 54.3917C69.9182 52.0319 69.1502 49.711 68.249 47.4407C67.115 44.3347 68.634 42.0977 71.949 42.0867C72.536 42.0867 73.123 42.0867 73.866 42.0867C70.8149 39.2523 66.8043 37.6776 62.6399 37.6787C58.4754 37.6798 54.4656 39.2567 51.416 42.0927M51.203 44.7407C48.364 43.8917 47.386 45.5807 46.266 47.8567C44.1959 51.7383 43.2504 56.1208 43.536 60.5107C43.6118 62.5194 43.1874 64.5155 42.301 66.3197C39.439 72.9367 36.601 79.5657 33.723 86.1747C33.5627 86.5227 33.4744 86.8996 33.4634 87.2826C33.4524 87.6657 33.5189 88.047 33.659 88.4037C33.9926 89.3674 34.6153 90.2047 35.4423 90.8014C36.2694 91.3981 37.2603 91.725 38.28 91.7377C39.3186 91.7634 40.3379 91.4551 41.1881 90.8582C42.0383 90.2612 42.6745 89.4072 43.003 88.4217C44.821 83.3287 46.585 78.2167 48.369 73.1107C48.911 71.5607 49.358 69.9707 50.001 68.4657C51.5482 64.8698 52.2121 60.9557 51.937 57.0507C51.8011 54.6573 52.2339 52.2657 53.2 50.0717C53.74 48.7987 54.222 47.4987 54.693 46.1977C55.035 45.2527 54.693 44.7667 53.707 44.7437C52.873 44.7237 52.038 44.7437 51.207 44.7437M73.339 58.3137C73.144 61.312 73.6333 64.3154 74.77 67.0967C76.426 71.5627 77.937 76.0827 79.509 80.5797C80.433 83.2237 81.325 85.8797 82.291 88.5067C82.6357 89.468 83.2735 90.2969 84.1144 90.8764C84.9553 91.4559 85.957 91.7568 86.978 91.7367C87.9976 91.7249 88.9888 91.3987 89.8161 90.8028C90.6435 90.2068 91.2668 89.37 91.601 88.4067C91.7425 88.0505 91.8103 87.6694 91.8004 87.2862C91.7904 86.9031 91.7029 86.526 91.543 86.1777C89.107 80.6044 86.6967 75.0194 84.312 69.4227C83.4003 67.6135 82.6784 65.7147 82.158 63.7567C81.8802 61.4276 81.721 59.0859 81.681 56.7407C81.6136 55.2673 81.3527 53.8091 80.905 52.4037C80.019 50.0267 78.869 47.7467 77.777 45.4517C77.6838 45.2778 77.5529 45.127 77.3939 45.0102C77.2349 44.8934 77.0518 44.8136 76.858 44.7767C75.031 44.7117 73.201 44.7227 71.372 44.7557C70.611 44.7687 70.312 45.2557 70.517 46.0077C70.6126 46.3136 70.7248 46.614 70.853 46.9077C72.293 50.5707 73.886 54.1997 73.327 58.3077M93.096 91.6567C93.5489 91.5316 93.994 91.38 94.429 91.2027C94.9202 91.0395 95.3742 90.7807 95.7649 90.4413C96.1556 90.1018 96.4752 89.6883 96.7053 89.2247C96.9353 88.7611 97.0714 88.2565 97.1055 87.7401C97.1396 87.2236 97.0711 86.7055 96.904 86.2157C96.469 84.2667 96.021 82.3157 95.577 80.3727C94.303 74.7827 93.165 69.1567 91.711 63.6137C90.488 58.9497 88.12 58.5817 84.346 59.0277C84.1579 61.2451 84.5332 63.4741 85.437 65.5077C88.3617 72.205 91.2507 78.9164 94.104 85.6417C94.3843 86.2171 94.4886 86.8623 94.404 87.4967C94.075 88.9077 93.546 90.2717 93.097 91.6547M40.894 58.9107C40.171 58.9107 39.53 58.9407 38.894 58.9057C37.8731 58.8209 36.8527 59.0748 35.9905 59.6281C35.1283 60.1814 34.4723 61.0033 34.124 61.9667C33.7857 62.6967 33.524 63.4597 33.343 64.2437C31.6597 71.591 29.993 78.9417 28.343 86.2957C28.1748 86.9156 28.151 87.5658 28.2734 88.1963C28.3958 88.8268 28.6612 89.4209 29.0492 89.9328C29.4371 90.4447 29.9374 90.8608 30.5113 91.149C31.0853 91.4373 31.7178 91.5901 32.36 91.5957C32.366 91.5687 32.387 91.5337 32.377 91.5167C32.23 91.2707 32.077 91.0297 31.929 90.7807C31.3409 89.9156 30.9863 88.9131 30.8998 87.8706C30.8132 86.8281 30.9976 85.7809 31.435 84.8307C34.302 78.4307 37.005 71.9507 39.812 65.5207C40.7343 63.4461 41.1073 61.1691 40.895 58.9087" fill="white"/>
</g>
<path d="M93.23 91.2438L92.4568 94.2376L93.8712 93.886L94.7165 91.0084L93.23 91.2438Z" fill="white"/>
<path d="M44.2266 91.4473L42 94.3232H82.8638L81.7642 93.1787L80.5439 91.5391L44.2266 91.4473Z" fill="white"/>
</g>
<defs>
<clipPath id="clip0_20_5832">
<rect width="125" height="128" fill="white"/>
</clipPath>
</defs>
</svg>
