<svg width="600" height="59" viewBox="0 0 600 59" fill="none" xmlns="http://www.w3.org/2000/svg">
<mask id="path-1-inside-1_3574_2801" fill="white">
<path d="M566 0.5C574.284 0.5 581 7.21573 581 15.5C581 23.7843 574.284 30.5 566 30.5C561.093 30.5 556.736 28.1433 553.999 24.5H404.001C401.264 28.1433 396.907 30.5 392 30.5C387.093 30.5 382.736 28.1433 379.999 24.5H230.001C227.264 28.1433 222.907 30.5 218 30.5C213.093 30.5 208.736 28.1433 205.999 24.5H56.001C53.2644 28.1433 48.9074 30.5 44 30.5C35.7157 30.5 29 23.7843 29 15.5C29 7.21573 35.7157 0.5 44 0.5C49.3428 0.5 54.0322 3.29402 56.6895 7.5H205.311C207.968 3.29402 212.657 0.5 218 0.5C223.343 0.5 228.032 3.29402 230.689 7.5H379.311C381.968 3.29402 386.657 0.5 392 0.5C397.343 0.5 402.032 3.29402 404.689 7.5H553.311C555.968 3.29402 560.657 0.5 566 0.5Z"/>
</mask>
<path d="M566 0.5C574.284 0.5 581 7.21573 581 15.5C581 23.7843 574.284 30.5 566 30.5C561.093 30.5 556.736 28.1433 553.999 24.5H404.001C401.264 28.1433 396.907 30.5 392 30.5C387.093 30.5 382.736 28.1433 379.999 24.5H230.001C227.264 28.1433 222.907 30.5 218 30.5C213.093 30.5 208.736 28.1433 205.999 24.5H56.001C53.2644 28.1433 48.9074 30.5 44 30.5C35.7157 30.5 29 23.7843 29 15.5C29 7.21573 35.7157 0.5 44 0.5C49.3428 0.5 54.0322 3.29402 56.6895 7.5H205.311C207.968 3.29402 212.657 0.5 218 0.5C223.343 0.5 228.032 3.29402 230.689 7.5H379.311C381.968 3.29402 386.657 0.5 392 0.5C397.343 0.5 402.032 3.29402 404.689 7.5H553.311C555.968 3.29402 560.657 0.5 566 0.5Z" fill="#7A7A7A" fill-opacity="0.15"/>
<path d="M553.999 24.5L556.398 22.6982L555.498 21.5H553.999V24.5ZM404.001 24.5V21.5H402.502L401.602 22.6982L404.001 24.5ZM379.999 24.5L382.398 22.6982L381.498 21.5H379.999V24.5ZM230.001 24.5V21.5H228.502L227.602 22.6983L230.001 24.5ZM205.999 24.5L208.398 22.6983L207.498 21.5H205.999V24.5ZM56.001 24.5V21.5H54.5023L53.6023 22.6983L56.001 24.5ZM56.6895 7.5L54.1532 9.10232L55.0362 10.5H56.6895V7.5ZM205.311 7.5V10.5H206.964L207.847 9.10233L205.311 7.5ZM230.689 7.5L228.153 9.10233L229.036 10.5H230.689V7.5ZM379.311 7.5V10.5H380.964L381.847 9.10232L379.311 7.5ZM404.689 7.5L402.153 9.10232L403.036 10.5H404.689V7.5ZM553.311 7.5V10.5H554.964L555.847 9.10233L553.311 7.5ZM566 0.5V3.5C572.627 3.5 578 8.87258 578 15.5H581H584C584 5.55888 575.941 -2.5 566 -2.5V0.5ZM581 15.5H578C578 22.1274 572.627 27.5 566 27.5V30.5V33.5C575.941 33.5 584 25.4411 584 15.5H581ZM566 30.5V27.5C562.076 27.5 558.592 25.6197 556.398 22.6982L553.999 24.5L551.6 26.3018C554.879 30.6669 560.109 33.5 566 33.5V30.5ZM553.999 24.5V21.5H404.001V24.5V27.5H553.999V24.5ZM404.001 24.5L401.602 22.6982C399.408 25.6197 395.924 27.5 392 27.5V30.5V33.5C397.891 33.5 403.121 30.6669 406.4 26.3018L404.001 24.5ZM392 30.5V27.5C388.076 27.5 384.592 25.6197 382.398 22.6982L379.999 24.5L377.6 26.3018C380.879 30.6669 386.109 33.5 392 33.5V30.5ZM379.999 24.5V21.5H230.001V24.5V27.5H379.999V24.5ZM230.001 24.5L227.602 22.6983C225.408 25.6197 221.924 27.5 218 27.5V30.5V33.5C223.891 33.5 229.121 30.6669 232.4 26.3017L230.001 24.5ZM218 30.5V27.5C214.076 27.5 210.592 25.6197 208.398 22.6983L205.999 24.5L203.6 26.3017C206.879 30.6669 212.109 33.5 218 33.5V30.5ZM205.999 24.5V21.5H56.001V24.5V27.5H205.999V24.5ZM56.001 24.5L53.6023 22.6983C51.4079 25.6197 47.924 27.5 44 27.5V30.5V33.5C49.8909 33.5 55.1208 30.6669 58.3997 26.3017L56.001 24.5ZM44 30.5V27.5C37.3726 27.5 32 22.1274 32 15.5H29H26C26 25.4411 34.0589 33.5 44 33.5V30.5ZM29 15.5H32C32 8.87258 37.3726 3.5 44 3.5V0.5V-2.5C34.0589 -2.5 26 5.55887 26 15.5H29ZM44 0.5V3.5C48.2705 3.5 52.0223 5.72936 54.1532 9.10232L56.6895 7.5L59.2257 5.89768C56.0422 0.858685 50.4152 -2.5 44 -2.5V0.5ZM56.6895 7.5V10.5H205.311V7.5V4.5H56.6895V7.5ZM205.311 7.5L207.847 9.10233C209.978 5.72936 213.729 3.5 218 3.5V0.5V-2.5C211.585 -2.5 205.958 0.858687 202.774 5.89767L205.311 7.5ZM218 0.5V3.5C222.271 3.5 226.022 5.72936 228.153 9.10233L230.689 7.5L233.226 5.89767C230.042 0.858687 224.415 -2.5 218 -2.5V0.5ZM230.689 7.5V10.5H379.311V7.5V4.5H230.689V7.5ZM379.311 7.5L381.847 9.10232C383.978 5.72936 387.729 3.5 392 3.5V0.5V-2.5C385.585 -2.5 379.958 0.858681 376.774 5.89768L379.311 7.5ZM392 0.5V3.5C396.271 3.5 400.022 5.72936 402.153 9.10232L404.689 7.5L407.226 5.89768C404.042 0.858681 398.415 -2.5 392 -2.5V0.5ZM404.689 7.5V10.5H553.311V7.5V4.5H404.689V7.5ZM553.311 7.5L555.847 9.10233C557.978 5.72936 561.729 3.5 566 3.5V0.5V-2.5C559.585 -2.5 553.958 0.858689 550.774 5.89767L553.311 7.5Z" fill="#7A7A7A" mask="url(#path-1-inside-1_3574_2801)"/>
<circle cx="566" cy="15.5" r="15" fill="#69186B"/>
<path d="M566.357 7.64307L566.357 23.3574" stroke="white" stroke-width="4" stroke-linecap="round"/>
<path d="M559.571 11.2144L559.571 19.7858" stroke="white" stroke-width="4" stroke-linecap="round"/>
<path d="M573.143 11.2144L573.143 19.7858" stroke="white" stroke-width="4" stroke-linecap="round"/>
<path d="M554.872 52.69C553.187 52.69 551.882 52.1073 550.958 50.942C550.046 49.7767 549.59 48.1427 549.59 46.04C549.59 44.52 549.824 43.2343 550.293 42.183C550.761 41.119 551.426 40.3083 552.288 39.751C553.162 39.1937 554.207 38.915 555.423 38.915C556.145 38.915 556.86 39.048 557.57 39.314C558.279 39.5673 558.887 39.9347 559.394 40.416L558.577 42.24C558.108 41.8093 557.601 41.4927 557.057 41.29C556.512 41.0747 555.961 40.967 555.404 40.967C554.264 40.967 553.396 41.3533 552.801 42.126C552.205 42.8987 551.908 44.0513 551.908 45.584V47.009H551.68C551.781 46.363 551.996 45.812 552.326 45.356C552.655 44.8873 553.079 44.5327 553.599 44.292C554.118 44.0387 554.694 43.912 555.328 43.912C556.113 43.912 556.81 44.0957 557.418 44.463C558.026 44.8303 558.501 45.337 558.843 45.983C559.197 46.629 559.375 47.37 559.375 48.206C559.375 49.0673 559.178 49.84 558.786 50.524C558.406 51.1953 557.88 51.7273 557.209 52.12C556.537 52.5 555.758 52.69 554.872 52.69ZM554.739 50.752C555.207 50.752 555.619 50.6507 555.974 50.448C556.328 50.2453 556.601 49.9603 556.791 49.593C556.993 49.213 557.095 48.7823 557.095 48.301C557.095 47.807 556.993 47.3763 556.791 47.009C556.601 46.6417 556.328 46.3567 555.974 46.154C555.619 45.9387 555.207 45.831 554.739 45.831C554.27 45.831 553.858 45.9387 553.504 46.154C553.149 46.3567 552.87 46.6417 552.668 47.009C552.465 47.3763 552.364 47.807 552.364 48.301C552.364 48.7823 552.465 49.213 552.668 49.593C552.87 49.9603 553.149 50.2453 553.504 50.448C553.858 50.6507 554.27 50.752 554.739 50.752ZM570.015 36.274L572.352 36.882C572.01 37.8193 571.605 38.7377 571.136 39.637C570.68 40.5363 570.18 41.3723 569.635 42.145C569.103 42.905 568.552 43.57 567.982 44.14C567.83 44.0133 567.634 43.855 567.393 43.665C567.153 43.4623 566.906 43.2723 566.652 43.095C566.412 42.9177 566.196 42.772 566.006 42.658C566.589 42.164 567.134 41.5813 567.64 40.91C568.147 40.226 568.603 39.4913 569.008 38.706C569.414 37.908 569.749 37.0973 570.015 36.274ZM570.433 38.44H582.517V40.644H569.331L570.433 38.44ZM569.084 42.943H582.061V45.071H571.364V49.061H569.084V42.943ZM566.063 47.94H583.543V50.125H566.063V47.94ZM574.67 39.58H577.026V54.21H574.67V39.58Z" fill="#69186B"/>
<path d="M381.161 53.5V50.593H374.777V49.453L381.408 40.105H382.7V49.32H384.752V50.593H382.7V53.5H381.161ZM381.161 49.32V41.967H381.579L376.069 49.719V49.32H381.161ZM395.436 37.464L396.88 37.844C396.526 38.7687 396.108 39.6743 395.626 40.561C395.158 41.435 394.645 42.252 394.087 43.012C393.53 43.7593 392.954 44.418 392.358 44.988C392.27 44.912 392.149 44.817 391.997 44.703C391.858 44.5763 391.706 44.456 391.541 44.342C391.389 44.228 391.25 44.1393 391.123 44.076C391.731 43.544 392.301 42.936 392.833 42.252C393.378 41.5553 393.872 40.8017 394.315 39.991C394.759 39.1677 395.132 38.3253 395.436 37.464ZM395.151 39.839H407.406V41.207H394.448L395.151 39.839ZM394.22 44.133H406.969V45.482H395.645V49.966H394.22V44.133ZM391.085 49.263H408.299V50.631H391.085V49.263ZM399.901 40.561H401.364V55.02H399.901V40.561Z" fill="#7A7A7A"/>
<path d="M200.461 53.5V52.322L205.211 47.363C205.831 46.717 206.294 46.1027 206.598 45.52C206.914 44.9247 207.073 44.3103 207.073 43.677C207.073 42.9043 206.832 42.3217 206.351 41.929C205.869 41.5237 205.173 41.321 204.261 41.321C203.551 41.321 202.893 41.4477 202.285 41.701C201.689 41.9417 201.113 42.328 200.556 42.86L199.986 41.625C200.492 41.1183 201.138 40.713 201.924 40.409C202.709 40.0923 203.539 39.934 204.413 39.934C205.768 39.934 206.813 40.2507 207.548 40.884C208.282 41.5047 208.65 42.3913 208.65 43.544C208.65 44.3927 208.441 45.2033 208.023 45.976C207.617 46.736 207.022 47.5213 206.237 48.332L202.038 52.588V52.151H209.22V53.5H200.461ZM220.436 37.464L221.88 37.844C221.526 38.7687 221.108 39.6743 220.626 40.561C220.158 41.435 219.645 42.252 219.087 43.012C218.53 43.7593 217.954 44.418 217.358 44.988C217.27 44.912 217.149 44.817 216.997 44.703C216.858 44.5763 216.706 44.456 216.541 44.342C216.389 44.228 216.25 44.1393 216.123 44.076C216.731 43.544 217.301 42.936 217.833 42.252C218.378 41.5553 218.872 40.8017 219.315 39.991C219.759 39.1677 220.132 38.3253 220.436 37.464ZM220.151 39.839H232.406V41.207H219.448L220.151 39.839ZM219.22 44.133H231.969V45.482H220.645V49.966H219.22V44.133ZM216.085 49.263H233.299V50.631H216.085V49.263ZM224.901 40.561H226.364V55.02H224.901V40.561Z" fill="#7A7A7A"/>
<path d="M21.448 46.629H30.929V53.906H29.561V47.94H22.778V54.001H21.448V46.629ZM30.226 36.616L31.366 37.718C30.492 38.022 29.4913 38.288 28.364 38.516C27.2493 38.744 26.0903 38.9403 24.887 39.105C23.6837 39.2697 22.5183 39.409 21.391 39.523C21.353 39.3583 21.2897 39.1557 21.201 38.915C21.125 38.6743 21.049 38.4717 20.973 38.307C21.7837 38.2183 22.626 38.117 23.5 38.003C24.374 37.889 25.2227 37.7623 26.046 37.623C26.8693 37.471 27.6357 37.3127 28.345 37.148C29.067 36.9833 29.694 36.806 30.226 36.616ZM25.571 38.25H26.92V47.389H25.571V38.25ZM20.08 42.107H32.183V43.475H20.08V42.107ZM22.36 51.892H30.188V53.184H22.36V51.892ZM15.729 37.794L16.527 36.787C16.9197 36.9643 17.3377 37.1733 17.781 37.414C18.237 37.6547 18.674 37.8953 19.092 38.136C19.51 38.364 19.852 38.5667 20.118 38.744L19.282 39.922C19.016 39.7193 18.674 39.4977 18.256 39.257C17.8507 39.0037 17.4263 38.7503 16.983 38.497C16.5397 38.231 16.1217 37.9967 15.729 37.794ZM14.798 43.019L15.577 41.974C15.957 42.1513 16.3687 42.3603 16.812 42.601C17.2553 42.8417 17.6797 43.076 18.085 43.304C18.503 43.532 18.845 43.7347 19.111 43.912L18.313 45.09C18.0597 44.9127 17.7303 44.7037 17.325 44.463C16.9197 44.2223 16.4953 43.9753 16.052 43.722C15.6087 43.456 15.1907 43.2217 14.798 43.019ZM15.235 52.804C15.577 52.3227 15.957 51.7463 16.375 51.075C16.8057 50.391 17.2363 49.669 17.667 48.909C18.0977 48.1363 18.4967 47.3953 18.864 46.686L19.909 47.617C19.5797 48.2883 19.2123 48.985 18.807 49.707C18.4143 50.429 18.0153 51.1383 17.61 51.835C17.2047 52.5317 16.8183 53.1777 16.451 53.773L15.235 52.804ZM33.931 40.15H39.688V41.48H33.931V40.15ZM36.401 36.54H37.712V54.001H36.401V36.54ZM36.363 41.005L37.218 41.29C37.0913 42.0373 36.9267 42.8163 36.724 43.627C36.534 44.4377 36.3123 45.2293 36.059 46.002C35.8057 46.7747 35.5333 47.4967 35.242 48.168C34.9633 48.8267 34.6657 49.3967 34.349 49.878C34.2983 49.7387 34.2287 49.5867 34.14 49.422C34.064 49.2447 33.9753 49.0737 33.874 48.909C33.7853 48.7443 33.703 48.605 33.627 48.491C33.9057 48.073 34.1843 47.5727 34.463 46.99C34.7417 46.4073 35.0013 45.7803 35.242 45.109C35.4827 44.425 35.698 43.7347 35.888 43.038C36.0907 42.3287 36.249 41.651 36.363 41.005ZM37.655 42.183C37.7437 42.3223 37.8893 42.5567 38.092 42.886C38.3073 43.2027 38.5353 43.5573 38.776 43.95C39.0293 44.33 39.251 44.6847 39.441 45.014C39.6437 45.3307 39.783 45.565 39.859 45.717L39.004 46.724C38.9027 46.4833 38.757 46.1793 38.567 45.812C38.3897 45.4447 38.1997 45.0583 37.997 44.653C37.7943 44.2477 37.598 43.874 37.408 43.532C37.218 43.1773 37.066 42.9113 36.952 42.734L37.655 42.183ZM45.464 37.167C45.768 37.6483 46.148 38.1487 46.604 38.668C47.06 39.1747 47.554 39.675 48.086 40.169C48.618 40.663 49.1627 41.1253 49.72 41.556C50.29 41.974 50.8347 42.335 51.354 42.639C51.2653 42.7403 51.1703 42.8733 51.069 43.038C50.9803 43.19 50.898 43.3483 50.822 43.513C50.746 43.665 50.6763 43.8043 50.613 43.931C49.8783 43.437 49.1183 42.8543 48.333 42.183C47.5603 41.5117 46.832 40.796 46.148 40.036C45.464 39.276 44.8877 38.5477 44.419 37.851L45.464 37.167ZM44.856 36.407L46.11 36.863C45.6287 37.8383 45.046 38.7757 44.362 39.675C43.6907 40.5617 42.9623 41.385 42.177 42.145C41.3917 42.905 40.5873 43.57 39.764 44.14C39.7133 44.0387 39.631 43.9183 39.517 43.779C39.4157 43.627 39.308 43.4813 39.194 43.342C39.0927 43.19 38.9977 43.0633 38.909 42.962C39.707 42.468 40.4797 41.8853 41.227 41.214C41.9743 40.53 42.6583 39.7827 43.279 38.972C43.8997 38.1487 44.4253 37.2937 44.856 36.407ZM41.892 42.43H48.333V43.665H41.892V42.43ZM40.543 45.755L41.664 45.47C41.854 45.9387 42.0313 46.4517 42.196 47.009C42.3733 47.5537 42.5253 48.092 42.652 48.624C42.7913 49.1433 42.8863 49.6057 42.937 50.011L41.759 50.353C41.721 49.935 41.6323 49.46 41.493 48.928C41.3663 48.396 41.2207 47.8577 41.056 47.313C40.8913 46.7557 40.7203 46.2363 40.543 45.755ZM44.229 45.223L45.35 45.071C45.4767 45.5523 45.597 46.0653 45.711 46.61C45.825 47.1547 45.92 47.6867 45.996 48.206C46.0847 48.7253 46.148 49.1877 46.186 49.593L44.989 49.802C44.9637 49.384 44.913 48.9153 44.837 48.396C44.761 47.864 44.666 47.3257 44.552 46.781C44.4507 46.2237 44.343 45.7043 44.229 45.223ZM48.998 45.071L50.271 45.413C49.967 46.173 49.625 46.9773 49.245 47.826C48.8777 48.6747 48.504 49.498 48.124 50.296C47.744 51.094 47.3767 51.7907 47.022 52.386L45.977 52.063C46.243 51.607 46.5153 51.094 46.794 50.524C47.0727 49.9413 47.345 49.3333 47.611 48.7C47.8897 48.054 48.1493 47.4207 48.39 46.8C48.6307 46.1793 48.8333 45.603 48.998 45.071ZM39.517 51.835H50.822V53.108H39.517V51.835ZM54.242 38.136H59.486V50.486H54.242V49.194H58.156V39.428H54.242V38.136ZM54.299 43.589H58.65V44.862H54.299V43.589ZM53.539 38.136H54.907V52.025H53.539V38.136ZM60.36 40.34H70.278V41.765H60.36V40.34ZM66.516 36.635H67.96V51.873C67.96 52.3923 67.884 52.7723 67.732 53.013C67.5927 53.2663 67.352 53.45 67.01 53.564C66.668 53.6907 66.1867 53.7667 65.566 53.792C64.9453 53.8173 64.16 53.83 63.21 53.83C63.172 53.6273 63.1023 53.3803 63.001 53.089C62.8997 52.8103 62.792 52.5697 62.678 52.367C63.1847 52.3797 63.6597 52.3923 64.103 52.405C64.559 52.4177 64.9517 52.424 65.281 52.424C65.6103 52.4113 65.8447 52.3987 65.984 52.386C66.174 52.386 66.307 52.348 66.383 52.272C66.4717 52.196 66.516 52.063 66.516 51.873V36.635ZM61.006 43.912L62.184 43.285C62.526 43.7663 62.887 44.2857 63.267 44.843C63.647 45.4003 64.0017 45.9387 64.331 46.458C64.673 46.9773 64.9517 47.4333 65.167 47.826L63.913 48.548C63.7103 48.1553 63.4443 47.693 63.115 47.161C62.7983 46.6163 62.45 46.059 62.07 45.489C61.7027 44.919 61.348 44.3933 61.006 43.912Z" fill="#7A7A7A"/>
</svg>
