<svg width="600" height="58" viewBox="0 0 600 58" fill="none" xmlns="http://www.w3.org/2000/svg">
<mask id="path-1-inside-1_2646_2239" fill="white">
<path fill-rule="evenodd" clip-rule="evenodd" d="M56.8807 7C54.2146 2.79366 49.5083 0 44.1473 0C35.8354 0 29.0972 6.71573 29.0972 15C29.0972 23.2843 35.8354 30 44.1473 30C49.0712 30 53.4428 27.6433 56.1886 24H206.688C209.434 27.6433 213.805 30 218.729 30C223.653 30 228.025 27.6433 230.771 24H381.27C384.016 27.6433 388.387 30 393.311 30C398.235 30 402.607 27.6433 405.352 24H555.852C558.598 27.6433 562.969 30 567.893 30C576.205 30 582.943 23.2843 582.943 15C582.943 6.71573 576.205 0 567.893 0C562.532 0 557.826 2.79366 555.16 7H406.045C403.379 2.79366 398.672 0 393.311 0C387.95 0 383.244 2.79366 380.578 7H231.463C228.797 2.79366 224.09 0 218.729 0C213.368 0 208.662 2.79366 205.996 7H56.8807Z"/>
</mask>
<path fill-rule="evenodd" clip-rule="evenodd" d="M56.8807 7C54.2146 2.79366 49.5083 0 44.1473 0C35.8354 0 29.0972 6.71573 29.0972 15C29.0972 23.2843 35.8354 30 44.1473 30C49.0712 30 53.4428 27.6433 56.1886 24H206.688C209.434 27.6433 213.805 30 218.729 30C223.653 30 228.025 27.6433 230.771 24H381.27C384.016 27.6433 388.387 30 393.311 30C398.235 30 402.607 27.6433 405.352 24H555.852C558.598 27.6433 562.969 30 567.893 30C576.205 30 582.943 23.2843 582.943 15C582.943 6.71573 576.205 0 567.893 0C562.532 0 557.826 2.79366 555.16 7H406.045C403.379 2.79366 398.672 0 393.311 0C387.95 0 383.244 2.79366 380.578 7H231.463C228.797 2.79366 224.09 0 218.729 0C213.368 0 208.662 2.79366 205.996 7H56.8807Z" fill="#7A7A7A" fill-opacity="0.15"/>
<path d="M56.8807 7L54.3467 8.60602L55.2303 10H56.8807V7ZM56.1886 24V21H54.6929L53.7928 22.1944L56.1886 24ZM206.688 24L209.084 22.1944L208.184 21H206.688V24ZM230.771 24V21H229.275L228.375 22.1944L230.771 24ZM381.27 24L383.666 22.1944L382.766 21H381.27V24ZM405.352 24V21H403.857L402.957 22.1944L405.352 24ZM555.852 24L558.248 22.1944L557.347 21H555.852V24ZM555.16 7V10H556.81L557.694 8.60602L555.16 7ZM406.045 7L403.511 8.60602L404.394 10H406.045V7ZM380.578 7V10H382.228L383.112 8.60602L380.578 7ZM231.463 7L228.929 8.60602L229.812 10H231.463V7ZM205.996 7V10H207.646L208.53 8.60602L205.996 7ZM44.1473 3C48.4411 3 52.2093 5.23368 54.3467 8.60602L59.4146 5.39398C56.2199 0.353645 50.5756 -3 44.1473 -3V3ZM32.0972 15C32.0972 8.38202 37.4828 3 44.1473 3V-3C34.188 -3 26.0972 5.04944 26.0972 15H32.0972ZM44.1473 27C37.4828 27 32.0972 21.618 32.0972 15H26.0972C26.0972 24.9506 34.188 33 44.1473 33V27ZM53.7928 22.1944C51.5909 25.1161 48.0919 27 44.1473 27V33C50.0505 33 55.2947 30.1706 58.5844 25.8056L53.7928 22.1944ZM206.688 21H56.1886V27H206.688V21ZM218.729 27C214.785 27 211.286 25.1161 209.084 22.1944L204.292 25.8056C207.582 30.1706 212.826 33 218.729 33V27ZM228.375 22.1944C226.173 25.1161 222.674 27 218.729 27V33C224.632 33 229.877 30.1706 233.166 25.8056L228.375 22.1944ZM381.27 21H230.771V27H381.27V21ZM378.874 25.8056C382.164 30.1706 387.408 33 393.311 33V27C389.367 27 385.868 25.1161 383.666 22.1944L378.874 25.8056ZM393.311 33C399.214 33 404.459 30.1706 407.748 25.8056L402.957 22.1944C400.755 25.1161 397.256 27 393.311 27V33ZM555.852 21H405.352V27H555.852V21ZM567.893 27C563.949 27 560.45 25.1161 558.248 22.1944L553.456 25.8056C556.746 30.1706 561.99 33 567.893 33V27ZM579.943 15C579.943 21.618 574.558 27 567.893 27V33C577.852 33 585.943 24.9506 585.943 15H579.943ZM567.893 3C574.558 3 579.943 8.38202 579.943 15H585.943C585.943 5.04943 577.852 -3 567.893 -3V3ZM557.694 8.60602C559.831 5.23369 563.599 3 567.893 3V-3C561.465 -3 555.82 0.353644 552.626 5.39398L557.694 8.60602ZM406.045 10H555.16V4H406.045V10ZM408.578 5.39398C405.384 0.353641 399.739 -3 393.311 -3V3C397.605 3 401.373 5.23369 403.511 8.60602L408.578 5.39398ZM393.311 -3C386.883 -3 381.239 0.353641 378.044 5.39398L383.112 8.60602C385.249 5.23369 389.017 3 393.311 3V-3ZM231.463 10H380.578V4H231.463V10ZM218.729 3C223.023 3 226.791 5.23369 228.929 8.60602L233.997 5.39398C230.802 0.353644 225.158 -3 218.729 -3V3ZM208.53 8.60602C210.667 5.23369 214.436 3 218.729 3V-3C212.301 -3 206.657 0.353644 203.462 5.39398L208.53 8.60602ZM56.8807 10H205.996V4H56.8807V10Z" fill="#7A7A7A" mask="url(#path-1-inside-1_2646_2239)"/>
<ellipse cx="218.729" cy="15" rx="15.0502" ry="15" fill="#69186B"/>
<path d="M219.087 7.14307L219.087 22.8574" stroke="white" stroke-width="4" stroke-linecap="round"/>
<path d="M212.279 10.7144L212.279 19.2858" stroke="white" stroke-width="4" stroke-linecap="round"/>
<path d="M225.896 10.7144L225.896 19.2858" stroke="white" stroke-width="4" stroke-linecap="round"/>
<path d="M541.478 43.507C542.301 43.507 543.03 43.6907 543.663 44.058C544.309 44.4127 544.809 44.9193 545.164 45.578C545.519 46.224 545.696 46.965 545.696 47.801C545.696 48.637 545.506 49.3843 545.126 50.043C544.759 50.7017 544.246 51.221 543.587 51.601C542.928 51.9683 542.181 52.152 541.345 52.152C539.711 52.152 538.451 51.582 537.564 50.442C536.677 49.302 536.234 47.6807 536.234 45.578C536.234 44.058 536.437 42.7533 536.842 41.664C537.26 40.5747 537.855 39.745 538.628 39.175C539.413 38.605 540.351 38.32 541.44 38.32C542.225 38.32 542.985 38.4657 543.72 38.757C544.467 39.0483 545.12 39.46 545.677 39.992L545.088 41.189C544.455 40.657 543.847 40.2643 543.264 40.011C542.681 39.7577 542.086 39.631 541.478 39.631C540.313 39.631 539.407 40.1503 538.761 41.189C538.115 42.2277 537.792 43.6843 537.792 45.559V45.844C538.083 45.122 538.558 44.552 539.217 44.134C539.876 43.716 540.629 43.507 541.478 43.507ZM541.269 50.841C542.13 50.841 542.827 50.5687 543.359 50.024C543.891 49.4667 544.157 48.732 544.157 47.82C544.157 46.9207 543.885 46.1987 543.34 45.654C542.808 45.0967 542.111 44.818 541.25 44.818C540.363 44.818 539.641 45.0967 539.084 45.654C538.527 46.2113 538.248 46.9333 538.248 47.82C538.248 48.7193 538.527 49.4477 539.084 50.005C539.641 50.5623 540.37 50.841 541.269 50.841ZM558.091 46.528V52H556.533V46.509L551.213 38.472H553.037L557.331 45.122L561.625 38.472H563.411L558.091 46.528ZM571.111 47.174H564.1C564.113 48.39 564.391 49.3083 564.936 49.929C565.493 50.5497 566.298 50.86 567.349 50.86C568.464 50.86 569.49 50.4863 570.427 49.739L570.94 50.86C570.522 51.2527 569.984 51.563 569.325 51.791C568.679 52.019 568.014 52.133 567.33 52.133C565.835 52.133 564.664 51.696 563.815 50.822C562.966 49.9353 562.542 48.7257 562.542 47.193C562.542 46.2177 562.732 45.3563 563.112 44.609C563.492 43.849 564.024 43.26 564.708 42.842C565.392 42.424 566.171 42.215 567.045 42.215C568.312 42.215 569.306 42.633 570.028 43.469C570.75 44.2923 571.111 45.4323 571.111 46.889V47.174ZM567.064 43.412C566.266 43.412 565.614 43.6527 565.107 44.134C564.613 44.6153 564.296 45.293 564.157 46.167H569.724C569.648 45.2677 569.382 44.5837 568.926 44.115C568.483 43.6463 567.862 43.412 567.064 43.412ZM581.864 42.443V52H580.344V50.271C580.065 50.8663 579.641 51.3287 579.071 51.658C578.514 51.9747 577.861 52.133 577.114 52.133C576.265 52.133 575.518 51.9303 574.872 51.525C574.239 51.1197 573.745 50.5497 573.39 49.815C573.048 49.0677 572.877 48.2 572.877 47.212C572.877 46.224 573.054 45.3563 573.409 44.609C573.764 43.849 574.258 43.26 574.891 42.842C575.537 42.424 576.278 42.215 577.114 42.215C577.861 42.215 578.514 42.3797 579.071 42.709C579.628 43.0383 580.053 43.5007 580.344 44.096V42.443H581.864ZM577.418 50.86C578.355 50.86 579.077 50.5433 579.584 49.91C580.091 49.264 580.344 48.352 580.344 47.174C580.344 45.996 580.091 45.0903 579.584 44.457C579.077 43.8237 578.355 43.507 577.418 43.507C576.481 43.507 575.746 43.8363 575.214 44.495C574.695 45.141 574.435 46.0467 574.435 47.212C574.435 48.3773 574.695 49.2767 575.214 49.91C575.733 50.5433 576.468 50.86 577.418 50.86ZM589.285 42.215C589.602 42.215 589.893 42.253 590.159 42.329L590.121 43.735C589.83 43.6337 589.494 43.583 589.114 43.583C588.19 43.583 587.499 43.8743 587.043 44.457C586.6 45.027 586.378 45.7237 586.378 46.547V52H584.839V45.122C584.839 44.134 584.789 43.241 584.687 42.443H586.15L586.302 44.21C586.543 43.564 586.929 43.07 587.461 42.728C587.993 42.386 588.601 42.215 589.285 42.215ZM594.86 52.133C593.252 52.133 591.979 51.7213 591.041 50.898L591.554 49.758C592.074 50.1633 592.599 50.4547 593.131 50.632C593.663 50.8093 594.259 50.898 594.917 50.898C595.639 50.898 596.184 50.7777 596.551 50.537C596.931 50.2837 597.121 49.9227 597.121 49.454C597.121 49.074 596.995 48.77 596.741 48.542C596.488 48.314 596.07 48.1367 595.487 48.01L593.872 47.63C593.074 47.4527 592.454 47.136 592.01 46.68C591.58 46.224 591.364 45.6793 591.364 45.046C591.364 44.21 591.7 43.5323 592.371 43.013C593.043 42.481 593.929 42.215 595.031 42.215C595.703 42.215 596.336 42.3227 596.931 42.538C597.527 42.7533 598.027 43.0637 598.432 43.469L597.919 44.59C597.02 43.8427 596.057 43.469 595.031 43.469C594.347 43.469 593.815 43.602 593.435 43.868C593.068 44.1213 592.884 44.4823 592.884 44.951C592.884 45.3437 592.998 45.654 593.226 45.882C593.467 46.11 593.847 46.2873 594.366 46.414L595.981 46.813C596.868 47.0157 597.527 47.3323 597.957 47.763C598.388 48.181 598.603 48.732 598.603 49.416C598.603 50.2393 598.268 50.898 597.596 51.392C596.925 51.886 596.013 52.133 594.86 52.133Z" fill="#7A7A7A"/>
<path d="M371.399 50.055H369.347V53H367.789V50.055H361.557V48.877L368.074 39.472H369.347V48.763H371.399V50.055ZM367.789 48.763V42.113L363.172 48.763H367.789ZM383.509 47.528V53H381.951V47.509L376.631 39.472H378.455L382.749 46.122L387.043 39.472H388.829L383.509 47.528ZM396.529 48.174H389.518C389.531 49.39 389.81 50.3083 390.354 50.929C390.912 51.5497 391.716 51.86 392.767 51.86C393.882 51.86 394.908 51.4863 395.845 50.739L396.358 51.86C395.94 52.2527 395.402 52.563 394.743 52.791C394.097 53.019 393.432 53.133 392.748 53.133C391.254 53.133 390.082 52.696 389.233 51.822C388.385 50.9353 387.96 49.7257 387.96 48.193C387.96 47.2177 388.15 46.3563 388.53 45.609C388.91 44.849 389.442 44.26 390.126 43.842C390.81 43.424 391.589 43.215 392.463 43.215C393.73 43.215 394.724 43.633 395.446 44.469C396.168 45.2923 396.529 46.4323 396.529 47.889V48.174ZM392.482 44.412C391.684 44.412 391.032 44.6527 390.525 45.134C390.031 45.6153 389.715 46.293 389.575 47.167H395.142C395.066 46.2677 394.8 45.5837 394.344 45.115C393.901 44.6463 393.28 44.412 392.482 44.412ZM407.282 43.443V53H405.762V51.271C405.484 51.8663 405.059 52.3287 404.489 52.658C403.932 52.9747 403.28 53.133 402.532 53.133C401.684 53.133 400.936 52.9303 400.29 52.525C399.657 52.1197 399.163 51.5497 398.808 50.815C398.466 50.0677 398.295 49.2 398.295 48.212C398.295 47.224 398.473 46.3563 398.827 45.609C399.182 44.849 399.676 44.26 400.309 43.842C400.955 43.424 401.696 43.215 402.532 43.215C403.28 43.215 403.932 43.3797 404.489 43.709C405.047 44.0383 405.471 44.5007 405.762 45.096V43.443H407.282ZM402.836 51.86C403.774 51.86 404.496 51.5433 405.002 50.91C405.509 50.264 405.762 49.352 405.762 48.174C405.762 46.996 405.509 46.0903 405.002 45.457C404.496 44.8237 403.774 44.507 402.836 44.507C401.899 44.507 401.164 44.8363 400.632 45.495C400.113 46.141 399.853 47.0467 399.853 48.212C399.853 49.3773 400.113 50.2767 400.632 50.91C401.152 51.5433 401.886 51.86 402.836 51.86ZM414.704 43.215C415.021 43.215 415.312 43.253 415.578 43.329L415.54 44.735C415.249 44.6337 414.913 44.583 414.533 44.583C413.608 44.583 412.918 44.8743 412.462 45.457C412.019 46.027 411.797 46.7237 411.797 47.547V53H410.258V46.122C410.258 45.134 410.207 44.241 410.106 43.443H411.569L411.721 45.21C411.962 44.564 412.348 44.07 412.88 43.728C413.412 43.386 414.02 43.215 414.704 43.215ZM420.279 53.133C418.67 53.133 417.397 52.7213 416.46 51.898L416.973 50.758C417.492 51.1633 418.018 51.4547 418.55 51.632C419.082 51.8093 419.677 51.898 420.336 51.898C421.058 51.898 421.603 51.7777 421.97 51.537C422.35 51.2837 422.54 50.9227 422.54 50.454C422.54 50.074 422.413 49.77 422.16 49.542C421.907 49.314 421.489 49.1367 420.906 49.01L419.291 48.63C418.493 48.4527 417.872 48.136 417.429 47.68C416.998 47.224 416.783 46.6793 416.783 46.046C416.783 45.21 417.119 44.5323 417.79 44.013C418.461 43.481 419.348 43.215 420.45 43.215C421.121 43.215 421.755 43.3227 422.35 43.538C422.945 43.7533 423.446 44.0637 423.851 44.469L423.338 45.59C422.439 44.8427 421.476 44.469 420.45 44.469C419.766 44.469 419.234 44.602 418.854 44.868C418.487 45.1213 418.303 45.4823 418.303 45.951C418.303 46.3437 418.417 46.654 418.645 46.882C418.886 47.11 419.266 47.2873 419.785 47.414L421.4 47.813C422.287 48.0157 422.945 48.3323 423.376 48.763C423.807 49.181 424.022 49.732 424.022 50.416C424.022 51.2393 423.686 51.898 423.015 52.392C422.344 52.886 421.432 53.133 420.279 53.133Z" fill="#7A7A7A"/>
<path d="M195.603 51.005V53H186.521V51.195L191.119 46.236C191.664 45.6407 192.063 45.096 192.316 44.602C192.57 44.108 192.696 43.6203 192.696 43.139C192.696 42.5183 192.513 42.0497 192.145 41.733C191.791 41.4163 191.278 41.258 190.606 41.258C189.416 41.258 188.193 41.7267 186.939 42.664L186.122 40.878C186.654 40.3967 187.338 40.0167 188.174 39.738C189.01 39.4467 189.853 39.301 190.701 39.301C192.057 39.301 193.127 39.6367 193.912 40.308C194.71 40.9667 195.109 41.8597 195.109 42.987C195.109 43.7597 194.938 44.488 194.596 45.172C194.267 45.856 193.71 46.6223 192.924 47.471L189.599 51.005H195.603ZM208.998 47.642V53H206.547V47.642L201.056 39.472H203.849L207.763 45.59L211.696 39.472H214.489L208.998 47.642ZM221.934 48.326H215.322C215.372 49.352 215.626 50.112 216.082 50.606C216.55 51.0873 217.241 51.328 218.153 51.328C219.204 51.328 220.179 50.986 221.079 50.302L221.763 51.936C221.307 52.3033 220.743 52.601 220.072 52.829C219.413 53.0443 218.742 53.152 218.058 53.152C216.487 53.152 215.252 52.7087 214.353 51.822C213.453 50.9353 213.004 49.7193 213.004 48.174C213.004 47.1987 213.2 46.331 213.593 45.571C213.985 44.811 214.536 44.222 215.246 43.804C215.955 43.3733 216.759 43.158 217.659 43.158C218.976 43.158 220.015 43.5887 220.775 44.45C221.547 45.2987 221.934 46.4703 221.934 47.965V48.326ZM217.716 44.868C217.082 44.868 216.563 45.058 216.158 45.438C215.765 45.8053 215.512 46.3437 215.398 47.053H219.863C219.787 46.331 219.565 45.7863 219.198 45.419C218.843 45.0517 218.349 44.868 217.716 44.868ZM233.122 43.405V53H230.785V51.461C230.493 51.993 230.075 52.411 229.531 52.715C228.986 53.0063 228.365 53.152 227.669 53.152C226.833 53.152 226.092 52.9493 225.446 52.544C224.8 52.1387 224.299 51.5623 223.945 50.815C223.59 50.0677 223.413 49.2 223.413 48.212C223.413 47.224 223.59 46.35 223.945 45.59C224.312 44.8173 224.819 44.222 225.465 43.804C226.111 43.3733 226.845 43.158 227.669 43.158C228.365 43.158 228.986 43.31 229.531 43.614C230.075 43.9053 230.493 44.317 230.785 44.849V43.405H233.122ZM228.315 51.29C229.1 51.29 229.708 51.0177 230.139 50.473C230.569 49.9283 230.785 49.162 230.785 48.174C230.785 47.1607 230.569 46.3817 230.139 45.837C229.708 45.2923 229.094 45.02 228.296 45.02C227.51 45.02 226.896 45.305 226.453 45.875C226.022 46.4323 225.807 47.2113 225.807 48.212C225.807 49.2 226.022 49.96 226.453 50.492C226.896 51.024 227.517 51.29 228.315 51.29ZM240.877 43.177C241.244 43.177 241.561 43.2277 241.827 43.329L241.808 45.495C241.402 45.3303 240.984 45.248 240.554 45.248C239.743 45.248 239.122 45.4823 238.692 45.951C238.274 46.4197 238.065 47.0403 238.065 47.813V53H235.709V46.122C235.709 45.1087 235.658 44.203 235.557 43.405H237.78L237.97 45.096C238.21 44.4753 238.59 44.0003 239.11 43.671C239.629 43.3417 240.218 43.177 240.877 43.177ZM246.571 53.152C244.836 53.152 243.455 52.7467 242.429 51.936L243.094 50.264C244.12 51.024 245.292 51.404 246.609 51.404C247.179 51.404 247.616 51.309 247.92 51.119C248.237 50.929 248.395 50.663 248.395 50.321C248.395 50.0297 248.287 49.8017 248.072 49.637C247.857 49.4597 247.489 49.3077 246.97 49.181L245.374 48.82C243.626 48.44 242.752 47.547 242.752 46.141C242.752 45.5583 242.917 45.0453 243.246 44.602C243.575 44.146 244.038 43.7913 244.633 43.538C245.228 43.2847 245.919 43.158 246.704 43.158C247.388 43.158 248.047 43.2657 248.68 43.481C249.313 43.6837 249.871 43.9813 250.352 44.374L249.649 45.989C248.686 45.2797 247.698 44.925 246.685 44.925C246.14 44.925 245.716 45.0263 245.412 45.229C245.108 45.4317 244.956 45.7103 244.956 46.065C244.956 46.3437 245.045 46.5653 245.222 46.73C245.412 46.8947 245.729 47.034 246.172 47.148L247.806 47.509C248.756 47.7243 249.446 48.06 249.877 48.516C250.32 48.9593 250.542 49.542 250.542 50.264C250.542 51.1507 250.187 51.8537 249.478 52.373C248.769 52.8923 247.8 53.152 246.571 53.152Z" fill="#69186B"/>
<path d="M10.9562 48.523H3.88818L2.38718 52H0.772176L6.71918 38.472H8.08718L14.0342 52H12.4382L10.9562 48.523ZM10.4052 47.231L7.42218 40.277L4.43918 47.231H10.4052ZM17.7132 43.659V48.884C17.7132 49.5933 17.8589 50.0937 18.1502 50.385C18.4415 50.6637 18.8532 50.803 19.3852 50.803C19.7399 50.803 20.0819 50.746 20.4112 50.632V51.943C20.0185 52.0697 19.5752 52.133 19.0812 52.133C18.1692 52.133 17.4535 51.8797 16.9342 51.373C16.4275 50.8537 16.1742 50.0937 16.1742 49.093V43.659H14.3122V42.443H16.1742V39.992L17.7132 39.441V42.443H20.4492V43.659H17.7132ZM35.1239 45.046C35.8965 45.2613 36.4982 45.654 36.9289 46.224C37.3595 46.7813 37.5749 47.478 37.5749 48.314C37.5749 49.492 37.1822 50.404 36.3969 51.05C35.6115 51.6833 34.5032 52 33.0719 52H27.4479V38.472H32.8819C34.2625 38.472 35.3329 38.7823 36.0929 39.403C36.8655 40.011 37.2519 40.8787 37.2519 42.006C37.2519 42.728 37.0619 43.355 36.6819 43.887C36.3145 44.4063 35.7952 44.7927 35.1239 45.046ZM28.9869 44.476H32.6349C33.6482 44.476 34.4145 44.2733 34.9339 43.868C35.4532 43.4627 35.7129 42.8673 35.7129 42.082C35.7129 40.5367 34.6869 39.764 32.6349 39.764H28.9869V44.476ZM32.9389 50.708C34.0029 50.708 34.7819 50.5117 35.2759 50.119C35.7825 49.7137 36.0359 49.0993 36.0359 48.276C36.0359 46.6167 35.0035 45.787 32.9389 45.787H28.9869V50.708H32.9389ZM40.1905 42.443H41.7295V52H40.1905V42.443ZM41.9195 38.396V40.144H40.0385V38.396H41.9195ZM48.6698 52.133C47.7705 52.133 46.9788 51.9303 46.2948 51.525C45.6108 51.1197 45.0788 50.5433 44.6988 49.796C44.3315 49.0487 44.1478 48.1747 44.1478 47.174C44.1478 46.1733 44.3315 45.2993 44.6988 44.552C45.0788 43.8047 45.6108 43.2283 46.2948 42.823C46.9788 42.4177 47.7705 42.215 48.6698 42.215C49.5692 42.215 50.3608 42.4177 51.0448 42.823C51.7288 43.2283 52.2545 43.8047 52.6218 44.552C53.0018 45.2993 53.1918 46.1733 53.1918 47.174C53.1918 48.1747 53.0018 49.0487 52.6218 49.796C52.2545 50.5433 51.7288 51.1197 51.0448 51.525C50.3608 51.9303 49.5692 52.133 48.6698 52.133ZM48.6698 50.86C49.6198 50.86 50.3482 50.5497 50.8548 49.929C51.3615 49.2957 51.6148 48.3773 51.6148 47.174C51.6148 46.0087 51.3552 45.1093 50.8358 44.476C50.3165 43.83 49.5945 43.507 48.6698 43.507C47.7325 43.507 47.0042 43.83 46.4848 44.476C45.9655 45.1093 45.7058 46.0087 45.7058 47.174C45.7058 48.3773 45.9592 49.2957 46.4658 49.929C46.9852 50.5497 47.7198 50.86 48.6698 50.86ZM60.3599 42.215C61.1959 42.215 61.9369 42.424 62.5829 42.842C63.2289 43.26 63.7292 43.849 64.0839 44.609C64.4386 45.3563 64.6159 46.224 64.6159 47.212C64.6159 48.2 64.4386 49.0677 64.0839 49.815C63.7292 50.5497 63.2289 51.1197 62.5829 51.525C61.9496 51.9303 61.2086 52.133 60.3599 52.133C59.6126 52.133 58.9602 51.9683 58.4029 51.639C57.8456 51.3097 57.4212 50.841 57.1299 50.233V56.104H55.5909V45.122C55.5909 44.134 55.5402 43.241 55.4389 42.443H56.9019L57.0539 44.286C57.3199 43.6273 57.7379 43.1207 58.3079 42.766C58.8906 42.3987 59.5746 42.215 60.3599 42.215ZM60.0749 50.86C61.0122 50.86 61.7342 50.5433 62.2409 49.91C62.7602 49.2767 63.0199 48.3773 63.0199 47.212C63.0199 46.0467 62.7602 45.141 62.2409 44.495C61.7216 43.8363 60.9996 43.507 60.0749 43.507C59.1249 43.507 58.3966 43.8237 57.8899 44.457C57.3832 45.0903 57.1299 45.996 57.1299 47.174C57.1299 48.352 57.3832 49.264 57.8899 49.91C58.3966 50.5433 59.1249 50.86 60.0749 50.86ZM70.2135 52.133C68.6048 52.133 67.3318 51.7213 66.3945 50.898L66.9075 49.758C67.4268 50.1633 67.9525 50.4547 68.4845 50.632C69.0165 50.8093 69.6118 50.898 70.2705 50.898C70.9925 50.898 71.5371 50.7777 71.9045 50.537C72.2845 50.2837 72.4745 49.9227 72.4745 49.454C72.4745 49.074 72.3478 48.77 72.0945 48.542C71.8411 48.314 71.4231 48.1367 70.8405 48.01L69.2255 47.63C68.4275 47.4527 67.8068 47.136 67.3635 46.68C66.9328 46.224 66.7175 45.6793 66.7175 45.046C66.7175 44.21 67.0531 43.5323 67.7245 43.013C68.3958 42.481 69.2825 42.215 70.3845 42.215C71.0558 42.215 71.6891 42.3227 72.2845 42.538C72.8798 42.7533 73.3801 43.0637 73.7855 43.469L73.2725 44.59C72.3731 43.8427 71.4105 43.469 70.3845 43.469C69.7005 43.469 69.1685 43.602 68.7885 43.868C68.4211 44.1213 68.2375 44.4823 68.2375 44.951C68.2375 45.3437 68.3515 45.654 68.5795 45.882C68.8201 46.11 69.2001 46.2873 69.7195 46.414L71.3345 46.813C72.2211 47.0157 72.8798 47.3323 73.3105 47.763C73.7411 48.181 73.9565 48.732 73.9565 49.416C73.9565 50.2393 73.6208 50.898 72.9495 51.392C72.2781 51.886 71.3661 52.133 70.2135 52.133ZM84.6403 42.443L80.1753 52.874C79.7066 53.9633 79.1176 54.7613 78.4083 55.268C77.6989 55.7747 76.8249 56.123 75.7863 56.313L75.4633 55.116C76.3626 54.9133 77.0403 54.641 77.4963 54.299C77.9649 53.9697 78.3513 53.4567 78.6553 52.76L79.0353 51.905L74.9883 42.443H76.6033L79.8333 50.328L83.1013 42.443H84.6403Z" fill="#7A7A7A"/>
</svg>
