<svg width="600" height="59" viewBox="0 0 600 59" fill="none" xmlns="http://www.w3.org/2000/svg">
<mask id="path-1-inside-1_3574_3177" fill="white">
<path fill-rule="evenodd" clip-rule="evenodd" d="M56.8807 7.5C54.2146 3.29366 49.5083 0.5 44.1473 0.5C35.8354 0.5 29.0972 7.21573 29.0972 15.5C29.0972 23.7843 35.8354 30.5 44.1473 30.5C49.0712 30.5 53.4428 28.1433 56.1886 24.5H206.688C209.434 28.1433 213.805 30.5 218.729 30.5C223.653 30.5 228.025 28.1433 230.771 24.5H381.27C384.016 28.1433 388.387 30.5 393.311 30.5C398.235 30.5 402.607 28.1433 405.352 24.5H555.852C558.598 28.1433 562.969 30.5 567.893 30.5C576.205 30.5 582.943 23.7843 582.943 15.5C582.943 7.21573 576.205 0.5 567.893 0.5C562.532 0.5 557.826 3.29366 555.16 7.5H406.045C403.379 3.29366 398.672 0.5 393.311 0.5C387.95 0.5 383.244 3.29366 380.578 7.5H231.463C228.797 3.29366 224.09 0.5 218.729 0.5C213.368 0.5 208.662 3.29366 205.996 7.5H56.8807Z"/>
</mask>
<path fill-rule="evenodd" clip-rule="evenodd" d="M56.8807 7.5C54.2146 3.29366 49.5083 0.5 44.1473 0.5C35.8354 0.5 29.0972 7.21573 29.0972 15.5C29.0972 23.7843 35.8354 30.5 44.1473 30.5C49.0712 30.5 53.4428 28.1433 56.1886 24.5H206.688C209.434 28.1433 213.805 30.5 218.729 30.5C223.653 30.5 228.025 28.1433 230.771 24.5H381.27C384.016 28.1433 388.387 30.5 393.311 30.5C398.235 30.5 402.607 28.1433 405.352 24.5H555.852C558.598 28.1433 562.969 30.5 567.893 30.5C576.205 30.5 582.943 23.7843 582.943 15.5C582.943 7.21573 576.205 0.5 567.893 0.5C562.532 0.5 557.826 3.29366 555.16 7.5H406.045C403.379 3.29366 398.672 0.5 393.311 0.5C387.95 0.5 383.244 3.29366 380.578 7.5H231.463C228.797 3.29366 224.09 0.5 218.729 0.5C213.368 0.5 208.662 3.29366 205.996 7.5H56.8807Z" fill="#7A7A7A" fill-opacity="0.15"/>
<path d="M56.8807 7.5L54.3467 9.10602L55.2303 10.5H56.8807V7.5ZM56.1886 24.5V21.5H54.6929L53.7928 22.6944L56.1886 24.5ZM206.688 24.5L209.084 22.6944L208.184 21.5H206.688V24.5ZM230.771 24.5V21.5H229.275L228.375 22.6944L230.771 24.5ZM381.27 24.5L383.666 22.6944L382.766 21.5H381.27V24.5ZM405.352 24.5V21.5H403.857L402.957 22.6944L405.352 24.5ZM555.852 24.5L558.248 22.6944L557.347 21.5H555.852V24.5ZM555.16 7.5V10.5H556.81L557.694 9.10602L555.16 7.5ZM406.045 7.5L403.511 9.10602L404.394 10.5H406.045V7.5ZM380.578 7.5V10.5H382.228L383.112 9.10602L380.578 7.5ZM231.463 7.5L228.929 9.10602L229.812 10.5H231.463V7.5ZM205.996 7.5V10.5H207.646L208.53 9.10602L205.996 7.5ZM56.8807 7.5L59.4146 5.89398C56.2199 0.853645 50.5756 -2.5 44.1473 -2.5V0.5V3.5C48.4411 3.5 52.2093 5.73368 54.3467 9.10602L56.8807 7.5ZM44.1473 0.5V-2.5C34.188 -2.5 26.0972 5.54944 26.0972 15.5H29.0972H32.0972C32.0972 8.88202 37.4828 3.5 44.1473 3.5V0.5ZM29.0972 15.5H26.0972C26.0972 25.4506 34.188 33.5 44.1473 33.5V30.5V27.5C37.4828 27.5 32.0972 22.118 32.0972 15.5H29.0972ZM44.1473 30.5V33.5C50.0505 33.5 55.2947 30.6706 58.5844 26.3056L56.1886 24.5L53.7928 22.6944C51.5909 25.6161 48.0919 27.5 44.1473 27.5V30.5ZM56.1886 24.5V27.5H206.688V24.5V21.5H56.1886V24.5ZM206.688 24.5L204.292 26.3056C207.582 30.6706 212.826 33.5 218.729 33.5V30.5V27.5C214.785 27.5 211.286 25.6161 209.084 22.6944L206.688 24.5ZM218.729 30.5V33.5C224.632 33.5 229.877 30.6706 233.166 26.3056L230.771 24.5L228.375 22.6944C226.173 25.6161 222.674 27.5 218.729 27.5V30.5ZM230.771 24.5V27.5H381.27V24.5V21.5H230.771V24.5ZM381.27 24.5L378.874 26.3056C382.164 30.6706 387.408 33.5 393.311 33.5V30.5V27.5C389.367 27.5 385.868 25.6161 383.666 22.6944L381.27 24.5ZM393.311 30.5V33.5C399.214 33.5 404.459 30.6706 407.748 26.3056L405.352 24.5L402.957 22.6944C400.755 25.6161 397.256 27.5 393.311 27.5V30.5ZM405.352 24.5V27.5H555.852V24.5V21.5H405.352V24.5ZM555.852 24.5L553.456 26.3056C556.746 30.6706 561.99 33.5 567.893 33.5V30.5V27.5C563.949 27.5 560.45 25.6161 558.248 22.6944L555.852 24.5ZM567.893 30.5V33.5C577.852 33.5 585.943 25.4506 585.943 15.5H582.943H579.943C579.943 22.118 574.558 27.5 567.893 27.5V30.5ZM582.943 15.5H585.943C585.943 5.54943 577.852 -2.5 567.893 -2.5V0.5V3.5C574.558 3.5 579.943 8.88202 579.943 15.5H582.943ZM567.893 0.5V-2.5C561.465 -2.5 555.82 0.853644 552.626 5.89398L555.16 7.5L557.694 9.10602C559.831 5.73369 563.599 3.5 567.893 3.5V0.5ZM555.16 7.5V4.5H406.045V7.5V10.5H555.16V7.5ZM406.045 7.5L408.578 5.89398C405.384 0.853641 399.739 -2.5 393.311 -2.5V0.5V3.5C397.605 3.5 401.373 5.73369 403.511 9.10602L406.045 7.5ZM393.311 0.5V-2.5C386.883 -2.5 381.239 0.853641 378.044 5.89398L380.578 7.5L383.112 9.10602C385.249 5.73369 389.017 3.5 393.311 3.5V0.5ZM380.578 7.5V4.5H231.463V7.5V10.5H380.578V7.5ZM231.463 7.5L233.997 5.89398C230.802 0.853644 225.158 -2.5 218.729 -2.5V0.5V3.5C223.023 3.5 226.791 5.73369 228.929 9.10602L231.463 7.5ZM218.729 0.5V-2.5C212.301 -2.5 206.657 0.853644 203.462 5.89398L205.996 7.5L208.53 9.10602C210.667 5.73369 214.436 3.5 218.729 3.5V0.5ZM205.996 7.5V4.5H56.8807V7.5V10.5H205.996V7.5Z" fill="#7A7A7A" mask="url(#path-1-inside-1_3574_3177)"/>
<ellipse cx="393.311" cy="15.5" rx="15.0502" ry="15" fill="#69186B"/>
<path d="M393.669 7.64307L393.669 23.3574" stroke="white" stroke-width="4" stroke-linecap="round"/>
<path d="M386.861 11.2144L386.861 19.7858" stroke="white" stroke-width="4" stroke-linecap="round"/>
<path d="M400.478 11.2144L400.478 19.7858" stroke="white" stroke-width="4" stroke-linecap="round"/>
<path d="M555.855 52.671C554.233 52.671 552.979 52.101 552.093 50.961C551.219 49.8083 550.782 48.1997 550.782 46.135C550.782 44.5897 551.003 43.285 551.447 42.221C551.89 41.1443 552.523 40.3273 553.347 39.77C554.17 39.2127 555.164 38.934 556.33 38.934C557.026 38.934 557.729 39.0797 558.439 39.371C559.148 39.6497 559.731 40.0423 560.187 40.549L559.617 41.765C559.135 41.271 558.61 40.91 558.04 40.682C557.47 40.4413 556.893 40.321 556.311 40.321C555.019 40.321 554.024 40.7833 553.328 41.708C552.644 42.62 552.302 43.9943 552.302 45.831V47.598H552.131C552.219 46.876 552.435 46.2553 552.777 45.736C553.131 45.204 553.594 44.7987 554.164 44.52C554.734 44.2413 555.367 44.102 556.064 44.102C556.874 44.102 557.59 44.2793 558.211 44.634C558.831 44.9887 559.319 45.489 559.674 46.135C560.028 46.7683 560.206 47.4967 560.206 48.32C560.206 49.156 560.022 49.9033 559.655 50.562C559.287 51.2207 558.774 51.74 558.116 52.12C557.457 52.4873 556.703 52.671 555.855 52.671ZM555.741 51.341C556.323 51.341 556.836 51.2207 557.28 50.98C557.736 50.7267 558.084 50.3783 558.325 49.935C558.578 49.479 558.705 48.9597 558.705 48.377C558.705 47.7943 558.578 47.2813 558.325 46.838C558.084 46.3947 557.736 46.0463 557.28 45.793C556.836 45.5397 556.323 45.413 555.741 45.413C555.158 45.413 554.645 45.5397 554.202 45.793C553.758 46.0463 553.41 46.3947 553.157 46.838C552.916 47.2813 552.796 47.7943 552.796 48.377C552.796 48.9597 552.916 49.479 553.157 49.935C553.41 50.3783 553.758 50.7267 554.202 50.98C554.645 51.2207 555.158 51.341 555.741 51.341ZM571.327 36.464L572.771 36.844C572.417 37.7687 571.999 38.6743 571.517 39.561C571.049 40.435 570.536 41.252 569.978 42.012C569.421 42.7593 568.845 43.418 568.249 43.988C568.161 43.912 568.04 43.817 567.888 43.703C567.749 43.5763 567.597 43.456 567.432 43.342C567.28 43.228 567.141 43.1393 567.014 43.076C567.622 42.544 568.192 41.936 568.724 41.252C569.269 40.5553 569.763 39.8017 570.206 38.991C570.65 38.1677 571.023 37.3253 571.327 36.464ZM571.042 38.839H583.297V40.207H570.339L571.042 38.839ZM570.111 43.133H582.86V44.482H571.536V48.966H570.111V43.133ZM566.976 48.263H584.19V49.631H566.976V48.263ZM575.792 39.561H577.255V54.02H575.792V39.561Z" fill="#7A7A7A"/>
<path d="M382.773 53.5V50.878H376.788V49.168L383.153 40.105H385.129V49.016H387.048V50.878H385.129V53.5H382.773ZM382.773 49.016V42.993H383.229L378.612 49.586V49.016H382.773ZM397.328 37.274L399.665 37.882C399.323 38.8193 398.917 39.7377 398.449 40.637C397.993 41.5363 397.492 42.3723 396.948 43.145C396.416 43.905 395.865 44.57 395.295 45.14C395.143 45.0133 394.946 44.855 394.706 44.665C394.465 44.4623 394.218 44.2723 393.965 44.095C393.724 43.9177 393.509 43.772 393.319 43.658C393.901 43.164 394.446 42.5813 394.953 41.91C395.459 41.226 395.915 40.4913 396.321 39.706C396.726 38.908 397.062 38.0973 397.328 37.274ZM397.746 39.44H409.83V41.644H396.644L397.746 39.44ZM396.397 43.943H409.374V46.071H398.677V50.061H396.397V43.943ZM393.376 48.94H410.856V51.125H393.376V48.94ZM401.983 40.58H404.339V55.21H401.983V40.58Z" fill="#69186B"/>
<path d="M201.185 53.5V52.322L205.935 47.363C206.555 46.717 207.018 46.1027 207.322 45.52C207.638 44.9247 207.797 44.3103 207.797 43.677C207.797 42.9043 207.556 42.3217 207.075 41.929C206.593 41.5237 205.897 41.321 204.985 41.321C204.275 41.321 203.617 41.4477 203.009 41.701C202.413 41.9417 201.837 42.328 201.28 42.86L200.71 41.625C201.216 41.1183 201.862 40.713 202.648 40.409C203.433 40.0923 204.263 39.934 205.137 39.934C206.492 39.934 207.537 40.2507 208.272 40.884C209.006 41.5047 209.374 42.3913 209.374 43.544C209.374 44.3927 209.165 45.2033 208.747 45.976C208.341 46.736 207.746 47.5213 206.961 48.332L202.762 52.588V52.151H209.944V53.5H201.185ZM221.16 37.464L222.604 37.844C222.25 38.7687 221.832 39.6743 221.35 40.561C220.882 41.435 220.369 42.252 219.811 43.012C219.254 43.7593 218.678 44.418 218.082 44.988C217.994 44.912 217.873 44.817 217.721 44.703C217.582 44.5763 217.43 44.456 217.265 44.342C217.113 44.228 216.974 44.1393 216.847 44.076C217.455 43.544 218.025 42.936 218.557 42.252C219.102 41.5553 219.596 40.8017 220.039 39.991C220.483 39.1677 220.856 38.3253 221.16 37.464ZM220.875 39.839H233.13V41.207H220.172L220.875 39.839ZM219.944 44.133H232.693V45.482H221.369V49.966H219.944V44.133ZM216.809 49.263H234.023V50.631H216.809V49.263ZM225.625 40.561H227.088V55.02H225.625V40.561Z" fill="#7A7A7A"/>
<path d="M21.5901 46.629H31.0711V53.906H29.7031V47.94H22.9201V54.001H21.5901V46.629ZM30.3681 36.616L31.5081 37.718C30.6341 38.022 29.6334 38.288 28.5061 38.516C27.3914 38.744 26.2324 38.9403 25.0291 39.105C23.8258 39.2697 22.6604 39.409 21.5331 39.523C21.4951 39.3583 21.4318 39.1557 21.3431 38.915C21.2671 38.6743 21.1911 38.4717 21.1151 38.307C21.9258 38.2183 22.7681 38.117 23.6421 38.003C24.5161 37.889 25.3648 37.7623 26.1881 37.623C27.0114 37.471 27.7778 37.3127 28.4871 37.148C29.2091 36.9833 29.8361 36.806 30.3681 36.616ZM25.7131 38.25H27.0621V47.389H25.7131V38.25ZM20.2221 42.107H32.3251V43.475H20.2221V42.107ZM22.5021 51.892H30.3301V53.184H22.5021V51.892ZM15.8711 37.794L16.6691 36.787C17.0618 36.9643 17.4798 37.1733 17.9231 37.414C18.3791 37.6547 18.8161 37.8953 19.2341 38.136C19.6521 38.364 19.9941 38.5667 20.2601 38.744L19.4241 39.922C19.1581 39.7193 18.8161 39.4977 18.3981 39.257C17.9928 39.0037 17.5684 38.7503 17.1251 38.497C16.6818 38.231 16.2638 37.9967 15.8711 37.794ZM14.9401 43.019L15.7191 41.974C16.0991 42.1513 16.5108 42.3603 16.9541 42.601C17.3974 42.8417 17.8218 43.076 18.2271 43.304C18.6451 43.532 18.9871 43.7347 19.2531 43.912L18.4551 45.09C18.2018 44.9127 17.8724 44.7037 17.4671 44.463C17.0618 44.2223 16.6374 43.9753 16.1941 43.722C15.7508 43.456 15.3328 43.2217 14.9401 43.019ZM15.3771 52.804C15.7191 52.3227 16.0991 51.7463 16.5171 51.075C16.9478 50.391 17.3784 49.669 17.8091 48.909C18.2398 48.1363 18.6388 47.3953 19.0061 46.686L20.0511 47.617C19.7218 48.2883 19.3544 48.985 18.9491 49.707C18.5564 50.429 18.1574 51.1383 17.7521 51.835C17.3468 52.5317 16.9604 53.1777 16.5931 53.773L15.3771 52.804ZM34.0731 40.15H39.8301V41.48H34.0731V40.15ZM36.5431 36.54H37.8541V54.001H36.5431V36.54ZM36.5051 41.005L37.3601 41.29C37.2334 42.0373 37.0688 42.8163 36.8661 43.627C36.6761 44.4377 36.4544 45.2293 36.2011 46.002C35.9478 46.7747 35.6754 47.4967 35.3841 48.168C35.1054 48.8267 34.8078 49.3967 34.4911 49.878C34.4404 49.7387 34.3708 49.5867 34.2821 49.422C34.2061 49.2447 34.1174 49.0737 34.0161 48.909C33.9274 48.7443 33.8451 48.605 33.7691 48.491C34.0478 48.073 34.3264 47.5727 34.6051 46.99C34.8838 46.4073 35.1434 45.7803 35.3841 45.109C35.6248 44.425 35.8401 43.7347 36.0301 43.038C36.2328 42.3287 36.3911 41.651 36.5051 41.005ZM37.7971 42.183C37.8858 42.3223 38.0314 42.5567 38.2341 42.886C38.4494 43.2027 38.6774 43.5573 38.9181 43.95C39.1714 44.33 39.3931 44.6847 39.5831 45.014C39.7858 45.3307 39.9251 45.565 40.0011 45.717L39.1461 46.724C39.0448 46.4833 38.8991 46.1793 38.7091 45.812C38.5318 45.4447 38.3418 45.0583 38.1391 44.653C37.9364 44.2477 37.7401 43.874 37.5501 43.532C37.3601 43.1773 37.2081 42.9113 37.0941 42.734L37.7971 42.183ZM45.6061 37.167C45.9101 37.6483 46.2901 38.1487 46.7461 38.668C47.2021 39.1747 47.6961 39.675 48.2281 40.169C48.7601 40.663 49.3048 41.1253 49.8621 41.556C50.4321 41.974 50.9768 42.335 51.4961 42.639C51.4074 42.7403 51.3124 42.8733 51.2111 43.038C51.1224 43.19 51.0401 43.3483 50.9641 43.513C50.8881 43.665 50.8184 43.8043 50.7551 43.931C50.0204 43.437 49.2604 42.8543 48.4751 42.183C47.7024 41.5117 46.9741 40.796 46.2901 40.036C45.6061 39.276 45.0298 38.5477 44.5611 37.851L45.6061 37.167ZM44.9981 36.407L46.2521 36.863C45.7708 37.8383 45.1881 38.7757 44.5041 39.675C43.8328 40.5617 43.1044 41.385 42.3191 42.145C41.5338 42.905 40.7294 43.57 39.9061 44.14C39.8554 44.0387 39.7731 43.9183 39.6591 43.779C39.5578 43.627 39.4501 43.4813 39.3361 43.342C39.2348 43.19 39.1398 43.0633 39.0511 42.962C39.8491 42.468 40.6218 41.8853 41.3691 41.214C42.1164 40.53 42.8004 39.7827 43.4211 38.972C44.0418 38.1487 44.5674 37.2937 44.9981 36.407ZM42.0341 42.43H48.4751V43.665H42.0341V42.43ZM40.6851 45.755L41.8061 45.47C41.9961 45.9387 42.1734 46.4517 42.3381 47.009C42.5154 47.5537 42.6674 48.092 42.7941 48.624C42.9334 49.1433 43.0284 49.6057 43.0791 50.011L41.9011 50.353C41.8631 49.935 41.7744 49.46 41.6351 48.928C41.5084 48.396 41.3628 47.8577 41.1981 47.313C41.0334 46.7557 40.8624 46.2363 40.6851 45.755ZM44.3711 45.223L45.4921 45.071C45.6188 45.5523 45.7391 46.0653 45.8531 46.61C45.9671 47.1547 46.0621 47.6867 46.1381 48.206C46.2268 48.7253 46.2901 49.1877 46.3281 49.593L45.1311 49.802C45.1058 49.384 45.0551 48.9153 44.9791 48.396C44.9031 47.864 44.8081 47.3257 44.6941 46.781C44.5928 46.2237 44.4851 45.7043 44.3711 45.223ZM49.1401 45.071L50.4131 45.413C50.1091 46.173 49.7671 46.9773 49.3871 47.826C49.0198 48.6747 48.6461 49.498 48.2661 50.296C47.8861 51.094 47.5188 51.7907 47.1641 52.386L46.1191 52.063C46.3851 51.607 46.6574 51.094 46.9361 50.524C47.2148 49.9413 47.4871 49.3333 47.7531 48.7C48.0318 48.054 48.2914 47.4207 48.5321 46.8C48.7728 46.1793 48.9754 45.603 49.1401 45.071ZM39.6591 51.835H50.9641V53.108H39.6591V51.835ZM54.3841 38.136H59.6281V50.486H54.3841V49.194H58.2981V39.428H54.3841V38.136ZM54.4411 43.589H58.7921V44.862H54.4411V43.589ZM53.6811 38.136H55.0491V52.025H53.6811V38.136ZM60.5021 40.34H70.4201V41.765H60.5021V40.34ZM66.6581 36.635H68.1021V51.873C68.1021 52.3923 68.0261 52.7723 67.8741 53.013C67.7348 53.2663 67.4941 53.45 67.1521 53.564C66.8101 53.6907 66.3288 53.7667 65.7081 53.792C65.0874 53.8173 64.3021 53.83 63.3521 53.83C63.3141 53.6273 63.2444 53.3803 63.1431 53.089C63.0418 52.8103 62.9341 52.5697 62.8201 52.367C63.3268 52.3797 63.8018 52.3923 64.2451 52.405C64.7011 52.4177 65.0938 52.424 65.4231 52.424C65.7524 52.4113 65.9868 52.3987 66.1261 52.386C66.3161 52.386 66.4491 52.348 66.5251 52.272C66.6138 52.196 66.6581 52.063 66.6581 51.873V36.635ZM61.1481 43.912L62.3261 43.285C62.6681 43.7663 63.0291 44.2857 63.4091 44.843C63.7891 45.4003 64.1438 45.9387 64.4731 46.458C64.8151 46.9773 65.0938 47.4333 65.3091 47.826L64.0551 48.548C63.8524 48.1553 63.5864 47.693 63.2571 47.161C62.9404 46.6163 62.5921 46.059 62.2121 45.489C61.8448 44.919 61.4901 44.3933 61.1481 43.912Z" fill="#7A7A7A"/>
</svg>
