<svg width="600" height="58" viewBox="0 0 600 58" fill="none" xmlns="http://www.w3.org/2000/svg">
<mask id="path-1-inside-1_20_4935" fill="white">
<path fill-rule="evenodd" clip-rule="evenodd" d="M56.8807 7C54.2146 2.79366 49.5083 0 44.1473 0C35.8354 0 29.0972 6.71573 29.0972 15C29.0972 23.2843 35.8354 30 44.1473 30C49.0712 30 53.4428 27.6433 56.1886 24H206.688C209.434 27.6433 213.805 30 218.729 30C223.653 30 228.025 27.6433 230.771 24H381.27C384.016 27.6433 388.387 30 393.311 30C398.235 30 402.607 27.6433 405.352 24H555.852C558.598 27.6433 562.969 30 567.893 30C576.205 30 582.943 23.2843 582.943 15C582.943 6.71573 576.205 0 567.893 0C562.532 0 557.826 2.79366 555.16 7H406.045C403.379 2.79366 398.672 0 393.311 0C387.95 0 383.244 2.79366 380.578 7H231.463C228.797 2.79366 224.09 0 218.729 0C213.368 0 208.662 2.79366 205.996 7H56.8807Z"/>
</mask>
<path fill-rule="evenodd" clip-rule="evenodd" d="M56.8807 7C54.2146 2.79366 49.5083 0 44.1473 0C35.8354 0 29.0972 6.71573 29.0972 15C29.0972 23.2843 35.8354 30 44.1473 30C49.0712 30 53.4428 27.6433 56.1886 24H206.688C209.434 27.6433 213.805 30 218.729 30C223.653 30 228.025 27.6433 230.771 24H381.27C384.016 27.6433 388.387 30 393.311 30C398.235 30 402.607 27.6433 405.352 24H555.852C558.598 27.6433 562.969 30 567.893 30C576.205 30 582.943 23.2843 582.943 15C582.943 6.71573 576.205 0 567.893 0C562.532 0 557.826 2.79366 555.16 7H406.045C403.379 2.79366 398.672 0 393.311 0C387.95 0 383.244 2.79366 380.578 7H231.463C228.797 2.79366 224.09 0 218.729 0C213.368 0 208.662 2.79366 205.996 7H56.8807Z" fill="#7A7A7A" fill-opacity="0.15"/>
<path d="M56.8807 7L54.3467 8.60602L55.2303 10H56.8807V7ZM56.1886 24V21H54.6929L53.7928 22.1944L56.1886 24ZM206.688 24L209.084 22.1944L208.184 21H206.688V24ZM230.771 24V21H229.275L228.375 22.1944L230.771 24ZM381.27 24L383.666 22.1944L382.766 21H381.27V24ZM405.352 24V21H403.857L402.957 22.1944L405.352 24ZM555.852 24L558.248 22.1944L557.347 21H555.852V24ZM555.16 7V10H556.81L557.694 8.60602L555.16 7ZM406.045 7L403.511 8.60602L404.394 10H406.045V7ZM380.578 7V10H382.228L383.112 8.60602L380.578 7ZM231.463 7L228.929 8.60602L229.812 10H231.463V7ZM205.996 7V10H207.646L208.53 8.60602L205.996 7ZM56.8807 7L59.4146 5.39398C56.2199 0.353645 50.5756 -3 44.1473 -3V0V3C48.4411 3 52.2093 5.23368 54.3467 8.60602L56.8807 7ZM44.1473 0V-3C34.188 -3 26.0972 5.04944 26.0972 15H29.0972H32.0972C32.0972 8.38202 37.4828 3 44.1473 3V0ZM29.0972 15H26.0972C26.0972 24.9506 34.188 33 44.1473 33V30V27C37.4828 27 32.0972 21.618 32.0972 15H29.0972ZM44.1473 30V33C50.0505 33 55.2947 30.1706 58.5844 25.8056L56.1886 24L53.7928 22.1944C51.5909 25.1161 48.0919 27 44.1473 27V30ZM56.1886 24V27H206.688V24V21H56.1886V24ZM206.688 24L204.292 25.8056C207.582 30.1706 212.826 33 218.729 33V30V27C214.785 27 211.286 25.1161 209.084 22.1944L206.688 24ZM218.729 30V33C224.632 33 229.877 30.1706 233.166 25.8056L230.771 24L228.375 22.1944C226.173 25.1161 222.674 27 218.729 27V30ZM230.771 24V27H381.27V24V21H230.771V24ZM381.27 24L378.874 25.8056C382.164 30.1706 387.408 33 393.311 33V30V27C389.367 27 385.868 25.1161 383.666 22.1944L381.27 24ZM393.311 30V33C399.214 33 404.459 30.1706 407.748 25.8056L405.352 24L402.957 22.1944C400.755 25.1161 397.256 27 393.311 27V30ZM405.352 24V27H555.852V24V21H405.352V24ZM555.852 24L553.456 25.8056C556.746 30.1706 561.99 33 567.893 33V30V27C563.949 27 560.45 25.1161 558.248 22.1944L555.852 24ZM567.893 30V33C577.852 33 585.943 24.9506 585.943 15H582.943H579.943C579.943 21.618 574.558 27 567.893 27V30ZM582.943 15H585.943C585.943 5.04943 577.852 -3 567.893 -3V0V3C574.558 3 579.943 8.38202 579.943 15H582.943ZM567.893 0V-3C561.465 -3 555.82 0.353644 552.626 5.39398L555.16 7L557.694 8.60602C559.831 5.23369 563.599 3 567.893 3V0ZM555.16 7V4H406.045V7V10H555.16V7ZM406.045 7L408.578 5.39398C405.384 0.353641 399.739 -3 393.311 -3V0V3C397.605 3 401.373 5.23369 403.511 8.60602L406.045 7ZM393.311 0V-3C386.883 -3 381.239 0.353641 378.044 5.39398L380.578 7L383.112 8.60602C385.249 5.23369 389.017 3 393.311 3V0ZM380.578 7V4H231.463V7V10H380.578V7ZM231.463 7L233.997 5.39398C230.802 0.353644 225.158 -3 218.729 -3V0V3C223.023 3 226.791 5.23369 228.929 8.60602L231.463 7ZM218.729 0V-3C212.301 -3 206.657 0.353644 203.462 5.39398L205.996 7L208.53 8.60602C210.667 5.23369 214.436 3 218.729 3V0ZM205.996 7V4H56.8807V7V10H205.996V7Z" fill="#7A7A7A" mask="url(#path-1-inside-1_20_4935)"/>
<ellipse cx="44.1473" cy="15" rx="15.0502" ry="15" fill="#69186B"/>
<path d="M44.5054 7.14307L44.5054 22.8574" stroke="white" stroke-width="4" stroke-linecap="round"/>
<path d="M37.6973 10.7144L37.6973 19.2858" stroke="white" stroke-width="4" stroke-linecap="round"/>
<path d="M51.3145 10.7144L51.3145 19.2858" stroke="white" stroke-width="4" stroke-linecap="round"/>
<path d="M555.855 52.171C554.233 52.171 552.979 51.601 552.093 50.461C551.219 49.3083 550.782 47.6997 550.782 45.635C550.782 44.0897 551.003 42.785 551.447 41.721C551.89 40.6443 552.523 39.8273 553.347 39.27C554.17 38.7127 555.164 38.434 556.33 38.434C557.026 38.434 557.729 38.5797 558.439 38.871C559.148 39.1497 559.731 39.5423 560.187 40.049L559.617 41.265C559.135 40.771 558.61 40.41 558.04 40.182C557.47 39.9413 556.893 39.821 556.311 39.821C555.019 39.821 554.024 40.2833 553.328 41.208C552.644 42.12 552.302 43.4943 552.302 45.331V47.098H552.131C552.219 46.376 552.435 45.7553 552.777 45.236C553.131 44.704 553.594 44.2987 554.164 44.02C554.734 43.7413 555.367 43.602 556.064 43.602C556.874 43.602 557.59 43.7793 558.211 44.134C558.831 44.4887 559.319 44.989 559.674 45.635C560.028 46.2683 560.206 46.9967 560.206 47.82C560.206 48.656 560.022 49.4033 559.655 50.062C559.287 50.7207 558.774 51.24 558.116 51.62C557.457 51.9873 556.703 52.171 555.855 52.171ZM555.741 50.841C556.323 50.841 556.836 50.7207 557.28 50.48C557.736 50.2267 558.084 49.8783 558.325 49.435C558.578 48.979 558.705 48.4597 558.705 47.877C558.705 47.2943 558.578 46.7813 558.325 46.338C558.084 45.8947 557.736 45.5463 557.28 45.293C556.836 45.0397 556.323 44.913 555.741 44.913C555.158 44.913 554.645 45.0397 554.202 45.293C553.758 45.5463 553.41 45.8947 553.157 46.338C552.916 46.7813 552.796 47.2943 552.796 47.877C552.796 48.4597 552.916 48.979 553.157 49.435C553.41 49.8783 553.758 50.2267 554.202 50.48C554.645 50.7207 555.158 50.841 555.741 50.841ZM571.327 35.964L572.771 36.344C572.417 37.2687 571.999 38.1743 571.517 39.061C571.049 39.935 570.536 40.752 569.978 41.512C569.421 42.2593 568.845 42.918 568.249 43.488C568.161 43.412 568.04 43.317 567.888 43.203C567.749 43.0763 567.597 42.956 567.432 42.842C567.28 42.728 567.141 42.6393 567.014 42.576C567.622 42.044 568.192 41.436 568.724 40.752C569.269 40.0553 569.763 39.3017 570.206 38.491C570.65 37.6677 571.023 36.8253 571.327 35.964ZM571.042 38.339H583.297V39.707H570.339L571.042 38.339ZM570.111 42.633H582.86V43.982H571.536V48.466H570.111V42.633ZM566.976 47.763H584.19V49.131H566.976V47.763ZM575.792 39.061H577.255V53.52H575.792V39.061Z" fill="#7A7A7A"/>
<path d="M382.47 53V50.093H376.086V48.953L382.717 39.605H384.009V48.82H386.061V50.093H384.009V53H382.47ZM382.47 48.82V41.467H382.888L377.378 49.219V48.82H382.47ZM396.746 36.964L398.19 37.344C397.835 38.2687 397.417 39.1743 396.936 40.061C396.467 40.935 395.954 41.752 395.397 42.512C394.84 43.2593 394.263 43.918 393.668 44.488C393.579 44.412 393.459 44.317 393.307 44.203C393.168 44.0763 393.016 43.956 392.851 43.842C392.699 43.728 392.56 43.6393 392.433 43.576C393.041 43.044 393.611 42.436 394.143 41.752C394.688 41.0553 395.182 40.3017 395.625 39.491C396.068 38.6677 396.442 37.8253 396.746 36.964ZM396.461 39.339H408.716V40.707H395.758L396.461 39.339ZM395.53 43.633H408.279V44.982H396.955V49.466H395.53V43.633ZM392.395 48.763H409.609V50.131H392.395V48.763ZM401.211 40.061H402.674V54.52H401.211V40.061Z" fill="#7A7A7A"/>
<path d="M201.185 53V51.822L205.935 46.863C206.555 46.217 207.018 45.6027 207.322 45.02C207.638 44.4247 207.797 43.8103 207.797 43.177C207.797 42.4043 207.556 41.8217 207.075 41.429C206.593 41.0237 205.897 40.821 204.985 40.821C204.275 40.821 203.617 40.9477 203.009 41.201C202.413 41.4417 201.837 41.828 201.28 42.36L200.71 41.125C201.216 40.6183 201.862 40.213 202.648 39.909C203.433 39.5923 204.263 39.434 205.137 39.434C206.492 39.434 207.537 39.7507 208.272 40.384C209.006 41.0047 209.374 41.8913 209.374 43.044C209.374 43.8927 209.165 44.7033 208.747 45.476C208.341 46.236 207.746 47.0213 206.961 47.832L202.762 52.088V51.651H209.944V53H201.185ZM221.16 36.964L222.604 37.344C222.25 38.2687 221.832 39.1743 221.35 40.061C220.882 40.935 220.369 41.752 219.811 42.512C219.254 43.2593 218.678 43.918 218.082 44.488C217.994 44.412 217.873 44.317 217.721 44.203C217.582 44.0763 217.43 43.956 217.265 43.842C217.113 43.728 216.974 43.6393 216.847 43.576C217.455 43.044 218.025 42.436 218.557 41.752C219.102 41.0553 219.596 40.3017 220.039 39.491C220.483 38.6677 220.856 37.8253 221.16 36.964ZM220.875 39.339H233.13V40.707H220.172L220.875 39.339ZM219.944 43.633H232.693V44.982H221.369V49.466H219.944V43.633ZM216.809 48.763H234.023V50.131H216.809V48.763ZM225.625 40.061H227.088V54.52H225.625V40.061Z" fill="#7A7A7A"/>
<path d="M23.095 45.996H33.07V53.596H30.885V48.067H25.185V53.691H23.095V45.996ZM31.55 35.85L33.298 37.636C32.3733 37.9907 31.3473 38.301 30.22 38.567C29.0926 38.8203 27.9336 39.0293 26.743 39.194C25.565 39.3587 24.4123 39.4917 23.285 39.593C23.247 39.327 23.1583 39.004 23.019 38.624C22.8923 38.2313 22.7656 37.9083 22.639 37.655C23.4496 37.5663 24.2666 37.465 25.09 37.351C25.926 37.237 26.7366 37.104 27.522 36.952C28.3073 36.8 29.042 36.6353 29.726 36.458C30.41 36.268 31.018 36.0653 31.55 35.85ZM26.99 37.997H29.156V47.193H26.99V37.997ZM21.917 41.398H34.02V43.564H21.917V41.398ZM24.596 50.841H31.797V52.912H24.596V50.841ZM17.224 37.75L18.516 36.097C18.8706 36.2743 19.2696 36.477 19.713 36.705C20.1563 36.933 20.587 37.161 21.005 37.389C21.4356 37.617 21.784 37.8197 22.05 37.997L20.701 39.84C20.4476 39.65 20.1183 39.4347 19.713 39.194C19.3076 38.9533 18.8833 38.7063 18.44 38.453C17.9966 38.187 17.5913 37.9527 17.224 37.75ZM16.312 43.013L17.547 41.322C17.9016 41.474 18.307 41.664 18.763 41.892C19.219 42.12 19.6623 42.348 20.093 42.576C20.5236 42.7913 20.872 42.9877 21.138 43.165L19.865 45.065C19.6116 44.875 19.276 44.6597 18.858 44.419C18.4526 44.1783 18.022 43.9313 17.566 43.678C17.11 43.4247 16.692 43.203 16.312 43.013ZM16.597 51.943C16.939 51.4617 17.3126 50.898 17.718 50.252C18.136 49.5933 18.5603 48.8967 18.991 48.162C19.4216 47.4147 19.827 46.6737 20.207 45.939L21.879 47.459C21.5496 48.1177 21.195 48.7953 20.815 49.492C20.4476 50.1887 20.0676 50.8727 19.675 51.544C19.295 52.2153 18.9086 52.8613 18.516 53.482L16.597 51.943ZM35.369 39.289H41.183V41.398H35.369V39.289ZM37.611 35.85H39.682V53.691H37.611V35.85ZM37.554 40.847L38.789 41.322C38.675 42.0567 38.5293 42.823 38.352 43.621C38.1873 44.4063 37.991 45.179 37.763 45.939C37.535 46.699 37.288 47.4083 37.022 48.067C36.756 48.7257 36.4773 49.2893 36.186 49.758C36.11 49.53 36.0086 49.2767 35.882 48.998C35.768 48.7193 35.6476 48.4407 35.521 48.162C35.3943 47.8833 35.274 47.6427 35.16 47.44C35.4133 47.06 35.6603 46.6103 35.901 46.091C36.1543 45.559 36.3886 45.0017 36.604 44.419C36.8193 43.8237 37.0093 43.222 37.174 42.614C37.3386 41.9933 37.4653 41.4043 37.554 40.847ZM39.587 41.911C39.701 42.0377 39.8593 42.253 40.062 42.557C40.2773 42.861 40.5053 43.1967 40.746 43.564C40.9993 43.9187 41.2273 44.248 41.43 44.552C41.6326 44.856 41.772 45.084 41.848 45.236L40.537 46.756C40.4356 46.49 40.3026 46.1733 40.138 45.806C39.9733 45.4387 39.796 45.065 39.606 44.685C39.416 44.2923 39.226 43.925 39.036 43.583C38.8586 43.2283 38.7066 42.937 38.58 42.709L39.587 41.911ZM47.301 36.439C47.6303 36.857 48.023 37.294 48.479 37.75C48.935 38.1933 49.429 38.6367 49.961 39.08C50.5056 39.5107 51.063 39.9097 51.633 40.277C52.203 40.6443 52.754 40.9547 53.286 41.208C53.1593 41.398 53.0263 41.626 52.887 41.892C52.7476 42.158 52.621 42.4303 52.507 42.709C52.393 42.975 52.298 43.2093 52.222 43.412C51.4366 42.9307 50.6386 42.367 49.828 41.721C49.0173 41.0623 48.2446 40.372 47.51 39.65C46.788 38.9153 46.1673 38.2187 45.648 37.56L47.301 36.439ZM46.218 35.641L48.175 36.382C47.6556 37.332 47.035 38.263 46.313 39.175C45.6036 40.0743 44.8373 40.9167 44.014 41.702C43.2033 42.4747 42.3926 43.146 41.582 43.716C41.4933 43.564 41.373 43.374 41.221 43.146C41.069 42.9053 40.9043 42.6647 40.727 42.424C40.5623 42.1833 40.4103 41.987 40.271 41.835C41.0436 41.3663 41.7973 40.809 42.532 40.163C43.2793 39.5043 43.9696 38.7887 44.603 38.016C45.2363 37.2433 45.7746 36.4517 46.218 35.641ZM43.501 41.664H50.246V43.583H43.501V41.664ZM42.095 45.407L43.862 44.951C44.014 45.4197 44.1596 45.9263 44.299 46.471C44.451 47.0157 44.584 47.5477 44.698 48.067C44.8246 48.5863 44.9196 49.0487 44.983 49.454L43.121 49.967C43.083 49.549 43.007 49.0803 42.893 48.561C42.7916 48.0417 42.6713 47.5097 42.532 46.965C42.3926 46.4077 42.247 45.8883 42.095 45.407ZM45.724 44.837L47.472 44.609C47.5986 45.0777 47.7126 45.5843 47.814 46.129C47.928 46.661 48.023 47.1867 48.099 47.706C48.1876 48.2127 48.251 48.6687 48.289 49.074L46.446 49.359C46.4206 48.9537 46.37 48.4913 46.294 47.972C46.218 47.44 46.1293 46.908 46.028 46.376C45.9393 45.8313 45.838 45.3183 45.724 44.837ZM50.303 44.59L52.279 45.027C51.9876 45.787 51.6646 46.5787 51.31 47.402C50.968 48.2127 50.6133 48.9917 50.246 49.739C49.8913 50.4737 49.5493 51.126 49.22 51.696L47.605 51.24C47.8456 50.7967 48.0926 50.3027 48.346 49.758C48.5993 49.2007 48.8463 48.6243 49.087 48.029C49.3403 47.421 49.5683 46.8257 49.771 46.243C49.9736 45.6477 50.151 45.0967 50.303 44.59ZM41.202 50.936H52.526V52.931H41.202V50.936ZM55.965 37.351H61.456V50.176H55.965V48.143H59.328V39.384H55.965V37.351ZM56.098 42.69H59.917V44.685H56.098V42.69ZM54.901 37.351H57.029V51.715H54.901V37.351ZM62.159 39.365H72.096V41.626H62.159V39.365ZM67.84 35.983H70.158V50.67C70.158 51.354 70.0693 51.867 69.892 52.209C69.7273 52.5637 69.4296 52.8297 68.999 53.007C68.581 53.1843 68.03 53.2983 67.346 53.349C66.6746 53.3997 65.864 53.4187 64.914 53.406C64.8633 53.0893 64.762 52.703 64.61 52.247C64.458 51.8037 64.2933 51.4237 64.116 51.107C64.572 51.1197 65.009 51.1323 65.427 51.145C65.8576 51.1577 66.2376 51.164 66.567 51.164C66.8963 51.164 67.1306 51.164 67.27 51.164C67.4853 51.164 67.631 51.126 67.707 51.05C67.7956 50.974 67.84 50.841 67.84 50.651V35.983ZM62.368 43.868L64.249 42.88C64.553 43.3107 64.8886 43.7857 65.256 44.305C65.6233 44.8117 65.9653 45.312 66.282 45.806C66.6113 46.2873 66.8836 46.7053 67.099 47.06L65.066 48.238C64.8886 47.8707 64.6416 47.4337 64.325 46.927C64.021 46.4203 63.6916 45.901 63.337 45.369C62.995 44.8243 62.672 44.324 62.368 43.868Z" fill="#69186B"/>
</svg>
