<svg width="600" height="58" viewBox="0 0 600 58" fill="none" xmlns="http://www.w3.org/2000/svg">
<mask id="path-1-inside-1_2646_1671" fill="white">
<path fill-rule="evenodd" clip-rule="evenodd" d="M56.8807 7C54.2146 2.79366 49.5083 0 44.1473 0C35.8354 0 29.0972 6.71573 29.0972 15C29.0972 23.2843 35.8354 30 44.1473 30C49.0712 30 53.4428 27.6433 56.1886 24H206.688C209.434 27.6433 213.805 30 218.729 30C223.653 30 228.025 27.6433 230.771 24H381.27C384.016 27.6433 388.387 30 393.311 30C398.235 30 402.607 27.6433 405.352 24H555.852C558.598 27.6433 562.969 30 567.893 30C576.205 30 582.943 23.2843 582.943 15C582.943 6.71573 576.205 0 567.893 0C562.532 0 557.826 2.79366 555.16 7H406.045C403.379 2.79366 398.672 0 393.311 0C387.95 0 383.244 2.79366 380.578 7H231.463C228.797 2.79366 224.09 0 218.729 0C213.368 0 208.662 2.79366 205.996 7H56.8807Z"/>
</mask>
<path fill-rule="evenodd" clip-rule="evenodd" d="M56.8807 7C54.2146 2.79366 49.5083 0 44.1473 0C35.8354 0 29.0972 6.71573 29.0972 15C29.0972 23.2843 35.8354 30 44.1473 30C49.0712 30 53.4428 27.6433 56.1886 24H206.688C209.434 27.6433 213.805 30 218.729 30C223.653 30 228.025 27.6433 230.771 24H381.27C384.016 27.6433 388.387 30 393.311 30C398.235 30 402.607 27.6433 405.352 24H555.852C558.598 27.6433 562.969 30 567.893 30C576.205 30 582.943 23.2843 582.943 15C582.943 6.71573 576.205 0 567.893 0C562.532 0 557.826 2.79366 555.16 7H406.045C403.379 2.79366 398.672 0 393.311 0C387.95 0 383.244 2.79366 380.578 7H231.463C228.797 2.79366 224.09 0 218.729 0C213.368 0 208.662 2.79366 205.996 7H56.8807Z" fill="#7A7A7A" fill-opacity="0.15"/>
<path d="M56.8807 7L54.3467 8.60602L55.2303 10H56.8807V7ZM56.1886 24V21H54.6929L53.7928 22.1944L56.1886 24ZM206.688 24L209.084 22.1944L208.184 21H206.688V24ZM230.771 24V21H229.275L228.375 22.1944L230.771 24ZM381.27 24L383.666 22.1944L382.766 21H381.27V24ZM405.352 24V21H403.857L402.957 22.1944L405.352 24ZM555.852 24L558.248 22.1944L557.347 21H555.852V24ZM555.16 7V10H556.81L557.694 8.60602L555.16 7ZM406.045 7L403.511 8.60602L404.394 10H406.045V7ZM380.578 7V10H382.228L383.112 8.60602L380.578 7ZM231.463 7L228.929 8.60602L229.812 10H231.463V7ZM205.996 7V10H207.646L208.53 8.60602L205.996 7ZM44.1473 3C48.4411 3 52.2093 5.23368 54.3467 8.60602L59.4146 5.39398C56.2199 0.353645 50.5756 -3 44.1473 -3V3ZM32.0972 15C32.0972 8.38202 37.4828 3 44.1473 3V-3C34.188 -3 26.0972 5.04944 26.0972 15H32.0972ZM44.1473 27C37.4828 27 32.0972 21.618 32.0972 15H26.0972C26.0972 24.9506 34.188 33 44.1473 33V27ZM53.7928 22.1944C51.5909 25.1161 48.0919 27 44.1473 27V33C50.0505 33 55.2947 30.1706 58.5844 25.8056L53.7928 22.1944ZM206.688 21H56.1886V27H206.688V21ZM218.729 27C214.785 27 211.286 25.1161 209.084 22.1944L204.292 25.8056C207.582 30.1706 212.826 33 218.729 33V27ZM228.375 22.1944C226.173 25.1161 222.674 27 218.729 27V33C224.632 33 229.877 30.1706 233.166 25.8056L228.375 22.1944ZM381.27 21H230.771V27H381.27V21ZM378.874 25.8056C382.164 30.1706 387.408 33 393.311 33V27C389.367 27 385.868 25.1161 383.666 22.1944L378.874 25.8056ZM393.311 33C399.214 33 404.459 30.1706 407.748 25.8056L402.957 22.1944C400.755 25.1161 397.256 27 393.311 27V33ZM555.852 21H405.352V27H555.852V21ZM567.893 27C563.949 27 560.45 25.1161 558.248 22.1944L553.456 25.8056C556.746 30.1706 561.99 33 567.893 33V27ZM579.943 15C579.943 21.618 574.558 27 567.893 27V33C577.852 33 585.943 24.9506 585.943 15H579.943ZM567.893 3C574.558 3 579.943 8.38202 579.943 15H585.943C585.943 5.04943 577.852 -3 567.893 -3V3ZM557.694 8.60602C559.831 5.23369 563.599 3 567.893 3V-3C561.465 -3 555.82 0.353644 552.626 5.39398L557.694 8.60602ZM406.045 10H555.16V4H406.045V10ZM408.578 5.39398C405.384 0.353641 399.739 -3 393.311 -3V3C397.605 3 401.373 5.23369 403.511 8.60602L408.578 5.39398ZM393.311 -3C386.883 -3 381.239 0.353641 378.044 5.39398L383.112 8.60602C385.249 5.23369 389.017 3 393.311 3V-3ZM231.463 10H380.578V4H231.463V10ZM218.729 3C223.023 3 226.791 5.23369 228.929 8.60602L233.997 5.39398C230.802 0.353644 225.158 -3 218.729 -3V3ZM208.53 8.60602C210.667 5.23369 214.436 3 218.729 3V-3C212.301 -3 206.657 0.353644 203.462 5.39398L208.53 8.60602ZM56.8807 10H205.996V4H56.8807V10Z" fill="#7A7A7A" mask="url(#path-1-inside-1_2646_1671)"/>
<ellipse cx="393.311" cy="15" rx="15.0502" ry="15" fill="#69186B"/>
<path d="M393.669 7.14307L393.669 22.8574" stroke="white" stroke-width="4" stroke-linecap="round"/>
<path d="M386.861 10.7144L386.861 19.2858" stroke="white" stroke-width="4" stroke-linecap="round"/>
<path d="M400.478 10.7144L400.478 19.2858" stroke="white" stroke-width="4" stroke-linecap="round"/>
<path d="M541.478 43.507C542.301 43.507 543.03 43.6907 543.663 44.058C544.309 44.4127 544.809 44.9193 545.164 45.578C545.519 46.224 545.696 46.965 545.696 47.801C545.696 48.637 545.506 49.3843 545.126 50.043C544.759 50.7017 544.246 51.221 543.587 51.601C542.928 51.9683 542.181 52.152 541.345 52.152C539.711 52.152 538.451 51.582 537.564 50.442C536.677 49.302 536.234 47.6807 536.234 45.578C536.234 44.058 536.437 42.7533 536.842 41.664C537.26 40.5747 537.855 39.745 538.628 39.175C539.413 38.605 540.351 38.32 541.44 38.32C542.225 38.32 542.985 38.4657 543.72 38.757C544.467 39.0483 545.12 39.46 545.677 39.992L545.088 41.189C544.455 40.657 543.847 40.2643 543.264 40.011C542.681 39.7577 542.086 39.631 541.478 39.631C540.313 39.631 539.407 40.1503 538.761 41.189C538.115 42.2277 537.792 43.6843 537.792 45.559V45.844C538.083 45.122 538.558 44.552 539.217 44.134C539.876 43.716 540.629 43.507 541.478 43.507ZM541.269 50.841C542.13 50.841 542.827 50.5687 543.359 50.024C543.891 49.4667 544.157 48.732 544.157 47.82C544.157 46.9207 543.885 46.1987 543.34 45.654C542.808 45.0967 542.111 44.818 541.25 44.818C540.363 44.818 539.641 45.0967 539.084 45.654C538.527 46.2113 538.248 46.9333 538.248 47.82C538.248 48.7193 538.527 49.4477 539.084 50.005C539.641 50.5623 540.37 50.841 541.269 50.841ZM558.091 46.528V52H556.533V46.509L551.213 38.472H553.037L557.331 45.122L561.625 38.472H563.411L558.091 46.528ZM571.111 47.174H564.1C564.113 48.39 564.391 49.3083 564.936 49.929C565.493 50.5497 566.298 50.86 567.349 50.86C568.464 50.86 569.49 50.4863 570.427 49.739L570.94 50.86C570.522 51.2527 569.984 51.563 569.325 51.791C568.679 52.019 568.014 52.133 567.33 52.133C565.835 52.133 564.664 51.696 563.815 50.822C562.966 49.9353 562.542 48.7257 562.542 47.193C562.542 46.2177 562.732 45.3563 563.112 44.609C563.492 43.849 564.024 43.26 564.708 42.842C565.392 42.424 566.171 42.215 567.045 42.215C568.312 42.215 569.306 42.633 570.028 43.469C570.75 44.2923 571.111 45.4323 571.111 46.889V47.174ZM567.064 43.412C566.266 43.412 565.614 43.6527 565.107 44.134C564.613 44.6153 564.296 45.293 564.157 46.167H569.724C569.648 45.2677 569.382 44.5837 568.926 44.115C568.483 43.6463 567.862 43.412 567.064 43.412ZM581.864 42.443V52H580.344V50.271C580.065 50.8663 579.641 51.3287 579.071 51.658C578.514 51.9747 577.861 52.133 577.114 52.133C576.265 52.133 575.518 51.9303 574.872 51.525C574.239 51.1197 573.745 50.5497 573.39 49.815C573.048 49.0677 572.877 48.2 572.877 47.212C572.877 46.224 573.054 45.3563 573.409 44.609C573.764 43.849 574.258 43.26 574.891 42.842C575.537 42.424 576.278 42.215 577.114 42.215C577.861 42.215 578.514 42.3797 579.071 42.709C579.628 43.0383 580.053 43.5007 580.344 44.096V42.443H581.864ZM577.418 50.86C578.355 50.86 579.077 50.5433 579.584 49.91C580.091 49.264 580.344 48.352 580.344 47.174C580.344 45.996 580.091 45.0903 579.584 44.457C579.077 43.8237 578.355 43.507 577.418 43.507C576.481 43.507 575.746 43.8363 575.214 44.495C574.695 45.141 574.435 46.0467 574.435 47.212C574.435 48.3773 574.695 49.2767 575.214 49.91C575.733 50.5433 576.468 50.86 577.418 50.86ZM589.285 42.215C589.602 42.215 589.893 42.253 590.159 42.329L590.121 43.735C589.83 43.6337 589.494 43.583 589.114 43.583C588.19 43.583 587.499 43.8743 587.043 44.457C586.6 45.027 586.378 45.7237 586.378 46.547V52H584.839V45.122C584.839 44.134 584.789 43.241 584.687 42.443H586.15L586.302 44.21C586.543 43.564 586.929 43.07 587.461 42.728C587.993 42.386 588.601 42.215 589.285 42.215ZM594.86 52.133C593.252 52.133 591.979 51.7213 591.041 50.898L591.554 49.758C592.074 50.1633 592.599 50.4547 593.131 50.632C593.663 50.8093 594.259 50.898 594.917 50.898C595.639 50.898 596.184 50.7777 596.551 50.537C596.931 50.2837 597.121 49.9227 597.121 49.454C597.121 49.074 596.995 48.77 596.741 48.542C596.488 48.314 596.07 48.1367 595.487 48.01L593.872 47.63C593.074 47.4527 592.454 47.136 592.01 46.68C591.58 46.224 591.364 45.6793 591.364 45.046C591.364 44.21 591.7 43.5323 592.371 43.013C593.043 42.481 593.929 42.215 595.031 42.215C595.703 42.215 596.336 42.3227 596.931 42.538C597.527 42.7533 598.027 43.0637 598.432 43.469L597.919 44.59C597.02 43.8427 596.057 43.469 595.031 43.469C594.347 43.469 593.815 43.602 593.435 43.868C593.068 44.1213 592.884 44.4823 592.884 44.951C592.884 45.3437 592.998 45.654 593.226 45.882C593.467 46.11 593.847 46.2873 594.366 46.414L595.981 46.813C596.868 47.0157 597.527 47.3323 597.957 47.763C598.388 48.181 598.603 48.732 598.603 49.416C598.603 50.2393 598.268 50.898 597.596 51.392C596.925 51.886 596.013 52.133 594.86 52.133Z" fill="#7A7A7A"/>
<path d="M371.711 50.359H369.792V53H367.398V50.359H361.508V48.535L367.835 39.472H369.792V48.44H371.711V50.359ZM367.398 48.44V43.291L363.826 48.44H367.398ZM384.574 47.642V53H382.123V47.642L376.632 39.472H379.425L383.339 45.59L387.272 39.472H390.065L384.574 47.642ZM397.509 48.326H390.897C390.948 49.352 391.201 50.112 391.657 50.606C392.126 51.0873 392.816 51.328 393.728 51.328C394.78 51.328 395.755 50.986 396.654 50.302L397.338 51.936C396.882 52.3033 396.319 52.601 395.647 52.829C394.989 53.0443 394.317 53.152 393.633 53.152C392.063 53.152 390.828 52.7087 389.928 51.822C389.029 50.9353 388.579 49.7193 388.579 48.174C388.579 47.1987 388.776 46.331 389.168 45.571C389.561 44.811 390.112 44.222 390.821 43.804C391.531 43.3733 392.335 43.158 393.234 43.158C394.552 43.158 395.59 43.5887 396.35 44.45C397.123 45.2987 397.509 46.4703 397.509 47.965V48.326ZM393.291 44.868C392.658 44.868 392.139 45.058 391.733 45.438C391.341 45.8053 391.087 46.3437 390.973 47.053H395.438C395.362 46.331 395.141 45.7863 394.773 45.419C394.419 45.0517 393.925 44.868 393.291 44.868ZM408.698 43.405V53H406.361V51.461C406.069 51.993 405.651 52.411 405.107 52.715C404.562 53.0063 403.941 53.152 403.245 53.152C402.409 53.152 401.668 52.9493 401.022 52.544C400.376 52.1387 399.875 51.5623 399.521 50.815C399.166 50.0677 398.989 49.2 398.989 48.212C398.989 47.224 399.166 46.35 399.521 45.59C399.888 44.8173 400.395 44.222 401.041 43.804C401.687 43.3733 402.421 43.158 403.245 43.158C403.941 43.158 404.562 43.31 405.107 43.614C405.651 43.9053 406.069 44.317 406.361 44.849V43.405H408.698ZM403.891 51.29C404.676 51.29 405.284 51.0177 405.715 50.473C406.145 49.9283 406.361 49.162 406.361 48.174C406.361 47.1607 406.145 46.3817 405.715 45.837C405.284 45.2923 404.67 45.02 403.872 45.02C403.086 45.02 402.472 45.305 402.029 45.875C401.598 46.4323 401.383 47.2113 401.383 48.212C401.383 49.2 401.598 49.96 402.029 50.492C402.472 51.024 403.093 51.29 403.891 51.29ZM416.452 43.177C416.82 43.177 417.136 43.2277 417.402 43.329L417.383 45.495C416.978 45.3303 416.56 45.248 416.129 45.248C415.319 45.248 414.698 45.4823 414.267 45.951C413.849 46.4197 413.64 47.0403 413.64 47.813V53H411.284V46.122C411.284 45.1087 411.234 44.203 411.132 43.405H413.355L413.545 45.096C413.786 44.4753 414.166 44.0003 414.685 43.671C415.205 43.3417 415.794 43.177 416.452 43.177ZM422.147 53.152C420.412 53.152 419.031 52.7467 418.005 51.936L418.67 50.264C419.696 51.024 420.868 51.404 422.185 51.404C422.755 51.404 423.192 51.309 423.496 51.119C423.813 50.929 423.971 50.663 423.971 50.321C423.971 50.0297 423.863 49.8017 423.648 49.637C423.433 49.4597 423.065 49.3077 422.546 49.181L420.95 48.82C419.202 48.44 418.328 47.547 418.328 46.141C418.328 45.5583 418.493 45.0453 418.822 44.602C419.151 44.146 419.614 43.7913 420.209 43.538C420.804 43.2847 421.495 43.158 422.28 43.158C422.964 43.158 423.623 43.2657 424.256 43.481C424.889 43.6837 425.447 43.9813 425.928 44.374L425.225 45.989C424.262 45.2797 423.274 44.925 422.261 44.925C421.716 44.925 421.292 45.0263 420.988 45.229C420.684 45.4317 420.532 45.7103 420.532 46.065C420.532 46.3437 420.621 46.5653 420.798 46.73C420.988 46.8947 421.305 47.034 421.748 47.148L423.382 47.509C424.332 47.7243 425.022 48.06 425.453 48.516C425.896 48.9593 426.118 49.542 426.118 50.264C426.118 51.1507 425.763 51.8537 425.054 52.373C424.345 52.8923 423.376 53.152 422.147 53.152Z" fill="#69186B"/>
<path d="M195.32 51.689V53H186.618V51.822L191.349 46.578C191.982 45.8687 192.445 45.229 192.736 44.659C193.027 44.089 193.173 43.519 193.173 42.949C193.173 42.2017 192.958 41.6317 192.527 41.239C192.096 40.8337 191.482 40.631 190.684 40.631C189.392 40.631 188.113 41.1503 186.846 42.189L186.257 40.992C186.789 40.4853 187.46 40.08 188.271 39.776C189.082 39.472 189.899 39.32 190.722 39.32C191.963 39.32 192.945 39.643 193.667 40.289C194.389 40.9223 194.75 41.7837 194.75 42.873C194.75 43.6457 194.573 44.393 194.218 45.115C193.876 45.8243 193.3 46.6223 192.489 47.509L188.632 51.689H195.32ZM207.924 47.528V53H206.366V47.509L201.046 39.472H202.87L207.164 46.122L211.458 39.472H213.244L207.924 47.528ZM220.944 48.174H213.933C213.946 49.39 214.224 50.3083 214.769 50.929C215.326 51.5497 216.131 51.86 217.182 51.86C218.297 51.86 219.323 51.4863 220.26 50.739L220.773 51.86C220.355 52.2527 219.817 52.563 219.158 52.791C218.512 53.019 217.847 53.133 217.163 53.133C215.668 53.133 214.497 52.696 213.648 51.822C212.799 50.9353 212.375 49.7257 212.375 48.193C212.375 47.2177 212.565 46.3563 212.945 45.609C213.325 44.849 213.857 44.26 214.541 43.842C215.225 43.424 216.004 43.215 216.878 43.215C218.145 43.215 219.139 43.633 219.861 44.469C220.583 45.2923 220.944 46.4323 220.944 47.889V48.174ZM216.897 44.412C216.099 44.412 215.447 44.6527 214.94 45.134C214.446 45.6153 214.129 46.293 213.99 47.167H219.557C219.481 46.2677 219.215 45.5837 218.759 45.115C218.316 44.6463 217.695 44.412 216.897 44.412ZM231.697 43.443V53H230.177V51.271C229.898 51.8663 229.474 52.3287 228.904 52.658C228.347 52.9747 227.694 53.133 226.947 53.133C226.098 53.133 225.351 52.9303 224.705 52.525C224.072 52.1197 223.578 51.5497 223.223 50.815C222.881 50.0677 222.71 49.2 222.71 48.212C222.71 47.224 222.887 46.3563 223.242 45.609C223.597 44.849 224.091 44.26 224.724 43.842C225.37 43.424 226.111 43.215 226.947 43.215C227.694 43.215 228.347 43.3797 228.904 43.709C229.461 44.0383 229.886 44.5007 230.177 45.096V43.443H231.697ZM227.251 51.86C228.188 51.86 228.91 51.5433 229.417 50.91C229.924 50.264 230.177 49.352 230.177 48.174C230.177 46.996 229.924 46.0903 229.417 45.457C228.91 44.8237 228.188 44.507 227.251 44.507C226.314 44.507 225.579 44.8363 225.047 45.495C224.528 46.141 224.268 47.0467 224.268 48.212C224.268 49.3773 224.528 50.2767 225.047 50.91C225.566 51.5433 226.301 51.86 227.251 51.86ZM239.118 43.215C239.435 43.215 239.726 43.253 239.992 43.329L239.954 44.735C239.663 44.6337 239.327 44.583 238.947 44.583C238.023 44.583 237.332 44.8743 236.876 45.457C236.433 46.027 236.211 46.7237 236.211 47.547V53H234.672V46.122C234.672 45.134 234.622 44.241 234.52 43.443H235.983L236.135 45.21C236.376 44.564 236.762 44.07 237.294 43.728C237.826 43.386 238.434 43.215 239.118 43.215ZM244.693 53.133C243.085 53.133 241.812 52.7213 240.874 51.898L241.387 50.758C241.907 51.1633 242.432 51.4547 242.964 51.632C243.496 51.8093 244.092 51.898 244.75 51.898C245.472 51.898 246.017 51.7777 246.384 51.537C246.764 51.2837 246.954 50.9227 246.954 50.454C246.954 50.074 246.828 49.77 246.574 49.542C246.321 49.314 245.903 49.1367 245.32 49.01L243.705 48.63C242.907 48.4527 242.287 48.136 241.843 47.68C241.413 47.224 241.197 46.6793 241.197 46.046C241.197 45.21 241.533 44.5323 242.204 44.013C242.876 43.481 243.762 43.215 244.864 43.215C245.536 43.215 246.169 43.3227 246.764 43.538C247.36 43.7533 247.86 44.0637 248.265 44.469L247.752 45.59C246.853 44.8427 245.89 44.469 244.864 44.469C244.18 44.469 243.648 44.602 243.268 44.868C242.901 45.1213 242.717 45.4823 242.717 45.951C242.717 46.3437 242.831 46.654 243.059 46.882C243.3 47.11 243.68 47.2873 244.199 47.414L245.814 47.813C246.701 48.0157 247.36 48.3323 247.79 48.763C248.221 49.181 248.436 49.732 248.436 50.416C248.436 51.2393 248.101 51.898 247.429 52.392C246.758 52.886 245.846 53.133 244.693 53.133Z" fill="#7A7A7A"/>
<path d="M10.9562 48.523H3.88818L2.38718 52H0.772176L6.71918 38.472H8.08718L14.0342 52H12.4382L10.9562 48.523ZM10.4052 47.231L7.42218 40.277L4.43918 47.231H10.4052ZM17.7132 43.659V48.884C17.7132 49.5933 17.8589 50.0937 18.1502 50.385C18.4415 50.6637 18.8532 50.803 19.3852 50.803C19.7399 50.803 20.0819 50.746 20.4112 50.632V51.943C20.0185 52.0697 19.5752 52.133 19.0812 52.133C18.1692 52.133 17.4535 51.8797 16.9342 51.373C16.4275 50.8537 16.1742 50.0937 16.1742 49.093V43.659H14.3122V42.443H16.1742V39.992L17.7132 39.441V42.443H20.4492V43.659H17.7132ZM35.1239 45.046C35.8965 45.2613 36.4982 45.654 36.9289 46.224C37.3595 46.7813 37.5749 47.478 37.5749 48.314C37.5749 49.492 37.1822 50.404 36.3969 51.05C35.6115 51.6833 34.5032 52 33.0719 52H27.4479V38.472H32.8819C34.2625 38.472 35.3329 38.7823 36.0929 39.403C36.8655 40.011 37.2519 40.8787 37.2519 42.006C37.2519 42.728 37.0619 43.355 36.6819 43.887C36.3145 44.4063 35.7952 44.7927 35.1239 45.046ZM28.9869 44.476H32.6349C33.6482 44.476 34.4145 44.2733 34.9339 43.868C35.4532 43.4627 35.7129 42.8673 35.7129 42.082C35.7129 40.5367 34.6869 39.764 32.6349 39.764H28.9869V44.476ZM32.9389 50.708C34.0029 50.708 34.7819 50.5117 35.2759 50.119C35.7825 49.7137 36.0359 49.0993 36.0359 48.276C36.0359 46.6167 35.0035 45.787 32.9389 45.787H28.9869V50.708H32.9389ZM40.1905 42.443H41.7295V52H40.1905V42.443ZM41.9195 38.396V40.144H40.0385V38.396H41.9195ZM48.6698 52.133C47.7705 52.133 46.9788 51.9303 46.2948 51.525C45.6108 51.1197 45.0788 50.5433 44.6988 49.796C44.3315 49.0487 44.1478 48.1747 44.1478 47.174C44.1478 46.1733 44.3315 45.2993 44.6988 44.552C45.0788 43.8047 45.6108 43.2283 46.2948 42.823C46.9788 42.4177 47.7705 42.215 48.6698 42.215C49.5692 42.215 50.3608 42.4177 51.0448 42.823C51.7288 43.2283 52.2545 43.8047 52.6218 44.552C53.0018 45.2993 53.1918 46.1733 53.1918 47.174C53.1918 48.1747 53.0018 49.0487 52.6218 49.796C52.2545 50.5433 51.7288 51.1197 51.0448 51.525C50.3608 51.9303 49.5692 52.133 48.6698 52.133ZM48.6698 50.86C49.6198 50.86 50.3482 50.5497 50.8548 49.929C51.3615 49.2957 51.6148 48.3773 51.6148 47.174C51.6148 46.0087 51.3552 45.1093 50.8358 44.476C50.3165 43.83 49.5945 43.507 48.6698 43.507C47.7325 43.507 47.0042 43.83 46.4848 44.476C45.9655 45.1093 45.7058 46.0087 45.7058 47.174C45.7058 48.3773 45.9592 49.2957 46.4658 49.929C46.9852 50.5497 47.7198 50.86 48.6698 50.86ZM60.3599 42.215C61.1959 42.215 61.9369 42.424 62.5829 42.842C63.2289 43.26 63.7292 43.849 64.0839 44.609C64.4386 45.3563 64.6159 46.224 64.6159 47.212C64.6159 48.2 64.4386 49.0677 64.0839 49.815C63.7292 50.5497 63.2289 51.1197 62.5829 51.525C61.9496 51.9303 61.2086 52.133 60.3599 52.133C59.6126 52.133 58.9602 51.9683 58.4029 51.639C57.8456 51.3097 57.4212 50.841 57.1299 50.233V56.104H55.5909V45.122C55.5909 44.134 55.5402 43.241 55.4389 42.443H56.9019L57.0539 44.286C57.3199 43.6273 57.7379 43.1207 58.3079 42.766C58.8906 42.3987 59.5746 42.215 60.3599 42.215ZM60.0749 50.86C61.0122 50.86 61.7342 50.5433 62.2409 49.91C62.7602 49.2767 63.0199 48.3773 63.0199 47.212C63.0199 46.0467 62.7602 45.141 62.2409 44.495C61.7216 43.8363 60.9996 43.507 60.0749 43.507C59.1249 43.507 58.3966 43.8237 57.8899 44.457C57.3832 45.0903 57.1299 45.996 57.1299 47.174C57.1299 48.352 57.3832 49.264 57.8899 49.91C58.3966 50.5433 59.1249 50.86 60.0749 50.86ZM70.2135 52.133C68.6048 52.133 67.3318 51.7213 66.3945 50.898L66.9075 49.758C67.4268 50.1633 67.9525 50.4547 68.4845 50.632C69.0165 50.8093 69.6118 50.898 70.2705 50.898C70.9925 50.898 71.5371 50.7777 71.9045 50.537C72.2845 50.2837 72.4745 49.9227 72.4745 49.454C72.4745 49.074 72.3478 48.77 72.0945 48.542C71.8411 48.314 71.4231 48.1367 70.8405 48.01L69.2255 47.63C68.4275 47.4527 67.8068 47.136 67.3635 46.68C66.9328 46.224 66.7175 45.6793 66.7175 45.046C66.7175 44.21 67.0531 43.5323 67.7245 43.013C68.3958 42.481 69.2825 42.215 70.3845 42.215C71.0558 42.215 71.6891 42.3227 72.2845 42.538C72.8798 42.7533 73.3801 43.0637 73.7855 43.469L73.2725 44.59C72.3731 43.8427 71.4105 43.469 70.3845 43.469C69.7005 43.469 69.1685 43.602 68.7885 43.868C68.4211 44.1213 68.2375 44.4823 68.2375 44.951C68.2375 45.3437 68.3515 45.654 68.5795 45.882C68.8201 46.11 69.2001 46.2873 69.7195 46.414L71.3345 46.813C72.2211 47.0157 72.8798 47.3323 73.3105 47.763C73.7411 48.181 73.9565 48.732 73.9565 49.416C73.9565 50.2393 73.6208 50.898 72.9495 51.392C72.2781 51.886 71.3661 52.133 70.2135 52.133ZM84.6403 42.443L80.1753 52.874C79.7066 53.9633 79.1176 54.7613 78.4083 55.268C77.6989 55.7747 76.8249 56.123 75.7863 56.313L75.4633 55.116C76.3626 54.9133 77.0403 54.641 77.4963 54.299C77.9649 53.9697 78.3513 53.4567 78.6553 52.76L79.0353 51.905L74.9883 42.443H76.6033L79.8333 50.328L83.1013 42.443H84.6403Z" fill="#7A7A7A"/>
</svg>
