<svg width="600" height="58" viewBox="0 0 600 58" fill="none" xmlns="http://www.w3.org/2000/svg">
<mask id="path-1-inside-1_2646_4698" fill="white">
<path fill-rule="evenodd" clip-rule="evenodd" d="M56.6909 7C54.0337 2.79366 49.3431 0 44 0C35.7157 0 29 6.71573 29 15C29 23.2843 35.7157 30 44 30C48.9075 30 53.2645 27.6433 56.0011 24H205.999C208.736 27.6433 213.093 30 218 30C222.907 30 227.264 27.6433 230.001 24H379.999C382.736 27.6433 387.093 30 392 30C396.907 30 401.264 27.6433 404.001 24H553.999C556.736 27.6433 561.093 30 566 30C574.284 30 581 23.2843 581 15C581 6.71573 574.284 0 566 0C560.657 0 555.966 2.79366 553.309 7H404.691C402.034 2.79366 397.343 0 392 0C386.657 0 381.966 2.79366 379.309 7H230.691C228.034 2.79366 223.343 0 218 0C212.657 0 207.966 2.79366 205.309 7H56.6909Z"/>
</mask>
<path fill-rule="evenodd" clip-rule="evenodd" d="M56.6909 7C54.0337 2.79366 49.3431 0 44 0C35.7157 0 29 6.71573 29 15C29 23.2843 35.7157 30 44 30C48.9075 30 53.2645 27.6433 56.0011 24H205.999C208.736 27.6433 213.093 30 218 30C222.907 30 227.264 27.6433 230.001 24H379.999C382.736 27.6433 387.093 30 392 30C396.907 30 401.264 27.6433 404.001 24H553.999C556.736 27.6433 561.093 30 566 30C574.284 30 581 23.2843 581 15C581 6.71573 574.284 0 566 0C560.657 0 555.966 2.79366 553.309 7H404.691C402.034 2.79366 397.343 0 392 0C386.657 0 381.966 2.79366 379.309 7H230.691C228.034 2.79366 223.343 0 218 0C212.657 0 207.966 2.79366 205.309 7H56.6909Z" fill="#7A7A7A" fill-opacity="0.15"/>
<path d="M56.6909 7L54.1545 8.6022L55.0375 10H56.6909V7ZM56.0011 24V21H54.5025L53.6024 22.1983L56.0011 24ZM205.999 24L208.398 22.1983L207.498 21H205.999V24ZM230.001 24V21H228.502L227.602 22.1983L230.001 24ZM379.999 24L382.398 22.1983L381.498 21H379.999V24ZM404.001 24V21H402.502L401.602 22.1983L404.001 24ZM553.999 24L556.398 22.1983L555.498 21H553.999V24ZM553.309 7V10H554.962L555.845 8.60218L553.309 7ZM404.691 7L402.155 8.6022L403.038 10H404.691V7ZM379.309 7V10H380.962L381.845 8.6022L379.309 7ZM230.691 7L228.155 8.6022L229.038 10H230.691V7ZM205.309 7V10H206.962L207.845 8.6022L205.309 7ZM44 3C48.2712 3 52.0239 5.22936 54.1545 8.6022L59.2272 5.3978C56.0436 0.357966 50.415 -3 44 -3V3ZM32 15C32 8.37258 37.3726 3 44 3V-3C34.0589 -3 26 5.05887 26 15H32ZM44 27C37.3726 27 32 21.6274 32 15H26C26 24.9411 34.0589 33 44 33V27ZM53.6024 22.1983C51.408 25.1197 47.924 27 44 27V33C49.8909 33 55.1209 30.167 58.3998 25.8017L53.6024 22.1983ZM205.999 21H56.0011V27H205.999V21ZM218 27C214.076 27 210.592 25.1197 208.398 22.1983L203.6 25.8017C206.879 30.167 212.109 33 218 33V27ZM227.602 22.1983C225.408 25.1197 221.924 27 218 27V33C223.891 33 229.121 30.167 232.4 25.8017L227.602 22.1983ZM379.999 21H230.001V27H379.999V21ZM377.6 25.8017C380.879 30.167 386.109 33 392 33V27C388.076 27 384.592 25.1197 382.398 22.1983L377.6 25.8017ZM392 33C397.891 33 403.121 30.167 406.4 25.8017L401.602 22.1983C399.408 25.1197 395.924 27 392 27V33ZM553.999 21H404.001V27H553.999V21ZM566 27C562.076 27 558.592 25.1197 556.398 22.1983L551.6 25.8017C554.879 30.167 560.109 33 566 33V27ZM578 15C578 21.6274 572.627 27 566 27V33C575.941 33 584 24.9411 584 15H578ZM566 3C572.627 3 578 8.37258 578 15H584C584 5.05888 575.941 -3 566 -3V3ZM555.845 8.60218C557.976 5.22936 561.729 3 566 3V-3C559.585 -3 553.956 0.357965 550.773 5.39782L555.845 8.60218ZM404.691 10H553.309V4H404.691V10ZM407.227 5.3978C404.044 0.357963 398.415 -3 392 -3V3C396.271 3 400.024 5.22937 402.155 8.6022L407.227 5.3978ZM392 -3C385.585 -3 379.956 0.357963 376.773 5.3978L381.845 8.6022C383.976 5.22937 387.729 3 392 3V-3ZM230.691 10H379.309V4H230.691V10ZM218 3C222.271 3 226.024 5.22936 228.155 8.6022L233.227 5.3978C230.044 0.357968 224.415 -3 218 -3V3ZM207.845 8.6022C209.976 5.22936 213.729 3 218 3V-3C211.585 -3 205.956 0.357968 202.773 5.3978L207.845 8.6022ZM56.6909 10H205.309V4H56.6909V10Z" fill="#7A7A7A" mask="url(#path-1-inside-1_2646_4698)"/>
<circle cx="566" cy="15" r="15" fill="#69186B"/>
<path d="M566.357 7.14307L566.357 22.8574" stroke="white" stroke-width="4" stroke-linecap="round"/>
<path d="M559.571 10.7144L559.571 19.2858" stroke="white" stroke-width="4" stroke-linecap="round"/>
<path d="M573.143 10.7144L573.143 19.2858" stroke="white" stroke-width="4" stroke-linecap="round"/>
<path d="M539.99 43.317C540.788 43.317 541.497 43.5007 542.118 43.868C542.751 44.2353 543.245 44.7483 543.6 45.407C543.955 46.0657 544.132 46.8193 544.132 47.668C544.132 48.5293 543.936 49.302 543.543 49.986C543.163 50.67 542.625 51.2083 541.928 51.601C541.244 51.981 540.465 52.171 539.591 52.171C537.881 52.171 536.564 51.5947 535.639 50.442C534.714 49.2767 534.252 47.6237 534.252 45.483C534.252 43.9883 534.467 42.7027 534.898 41.626C535.341 40.5493 535.975 39.726 536.798 39.156C537.634 38.586 538.622 38.301 539.762 38.301C540.573 38.301 541.358 38.4403 542.118 38.719C542.891 38.985 543.562 39.3713 544.132 39.878L543.296 41.664C542.105 40.7267 540.959 40.258 539.857 40.258C538.856 40.258 538.084 40.6823 537.539 41.531C536.994 42.3797 536.709 43.5957 536.684 45.179C536.975 44.609 537.419 44.1593 538.014 43.83C538.609 43.488 539.268 43.317 539.99 43.317ZM539.477 50.233C540.174 50.233 540.731 50.005 541.149 49.549C541.58 49.093 541.795 48.4913 541.795 47.744C541.795 46.9967 541.58 46.4013 541.149 45.958C540.731 45.502 540.167 45.274 539.458 45.274C538.749 45.274 538.172 45.502 537.729 45.958C537.286 46.414 537.064 47.0093 537.064 47.744C537.064 48.4787 537.286 49.0803 537.729 49.549C538.185 50.005 538.768 50.233 539.477 50.233ZM557.262 46.642V52H554.811V46.642L549.32 38.472H552.113L556.027 44.59L559.96 38.472H562.753L557.262 46.642ZM570.197 47.326H563.585C563.636 48.352 563.889 49.112 564.345 49.606C564.814 50.0873 565.504 50.328 566.416 50.328C567.467 50.328 568.443 49.986 569.342 49.302L570.026 50.936C569.57 51.3033 569.006 51.601 568.335 51.829C567.676 52.0443 567.005 52.152 566.321 52.152C564.75 52.152 563.515 51.7087 562.616 50.822C561.717 49.9353 561.267 48.7193 561.267 47.174C561.267 46.1987 561.463 45.331 561.856 44.571C562.249 43.811 562.8 43.222 563.509 42.804C564.218 42.3733 565.023 42.158 565.922 42.158C567.239 42.158 568.278 42.5887 569.038 43.45C569.811 44.2987 570.197 45.4703 570.197 46.965V47.326ZM565.979 43.868C565.346 43.868 564.826 44.058 564.421 44.438C564.028 44.8053 563.775 45.3437 563.661 46.053H568.126C568.05 45.331 567.828 44.7863 567.461 44.419C567.106 44.0517 566.612 43.868 565.979 43.868ZM581.385 42.405V52H579.048V50.461C578.757 50.993 578.339 51.411 577.794 51.715C577.249 52.0063 576.629 52.152 575.932 52.152C575.096 52.152 574.355 51.9493 573.709 51.544C573.063 51.1387 572.563 50.5623 572.208 49.815C571.853 49.0677 571.676 48.2 571.676 47.212C571.676 46.224 571.853 45.35 572.208 44.59C572.575 43.8173 573.082 43.222 573.728 42.804C574.374 42.3733 575.109 42.158 575.932 42.158C576.629 42.158 577.249 42.31 577.794 42.614C578.339 42.9053 578.757 43.317 579.048 43.849V42.405H581.385ZM576.578 50.29C577.363 50.29 577.971 50.0177 578.402 49.473C578.833 48.9283 579.048 48.162 579.048 47.174C579.048 46.1607 578.833 45.3817 578.402 44.837C577.971 44.2923 577.357 44.02 576.559 44.02C575.774 44.02 575.159 44.305 574.716 44.875C574.285 45.4323 574.07 46.2113 574.07 47.212C574.07 48.2 574.285 48.96 574.716 49.492C575.159 50.024 575.78 50.29 576.578 50.29ZM589.14 42.177C589.507 42.177 589.824 42.2277 590.09 42.329L590.071 44.495C589.665 44.3303 589.247 44.248 588.817 44.248C588.006 44.248 587.385 44.4823 586.955 44.951C586.537 45.4197 586.328 46.0403 586.328 46.813V52H583.972V45.122C583.972 44.1087 583.921 43.203 583.82 42.405H586.043L586.233 44.096C586.473 43.4753 586.853 43.0003 587.373 42.671C587.892 42.3417 588.481 42.177 589.14 42.177ZM594.834 52.152C593.099 52.152 591.718 51.7467 590.692 50.936L591.357 49.264C592.383 50.024 593.555 50.404 594.872 50.404C595.442 50.404 595.879 50.309 596.183 50.119C596.5 49.929 596.658 49.663 596.658 49.321C596.658 49.0297 596.551 48.8017 596.335 48.637C596.12 48.4597 595.753 48.3077 595.233 48.181L593.637 47.82C591.889 47.44 591.015 46.547 591.015 45.141C591.015 44.5583 591.18 44.0453 591.509 43.602C591.839 43.146 592.301 42.7913 592.896 42.538C593.492 42.2847 594.182 42.158 594.967 42.158C595.651 42.158 596.31 42.2657 596.943 42.481C597.577 42.6837 598.134 42.9813 598.615 43.374L597.912 44.989C596.95 44.2797 595.962 43.925 594.948 43.925C594.404 43.925 593.979 44.0263 593.675 44.229C593.371 44.4317 593.219 44.7103 593.219 45.065C593.219 45.3437 593.308 45.5653 593.485 45.73C593.675 45.8947 593.992 46.034 594.435 46.148L596.069 46.509C597.019 46.7243 597.71 47.06 598.14 47.516C598.584 47.9593 598.805 48.542 598.805 49.264C598.805 50.1507 598.451 50.8537 597.741 51.373C597.032 51.8923 596.063 52.152 594.834 52.152Z" fill="#69186B"/>
<path d="M370.09 50.055H368.038V53H366.48V50.055H360.248V48.877L366.765 39.472H368.038V48.763H370.09V50.055ZM366.48 48.763V42.113L361.863 48.763H366.48ZM382.2 47.528V53H380.642V47.509L375.322 39.472H377.146L381.44 46.122L385.734 39.472H387.52L382.2 47.528ZM395.22 48.174H388.209C388.221 49.39 388.5 50.3083 389.045 50.929C389.602 51.5497 390.406 51.86 391.458 51.86C392.572 51.86 393.598 51.4863 394.536 50.739L395.049 51.86C394.631 52.2527 394.092 52.563 393.434 52.791C392.788 53.019 392.123 53.133 391.439 53.133C389.944 53.133 388.772 52.696 387.924 51.822C387.075 50.9353 386.651 49.7257 386.651 48.193C386.651 47.2177 386.841 46.3563 387.221 45.609C387.601 44.849 388.133 44.26 388.817 43.842C389.501 43.424 390.28 43.215 391.154 43.215C392.42 43.215 393.415 43.633 394.137 44.469C394.859 45.2923 395.22 46.4323 395.22 47.889V48.174ZM391.173 44.412C390.375 44.412 389.722 44.6527 389.216 45.134C388.722 45.6153 388.405 46.293 388.266 47.167H393.833C393.757 46.2677 393.491 45.5837 393.035 45.115C392.591 44.6463 391.971 44.412 391.173 44.412ZM405.973 43.443V53H404.453V51.271C404.174 51.8663 403.75 52.3287 403.18 52.658C402.622 52.9747 401.97 53.133 401.223 53.133C400.374 53.133 399.627 52.9303 398.981 52.525C398.347 52.1197 397.853 51.5497 397.499 50.815C397.157 50.0677 396.986 49.2 396.986 48.212C396.986 47.224 397.163 46.3563 397.518 45.609C397.872 44.849 398.366 44.26 399 43.842C399.646 43.424 400.387 43.215 401.223 43.215C401.97 43.215 402.622 43.3797 403.18 43.709C403.737 44.0383 404.161 44.5007 404.453 45.096V43.443H405.973ZM401.527 51.86C402.464 51.86 403.186 51.5433 403.693 50.91C404.199 50.264 404.453 49.352 404.453 48.174C404.453 46.996 404.199 46.0903 403.693 45.457C403.186 44.8237 402.464 44.507 401.527 44.507C400.589 44.507 399.855 44.8363 399.323 45.495C398.803 46.141 398.544 47.0467 398.544 48.212C398.544 49.3773 398.803 50.2767 399.323 50.91C399.842 51.5433 400.577 51.86 401.527 51.86ZM413.394 43.215C413.711 43.215 414.002 43.253 414.268 43.329L414.23 44.735C413.939 44.6337 413.603 44.583 413.223 44.583C412.299 44.583 411.608 44.8743 411.152 45.457C410.709 46.027 410.487 46.7237 410.487 47.547V53H408.948V46.122C408.948 45.134 408.898 44.241 408.796 43.443H410.259L410.411 45.21C410.652 44.564 411.038 44.07 411.57 43.728C412.102 43.386 412.71 43.215 413.394 43.215ZM418.969 53.133C417.361 53.133 416.088 52.7213 415.15 51.898L415.663 50.758C416.183 51.1633 416.708 51.4547 417.24 51.632C417.772 51.8093 418.368 51.898 419.026 51.898C419.748 51.898 420.293 51.7777 420.66 51.537C421.04 51.2837 421.23 50.9227 421.23 50.454C421.23 50.074 421.104 49.77 420.85 49.542C420.597 49.314 420.179 49.1367 419.596 49.01L417.981 48.63C417.183 48.4527 416.563 48.136 416.119 47.68C415.689 47.224 415.473 46.6793 415.473 46.046C415.473 45.21 415.809 44.5323 416.48 44.013C417.152 43.481 418.038 43.215 419.14 43.215C419.812 43.215 420.445 43.3227 421.04 43.538C421.636 43.7533 422.136 44.0637 422.541 44.469L422.028 45.59C421.129 44.8427 420.166 44.469 419.14 44.469C418.456 44.469 417.924 44.602 417.544 44.868C417.177 45.1213 416.993 45.4823 416.993 45.951C416.993 46.3437 417.107 46.654 417.335 46.882C417.576 47.11 417.956 47.2873 418.475 47.414L420.09 47.813C420.977 48.0157 421.636 48.3323 422.066 48.763C422.497 49.181 422.712 49.732 422.712 50.416C422.712 51.2393 422.377 51.898 421.705 52.392C421.034 52.886 420.122 53.133 418.969 53.133Z" fill="#7A7A7A"/>
<path d="M194.596 51.689V53H185.894V51.822L190.625 46.578C191.258 45.8687 191.721 45.229 192.012 44.659C192.303 44.089 192.449 43.519 192.449 42.949C192.449 42.2017 192.234 41.6317 191.803 41.239C191.372 40.8337 190.758 40.631 189.96 40.631C188.668 40.631 187.389 41.1503 186.122 42.189L185.533 40.992C186.065 40.4853 186.736 40.08 187.547 39.776C188.358 39.472 189.175 39.32 189.998 39.32C191.239 39.32 192.221 39.643 192.943 40.289C193.665 40.9223 194.026 41.7837 194.026 42.873C194.026 43.6457 193.849 44.393 193.494 45.115C193.152 45.8243 192.576 46.6223 191.765 47.509L187.908 51.689H194.596ZM207.2 47.528V53H205.642V47.509L200.322 39.472H202.146L206.44 46.122L210.734 39.472H212.52L207.2 47.528ZM220.22 48.174H213.209C213.221 49.39 213.5 50.3083 214.045 50.929C214.602 51.5497 215.406 51.86 216.458 51.86C217.572 51.86 218.598 51.4863 219.536 50.739L220.049 51.86C219.631 52.2527 219.092 52.563 218.434 52.791C217.788 53.019 217.123 53.133 216.439 53.133C214.944 53.133 213.772 52.696 212.924 51.822C212.075 50.9353 211.651 49.7257 211.651 48.193C211.651 47.2177 211.841 46.3563 212.221 45.609C212.601 44.849 213.133 44.26 213.817 43.842C214.501 43.424 215.28 43.215 216.154 43.215C217.42 43.215 218.415 43.633 219.137 44.469C219.859 45.2923 220.22 46.4323 220.22 47.889V48.174ZM216.173 44.412C215.375 44.412 214.722 44.6527 214.216 45.134C213.722 45.6153 213.405 46.293 213.266 47.167H218.833C218.757 46.2677 218.491 45.5837 218.035 45.115C217.591 44.6463 216.971 44.412 216.173 44.412ZM230.973 43.443V53H229.453V51.271C229.174 51.8663 228.75 52.3287 228.18 52.658C227.622 52.9747 226.97 53.133 226.223 53.133C225.374 53.133 224.627 52.9303 223.981 52.525C223.347 52.1197 222.853 51.5497 222.499 50.815C222.157 50.0677 221.986 49.2 221.986 48.212C221.986 47.224 222.163 46.3563 222.518 45.609C222.872 44.849 223.366 44.26 224 43.842C224.646 43.424 225.387 43.215 226.223 43.215C226.97 43.215 227.622 43.3797 228.18 43.709C228.737 44.0383 229.161 44.5007 229.453 45.096V43.443H230.973ZM226.527 51.86C227.464 51.86 228.186 51.5433 228.693 50.91C229.199 50.264 229.453 49.352 229.453 48.174C229.453 46.996 229.199 46.0903 228.693 45.457C228.186 44.8237 227.464 44.507 226.527 44.507C225.589 44.507 224.855 44.8363 224.323 45.495C223.803 46.141 223.544 47.0467 223.544 48.212C223.544 49.3773 223.803 50.2767 224.323 50.91C224.842 51.5433 225.577 51.86 226.527 51.86ZM238.394 43.215C238.711 43.215 239.002 43.253 239.268 43.329L239.23 44.735C238.939 44.6337 238.603 44.583 238.223 44.583C237.299 44.583 236.608 44.8743 236.152 45.457C235.709 46.027 235.487 46.7237 235.487 47.547V53H233.948V46.122C233.948 45.134 233.898 44.241 233.796 43.443H235.259L235.411 45.21C235.652 44.564 236.038 44.07 236.57 43.728C237.102 43.386 237.71 43.215 238.394 43.215ZM243.969 53.133C242.361 53.133 241.088 52.7213 240.15 51.898L240.663 50.758C241.183 51.1633 241.708 51.4547 242.24 51.632C242.772 51.8093 243.368 51.898 244.026 51.898C244.748 51.898 245.293 51.7777 245.66 51.537C246.04 51.2837 246.23 50.9227 246.23 50.454C246.23 50.074 246.104 49.77 245.85 49.542C245.597 49.314 245.179 49.1367 244.596 49.01L242.981 48.63C242.183 48.4527 241.563 48.136 241.119 47.68C240.689 47.224 240.473 46.6793 240.473 46.046C240.473 45.21 240.809 44.5323 241.48 44.013C242.152 43.481 243.038 43.215 244.14 43.215C244.812 43.215 245.445 43.3227 246.04 43.538C246.636 43.7533 247.136 44.0637 247.541 44.469L247.028 45.59C246.129 44.8427 245.166 44.469 244.14 44.469C243.456 44.469 242.924 44.602 242.544 44.868C242.177 45.1213 241.993 45.4823 241.993 45.951C241.993 46.3437 242.107 46.654 242.335 46.882C242.576 47.11 242.956 47.2873 243.475 47.414L245.09 47.813C245.977 48.0157 246.636 48.3323 247.066 48.763C247.497 49.181 247.712 49.732 247.712 50.416C247.712 51.2393 247.377 51.898 246.705 52.392C246.034 52.886 245.122 53.133 243.969 53.133Z" fill="#7A7A7A"/>
<path d="M10.8141 48.523H3.74609L2.24509 52H0.630086L6.57709 38.472H7.94509L13.8921 52H12.2961L10.8141 48.523ZM10.2631 47.231L7.28009 40.277L4.29709 47.231H10.2631ZM17.5711 43.659V48.884C17.5711 49.5933 17.7168 50.0937 18.0081 50.385C18.2994 50.6637 18.7111 50.803 19.2431 50.803C19.5978 50.803 19.9398 50.746 20.2691 50.632V51.943C19.8764 52.0697 19.4331 52.133 18.9391 52.133C18.0271 52.133 17.3114 51.8797 16.7921 51.373C16.2854 50.8537 16.0321 50.0937 16.0321 49.093V43.659H14.1701V42.443H16.0321V39.992L17.5711 39.441V42.443H20.3071V43.659H17.5711ZM34.9818 45.046C35.7545 45.2613 36.3561 45.654 36.7868 46.224C37.2175 46.7813 37.4328 47.478 37.4328 48.314C37.4328 49.492 37.0401 50.404 36.2548 51.05C35.4695 51.6833 34.3611 52 32.9298 52H27.3058V38.472H32.7398C34.1205 38.472 35.1908 38.7823 35.9508 39.403C36.7235 40.011 37.1098 40.8787 37.1098 42.006C37.1098 42.728 36.9198 43.355 36.5398 43.887C36.1725 44.4063 35.6531 44.7927 34.9818 45.046ZM28.8448 44.476H32.4928C33.5061 44.476 34.2725 44.2733 34.7918 43.868C35.3111 43.4627 35.5708 42.8673 35.5708 42.082C35.5708 40.5367 34.5448 39.764 32.4928 39.764H28.8448V44.476ZM32.7968 50.708C33.8608 50.708 34.6398 50.5117 35.1338 50.119C35.6405 49.7137 35.8938 49.0993 35.8938 48.276C35.8938 46.6167 34.8615 45.787 32.7968 45.787H28.8448V50.708H32.7968ZM40.0484 42.443H41.5874V52H40.0484V42.443ZM41.7774 38.396V40.144H39.8964V38.396H41.7774ZM48.5278 52.133C47.6284 52.133 46.8368 51.9303 46.1528 51.525C45.4688 51.1197 44.9368 50.5433 44.5568 49.796C44.1894 49.0487 44.0058 48.1747 44.0058 47.174C44.0058 46.1733 44.1894 45.2993 44.5568 44.552C44.9368 43.8047 45.4688 43.2283 46.1528 42.823C46.8368 42.4177 47.6284 42.215 48.5278 42.215C49.4271 42.215 50.2188 42.4177 50.9028 42.823C51.5868 43.2283 52.1124 43.8047 52.4798 44.552C52.8598 45.2993 53.0498 46.1733 53.0498 47.174C53.0498 48.1747 52.8598 49.0487 52.4798 49.796C52.1124 50.5433 51.5868 51.1197 50.9028 51.525C50.2188 51.9303 49.4271 52.133 48.5278 52.133ZM48.5278 50.86C49.4778 50.86 50.2061 50.5497 50.7128 49.929C51.2194 49.2957 51.4728 48.3773 51.4728 47.174C51.4728 46.0087 51.2131 45.1093 50.6938 44.476C50.1744 43.83 49.4524 43.507 48.5278 43.507C47.5904 43.507 46.8621 43.83 46.3428 44.476C45.8234 45.1093 45.5638 46.0087 45.5638 47.174C45.5638 48.3773 45.8171 49.2957 46.3238 49.929C46.8431 50.5497 47.5778 50.86 48.5278 50.86ZM60.2178 42.215C61.0538 42.215 61.7948 42.424 62.4408 42.842C63.0868 43.26 63.5871 43.849 63.9418 44.609C64.2965 45.3563 64.4738 46.224 64.4738 47.212C64.4738 48.2 64.2965 49.0677 63.9418 49.815C63.5871 50.5497 63.0868 51.1197 62.4408 51.525C61.8075 51.9303 61.0665 52.133 60.2178 52.133C59.4705 52.133 58.8181 51.9683 58.2608 51.639C57.7035 51.3097 57.2791 50.841 56.9878 50.233V56.104H55.4488V45.122C55.4488 44.134 55.3981 43.241 55.2968 42.443H56.7598L56.9118 44.286C57.1778 43.6273 57.5958 43.1207 58.1658 42.766C58.7485 42.3987 59.4325 42.215 60.2178 42.215ZM59.9328 50.86C60.8701 50.86 61.5921 50.5433 62.0988 49.91C62.6181 49.2767 62.8778 48.3773 62.8778 47.212C62.8778 46.0467 62.6181 45.141 62.0988 44.495C61.5795 43.8363 60.8575 43.507 59.9328 43.507C58.9828 43.507 58.2545 43.8237 57.7478 44.457C57.2411 45.0903 56.9878 45.996 56.9878 47.174C56.9878 48.352 57.2411 49.264 57.7478 49.91C58.2545 50.5433 58.9828 50.86 59.9328 50.86ZM70.0714 52.133C68.4627 52.133 67.1897 51.7213 66.2524 50.898L66.7654 49.758C67.2847 50.1633 67.8104 50.4547 68.3424 50.632C68.8744 50.8093 69.4697 50.898 70.1284 50.898C70.8504 50.898 71.395 50.7777 71.7624 50.537C72.1424 50.2837 72.3324 49.9227 72.3324 49.454C72.3324 49.074 72.2057 48.77 71.9524 48.542C71.699 48.314 71.281 48.1367 70.6984 48.01L69.0834 47.63C68.2854 47.4527 67.6647 47.136 67.2214 46.68C66.7907 46.224 66.5754 45.6793 66.5754 45.046C66.5754 44.21 66.911 43.5323 67.5824 43.013C68.2537 42.481 69.1404 42.215 70.2424 42.215C70.9137 42.215 71.547 42.3227 72.1424 42.538C72.7377 42.7533 73.238 43.0637 73.6434 43.469L73.1304 44.59C72.231 43.8427 71.2684 43.469 70.2424 43.469C69.5584 43.469 69.0264 43.602 68.6464 43.868C68.279 44.1213 68.0954 44.4823 68.0954 44.951C68.0954 45.3437 68.2094 45.654 68.4374 45.882C68.678 46.11 69.058 46.2873 69.5774 46.414L71.1924 46.813C72.079 47.0157 72.7377 47.3323 73.1684 47.763C73.599 48.181 73.8144 48.732 73.8144 49.416C73.8144 50.2393 73.4787 50.898 72.8074 51.392C72.136 51.886 71.224 52.133 70.0714 52.133ZM84.4982 42.443L80.0332 52.874C79.5645 53.9633 78.9755 54.7613 78.2662 55.268C77.5568 55.7747 76.6828 56.123 75.6442 56.313L75.3212 55.116C76.2205 54.9133 76.8982 54.641 77.3542 54.299C77.8228 53.9697 78.2092 53.4567 78.5132 52.76L78.8932 51.905L74.8462 42.443H76.4612L79.6912 50.328L82.9592 42.443H84.4982Z" fill="#7A7A7A"/>
</svg>
