<svg width="600" height="58" viewBox="0 0 600 58" fill="none" xmlns="http://www.w3.org/2000/svg">
<mask id="path-1-inside-1_20_4935" fill="white">
<path fill-rule="evenodd" clip-rule="evenodd" d="M56.8807 7C54.2146 2.79366 49.5083 0 44.1473 0C35.8354 0 29.0972 6.71573 29.0972 15C29.0972 23.2843 35.8354 30 44.1473 30C49.0712 30 53.4428 27.6433 56.1886 24H206.688C209.434 27.6433 213.805 30 218.729 30C223.653 30 228.025 27.6433 230.771 24H381.27C384.016 27.6433 388.387 30 393.311 30C398.235 30 402.607 27.6433 405.352 24H555.852C558.598 27.6433 562.969 30 567.893 30C576.205 30 582.943 23.2843 582.943 15C582.943 6.71573 576.205 0 567.893 0C562.532 0 557.826 2.79366 555.16 7H406.045C403.379 2.79366 398.672 0 393.311 0C387.95 0 383.244 2.79366 380.578 7H231.463C228.797 2.79366 224.09 0 218.729 0C213.368 0 208.662 2.79366 205.996 7H56.8807Z"/>
</mask>
<path fill-rule="evenodd" clip-rule="evenodd" d="M56.8807 7C54.2146 2.79366 49.5083 0 44.1473 0C35.8354 0 29.0972 6.71573 29.0972 15C29.0972 23.2843 35.8354 30 44.1473 30C49.0712 30 53.4428 27.6433 56.1886 24H206.688C209.434 27.6433 213.805 30 218.729 30C223.653 30 228.025 27.6433 230.771 24H381.27C384.016 27.6433 388.387 30 393.311 30C398.235 30 402.607 27.6433 405.352 24H555.852C558.598 27.6433 562.969 30 567.893 30C576.205 30 582.943 23.2843 582.943 15C582.943 6.71573 576.205 0 567.893 0C562.532 0 557.826 2.79366 555.16 7H406.045C403.379 2.79366 398.672 0 393.311 0C387.95 0 383.244 2.79366 380.578 7H231.463C228.797 2.79366 224.09 0 218.729 0C213.368 0 208.662 2.79366 205.996 7H56.8807Z" fill="#7A7A7A" fill-opacity="0.15"/>
<path d="M56.8807 7L54.3467 8.60602L55.2303 10H56.8807V7ZM56.1886 24V21H54.6929L53.7928 22.1944L56.1886 24ZM206.688 24L209.084 22.1944L208.184 21H206.688V24ZM230.771 24V21H229.275L228.375 22.1944L230.771 24ZM381.27 24L383.666 22.1944L382.766 21H381.27V24ZM405.352 24V21H403.857L402.957 22.1944L405.352 24ZM555.852 24L558.248 22.1944L557.347 21H555.852V24ZM555.16 7V10H556.81L557.694 8.60602L555.16 7ZM406.045 7L403.511 8.60602L404.394 10H406.045V7ZM380.578 7V10H382.228L383.112 8.60602L380.578 7ZM231.463 7L228.929 8.60602L229.812 10H231.463V7ZM205.996 7V10H207.646L208.53 8.60602L205.996 7ZM44.1473 3C48.4411 3 52.2093 5.23368 54.3467 8.60602L59.4146 5.39398C56.2199 0.353645 50.5756 -3 44.1473 -3V3ZM32.0972 15C32.0972 8.38202 37.4828 3 44.1473 3V-3C34.188 -3 26.0972 5.04944 26.0972 15H32.0972ZM44.1473 27C37.4828 27 32.0972 21.618 32.0972 15H26.0972C26.0972 24.9506 34.188 33 44.1473 33V27ZM53.7928 22.1944C51.5909 25.1161 48.0919 27 44.1473 27V33C50.0505 33 55.2947 30.1706 58.5844 25.8056L53.7928 22.1944ZM206.688 21H56.1886V27H206.688V21ZM218.729 27C214.785 27 211.286 25.1161 209.084 22.1944L204.292 25.8056C207.582 30.1706 212.826 33 218.729 33V27ZM228.375 22.1944C226.173 25.1161 222.674 27 218.729 27V33C224.632 33 229.877 30.1706 233.166 25.8056L228.375 22.1944ZM381.27 21H230.771V27H381.27V21ZM378.874 25.8056C382.164 30.1706 387.408 33 393.311 33V27C389.367 27 385.868 25.1161 383.666 22.1944L378.874 25.8056ZM393.311 33C399.214 33 404.459 30.1706 407.748 25.8056L402.957 22.1944C400.755 25.1161 397.256 27 393.311 27V33ZM555.852 21H405.352V27H555.852V21ZM567.893 27C563.949 27 560.45 25.1161 558.248 22.1944L553.456 25.8056C556.746 30.1706 561.99 33 567.893 33V27ZM579.943 15C579.943 21.618 574.558 27 567.893 27V33C577.852 33 585.943 24.9506 585.943 15H579.943ZM567.893 3C574.558 3 579.943 8.38202 579.943 15H585.943C585.943 5.04943 577.852 -3 567.893 -3V3ZM557.694 8.60602C559.831 5.23369 563.599 3 567.893 3V-3C561.465 -3 555.82 0.353644 552.626 5.39398L557.694 8.60602ZM406.045 10H555.16V4H406.045V10ZM408.578 5.39398C405.384 0.353641 399.739 -3 393.311 -3V3C397.605 3 401.373 5.23369 403.511 8.60602L408.578 5.39398ZM393.311 -3C386.883 -3 381.239 0.353641 378.044 5.39398L383.112 8.60602C385.249 5.23369 389.017 3 393.311 3V-3ZM231.463 10H380.578V4H231.463V10ZM218.729 3C223.023 3 226.791 5.23369 228.929 8.60602L233.997 5.39398C230.802 0.353644 225.158 -3 218.729 -3V3ZM208.53 8.60602C210.667 5.23369 214.436 3 218.729 3V-3C212.301 -3 206.657 0.353644 203.462 5.39398L208.53 8.60602ZM56.8807 10H205.996V4H56.8807V10Z" fill="#7A7A7A" mask="url(#path-1-inside-1_20_4935)"/>
<ellipse cx="44.1473" cy="15" rx="15.0502" ry="15" fill="#69186B"/>
<path d="M44.5054 7.14307L44.5054 22.8574" stroke="white" stroke-width="4" stroke-linecap="round"/>
<path d="M37.6973 10.7144L37.6973 19.2858" stroke="white" stroke-width="4" stroke-linecap="round"/>
<path d="M51.3145 10.7144L51.3145 19.2858" stroke="white" stroke-width="4" stroke-linecap="round"/>
<path d="M541.478 43.507C542.301 43.507 543.03 43.6907 543.663 44.058C544.309 44.4127 544.809 44.9193 545.164 45.578C545.519 46.224 545.696 46.965 545.696 47.801C545.696 48.637 545.506 49.3843 545.126 50.043C544.759 50.7017 544.246 51.221 543.587 51.601C542.928 51.9683 542.181 52.152 541.345 52.152C539.711 52.152 538.451 51.582 537.564 50.442C536.677 49.302 536.234 47.6807 536.234 45.578C536.234 44.058 536.437 42.7533 536.842 41.664C537.26 40.5747 537.855 39.745 538.628 39.175C539.413 38.605 540.351 38.32 541.44 38.32C542.225 38.32 542.985 38.4657 543.72 38.757C544.467 39.0483 545.12 39.46 545.677 39.992L545.088 41.189C544.455 40.657 543.847 40.2643 543.264 40.011C542.681 39.7577 542.086 39.631 541.478 39.631C540.313 39.631 539.407 40.1503 538.761 41.189C538.115 42.2277 537.792 43.6843 537.792 45.559V45.844C538.083 45.122 538.558 44.552 539.217 44.134C539.876 43.716 540.629 43.507 541.478 43.507ZM541.269 50.841C542.13 50.841 542.827 50.5687 543.359 50.024C543.891 49.4667 544.157 48.732 544.157 47.82C544.157 46.9207 543.885 46.1987 543.34 45.654C542.808 45.0967 542.111 44.818 541.25 44.818C540.363 44.818 539.641 45.0967 539.084 45.654C538.527 46.2113 538.248 46.9333 538.248 47.82C538.248 48.7193 538.527 49.4477 539.084 50.005C539.641 50.5623 540.37 50.841 541.269 50.841ZM558.091 46.528V52H556.533V46.509L551.213 38.472H553.037L557.331 45.122L561.625 38.472H563.411L558.091 46.528ZM571.111 47.174H564.1C564.113 48.39 564.391 49.3083 564.936 49.929C565.493 50.5497 566.298 50.86 567.349 50.86C568.464 50.86 569.49 50.4863 570.427 49.739L570.94 50.86C570.522 51.2527 569.984 51.563 569.325 51.791C568.679 52.019 568.014 52.133 567.33 52.133C565.835 52.133 564.664 51.696 563.815 50.822C562.966 49.9353 562.542 48.7257 562.542 47.193C562.542 46.2177 562.732 45.3563 563.112 44.609C563.492 43.849 564.024 43.26 564.708 42.842C565.392 42.424 566.171 42.215 567.045 42.215C568.312 42.215 569.306 42.633 570.028 43.469C570.75 44.2923 571.111 45.4323 571.111 46.889V47.174ZM567.064 43.412C566.266 43.412 565.614 43.6527 565.107 44.134C564.613 44.6153 564.296 45.293 564.157 46.167H569.724C569.648 45.2677 569.382 44.5837 568.926 44.115C568.483 43.6463 567.862 43.412 567.064 43.412ZM581.864 42.443V52H580.344V50.271C580.065 50.8663 579.641 51.3287 579.071 51.658C578.514 51.9747 577.861 52.133 577.114 52.133C576.265 52.133 575.518 51.9303 574.872 51.525C574.239 51.1197 573.745 50.5497 573.39 49.815C573.048 49.0677 572.877 48.2 572.877 47.212C572.877 46.224 573.054 45.3563 573.409 44.609C573.764 43.849 574.258 43.26 574.891 42.842C575.537 42.424 576.278 42.215 577.114 42.215C577.861 42.215 578.514 42.3797 579.071 42.709C579.628 43.0383 580.053 43.5007 580.344 44.096V42.443H581.864ZM577.418 50.86C578.355 50.86 579.077 50.5433 579.584 49.91C580.091 49.264 580.344 48.352 580.344 47.174C580.344 45.996 580.091 45.0903 579.584 44.457C579.077 43.8237 578.355 43.507 577.418 43.507C576.481 43.507 575.746 43.8363 575.214 44.495C574.695 45.141 574.435 46.0467 574.435 47.212C574.435 48.3773 574.695 49.2767 575.214 49.91C575.733 50.5433 576.468 50.86 577.418 50.86ZM589.285 42.215C589.602 42.215 589.893 42.253 590.159 42.329L590.121 43.735C589.83 43.6337 589.494 43.583 589.114 43.583C588.19 43.583 587.499 43.8743 587.043 44.457C586.6 45.027 586.378 45.7237 586.378 46.547V52H584.839V45.122C584.839 44.134 584.789 43.241 584.687 42.443H586.15L586.302 44.21C586.543 43.564 586.929 43.07 587.461 42.728C587.993 42.386 588.601 42.215 589.285 42.215ZM594.86 52.133C593.252 52.133 591.979 51.7213 591.041 50.898L591.554 49.758C592.074 50.1633 592.599 50.4547 593.131 50.632C593.663 50.8093 594.259 50.898 594.917 50.898C595.639 50.898 596.184 50.7777 596.551 50.537C596.931 50.2837 597.121 49.9227 597.121 49.454C597.121 49.074 596.995 48.77 596.741 48.542C596.488 48.314 596.07 48.1367 595.487 48.01L593.872 47.63C593.074 47.4527 592.454 47.136 592.01 46.68C591.58 46.224 591.364 45.6793 591.364 45.046C591.364 44.21 591.7 43.5323 592.371 43.013C593.043 42.481 593.929 42.215 595.031 42.215C595.703 42.215 596.336 42.3227 596.931 42.538C597.527 42.7533 598.027 43.0637 598.432 43.469L597.919 44.59C597.02 43.8427 596.057 43.469 595.031 43.469C594.347 43.469 593.815 43.602 593.435 43.868C593.068 44.1213 592.884 44.4823 592.884 44.951C592.884 45.3437 592.998 45.654 593.226 45.882C593.467 46.11 593.847 46.2873 594.366 46.414L595.981 46.813C596.868 47.0157 597.527 47.3323 597.957 47.763C598.388 48.181 598.603 48.732 598.603 49.416C598.603 50.2393 598.268 50.898 597.596 51.392C596.925 51.886 596.013 52.133 594.86 52.133Z" fill="#7A7A7A"/>
<path d="M371.399 50.055H369.347V53H367.789V50.055H361.557V48.877L368.074 39.472H369.347V48.763H371.399V50.055ZM367.789 48.763V42.113L363.172 48.763H367.789ZM383.509 47.528V53H381.951V47.509L376.631 39.472H378.455L382.749 46.122L387.043 39.472H388.829L383.509 47.528ZM396.529 48.174H389.518C389.531 49.39 389.81 50.3083 390.354 50.929C390.912 51.5497 391.716 51.86 392.767 51.86C393.882 51.86 394.908 51.4863 395.845 50.739L396.358 51.86C395.94 52.2527 395.402 52.563 394.743 52.791C394.097 53.019 393.432 53.133 392.748 53.133C391.254 53.133 390.082 52.696 389.233 51.822C388.385 50.9353 387.96 49.7257 387.96 48.193C387.96 47.2177 388.15 46.3563 388.53 45.609C388.91 44.849 389.442 44.26 390.126 43.842C390.81 43.424 391.589 43.215 392.463 43.215C393.73 43.215 394.724 43.633 395.446 44.469C396.168 45.2923 396.529 46.4323 396.529 47.889V48.174ZM392.482 44.412C391.684 44.412 391.032 44.6527 390.525 45.134C390.031 45.6153 389.715 46.293 389.575 47.167H395.142C395.066 46.2677 394.8 45.5837 394.344 45.115C393.901 44.6463 393.28 44.412 392.482 44.412ZM407.282 43.443V53H405.762V51.271C405.484 51.8663 405.059 52.3287 404.489 52.658C403.932 52.9747 403.28 53.133 402.532 53.133C401.684 53.133 400.936 52.9303 400.29 52.525C399.657 52.1197 399.163 51.5497 398.808 50.815C398.466 50.0677 398.295 49.2 398.295 48.212C398.295 47.224 398.473 46.3563 398.827 45.609C399.182 44.849 399.676 44.26 400.309 43.842C400.955 43.424 401.696 43.215 402.532 43.215C403.28 43.215 403.932 43.3797 404.489 43.709C405.047 44.0383 405.471 44.5007 405.762 45.096V43.443H407.282ZM402.836 51.86C403.774 51.86 404.496 51.5433 405.002 50.91C405.509 50.264 405.762 49.352 405.762 48.174C405.762 46.996 405.509 46.0903 405.002 45.457C404.496 44.8237 403.774 44.507 402.836 44.507C401.899 44.507 401.164 44.8363 400.632 45.495C400.113 46.141 399.853 47.0467 399.853 48.212C399.853 49.3773 400.113 50.2767 400.632 50.91C401.152 51.5433 401.886 51.86 402.836 51.86ZM414.704 43.215C415.021 43.215 415.312 43.253 415.578 43.329L415.54 44.735C415.249 44.6337 414.913 44.583 414.533 44.583C413.608 44.583 412.918 44.8743 412.462 45.457C412.019 46.027 411.797 46.7237 411.797 47.547V53H410.258V46.122C410.258 45.134 410.207 44.241 410.106 43.443H411.569L411.721 45.21C411.962 44.564 412.348 44.07 412.88 43.728C413.412 43.386 414.02 43.215 414.704 43.215ZM420.279 53.133C418.67 53.133 417.397 52.7213 416.46 51.898L416.973 50.758C417.492 51.1633 418.018 51.4547 418.55 51.632C419.082 51.8093 419.677 51.898 420.336 51.898C421.058 51.898 421.603 51.7777 421.97 51.537C422.35 51.2837 422.54 50.9227 422.54 50.454C422.54 50.074 422.413 49.77 422.16 49.542C421.907 49.314 421.489 49.1367 420.906 49.01L419.291 48.63C418.493 48.4527 417.872 48.136 417.429 47.68C416.998 47.224 416.783 46.6793 416.783 46.046C416.783 45.21 417.119 44.5323 417.79 44.013C418.461 43.481 419.348 43.215 420.45 43.215C421.121 43.215 421.755 43.3227 422.35 43.538C422.945 43.7533 423.446 44.0637 423.851 44.469L423.338 45.59C422.439 44.8427 421.476 44.469 420.45 44.469C419.766 44.469 419.234 44.602 418.854 44.868C418.487 45.1213 418.303 45.4823 418.303 45.951C418.303 46.3437 418.417 46.654 418.645 46.882C418.886 47.11 419.266 47.2873 419.785 47.414L421.4 47.813C422.287 48.0157 422.945 48.3323 423.376 48.763C423.807 49.181 424.022 49.732 424.022 50.416C424.022 51.2393 423.686 51.898 423.015 52.392C422.344 52.886 421.432 53.133 420.279 53.133Z" fill="#7A7A7A"/>
<path d="M195.32 51.689V53H186.618V51.822L191.349 46.578C191.982 45.8687 192.445 45.229 192.736 44.659C193.027 44.089 193.173 43.519 193.173 42.949C193.173 42.2017 192.958 41.6317 192.527 41.239C192.096 40.8337 191.482 40.631 190.684 40.631C189.392 40.631 188.113 41.1503 186.846 42.189L186.257 40.992C186.789 40.4853 187.46 40.08 188.271 39.776C189.082 39.472 189.899 39.32 190.722 39.32C191.963 39.32 192.945 39.643 193.667 40.289C194.389 40.9223 194.75 41.7837 194.75 42.873C194.75 43.6457 194.573 44.393 194.218 45.115C193.876 45.8243 193.3 46.6223 192.489 47.509L188.632 51.689H195.32ZM207.924 47.528V53H206.366V47.509L201.046 39.472H202.87L207.164 46.122L211.458 39.472H213.244L207.924 47.528ZM220.944 48.174H213.933C213.946 49.39 214.224 50.3083 214.769 50.929C215.326 51.5497 216.131 51.86 217.182 51.86C218.297 51.86 219.323 51.4863 220.26 50.739L220.773 51.86C220.355 52.2527 219.817 52.563 219.158 52.791C218.512 53.019 217.847 53.133 217.163 53.133C215.668 53.133 214.497 52.696 213.648 51.822C212.799 50.9353 212.375 49.7257 212.375 48.193C212.375 47.2177 212.565 46.3563 212.945 45.609C213.325 44.849 213.857 44.26 214.541 43.842C215.225 43.424 216.004 43.215 216.878 43.215C218.145 43.215 219.139 43.633 219.861 44.469C220.583 45.2923 220.944 46.4323 220.944 47.889V48.174ZM216.897 44.412C216.099 44.412 215.447 44.6527 214.94 45.134C214.446 45.6153 214.129 46.293 213.99 47.167H219.557C219.481 46.2677 219.215 45.5837 218.759 45.115C218.316 44.6463 217.695 44.412 216.897 44.412ZM231.697 43.443V53H230.177V51.271C229.898 51.8663 229.474 52.3287 228.904 52.658C228.347 52.9747 227.694 53.133 226.947 53.133C226.098 53.133 225.351 52.9303 224.705 52.525C224.072 52.1197 223.578 51.5497 223.223 50.815C222.881 50.0677 222.71 49.2 222.71 48.212C222.71 47.224 222.887 46.3563 223.242 45.609C223.597 44.849 224.091 44.26 224.724 43.842C225.37 43.424 226.111 43.215 226.947 43.215C227.694 43.215 228.347 43.3797 228.904 43.709C229.461 44.0383 229.886 44.5007 230.177 45.096V43.443H231.697ZM227.251 51.86C228.188 51.86 228.91 51.5433 229.417 50.91C229.924 50.264 230.177 49.352 230.177 48.174C230.177 46.996 229.924 46.0903 229.417 45.457C228.91 44.8237 228.188 44.507 227.251 44.507C226.314 44.507 225.579 44.8363 225.047 45.495C224.528 46.141 224.268 47.0467 224.268 48.212C224.268 49.3773 224.528 50.2767 225.047 50.91C225.566 51.5433 226.301 51.86 227.251 51.86ZM239.118 43.215C239.435 43.215 239.726 43.253 239.992 43.329L239.954 44.735C239.663 44.6337 239.327 44.583 238.947 44.583C238.023 44.583 237.332 44.8743 236.876 45.457C236.433 46.027 236.211 46.7237 236.211 47.547V53H234.672V46.122C234.672 45.134 234.622 44.241 234.52 43.443H235.983L236.135 45.21C236.376 44.564 236.762 44.07 237.294 43.728C237.826 43.386 238.434 43.215 239.118 43.215ZM244.693 53.133C243.085 53.133 241.812 52.7213 240.874 51.898L241.387 50.758C241.907 51.1633 242.432 51.4547 242.964 51.632C243.496 51.8093 244.092 51.898 244.75 51.898C245.472 51.898 246.017 51.7777 246.384 51.537C246.764 51.2837 246.954 50.9227 246.954 50.454C246.954 50.074 246.828 49.77 246.574 49.542C246.321 49.314 245.903 49.1367 245.32 49.01L243.705 48.63C242.907 48.4527 242.287 48.136 241.843 47.68C241.413 47.224 241.197 46.6793 241.197 46.046C241.197 45.21 241.533 44.5323 242.204 44.013C242.876 43.481 243.762 43.215 244.864 43.215C245.536 43.215 246.169 43.3227 246.764 43.538C247.36 43.7533 247.86 44.0637 248.265 44.469L247.752 45.59C246.853 44.8427 245.89 44.469 244.864 44.469C244.18 44.469 243.648 44.602 243.268 44.868C242.901 45.1213 242.717 45.4823 242.717 45.951C242.717 46.3437 242.831 46.654 243.059 46.882C243.3 47.11 243.68 47.2873 244.199 47.414L245.814 47.813C246.701 48.0157 247.36 48.3323 247.79 48.763C248.221 49.181 248.436 49.732 248.436 50.416C248.436 51.2393 248.101 51.898 247.429 52.392C246.758 52.886 245.846 53.133 244.693 53.133Z" fill="#7A7A7A"/>
<path d="M10.9935 48.827H4.38146L3.01346 52H0.543457L6.66146 38.472H8.65646L14.7935 52H12.3425L10.9935 48.827ZM10.1765 46.927L7.68746 41.132L5.19846 46.927H10.1765ZM18.8467 44.191V48.485C18.8467 49.6123 19.3724 50.176 20.4237 50.176C20.715 50.176 21.0317 50.1253 21.3737 50.024V51.905C20.9557 52.057 20.449 52.133 19.8537 52.133C18.7644 52.133 17.9284 51.829 17.3457 51.221C16.763 50.613 16.4717 49.739 16.4717 48.599V44.191H14.6287V42.405H16.4717V40.068L18.8467 39.27V42.405H21.3927V44.191H18.8467ZM36.7318 45.008C37.5171 45.236 38.1188 45.635 38.5368 46.205C38.9674 46.775 39.1828 47.478 39.1828 48.314C39.1828 49.4667 38.7711 50.3723 37.9478 51.031C37.1371 51.677 36.0034 52 34.5468 52H28.4098V38.472H34.3568C35.7501 38.472 36.8458 38.7887 37.6438 39.422C38.4418 40.0427 38.8408 40.904 38.8408 42.006C38.8408 42.7153 38.6508 43.336 38.2708 43.868C37.9034 44.3873 37.3904 44.7673 36.7318 45.008ZM30.8038 44.172H33.9578C35.6551 44.172 36.5038 43.5387 36.5038 42.272C36.5038 41.6387 36.2948 41.1637 35.8768 40.847C35.4588 40.5303 34.8191 40.372 33.9578 40.372H30.8038V44.172ZM34.2808 50.1C35.1674 50.1 35.8134 49.9417 36.2188 49.625C36.6368 49.3083 36.8458 48.808 36.8458 48.124C36.8458 47.4273 36.6368 46.9143 36.2188 46.585C35.8134 46.2557 35.1674 46.091 34.2808 46.091H30.8038V50.1H34.2808ZM41.3569 42.405H43.7129V52H41.3569V42.405ZM43.8459 38.054V40.391H41.2049V38.054H43.8459ZM50.662 52.152C49.6867 52.152 48.8254 51.9493 48.078 51.544C47.3434 51.1387 46.7734 50.5623 46.368 49.815C45.9754 49.055 45.779 48.1683 45.779 47.155C45.779 46.1417 45.9754 45.2613 46.368 44.514C46.7734 43.754 47.3434 43.1713 48.078 42.766C48.8254 42.3607 49.6867 42.158 50.662 42.158C51.6247 42.158 52.4734 42.3607 53.208 42.766C53.9427 43.1713 54.5064 43.754 54.899 44.514C55.3044 45.2613 55.507 46.1417 55.507 47.155C55.507 48.1683 55.3044 49.055 54.899 49.815C54.5064 50.5623 53.9427 51.1387 53.208 51.544C52.4734 51.9493 51.6247 52.152 50.662 52.152ZM50.643 50.29C51.4537 50.29 52.068 50.0303 52.486 49.511C52.9167 48.979 53.132 48.1937 53.132 47.155C53.132 46.129 52.9167 45.35 52.486 44.818C52.0554 44.2733 51.4474 44.001 50.662 44.001C49.864 44.001 49.2497 44.2733 48.819 44.818C48.3884 45.35 48.173 46.129 48.173 47.155C48.173 48.1937 48.382 48.979 48.8 49.511C49.2307 50.0303 49.845 50.29 50.643 50.29ZM63.0272 42.158C63.8505 42.158 64.5789 42.3733 65.2122 42.804C65.8582 43.222 66.3585 43.8173 66.7132 44.59C67.0805 45.35 67.2642 46.224 67.2642 47.212C67.2642 48.2 67.0869 49.0677 66.7322 49.815C66.3775 50.5623 65.8772 51.1387 65.2312 51.544C64.5979 51.9493 63.8632 52.152 63.0272 52.152C62.3305 52.152 61.7099 52.0063 61.1652 51.715C60.6205 51.411 60.2025 50.993 59.9112 50.461V56.104H57.5552V45.122C57.5552 44.1087 57.5045 43.203 57.4032 42.405H59.6262L59.8162 44.058C60.0695 43.4627 60.4812 43.0003 61.0512 42.671C61.6212 42.329 62.2799 42.158 63.0272 42.158ZM62.3812 50.29C63.1792 50.29 63.7935 50.024 64.2242 49.492C64.6549 48.96 64.8702 48.2 64.8702 47.212C64.8702 46.2113 64.6549 45.4323 64.2242 44.875C63.7935 44.305 63.1855 44.02 62.4002 44.02C61.5895 44.02 60.9689 44.2923 60.5382 44.837C60.1075 45.3817 59.8922 46.1607 59.8922 47.174C59.8922 48.1747 60.1075 48.9473 60.5382 49.492C60.9689 50.024 61.5832 50.29 62.3812 50.29ZM72.8524 52.152C71.1171 52.152 69.7364 51.7467 68.7104 50.936L69.3754 49.264C70.4014 50.024 71.5731 50.404 72.8904 50.404C73.4604 50.404 73.8974 50.309 74.2014 50.119C74.5181 49.929 74.6764 49.663 74.6764 49.321C74.6764 49.0297 74.5687 48.8017 74.3534 48.637C74.1381 48.4597 73.7707 48.3077 73.2514 48.181L71.6554 47.82C69.9074 47.44 69.0334 46.547 69.0334 45.141C69.0334 44.5583 69.1981 44.0453 69.5274 43.602C69.8567 43.146 70.3191 42.7913 70.9144 42.538C71.5097 42.2847 72.2001 42.158 72.9854 42.158C73.6694 42.158 74.3281 42.2657 74.9614 42.481C75.5947 42.6837 76.1521 42.9813 76.6334 43.374L75.9304 44.989C74.9677 44.2797 73.9797 43.925 72.9664 43.925C72.4217 43.925 71.9974 44.0263 71.6934 44.229C71.3894 44.4317 71.2374 44.7103 71.2374 45.065C71.2374 45.3437 71.3261 45.5653 71.5034 45.73C71.6934 45.8947 72.0101 46.034 72.4534 46.148L74.0874 46.509C75.0374 46.7243 75.7277 47.06 76.1584 47.516C76.6017 47.9593 76.8234 48.542 76.8234 49.264C76.8234 50.1507 76.4687 50.8537 75.7594 51.373C75.0501 51.8923 74.0811 52.152 72.8524 52.152ZM87.8081 42.405L83.3431 52.646C82.8364 53.8367 82.1904 54.7043 81.4051 55.249C80.6197 55.7937 79.6507 56.1547 78.4981 56.332L77.9661 54.508C78.8654 54.3053 79.5367 54.0457 79.9801 53.729C80.4361 53.425 80.8034 52.969 81.0821 52.361L81.3861 51.658L77.3961 42.405H79.8851L82.6401 49.302L85.4521 42.405H87.8081Z" fill="#69186B"/>
</svg>
